M48
; DRILL file {KiCad (5.1.4)-1} date 31/07/2020 00:20:27
; FORMAT={-:-/ absolute / inch / decimal}
; #@! TF.CreationDate,2020-07-31T00:20:27-03:00
; #@! TF.GenerationSoftware,Kicad,Pcbnew,(5.1.4)-1
; #@! TF.FileFunction,Plated,1,2,PTH
FMAT,2
INCH
T1C0.0157
T2C0.0315
T3C0.0394
%
G90
G05
T1
X3.88Y-2.49
X3.91Y-2.76
X4.115Y-2.235
X4.12Y-2.295
X4.235Y-2.575
X4.24Y-2.385
X4.29Y-3.28
X4.35Y-2.435
X4.4Y-3.28
X4.435Y-2.545
X4.485Y-2.385
X4.485Y-3.19
X4.5Y-2.575
X4.635Y-2.475
X4.685Y-2.475
X5.135Y-2.83
X5.17Y-2.9085
X5.175Y-2.825
X5.215Y-3.705
X5.24Y-2.825
X5.3228Y-2.8272
X5.345Y-3.685
X5.38Y-3.735
X5.47Y-3.075
X5.475Y-2.825
X5.67Y-2.5385
X6.3902Y-3.6598
X6.48Y-3.025
T2
X4.2Y-2.97
X4.2Y-3.57
X4.3Y-2.97
X4.3Y-3.57
X4.4Y-2.97
X4.4Y-3.57
X4.5Y-2.97
X4.5Y-3.57
X4.6Y-2.97
X4.6Y-3.57
X4.7Y-2.97
X4.7Y-3.57
X4.8Y-2.97
X4.8Y-3.57
X4.9Y-2.97
X4.9Y-3.57
X5.0Y-2.97
X5.0Y-3.57
X5.1Y-2.97
X5.1Y-3.57
X5.2Y-2.97
X5.2Y-3.57
X5.3Y-2.97
X5.3Y-3.57
X5.4Y-2.97
X5.4Y-3.57
X5.5Y-2.97
X5.5Y-3.57
X5.6Y-2.97
X5.6Y-3.57
X5.7Y-2.97
X5.7Y-3.57
X5.8Y-2.97
X5.8Y-3.57
X5.9Y-2.97
X5.9Y-3.57
X6.0Y-2.97
X6.0Y-3.57
X6.1Y-2.97
X6.1Y-3.57
X6.2Y-2.97
X6.2Y-3.57
X5.075Y-2.305
X5.075Y-2.605
X5.175Y-2.305
X5.175Y-2.605
X5.275Y-2.305
X5.275Y-2.605
X5.375Y-2.305
X5.375Y-2.605
X5.475Y-2.305
X5.475Y-2.605
X5.575Y-2.305
X5.575Y-2.605
X5.675Y-2.305
X5.675Y-2.605
X5.775Y-2.305
X5.775Y-2.605
X3.665Y-2.29
X3.665Y-2.39
X3.665Y-2.49
X3.665Y-2.59
X3.965Y-2.29
X3.965Y-2.39
X3.965Y-2.49
X3.965Y-2.59
X5.985Y-2.305
X5.985Y-2.605
X6.085Y-2.305
X6.085Y-2.605
X6.185Y-2.305
X6.185Y-2.605
X6.285Y-2.305
X6.285Y-2.605
X6.385Y-2.305
X6.385Y-2.605
X6.485Y-2.305
X6.485Y-2.605
X6.585Y-2.305
X6.585Y-2.605
T3
X6.725Y-2.64
X6.725Y-2.74
X6.58Y-3.77
X6.68Y-3.77
X3.63Y-4.04
X3.73Y-4.04
X3.83Y-4.04
X3.93Y-4.04
X4.03Y-4.04
X4.13Y-4.04
X4.23Y-4.04
X4.33Y-4.04
X4.43Y-4.04
X4.53Y-4.04
X4.63Y-4.04
X4.73Y-4.04
X4.83Y-4.04
X4.93Y-4.04
X5.03Y-4.04
X5.13Y-4.04
X5.23Y-4.04
X5.33Y-4.04
X5.43Y-4.04
X5.53Y-4.04
X5.63Y-4.04
X5.73Y-4.04
X5.83Y-4.04
X5.93Y-4.04
X6.03Y-4.04
X6.13Y-4.04
X6.23Y-4.04
X6.33Y-4.04
X6.43Y-4.04
X6.53Y-4.04
X6.63Y-4.04
X6.73Y-4.04
X3.63Y-3.77
X3.73Y-3.77
X3.58Y-3.93
X3.68Y-3.93
X3.78Y-3.93
X3.88Y-3.93
X3.98Y-3.93
X4.08Y-3.93
X4.18Y-3.93
X4.28Y-3.93
X4.38Y-3.93
X4.48Y-3.93
X4.58Y-3.93
X4.68Y-3.93
X4.78Y-3.93
X4.88Y-3.93
X4.98Y-3.93
X5.08Y-3.93
X5.18Y-3.93
X5.28Y-3.93
X5.38Y-3.93
X5.48Y-3.93
X5.58Y-3.93
X5.68Y-3.93
X5.78Y-3.93
X5.88Y-3.93
X5.98Y-3.93
X6.08Y-3.93
X6.18Y-3.93
X6.28Y-3.93
X6.38Y-3.93
X6.48Y-3.93
X6.58Y-3.93
X6.68Y-3.93
T0
M30
