G04 #@! TF.GenerationSoftware,KiCad,Pcbnew,(5.1.4)-1*
G04 #@! TF.CreationDate,2020-08-02T04:53:09-03:00*
G04 #@! TF.ProjectId,Cart_FeRAM,43617274-5f46-4655-9241-4d2e6b696361,rev?*
G04 #@! TF.SameCoordinates,Original*
G04 #@! TF.FileFunction,Legend,Bot*
G04 #@! TF.FilePolarity,Positive*
%FSLAX46Y46*%
G04 Gerber Fmt 4.6, Leading zero omitted, Abs format (unit mm)*
G04 Created by KiCad (PCBNEW (5.1.4)-1) date 2020-08-02 04:53:09*
%MOMM*%
%LPD*%
G04 APERTURE LIST*
%ADD10C,0.100000*%
%ADD11C,0.120000*%
%ADD12C,0.150000*%
G04 APERTURE END LIST*
D10*
X92575000Y-105145666D02*
X92241666Y-105145666D01*
X92641666Y-105345666D02*
X92408333Y-104645666D01*
X92175000Y-105345666D01*
X91575000Y-105345666D02*
X91975000Y-105345666D01*
X91775000Y-105345666D02*
X91775000Y-104645666D01*
X91841666Y-104745666D01*
X91908333Y-104812333D01*
X91975000Y-104845666D01*
X171648333Y-105145666D02*
X171315000Y-105145666D01*
X171715000Y-105345666D02*
X171481666Y-104645666D01*
X171248333Y-105345666D01*
X171081666Y-104645666D02*
X170648333Y-104645666D01*
X170881666Y-104912333D01*
X170781666Y-104912333D01*
X170715000Y-104945666D01*
X170681666Y-104979000D01*
X170648333Y-105045666D01*
X170648333Y-105212333D01*
X170681666Y-105279000D01*
X170715000Y-105312333D01*
X170781666Y-105345666D01*
X170981666Y-105345666D01*
X171048333Y-105312333D01*
X171081666Y-105279000D01*
X170381666Y-104712333D02*
X170348333Y-104679000D01*
X170281666Y-104645666D01*
X170115000Y-104645666D01*
X170048333Y-104679000D01*
X170015000Y-104712333D01*
X169981666Y-104779000D01*
X169981666Y-104845666D01*
X170015000Y-104945666D01*
X170415000Y-105345666D01*
X169981666Y-105345666D01*
D11*
X125494000Y-61230000D02*
X121394000Y-61230000D01*
X121394000Y-61230000D02*
X121394000Y-63230000D01*
X121394000Y-63230000D02*
X125494000Y-63230000D01*
X125494000Y-63230000D02*
X125494000Y-61230000D01*
X124744000Y-63430000D02*
X125044000Y-63730000D01*
X125044000Y-63730000D02*
X124444000Y-63730000D01*
X124744000Y-63430000D02*
X124444000Y-63730000D01*
D12*
X124277333Y-59882380D02*
X124277333Y-60596666D01*
X124324952Y-60739523D01*
X124420190Y-60834761D01*
X124563047Y-60882380D01*
X124658285Y-60882380D01*
X123801142Y-60882380D02*
X123801142Y-59882380D01*
X123420190Y-59882380D01*
X123324952Y-59930000D01*
X123277333Y-59977619D01*
X123229714Y-60072857D01*
X123229714Y-60215714D01*
X123277333Y-60310952D01*
X123324952Y-60358571D01*
X123420190Y-60406190D01*
X123801142Y-60406190D01*
X122277333Y-60882380D02*
X122848761Y-60882380D01*
X122563047Y-60882380D02*
X122563047Y-59882380D01*
X122658285Y-60025238D01*
X122753523Y-60120476D01*
X122848761Y-60168095D01*
M02*
