G04 #@! TF.GenerationSoftware,KiCad,Pcbnew,(5.1.4)-1*
G04 #@! TF.CreationDate,2020-07-31T00:20:29-03:00*
G04 #@! TF.ProjectId,Cart_FeRAM,43617274-5f46-4655-9241-4d2e6b696361,rev?*
G04 #@! TF.SameCoordinates,Original*
G04 #@! TF.FileFunction,Soldermask,Bot*
G04 #@! TF.FilePolarity,Negative*
%FSLAX46Y46*%
G04 Gerber Fmt 4.6, Leading zero omitted, Abs format (unit mm)*
G04 Created by KiCad (PCBNEW (5.1.4)-1) date 2020-07-31 00:20:29*
%MOMM*%
%LPD*%
G04 APERTURE LIST*
%ADD10C,0.100000*%
G04 APERTURE END LIST*
D10*
G36*
X89535000Y-105918000D02*
G01*
X173355000Y-105918000D01*
X173355000Y-112903000D01*
X172085000Y-114173000D01*
X90805000Y-114173000D01*
X89535000Y-112903000D01*
X89535000Y-105918000D01*
G37*
X89535000Y-105918000D02*
X173355000Y-105918000D01*
X173355000Y-112903000D01*
X172085000Y-114173000D01*
X90805000Y-114173000D01*
X89535000Y-112903000D01*
X89535000Y-105918000D01*
G36*
X120252443Y-101721519D02*
G01*
X120318627Y-101728037D01*
X120488466Y-101779557D01*
X120644991Y-101863222D01*
X120680729Y-101892552D01*
X120782186Y-101975814D01*
X120865448Y-102077271D01*
X120894778Y-102113009D01*
X120978443Y-102269534D01*
X121029963Y-102439373D01*
X121047359Y-102616000D01*
X121029963Y-102792627D01*
X120978443Y-102962466D01*
X120894778Y-103118991D01*
X120865448Y-103154729D01*
X120782186Y-103256186D01*
X120680729Y-103339448D01*
X120644991Y-103368778D01*
X120488466Y-103452443D01*
X120318627Y-103503963D01*
X120252443Y-103510481D01*
X120186260Y-103517000D01*
X120097740Y-103517000D01*
X120031558Y-103510482D01*
X119965373Y-103503963D01*
X119795534Y-103452443D01*
X119639009Y-103368778D01*
X119603271Y-103339448D01*
X119501814Y-103256186D01*
X119418552Y-103154729D01*
X119389222Y-103118991D01*
X119305557Y-102962466D01*
X119254037Y-102792627D01*
X119236641Y-102616000D01*
X119254037Y-102439373D01*
X119305557Y-102269534D01*
X119389222Y-102113009D01*
X119418552Y-102077271D01*
X119501814Y-101975814D01*
X119603271Y-101892552D01*
X119639009Y-101863222D01*
X119795534Y-101779557D01*
X119965373Y-101728037D01*
X120031558Y-101721518D01*
X120097740Y-101715000D01*
X120186260Y-101715000D01*
X120252443Y-101721519D01*
X120252443Y-101721519D01*
G37*
G36*
X143112443Y-101721519D02*
G01*
X143178627Y-101728037D01*
X143348466Y-101779557D01*
X143504991Y-101863222D01*
X143540729Y-101892552D01*
X143642186Y-101975814D01*
X143725448Y-102077271D01*
X143754778Y-102113009D01*
X143838443Y-102269534D01*
X143889963Y-102439373D01*
X143907359Y-102616000D01*
X143889963Y-102792627D01*
X143838443Y-102962466D01*
X143754778Y-103118991D01*
X143725448Y-103154729D01*
X143642186Y-103256186D01*
X143540729Y-103339448D01*
X143504991Y-103368778D01*
X143348466Y-103452443D01*
X143178627Y-103503963D01*
X143112443Y-103510481D01*
X143046260Y-103517000D01*
X142957740Y-103517000D01*
X142891558Y-103510482D01*
X142825373Y-103503963D01*
X142655534Y-103452443D01*
X142499009Y-103368778D01*
X142463271Y-103339448D01*
X142361814Y-103256186D01*
X142278552Y-103154729D01*
X142249222Y-103118991D01*
X142165557Y-102962466D01*
X142114037Y-102792627D01*
X142096641Y-102616000D01*
X142114037Y-102439373D01*
X142165557Y-102269534D01*
X142249222Y-102113009D01*
X142278552Y-102077271D01*
X142361814Y-101975814D01*
X142463271Y-101892552D01*
X142499009Y-101863222D01*
X142655534Y-101779557D01*
X142825373Y-101728037D01*
X142891558Y-101721518D01*
X142957740Y-101715000D01*
X143046260Y-101715000D01*
X143112443Y-101721519D01*
X143112443Y-101721519D01*
G37*
G36*
X140572443Y-101721519D02*
G01*
X140638627Y-101728037D01*
X140808466Y-101779557D01*
X140964991Y-101863222D01*
X141000729Y-101892552D01*
X141102186Y-101975814D01*
X141185448Y-102077271D01*
X141214778Y-102113009D01*
X141298443Y-102269534D01*
X141349963Y-102439373D01*
X141367359Y-102616000D01*
X141349963Y-102792627D01*
X141298443Y-102962466D01*
X141214778Y-103118991D01*
X141185448Y-103154729D01*
X141102186Y-103256186D01*
X141000729Y-103339448D01*
X140964991Y-103368778D01*
X140808466Y-103452443D01*
X140638627Y-103503963D01*
X140572443Y-103510481D01*
X140506260Y-103517000D01*
X140417740Y-103517000D01*
X140351558Y-103510482D01*
X140285373Y-103503963D01*
X140115534Y-103452443D01*
X139959009Y-103368778D01*
X139923271Y-103339448D01*
X139821814Y-103256186D01*
X139738552Y-103154729D01*
X139709222Y-103118991D01*
X139625557Y-102962466D01*
X139574037Y-102792627D01*
X139556641Y-102616000D01*
X139574037Y-102439373D01*
X139625557Y-102269534D01*
X139709222Y-102113009D01*
X139738552Y-102077271D01*
X139821814Y-101975814D01*
X139923271Y-101892552D01*
X139959009Y-101863222D01*
X140115534Y-101779557D01*
X140285373Y-101728037D01*
X140351558Y-101721518D01*
X140417740Y-101715000D01*
X140506260Y-101715000D01*
X140572443Y-101721519D01*
X140572443Y-101721519D01*
G37*
G36*
X138032443Y-101721519D02*
G01*
X138098627Y-101728037D01*
X138268466Y-101779557D01*
X138424991Y-101863222D01*
X138460729Y-101892552D01*
X138562186Y-101975814D01*
X138645448Y-102077271D01*
X138674778Y-102113009D01*
X138758443Y-102269534D01*
X138809963Y-102439373D01*
X138827359Y-102616000D01*
X138809963Y-102792627D01*
X138758443Y-102962466D01*
X138674778Y-103118991D01*
X138645448Y-103154729D01*
X138562186Y-103256186D01*
X138460729Y-103339448D01*
X138424991Y-103368778D01*
X138268466Y-103452443D01*
X138098627Y-103503963D01*
X138032443Y-103510481D01*
X137966260Y-103517000D01*
X137877740Y-103517000D01*
X137811558Y-103510482D01*
X137745373Y-103503963D01*
X137575534Y-103452443D01*
X137419009Y-103368778D01*
X137383271Y-103339448D01*
X137281814Y-103256186D01*
X137198552Y-103154729D01*
X137169222Y-103118991D01*
X137085557Y-102962466D01*
X137034037Y-102792627D01*
X137016641Y-102616000D01*
X137034037Y-102439373D01*
X137085557Y-102269534D01*
X137169222Y-102113009D01*
X137198552Y-102077271D01*
X137281814Y-101975814D01*
X137383271Y-101892552D01*
X137419009Y-101863222D01*
X137575534Y-101779557D01*
X137745373Y-101728037D01*
X137811558Y-101721518D01*
X137877740Y-101715000D01*
X137966260Y-101715000D01*
X138032443Y-101721519D01*
X138032443Y-101721519D01*
G37*
G36*
X135492443Y-101721519D02*
G01*
X135558627Y-101728037D01*
X135728466Y-101779557D01*
X135884991Y-101863222D01*
X135920729Y-101892552D01*
X136022186Y-101975814D01*
X136105448Y-102077271D01*
X136134778Y-102113009D01*
X136218443Y-102269534D01*
X136269963Y-102439373D01*
X136287359Y-102616000D01*
X136269963Y-102792627D01*
X136218443Y-102962466D01*
X136134778Y-103118991D01*
X136105448Y-103154729D01*
X136022186Y-103256186D01*
X135920729Y-103339448D01*
X135884991Y-103368778D01*
X135728466Y-103452443D01*
X135558627Y-103503963D01*
X135492443Y-103510481D01*
X135426260Y-103517000D01*
X135337740Y-103517000D01*
X135271558Y-103510482D01*
X135205373Y-103503963D01*
X135035534Y-103452443D01*
X134879009Y-103368778D01*
X134843271Y-103339448D01*
X134741814Y-103256186D01*
X134658552Y-103154729D01*
X134629222Y-103118991D01*
X134545557Y-102962466D01*
X134494037Y-102792627D01*
X134476641Y-102616000D01*
X134494037Y-102439373D01*
X134545557Y-102269534D01*
X134629222Y-102113009D01*
X134658552Y-102077271D01*
X134741814Y-101975814D01*
X134843271Y-101892552D01*
X134879009Y-101863222D01*
X135035534Y-101779557D01*
X135205373Y-101728037D01*
X135271558Y-101721518D01*
X135337740Y-101715000D01*
X135426260Y-101715000D01*
X135492443Y-101721519D01*
X135492443Y-101721519D01*
G37*
G36*
X132952443Y-101721519D02*
G01*
X133018627Y-101728037D01*
X133188466Y-101779557D01*
X133344991Y-101863222D01*
X133380729Y-101892552D01*
X133482186Y-101975814D01*
X133565448Y-102077271D01*
X133594778Y-102113009D01*
X133678443Y-102269534D01*
X133729963Y-102439373D01*
X133747359Y-102616000D01*
X133729963Y-102792627D01*
X133678443Y-102962466D01*
X133594778Y-103118991D01*
X133565448Y-103154729D01*
X133482186Y-103256186D01*
X133380729Y-103339448D01*
X133344991Y-103368778D01*
X133188466Y-103452443D01*
X133018627Y-103503963D01*
X132952443Y-103510481D01*
X132886260Y-103517000D01*
X132797740Y-103517000D01*
X132731558Y-103510482D01*
X132665373Y-103503963D01*
X132495534Y-103452443D01*
X132339009Y-103368778D01*
X132303271Y-103339448D01*
X132201814Y-103256186D01*
X132118552Y-103154729D01*
X132089222Y-103118991D01*
X132005557Y-102962466D01*
X131954037Y-102792627D01*
X131936641Y-102616000D01*
X131954037Y-102439373D01*
X132005557Y-102269534D01*
X132089222Y-102113009D01*
X132118552Y-102077271D01*
X132201814Y-101975814D01*
X132303271Y-101892552D01*
X132339009Y-101863222D01*
X132495534Y-101779557D01*
X132665373Y-101728037D01*
X132731558Y-101721518D01*
X132797740Y-101715000D01*
X132886260Y-101715000D01*
X132952443Y-101721519D01*
X132952443Y-101721519D01*
G37*
G36*
X130412443Y-101721519D02*
G01*
X130478627Y-101728037D01*
X130648466Y-101779557D01*
X130804991Y-101863222D01*
X130840729Y-101892552D01*
X130942186Y-101975814D01*
X131025448Y-102077271D01*
X131054778Y-102113009D01*
X131138443Y-102269534D01*
X131189963Y-102439373D01*
X131207359Y-102616000D01*
X131189963Y-102792627D01*
X131138443Y-102962466D01*
X131054778Y-103118991D01*
X131025448Y-103154729D01*
X130942186Y-103256186D01*
X130840729Y-103339448D01*
X130804991Y-103368778D01*
X130648466Y-103452443D01*
X130478627Y-103503963D01*
X130412443Y-103510481D01*
X130346260Y-103517000D01*
X130257740Y-103517000D01*
X130191558Y-103510482D01*
X130125373Y-103503963D01*
X129955534Y-103452443D01*
X129799009Y-103368778D01*
X129763271Y-103339448D01*
X129661814Y-103256186D01*
X129578552Y-103154729D01*
X129549222Y-103118991D01*
X129465557Y-102962466D01*
X129414037Y-102792627D01*
X129396641Y-102616000D01*
X129414037Y-102439373D01*
X129465557Y-102269534D01*
X129549222Y-102113009D01*
X129578552Y-102077271D01*
X129661814Y-101975814D01*
X129763271Y-101892552D01*
X129799009Y-101863222D01*
X129955534Y-101779557D01*
X130125373Y-101728037D01*
X130191558Y-101721518D01*
X130257740Y-101715000D01*
X130346260Y-101715000D01*
X130412443Y-101721519D01*
X130412443Y-101721519D01*
G37*
G36*
X127872443Y-101721519D02*
G01*
X127938627Y-101728037D01*
X128108466Y-101779557D01*
X128264991Y-101863222D01*
X128300729Y-101892552D01*
X128402186Y-101975814D01*
X128485448Y-102077271D01*
X128514778Y-102113009D01*
X128598443Y-102269534D01*
X128649963Y-102439373D01*
X128667359Y-102616000D01*
X128649963Y-102792627D01*
X128598443Y-102962466D01*
X128514778Y-103118991D01*
X128485448Y-103154729D01*
X128402186Y-103256186D01*
X128300729Y-103339448D01*
X128264991Y-103368778D01*
X128108466Y-103452443D01*
X127938627Y-103503963D01*
X127872443Y-103510481D01*
X127806260Y-103517000D01*
X127717740Y-103517000D01*
X127651558Y-103510482D01*
X127585373Y-103503963D01*
X127415534Y-103452443D01*
X127259009Y-103368778D01*
X127223271Y-103339448D01*
X127121814Y-103256186D01*
X127038552Y-103154729D01*
X127009222Y-103118991D01*
X126925557Y-102962466D01*
X126874037Y-102792627D01*
X126856641Y-102616000D01*
X126874037Y-102439373D01*
X126925557Y-102269534D01*
X127009222Y-102113009D01*
X127038552Y-102077271D01*
X127121814Y-101975814D01*
X127223271Y-101892552D01*
X127259009Y-101863222D01*
X127415534Y-101779557D01*
X127585373Y-101728037D01*
X127651558Y-101721518D01*
X127717740Y-101715000D01*
X127806260Y-101715000D01*
X127872443Y-101721519D01*
X127872443Y-101721519D01*
G37*
G36*
X125332443Y-101721519D02*
G01*
X125398627Y-101728037D01*
X125568466Y-101779557D01*
X125724991Y-101863222D01*
X125760729Y-101892552D01*
X125862186Y-101975814D01*
X125945448Y-102077271D01*
X125974778Y-102113009D01*
X126058443Y-102269534D01*
X126109963Y-102439373D01*
X126127359Y-102616000D01*
X126109963Y-102792627D01*
X126058443Y-102962466D01*
X125974778Y-103118991D01*
X125945448Y-103154729D01*
X125862186Y-103256186D01*
X125760729Y-103339448D01*
X125724991Y-103368778D01*
X125568466Y-103452443D01*
X125398627Y-103503963D01*
X125332443Y-103510481D01*
X125266260Y-103517000D01*
X125177740Y-103517000D01*
X125111558Y-103510482D01*
X125045373Y-103503963D01*
X124875534Y-103452443D01*
X124719009Y-103368778D01*
X124683271Y-103339448D01*
X124581814Y-103256186D01*
X124498552Y-103154729D01*
X124469222Y-103118991D01*
X124385557Y-102962466D01*
X124334037Y-102792627D01*
X124316641Y-102616000D01*
X124334037Y-102439373D01*
X124385557Y-102269534D01*
X124469222Y-102113009D01*
X124498552Y-102077271D01*
X124581814Y-101975814D01*
X124683271Y-101892552D01*
X124719009Y-101863222D01*
X124875534Y-101779557D01*
X125045373Y-101728037D01*
X125111558Y-101721518D01*
X125177740Y-101715000D01*
X125266260Y-101715000D01*
X125332443Y-101721519D01*
X125332443Y-101721519D01*
G37*
G36*
X99932443Y-101721519D02*
G01*
X99998627Y-101728037D01*
X100168466Y-101779557D01*
X100324991Y-101863222D01*
X100360729Y-101892552D01*
X100462186Y-101975814D01*
X100545448Y-102077271D01*
X100574778Y-102113009D01*
X100658443Y-102269534D01*
X100709963Y-102439373D01*
X100727359Y-102616000D01*
X100709963Y-102792627D01*
X100658443Y-102962466D01*
X100574778Y-103118991D01*
X100545448Y-103154729D01*
X100462186Y-103256186D01*
X100360729Y-103339448D01*
X100324991Y-103368778D01*
X100168466Y-103452443D01*
X99998627Y-103503963D01*
X99932443Y-103510481D01*
X99866260Y-103517000D01*
X99777740Y-103517000D01*
X99711558Y-103510482D01*
X99645373Y-103503963D01*
X99475534Y-103452443D01*
X99319009Y-103368778D01*
X99283271Y-103339448D01*
X99181814Y-103256186D01*
X99098552Y-103154729D01*
X99069222Y-103118991D01*
X98985557Y-102962466D01*
X98934037Y-102792627D01*
X98916641Y-102616000D01*
X98934037Y-102439373D01*
X98985557Y-102269534D01*
X99069222Y-102113009D01*
X99098552Y-102077271D01*
X99181814Y-101975814D01*
X99283271Y-101892552D01*
X99319009Y-101863222D01*
X99475534Y-101779557D01*
X99645373Y-101728037D01*
X99711558Y-101721518D01*
X99777740Y-101715000D01*
X99866260Y-101715000D01*
X99932443Y-101721519D01*
X99932443Y-101721519D01*
G37*
G36*
X117712443Y-101721519D02*
G01*
X117778627Y-101728037D01*
X117948466Y-101779557D01*
X118104991Y-101863222D01*
X118140729Y-101892552D01*
X118242186Y-101975814D01*
X118325448Y-102077271D01*
X118354778Y-102113009D01*
X118438443Y-102269534D01*
X118489963Y-102439373D01*
X118507359Y-102616000D01*
X118489963Y-102792627D01*
X118438443Y-102962466D01*
X118354778Y-103118991D01*
X118325448Y-103154729D01*
X118242186Y-103256186D01*
X118140729Y-103339448D01*
X118104991Y-103368778D01*
X117948466Y-103452443D01*
X117778627Y-103503963D01*
X117712443Y-103510481D01*
X117646260Y-103517000D01*
X117557740Y-103517000D01*
X117491558Y-103510482D01*
X117425373Y-103503963D01*
X117255534Y-103452443D01*
X117099009Y-103368778D01*
X117063271Y-103339448D01*
X116961814Y-103256186D01*
X116878552Y-103154729D01*
X116849222Y-103118991D01*
X116765557Y-102962466D01*
X116714037Y-102792627D01*
X116696641Y-102616000D01*
X116714037Y-102439373D01*
X116765557Y-102269534D01*
X116849222Y-102113009D01*
X116878552Y-102077271D01*
X116961814Y-101975814D01*
X117063271Y-101892552D01*
X117099009Y-101863222D01*
X117255534Y-101779557D01*
X117425373Y-101728037D01*
X117491558Y-101721518D01*
X117557740Y-101715000D01*
X117646260Y-101715000D01*
X117712443Y-101721519D01*
X117712443Y-101721519D01*
G37*
G36*
X115172443Y-101721519D02*
G01*
X115238627Y-101728037D01*
X115408466Y-101779557D01*
X115564991Y-101863222D01*
X115600729Y-101892552D01*
X115702186Y-101975814D01*
X115785448Y-102077271D01*
X115814778Y-102113009D01*
X115898443Y-102269534D01*
X115949963Y-102439373D01*
X115967359Y-102616000D01*
X115949963Y-102792627D01*
X115898443Y-102962466D01*
X115814778Y-103118991D01*
X115785448Y-103154729D01*
X115702186Y-103256186D01*
X115600729Y-103339448D01*
X115564991Y-103368778D01*
X115408466Y-103452443D01*
X115238627Y-103503963D01*
X115172443Y-103510481D01*
X115106260Y-103517000D01*
X115017740Y-103517000D01*
X114951558Y-103510482D01*
X114885373Y-103503963D01*
X114715534Y-103452443D01*
X114559009Y-103368778D01*
X114523271Y-103339448D01*
X114421814Y-103256186D01*
X114338552Y-103154729D01*
X114309222Y-103118991D01*
X114225557Y-102962466D01*
X114174037Y-102792627D01*
X114156641Y-102616000D01*
X114174037Y-102439373D01*
X114225557Y-102269534D01*
X114309222Y-102113009D01*
X114338552Y-102077271D01*
X114421814Y-101975814D01*
X114523271Y-101892552D01*
X114559009Y-101863222D01*
X114715534Y-101779557D01*
X114885373Y-101728037D01*
X114951558Y-101721518D01*
X115017740Y-101715000D01*
X115106260Y-101715000D01*
X115172443Y-101721519D01*
X115172443Y-101721519D01*
G37*
G36*
X112632443Y-101721519D02*
G01*
X112698627Y-101728037D01*
X112868466Y-101779557D01*
X113024991Y-101863222D01*
X113060729Y-101892552D01*
X113162186Y-101975814D01*
X113245448Y-102077271D01*
X113274778Y-102113009D01*
X113358443Y-102269534D01*
X113409963Y-102439373D01*
X113427359Y-102616000D01*
X113409963Y-102792627D01*
X113358443Y-102962466D01*
X113274778Y-103118991D01*
X113245448Y-103154729D01*
X113162186Y-103256186D01*
X113060729Y-103339448D01*
X113024991Y-103368778D01*
X112868466Y-103452443D01*
X112698627Y-103503963D01*
X112632443Y-103510481D01*
X112566260Y-103517000D01*
X112477740Y-103517000D01*
X112411558Y-103510482D01*
X112345373Y-103503963D01*
X112175534Y-103452443D01*
X112019009Y-103368778D01*
X111983271Y-103339448D01*
X111881814Y-103256186D01*
X111798552Y-103154729D01*
X111769222Y-103118991D01*
X111685557Y-102962466D01*
X111634037Y-102792627D01*
X111616641Y-102616000D01*
X111634037Y-102439373D01*
X111685557Y-102269534D01*
X111769222Y-102113009D01*
X111798552Y-102077271D01*
X111881814Y-101975814D01*
X111983271Y-101892552D01*
X112019009Y-101863222D01*
X112175534Y-101779557D01*
X112345373Y-101728037D01*
X112411558Y-101721518D01*
X112477740Y-101715000D01*
X112566260Y-101715000D01*
X112632443Y-101721519D01*
X112632443Y-101721519D01*
G37*
G36*
X110092443Y-101721519D02*
G01*
X110158627Y-101728037D01*
X110328466Y-101779557D01*
X110484991Y-101863222D01*
X110520729Y-101892552D01*
X110622186Y-101975814D01*
X110705448Y-102077271D01*
X110734778Y-102113009D01*
X110818443Y-102269534D01*
X110869963Y-102439373D01*
X110887359Y-102616000D01*
X110869963Y-102792627D01*
X110818443Y-102962466D01*
X110734778Y-103118991D01*
X110705448Y-103154729D01*
X110622186Y-103256186D01*
X110520729Y-103339448D01*
X110484991Y-103368778D01*
X110328466Y-103452443D01*
X110158627Y-103503963D01*
X110092443Y-103510481D01*
X110026260Y-103517000D01*
X109937740Y-103517000D01*
X109871558Y-103510482D01*
X109805373Y-103503963D01*
X109635534Y-103452443D01*
X109479009Y-103368778D01*
X109443271Y-103339448D01*
X109341814Y-103256186D01*
X109258552Y-103154729D01*
X109229222Y-103118991D01*
X109145557Y-102962466D01*
X109094037Y-102792627D01*
X109076641Y-102616000D01*
X109094037Y-102439373D01*
X109145557Y-102269534D01*
X109229222Y-102113009D01*
X109258552Y-102077271D01*
X109341814Y-101975814D01*
X109443271Y-101892552D01*
X109479009Y-101863222D01*
X109635534Y-101779557D01*
X109805373Y-101728037D01*
X109871558Y-101721518D01*
X109937740Y-101715000D01*
X110026260Y-101715000D01*
X110092443Y-101721519D01*
X110092443Y-101721519D01*
G37*
G36*
X107552443Y-101721519D02*
G01*
X107618627Y-101728037D01*
X107788466Y-101779557D01*
X107944991Y-101863222D01*
X107980729Y-101892552D01*
X108082186Y-101975814D01*
X108165448Y-102077271D01*
X108194778Y-102113009D01*
X108278443Y-102269534D01*
X108329963Y-102439373D01*
X108347359Y-102616000D01*
X108329963Y-102792627D01*
X108278443Y-102962466D01*
X108194778Y-103118991D01*
X108165448Y-103154729D01*
X108082186Y-103256186D01*
X107980729Y-103339448D01*
X107944991Y-103368778D01*
X107788466Y-103452443D01*
X107618627Y-103503963D01*
X107552443Y-103510481D01*
X107486260Y-103517000D01*
X107397740Y-103517000D01*
X107331558Y-103510482D01*
X107265373Y-103503963D01*
X107095534Y-103452443D01*
X106939009Y-103368778D01*
X106903271Y-103339448D01*
X106801814Y-103256186D01*
X106718552Y-103154729D01*
X106689222Y-103118991D01*
X106605557Y-102962466D01*
X106554037Y-102792627D01*
X106536641Y-102616000D01*
X106554037Y-102439373D01*
X106605557Y-102269534D01*
X106689222Y-102113009D01*
X106718552Y-102077271D01*
X106801814Y-101975814D01*
X106903271Y-101892552D01*
X106939009Y-101863222D01*
X107095534Y-101779557D01*
X107265373Y-101728037D01*
X107331558Y-101721518D01*
X107397740Y-101715000D01*
X107486260Y-101715000D01*
X107552443Y-101721519D01*
X107552443Y-101721519D01*
G37*
G36*
X105012443Y-101721519D02*
G01*
X105078627Y-101728037D01*
X105248466Y-101779557D01*
X105404991Y-101863222D01*
X105440729Y-101892552D01*
X105542186Y-101975814D01*
X105625448Y-102077271D01*
X105654778Y-102113009D01*
X105738443Y-102269534D01*
X105789963Y-102439373D01*
X105807359Y-102616000D01*
X105789963Y-102792627D01*
X105738443Y-102962466D01*
X105654778Y-103118991D01*
X105625448Y-103154729D01*
X105542186Y-103256186D01*
X105440729Y-103339448D01*
X105404991Y-103368778D01*
X105248466Y-103452443D01*
X105078627Y-103503963D01*
X105012443Y-103510481D01*
X104946260Y-103517000D01*
X104857740Y-103517000D01*
X104791558Y-103510482D01*
X104725373Y-103503963D01*
X104555534Y-103452443D01*
X104399009Y-103368778D01*
X104363271Y-103339448D01*
X104261814Y-103256186D01*
X104178552Y-103154729D01*
X104149222Y-103118991D01*
X104065557Y-102962466D01*
X104014037Y-102792627D01*
X103996641Y-102616000D01*
X104014037Y-102439373D01*
X104065557Y-102269534D01*
X104149222Y-102113009D01*
X104178552Y-102077271D01*
X104261814Y-101975814D01*
X104363271Y-101892552D01*
X104399009Y-101863222D01*
X104555534Y-101779557D01*
X104725373Y-101728037D01*
X104791558Y-101721518D01*
X104857740Y-101715000D01*
X104946260Y-101715000D01*
X105012443Y-101721519D01*
X105012443Y-101721519D01*
G37*
G36*
X155812443Y-101721519D02*
G01*
X155878627Y-101728037D01*
X156048466Y-101779557D01*
X156204991Y-101863222D01*
X156240729Y-101892552D01*
X156342186Y-101975814D01*
X156425448Y-102077271D01*
X156454778Y-102113009D01*
X156538443Y-102269534D01*
X156589963Y-102439373D01*
X156607359Y-102616000D01*
X156589963Y-102792627D01*
X156538443Y-102962466D01*
X156454778Y-103118991D01*
X156425448Y-103154729D01*
X156342186Y-103256186D01*
X156240729Y-103339448D01*
X156204991Y-103368778D01*
X156048466Y-103452443D01*
X155878627Y-103503963D01*
X155812443Y-103510481D01*
X155746260Y-103517000D01*
X155657740Y-103517000D01*
X155591558Y-103510482D01*
X155525373Y-103503963D01*
X155355534Y-103452443D01*
X155199009Y-103368778D01*
X155163271Y-103339448D01*
X155061814Y-103256186D01*
X154978552Y-103154729D01*
X154949222Y-103118991D01*
X154865557Y-102962466D01*
X154814037Y-102792627D01*
X154796641Y-102616000D01*
X154814037Y-102439373D01*
X154865557Y-102269534D01*
X154949222Y-102113009D01*
X154978552Y-102077271D01*
X155061814Y-101975814D01*
X155163271Y-101892552D01*
X155199009Y-101863222D01*
X155355534Y-101779557D01*
X155525373Y-101728037D01*
X155591558Y-101721518D01*
X155657740Y-101715000D01*
X155746260Y-101715000D01*
X155812443Y-101721519D01*
X155812443Y-101721519D01*
G37*
G36*
X171052443Y-101721519D02*
G01*
X171118627Y-101728037D01*
X171288466Y-101779557D01*
X171444991Y-101863222D01*
X171480729Y-101892552D01*
X171582186Y-101975814D01*
X171665448Y-102077271D01*
X171694778Y-102113009D01*
X171778443Y-102269534D01*
X171829963Y-102439373D01*
X171847359Y-102616000D01*
X171829963Y-102792627D01*
X171778443Y-102962466D01*
X171694778Y-103118991D01*
X171665448Y-103154729D01*
X171582186Y-103256186D01*
X171480729Y-103339448D01*
X171444991Y-103368778D01*
X171288466Y-103452443D01*
X171118627Y-103503963D01*
X171052443Y-103510481D01*
X170986260Y-103517000D01*
X170897740Y-103517000D01*
X170831558Y-103510482D01*
X170765373Y-103503963D01*
X170595534Y-103452443D01*
X170439009Y-103368778D01*
X170403271Y-103339448D01*
X170301814Y-103256186D01*
X170218552Y-103154729D01*
X170189222Y-103118991D01*
X170105557Y-102962466D01*
X170054037Y-102792627D01*
X170036641Y-102616000D01*
X170054037Y-102439373D01*
X170105557Y-102269534D01*
X170189222Y-102113009D01*
X170218552Y-102077271D01*
X170301814Y-101975814D01*
X170403271Y-101892552D01*
X170439009Y-101863222D01*
X170595534Y-101779557D01*
X170765373Y-101728037D01*
X170831558Y-101721518D01*
X170897740Y-101715000D01*
X170986260Y-101715000D01*
X171052443Y-101721519D01*
X171052443Y-101721519D01*
G37*
G36*
X122792443Y-101721519D02*
G01*
X122858627Y-101728037D01*
X123028466Y-101779557D01*
X123184991Y-101863222D01*
X123220729Y-101892552D01*
X123322186Y-101975814D01*
X123405448Y-102077271D01*
X123434778Y-102113009D01*
X123518443Y-102269534D01*
X123569963Y-102439373D01*
X123587359Y-102616000D01*
X123569963Y-102792627D01*
X123518443Y-102962466D01*
X123434778Y-103118991D01*
X123405448Y-103154729D01*
X123322186Y-103256186D01*
X123220729Y-103339448D01*
X123184991Y-103368778D01*
X123028466Y-103452443D01*
X122858627Y-103503963D01*
X122792443Y-103510481D01*
X122726260Y-103517000D01*
X122637740Y-103517000D01*
X122571558Y-103510482D01*
X122505373Y-103503963D01*
X122335534Y-103452443D01*
X122179009Y-103368778D01*
X122143271Y-103339448D01*
X122041814Y-103256186D01*
X121958552Y-103154729D01*
X121929222Y-103118991D01*
X121845557Y-102962466D01*
X121794037Y-102792627D01*
X121776641Y-102616000D01*
X121794037Y-102439373D01*
X121845557Y-102269534D01*
X121929222Y-102113009D01*
X121958552Y-102077271D01*
X122041814Y-101975814D01*
X122143271Y-101892552D01*
X122179009Y-101863222D01*
X122335534Y-101779557D01*
X122505373Y-101728037D01*
X122571558Y-101721518D01*
X122637740Y-101715000D01*
X122726260Y-101715000D01*
X122792443Y-101721519D01*
X122792443Y-101721519D01*
G37*
G36*
X97392443Y-101721519D02*
G01*
X97458627Y-101728037D01*
X97628466Y-101779557D01*
X97784991Y-101863222D01*
X97820729Y-101892552D01*
X97922186Y-101975814D01*
X98005448Y-102077271D01*
X98034778Y-102113009D01*
X98118443Y-102269534D01*
X98169963Y-102439373D01*
X98187359Y-102616000D01*
X98169963Y-102792627D01*
X98118443Y-102962466D01*
X98034778Y-103118991D01*
X98005448Y-103154729D01*
X97922186Y-103256186D01*
X97820729Y-103339448D01*
X97784991Y-103368778D01*
X97628466Y-103452443D01*
X97458627Y-103503963D01*
X97392443Y-103510481D01*
X97326260Y-103517000D01*
X97237740Y-103517000D01*
X97171558Y-103510482D01*
X97105373Y-103503963D01*
X96935534Y-103452443D01*
X96779009Y-103368778D01*
X96743271Y-103339448D01*
X96641814Y-103256186D01*
X96558552Y-103154729D01*
X96529222Y-103118991D01*
X96445557Y-102962466D01*
X96394037Y-102792627D01*
X96376641Y-102616000D01*
X96394037Y-102439373D01*
X96445557Y-102269534D01*
X96529222Y-102113009D01*
X96558552Y-102077271D01*
X96641814Y-101975814D01*
X96743271Y-101892552D01*
X96779009Y-101863222D01*
X96935534Y-101779557D01*
X97105373Y-101728037D01*
X97171558Y-101721518D01*
X97237740Y-101715000D01*
X97326260Y-101715000D01*
X97392443Y-101721519D01*
X97392443Y-101721519D01*
G37*
G36*
X94852443Y-101721519D02*
G01*
X94918627Y-101728037D01*
X95088466Y-101779557D01*
X95244991Y-101863222D01*
X95280729Y-101892552D01*
X95382186Y-101975814D01*
X95465448Y-102077271D01*
X95494778Y-102113009D01*
X95578443Y-102269534D01*
X95629963Y-102439373D01*
X95647359Y-102616000D01*
X95629963Y-102792627D01*
X95578443Y-102962466D01*
X95494778Y-103118991D01*
X95465448Y-103154729D01*
X95382186Y-103256186D01*
X95280729Y-103339448D01*
X95244991Y-103368778D01*
X95088466Y-103452443D01*
X94918627Y-103503963D01*
X94852443Y-103510481D01*
X94786260Y-103517000D01*
X94697740Y-103517000D01*
X94631558Y-103510482D01*
X94565373Y-103503963D01*
X94395534Y-103452443D01*
X94239009Y-103368778D01*
X94203271Y-103339448D01*
X94101814Y-103256186D01*
X94018552Y-103154729D01*
X93989222Y-103118991D01*
X93905557Y-102962466D01*
X93854037Y-102792627D01*
X93836641Y-102616000D01*
X93854037Y-102439373D01*
X93905557Y-102269534D01*
X93989222Y-102113009D01*
X94018552Y-102077271D01*
X94101814Y-101975814D01*
X94203271Y-101892552D01*
X94239009Y-101863222D01*
X94395534Y-101779557D01*
X94565373Y-101728037D01*
X94631558Y-101721518D01*
X94697740Y-101715000D01*
X94786260Y-101715000D01*
X94852443Y-101721519D01*
X94852443Y-101721519D01*
G37*
G36*
X93103000Y-103517000D02*
G01*
X91301000Y-103517000D01*
X91301000Y-101715000D01*
X93103000Y-101715000D01*
X93103000Y-103517000D01*
X93103000Y-103517000D01*
G37*
G36*
X145652443Y-101721519D02*
G01*
X145718627Y-101728037D01*
X145888466Y-101779557D01*
X146044991Y-101863222D01*
X146080729Y-101892552D01*
X146182186Y-101975814D01*
X146265448Y-102077271D01*
X146294778Y-102113009D01*
X146378443Y-102269534D01*
X146429963Y-102439373D01*
X146447359Y-102616000D01*
X146429963Y-102792627D01*
X146378443Y-102962466D01*
X146294778Y-103118991D01*
X146265448Y-103154729D01*
X146182186Y-103256186D01*
X146080729Y-103339448D01*
X146044991Y-103368778D01*
X145888466Y-103452443D01*
X145718627Y-103503963D01*
X145652443Y-103510481D01*
X145586260Y-103517000D01*
X145497740Y-103517000D01*
X145431558Y-103510482D01*
X145365373Y-103503963D01*
X145195534Y-103452443D01*
X145039009Y-103368778D01*
X145003271Y-103339448D01*
X144901814Y-103256186D01*
X144818552Y-103154729D01*
X144789222Y-103118991D01*
X144705557Y-102962466D01*
X144654037Y-102792627D01*
X144636641Y-102616000D01*
X144654037Y-102439373D01*
X144705557Y-102269534D01*
X144789222Y-102113009D01*
X144818552Y-102077271D01*
X144901814Y-101975814D01*
X145003271Y-101892552D01*
X145039009Y-101863222D01*
X145195534Y-101779557D01*
X145365373Y-101728037D01*
X145431558Y-101721518D01*
X145497740Y-101715000D01*
X145586260Y-101715000D01*
X145652443Y-101721519D01*
X145652443Y-101721519D01*
G37*
G36*
X148192443Y-101721519D02*
G01*
X148258627Y-101728037D01*
X148428466Y-101779557D01*
X148584991Y-101863222D01*
X148620729Y-101892552D01*
X148722186Y-101975814D01*
X148805448Y-102077271D01*
X148834778Y-102113009D01*
X148918443Y-102269534D01*
X148969963Y-102439373D01*
X148987359Y-102616000D01*
X148969963Y-102792627D01*
X148918443Y-102962466D01*
X148834778Y-103118991D01*
X148805448Y-103154729D01*
X148722186Y-103256186D01*
X148620729Y-103339448D01*
X148584991Y-103368778D01*
X148428466Y-103452443D01*
X148258627Y-103503963D01*
X148192443Y-103510481D01*
X148126260Y-103517000D01*
X148037740Y-103517000D01*
X147971558Y-103510482D01*
X147905373Y-103503963D01*
X147735534Y-103452443D01*
X147579009Y-103368778D01*
X147543271Y-103339448D01*
X147441814Y-103256186D01*
X147358552Y-103154729D01*
X147329222Y-103118991D01*
X147245557Y-102962466D01*
X147194037Y-102792627D01*
X147176641Y-102616000D01*
X147194037Y-102439373D01*
X147245557Y-102269534D01*
X147329222Y-102113009D01*
X147358552Y-102077271D01*
X147441814Y-101975814D01*
X147543271Y-101892552D01*
X147579009Y-101863222D01*
X147735534Y-101779557D01*
X147905373Y-101728037D01*
X147971558Y-101721518D01*
X148037740Y-101715000D01*
X148126260Y-101715000D01*
X148192443Y-101721519D01*
X148192443Y-101721519D01*
G37*
G36*
X150732443Y-101721519D02*
G01*
X150798627Y-101728037D01*
X150968466Y-101779557D01*
X151124991Y-101863222D01*
X151160729Y-101892552D01*
X151262186Y-101975814D01*
X151345448Y-102077271D01*
X151374778Y-102113009D01*
X151458443Y-102269534D01*
X151509963Y-102439373D01*
X151527359Y-102616000D01*
X151509963Y-102792627D01*
X151458443Y-102962466D01*
X151374778Y-103118991D01*
X151345448Y-103154729D01*
X151262186Y-103256186D01*
X151160729Y-103339448D01*
X151124991Y-103368778D01*
X150968466Y-103452443D01*
X150798627Y-103503963D01*
X150732443Y-103510481D01*
X150666260Y-103517000D01*
X150577740Y-103517000D01*
X150511558Y-103510482D01*
X150445373Y-103503963D01*
X150275534Y-103452443D01*
X150119009Y-103368778D01*
X150083271Y-103339448D01*
X149981814Y-103256186D01*
X149898552Y-103154729D01*
X149869222Y-103118991D01*
X149785557Y-102962466D01*
X149734037Y-102792627D01*
X149716641Y-102616000D01*
X149734037Y-102439373D01*
X149785557Y-102269534D01*
X149869222Y-102113009D01*
X149898552Y-102077271D01*
X149981814Y-101975814D01*
X150083271Y-101892552D01*
X150119009Y-101863222D01*
X150275534Y-101779557D01*
X150445373Y-101728037D01*
X150511558Y-101721518D01*
X150577740Y-101715000D01*
X150666260Y-101715000D01*
X150732443Y-101721519D01*
X150732443Y-101721519D01*
G37*
G36*
X153272443Y-101721519D02*
G01*
X153338627Y-101728037D01*
X153508466Y-101779557D01*
X153664991Y-101863222D01*
X153700729Y-101892552D01*
X153802186Y-101975814D01*
X153885448Y-102077271D01*
X153914778Y-102113009D01*
X153998443Y-102269534D01*
X154049963Y-102439373D01*
X154067359Y-102616000D01*
X154049963Y-102792627D01*
X153998443Y-102962466D01*
X153914778Y-103118991D01*
X153885448Y-103154729D01*
X153802186Y-103256186D01*
X153700729Y-103339448D01*
X153664991Y-103368778D01*
X153508466Y-103452443D01*
X153338627Y-103503963D01*
X153272443Y-103510481D01*
X153206260Y-103517000D01*
X153117740Y-103517000D01*
X153051558Y-103510482D01*
X152985373Y-103503963D01*
X152815534Y-103452443D01*
X152659009Y-103368778D01*
X152623271Y-103339448D01*
X152521814Y-103256186D01*
X152438552Y-103154729D01*
X152409222Y-103118991D01*
X152325557Y-102962466D01*
X152274037Y-102792627D01*
X152256641Y-102616000D01*
X152274037Y-102439373D01*
X152325557Y-102269534D01*
X152409222Y-102113009D01*
X152438552Y-102077271D01*
X152521814Y-101975814D01*
X152623271Y-101892552D01*
X152659009Y-101863222D01*
X152815534Y-101779557D01*
X152985373Y-101728037D01*
X153051558Y-101721518D01*
X153117740Y-101715000D01*
X153206260Y-101715000D01*
X153272443Y-101721519D01*
X153272443Y-101721519D01*
G37*
G36*
X102472443Y-101721519D02*
G01*
X102538627Y-101728037D01*
X102708466Y-101779557D01*
X102864991Y-101863222D01*
X102900729Y-101892552D01*
X103002186Y-101975814D01*
X103085448Y-102077271D01*
X103114778Y-102113009D01*
X103198443Y-102269534D01*
X103249963Y-102439373D01*
X103267359Y-102616000D01*
X103249963Y-102792627D01*
X103198443Y-102962466D01*
X103114778Y-103118991D01*
X103085448Y-103154729D01*
X103002186Y-103256186D01*
X102900729Y-103339448D01*
X102864991Y-103368778D01*
X102708466Y-103452443D01*
X102538627Y-103503963D01*
X102472443Y-103510481D01*
X102406260Y-103517000D01*
X102317740Y-103517000D01*
X102251558Y-103510482D01*
X102185373Y-103503963D01*
X102015534Y-103452443D01*
X101859009Y-103368778D01*
X101823271Y-103339448D01*
X101721814Y-103256186D01*
X101638552Y-103154729D01*
X101609222Y-103118991D01*
X101525557Y-102962466D01*
X101474037Y-102792627D01*
X101456641Y-102616000D01*
X101474037Y-102439373D01*
X101525557Y-102269534D01*
X101609222Y-102113009D01*
X101638552Y-102077271D01*
X101721814Y-101975814D01*
X101823271Y-101892552D01*
X101859009Y-101863222D01*
X102015534Y-101779557D01*
X102185373Y-101728037D01*
X102251558Y-101721518D01*
X102317740Y-101715000D01*
X102406260Y-101715000D01*
X102472443Y-101721519D01*
X102472443Y-101721519D01*
G37*
G36*
X158352443Y-101721519D02*
G01*
X158418627Y-101728037D01*
X158588466Y-101779557D01*
X158744991Y-101863222D01*
X158780729Y-101892552D01*
X158882186Y-101975814D01*
X158965448Y-102077271D01*
X158994778Y-102113009D01*
X159078443Y-102269534D01*
X159129963Y-102439373D01*
X159147359Y-102616000D01*
X159129963Y-102792627D01*
X159078443Y-102962466D01*
X158994778Y-103118991D01*
X158965448Y-103154729D01*
X158882186Y-103256186D01*
X158780729Y-103339448D01*
X158744991Y-103368778D01*
X158588466Y-103452443D01*
X158418627Y-103503963D01*
X158352443Y-103510481D01*
X158286260Y-103517000D01*
X158197740Y-103517000D01*
X158131558Y-103510482D01*
X158065373Y-103503963D01*
X157895534Y-103452443D01*
X157739009Y-103368778D01*
X157703271Y-103339448D01*
X157601814Y-103256186D01*
X157518552Y-103154729D01*
X157489222Y-103118991D01*
X157405557Y-102962466D01*
X157354037Y-102792627D01*
X157336641Y-102616000D01*
X157354037Y-102439373D01*
X157405557Y-102269534D01*
X157489222Y-102113009D01*
X157518552Y-102077271D01*
X157601814Y-101975814D01*
X157703271Y-101892552D01*
X157739009Y-101863222D01*
X157895534Y-101779557D01*
X158065373Y-101728037D01*
X158131558Y-101721518D01*
X158197740Y-101715000D01*
X158286260Y-101715000D01*
X158352443Y-101721519D01*
X158352443Y-101721519D01*
G37*
G36*
X160892443Y-101721519D02*
G01*
X160958627Y-101728037D01*
X161128466Y-101779557D01*
X161284991Y-101863222D01*
X161320729Y-101892552D01*
X161422186Y-101975814D01*
X161505448Y-102077271D01*
X161534778Y-102113009D01*
X161618443Y-102269534D01*
X161669963Y-102439373D01*
X161687359Y-102616000D01*
X161669963Y-102792627D01*
X161618443Y-102962466D01*
X161534778Y-103118991D01*
X161505448Y-103154729D01*
X161422186Y-103256186D01*
X161320729Y-103339448D01*
X161284991Y-103368778D01*
X161128466Y-103452443D01*
X160958627Y-103503963D01*
X160892443Y-103510481D01*
X160826260Y-103517000D01*
X160737740Y-103517000D01*
X160671558Y-103510482D01*
X160605373Y-103503963D01*
X160435534Y-103452443D01*
X160279009Y-103368778D01*
X160243271Y-103339448D01*
X160141814Y-103256186D01*
X160058552Y-103154729D01*
X160029222Y-103118991D01*
X159945557Y-102962466D01*
X159894037Y-102792627D01*
X159876641Y-102616000D01*
X159894037Y-102439373D01*
X159945557Y-102269534D01*
X160029222Y-102113009D01*
X160058552Y-102077271D01*
X160141814Y-101975814D01*
X160243271Y-101892552D01*
X160279009Y-101863222D01*
X160435534Y-101779557D01*
X160605373Y-101728037D01*
X160671558Y-101721518D01*
X160737740Y-101715000D01*
X160826260Y-101715000D01*
X160892443Y-101721519D01*
X160892443Y-101721519D01*
G37*
G36*
X163432443Y-101721519D02*
G01*
X163498627Y-101728037D01*
X163668466Y-101779557D01*
X163824991Y-101863222D01*
X163860729Y-101892552D01*
X163962186Y-101975814D01*
X164045448Y-102077271D01*
X164074778Y-102113009D01*
X164158443Y-102269534D01*
X164209963Y-102439373D01*
X164227359Y-102616000D01*
X164209963Y-102792627D01*
X164158443Y-102962466D01*
X164074778Y-103118991D01*
X164045448Y-103154729D01*
X163962186Y-103256186D01*
X163860729Y-103339448D01*
X163824991Y-103368778D01*
X163668466Y-103452443D01*
X163498627Y-103503963D01*
X163432443Y-103510481D01*
X163366260Y-103517000D01*
X163277740Y-103517000D01*
X163211558Y-103510482D01*
X163145373Y-103503963D01*
X162975534Y-103452443D01*
X162819009Y-103368778D01*
X162783271Y-103339448D01*
X162681814Y-103256186D01*
X162598552Y-103154729D01*
X162569222Y-103118991D01*
X162485557Y-102962466D01*
X162434037Y-102792627D01*
X162416641Y-102616000D01*
X162434037Y-102439373D01*
X162485557Y-102269534D01*
X162569222Y-102113009D01*
X162598552Y-102077271D01*
X162681814Y-101975814D01*
X162783271Y-101892552D01*
X162819009Y-101863222D01*
X162975534Y-101779557D01*
X163145373Y-101728037D01*
X163211558Y-101721518D01*
X163277740Y-101715000D01*
X163366260Y-101715000D01*
X163432443Y-101721519D01*
X163432443Y-101721519D01*
G37*
G36*
X165972443Y-101721519D02*
G01*
X166038627Y-101728037D01*
X166208466Y-101779557D01*
X166364991Y-101863222D01*
X166400729Y-101892552D01*
X166502186Y-101975814D01*
X166585448Y-102077271D01*
X166614778Y-102113009D01*
X166698443Y-102269534D01*
X166749963Y-102439373D01*
X166767359Y-102616000D01*
X166749963Y-102792627D01*
X166698443Y-102962466D01*
X166614778Y-103118991D01*
X166585448Y-103154729D01*
X166502186Y-103256186D01*
X166400729Y-103339448D01*
X166364991Y-103368778D01*
X166208466Y-103452443D01*
X166038627Y-103503963D01*
X165972443Y-103510481D01*
X165906260Y-103517000D01*
X165817740Y-103517000D01*
X165751558Y-103510482D01*
X165685373Y-103503963D01*
X165515534Y-103452443D01*
X165359009Y-103368778D01*
X165323271Y-103339448D01*
X165221814Y-103256186D01*
X165138552Y-103154729D01*
X165109222Y-103118991D01*
X165025557Y-102962466D01*
X164974037Y-102792627D01*
X164956641Y-102616000D01*
X164974037Y-102439373D01*
X165025557Y-102269534D01*
X165109222Y-102113009D01*
X165138552Y-102077271D01*
X165221814Y-101975814D01*
X165323271Y-101892552D01*
X165359009Y-101863222D01*
X165515534Y-101779557D01*
X165685373Y-101728037D01*
X165751558Y-101721518D01*
X165817740Y-101715000D01*
X165906260Y-101715000D01*
X165972443Y-101721519D01*
X165972443Y-101721519D01*
G37*
G36*
X168512443Y-101721519D02*
G01*
X168578627Y-101728037D01*
X168748466Y-101779557D01*
X168904991Y-101863222D01*
X168940729Y-101892552D01*
X169042186Y-101975814D01*
X169125448Y-102077271D01*
X169154778Y-102113009D01*
X169238443Y-102269534D01*
X169289963Y-102439373D01*
X169307359Y-102616000D01*
X169289963Y-102792627D01*
X169238443Y-102962466D01*
X169154778Y-103118991D01*
X169125448Y-103154729D01*
X169042186Y-103256186D01*
X168940729Y-103339448D01*
X168904991Y-103368778D01*
X168748466Y-103452443D01*
X168578627Y-103503963D01*
X168512443Y-103510481D01*
X168446260Y-103517000D01*
X168357740Y-103517000D01*
X168291558Y-103510482D01*
X168225373Y-103503963D01*
X168055534Y-103452443D01*
X167899009Y-103368778D01*
X167863271Y-103339448D01*
X167761814Y-103256186D01*
X167678552Y-103154729D01*
X167649222Y-103118991D01*
X167565557Y-102962466D01*
X167514037Y-102792627D01*
X167496641Y-102616000D01*
X167514037Y-102439373D01*
X167565557Y-102269534D01*
X167649222Y-102113009D01*
X167678552Y-102077271D01*
X167761814Y-101975814D01*
X167863271Y-101892552D01*
X167899009Y-101863222D01*
X168055534Y-101779557D01*
X168225373Y-101728037D01*
X168291558Y-101721518D01*
X168357740Y-101715000D01*
X168446260Y-101715000D01*
X168512443Y-101721519D01*
X168512443Y-101721519D01*
G37*
G36*
X162162442Y-98927518D02*
G01*
X162228627Y-98934037D01*
X162398466Y-98985557D01*
X162554991Y-99069222D01*
X162590729Y-99098552D01*
X162692186Y-99181814D01*
X162775448Y-99283271D01*
X162804778Y-99319009D01*
X162888443Y-99475534D01*
X162939963Y-99645373D01*
X162957359Y-99822000D01*
X162939963Y-99998627D01*
X162888443Y-100168466D01*
X162804778Y-100324991D01*
X162775448Y-100360729D01*
X162692186Y-100462186D01*
X162590729Y-100545448D01*
X162554991Y-100574778D01*
X162398466Y-100658443D01*
X162228627Y-100709963D01*
X162162443Y-100716481D01*
X162096260Y-100723000D01*
X162007740Y-100723000D01*
X161941558Y-100716482D01*
X161875373Y-100709963D01*
X161705534Y-100658443D01*
X161549009Y-100574778D01*
X161513271Y-100545448D01*
X161411814Y-100462186D01*
X161328552Y-100360729D01*
X161299222Y-100324991D01*
X161215557Y-100168466D01*
X161164037Y-99998627D01*
X161146641Y-99822000D01*
X161164037Y-99645373D01*
X161215557Y-99475534D01*
X161299222Y-99319009D01*
X161328552Y-99283271D01*
X161411814Y-99181814D01*
X161513271Y-99098552D01*
X161549009Y-99069222D01*
X161705534Y-98985557D01*
X161875373Y-98934037D01*
X161941557Y-98927519D01*
X162007740Y-98921000D01*
X162096260Y-98921000D01*
X162162442Y-98927518D01*
X162162442Y-98927518D01*
G37*
G36*
X126602442Y-98927518D02*
G01*
X126668627Y-98934037D01*
X126838466Y-98985557D01*
X126994991Y-99069222D01*
X127030729Y-99098552D01*
X127132186Y-99181814D01*
X127215448Y-99283271D01*
X127244778Y-99319009D01*
X127328443Y-99475534D01*
X127379963Y-99645373D01*
X127397359Y-99822000D01*
X127379963Y-99998627D01*
X127328443Y-100168466D01*
X127244778Y-100324991D01*
X127215448Y-100360729D01*
X127132186Y-100462186D01*
X127030729Y-100545448D01*
X126994991Y-100574778D01*
X126838466Y-100658443D01*
X126668627Y-100709963D01*
X126602443Y-100716481D01*
X126536260Y-100723000D01*
X126447740Y-100723000D01*
X126381558Y-100716482D01*
X126315373Y-100709963D01*
X126145534Y-100658443D01*
X125989009Y-100574778D01*
X125953271Y-100545448D01*
X125851814Y-100462186D01*
X125768552Y-100360729D01*
X125739222Y-100324991D01*
X125655557Y-100168466D01*
X125604037Y-99998627D01*
X125586641Y-99822000D01*
X125604037Y-99645373D01*
X125655557Y-99475534D01*
X125739222Y-99319009D01*
X125768552Y-99283271D01*
X125851814Y-99181814D01*
X125953271Y-99098552D01*
X125989009Y-99069222D01*
X126145534Y-98985557D01*
X126315373Y-98934037D01*
X126381557Y-98927519D01*
X126447740Y-98921000D01*
X126536260Y-98921000D01*
X126602442Y-98927518D01*
X126602442Y-98927518D01*
G37*
G36*
X124062442Y-98927518D02*
G01*
X124128627Y-98934037D01*
X124298466Y-98985557D01*
X124454991Y-99069222D01*
X124490729Y-99098552D01*
X124592186Y-99181814D01*
X124675448Y-99283271D01*
X124704778Y-99319009D01*
X124788443Y-99475534D01*
X124839963Y-99645373D01*
X124857359Y-99822000D01*
X124839963Y-99998627D01*
X124788443Y-100168466D01*
X124704778Y-100324991D01*
X124675448Y-100360729D01*
X124592186Y-100462186D01*
X124490729Y-100545448D01*
X124454991Y-100574778D01*
X124298466Y-100658443D01*
X124128627Y-100709963D01*
X124062443Y-100716481D01*
X123996260Y-100723000D01*
X123907740Y-100723000D01*
X123841558Y-100716482D01*
X123775373Y-100709963D01*
X123605534Y-100658443D01*
X123449009Y-100574778D01*
X123413271Y-100545448D01*
X123311814Y-100462186D01*
X123228552Y-100360729D01*
X123199222Y-100324991D01*
X123115557Y-100168466D01*
X123064037Y-99998627D01*
X123046641Y-99822000D01*
X123064037Y-99645373D01*
X123115557Y-99475534D01*
X123199222Y-99319009D01*
X123228552Y-99283271D01*
X123311814Y-99181814D01*
X123413271Y-99098552D01*
X123449009Y-99069222D01*
X123605534Y-98985557D01*
X123775373Y-98934037D01*
X123841557Y-98927519D01*
X123907740Y-98921000D01*
X123996260Y-98921000D01*
X124062442Y-98927518D01*
X124062442Y-98927518D01*
G37*
G36*
X121522442Y-98927518D02*
G01*
X121588627Y-98934037D01*
X121758466Y-98985557D01*
X121914991Y-99069222D01*
X121950729Y-99098552D01*
X122052186Y-99181814D01*
X122135448Y-99283271D01*
X122164778Y-99319009D01*
X122248443Y-99475534D01*
X122299963Y-99645373D01*
X122317359Y-99822000D01*
X122299963Y-99998627D01*
X122248443Y-100168466D01*
X122164778Y-100324991D01*
X122135448Y-100360729D01*
X122052186Y-100462186D01*
X121950729Y-100545448D01*
X121914991Y-100574778D01*
X121758466Y-100658443D01*
X121588627Y-100709963D01*
X121522443Y-100716481D01*
X121456260Y-100723000D01*
X121367740Y-100723000D01*
X121301558Y-100716482D01*
X121235373Y-100709963D01*
X121065534Y-100658443D01*
X120909009Y-100574778D01*
X120873271Y-100545448D01*
X120771814Y-100462186D01*
X120688552Y-100360729D01*
X120659222Y-100324991D01*
X120575557Y-100168466D01*
X120524037Y-99998627D01*
X120506641Y-99822000D01*
X120524037Y-99645373D01*
X120575557Y-99475534D01*
X120659222Y-99319009D01*
X120688552Y-99283271D01*
X120771814Y-99181814D01*
X120873271Y-99098552D01*
X120909009Y-99069222D01*
X121065534Y-98985557D01*
X121235373Y-98934037D01*
X121301557Y-98927519D01*
X121367740Y-98921000D01*
X121456260Y-98921000D01*
X121522442Y-98927518D01*
X121522442Y-98927518D01*
G37*
G36*
X118982442Y-98927518D02*
G01*
X119048627Y-98934037D01*
X119218466Y-98985557D01*
X119374991Y-99069222D01*
X119410729Y-99098552D01*
X119512186Y-99181814D01*
X119595448Y-99283271D01*
X119624778Y-99319009D01*
X119708443Y-99475534D01*
X119759963Y-99645373D01*
X119777359Y-99822000D01*
X119759963Y-99998627D01*
X119708443Y-100168466D01*
X119624778Y-100324991D01*
X119595448Y-100360729D01*
X119512186Y-100462186D01*
X119410729Y-100545448D01*
X119374991Y-100574778D01*
X119218466Y-100658443D01*
X119048627Y-100709963D01*
X118982443Y-100716481D01*
X118916260Y-100723000D01*
X118827740Y-100723000D01*
X118761558Y-100716482D01*
X118695373Y-100709963D01*
X118525534Y-100658443D01*
X118369009Y-100574778D01*
X118333271Y-100545448D01*
X118231814Y-100462186D01*
X118148552Y-100360729D01*
X118119222Y-100324991D01*
X118035557Y-100168466D01*
X117984037Y-99998627D01*
X117966641Y-99822000D01*
X117984037Y-99645373D01*
X118035557Y-99475534D01*
X118119222Y-99319009D01*
X118148552Y-99283271D01*
X118231814Y-99181814D01*
X118333271Y-99098552D01*
X118369009Y-99069222D01*
X118525534Y-98985557D01*
X118695373Y-98934037D01*
X118761557Y-98927519D01*
X118827740Y-98921000D01*
X118916260Y-98921000D01*
X118982442Y-98927518D01*
X118982442Y-98927518D01*
G37*
G36*
X116442442Y-98927518D02*
G01*
X116508627Y-98934037D01*
X116678466Y-98985557D01*
X116834991Y-99069222D01*
X116870729Y-99098552D01*
X116972186Y-99181814D01*
X117055448Y-99283271D01*
X117084778Y-99319009D01*
X117168443Y-99475534D01*
X117219963Y-99645373D01*
X117237359Y-99822000D01*
X117219963Y-99998627D01*
X117168443Y-100168466D01*
X117084778Y-100324991D01*
X117055448Y-100360729D01*
X116972186Y-100462186D01*
X116870729Y-100545448D01*
X116834991Y-100574778D01*
X116678466Y-100658443D01*
X116508627Y-100709963D01*
X116442443Y-100716481D01*
X116376260Y-100723000D01*
X116287740Y-100723000D01*
X116221558Y-100716482D01*
X116155373Y-100709963D01*
X115985534Y-100658443D01*
X115829009Y-100574778D01*
X115793271Y-100545448D01*
X115691814Y-100462186D01*
X115608552Y-100360729D01*
X115579222Y-100324991D01*
X115495557Y-100168466D01*
X115444037Y-99998627D01*
X115426641Y-99822000D01*
X115444037Y-99645373D01*
X115495557Y-99475534D01*
X115579222Y-99319009D01*
X115608552Y-99283271D01*
X115691814Y-99181814D01*
X115793271Y-99098552D01*
X115829009Y-99069222D01*
X115985534Y-98985557D01*
X116155373Y-98934037D01*
X116221557Y-98927519D01*
X116287740Y-98921000D01*
X116376260Y-98921000D01*
X116442442Y-98927518D01*
X116442442Y-98927518D01*
G37*
G36*
X113902442Y-98927518D02*
G01*
X113968627Y-98934037D01*
X114138466Y-98985557D01*
X114294991Y-99069222D01*
X114330729Y-99098552D01*
X114432186Y-99181814D01*
X114515448Y-99283271D01*
X114544778Y-99319009D01*
X114628443Y-99475534D01*
X114679963Y-99645373D01*
X114697359Y-99822000D01*
X114679963Y-99998627D01*
X114628443Y-100168466D01*
X114544778Y-100324991D01*
X114515448Y-100360729D01*
X114432186Y-100462186D01*
X114330729Y-100545448D01*
X114294991Y-100574778D01*
X114138466Y-100658443D01*
X113968627Y-100709963D01*
X113902443Y-100716481D01*
X113836260Y-100723000D01*
X113747740Y-100723000D01*
X113681558Y-100716482D01*
X113615373Y-100709963D01*
X113445534Y-100658443D01*
X113289009Y-100574778D01*
X113253271Y-100545448D01*
X113151814Y-100462186D01*
X113068552Y-100360729D01*
X113039222Y-100324991D01*
X112955557Y-100168466D01*
X112904037Y-99998627D01*
X112886641Y-99822000D01*
X112904037Y-99645373D01*
X112955557Y-99475534D01*
X113039222Y-99319009D01*
X113068552Y-99283271D01*
X113151814Y-99181814D01*
X113253271Y-99098552D01*
X113289009Y-99069222D01*
X113445534Y-98985557D01*
X113615373Y-98934037D01*
X113681557Y-98927519D01*
X113747740Y-98921000D01*
X113836260Y-98921000D01*
X113902442Y-98927518D01*
X113902442Y-98927518D01*
G37*
G36*
X111362442Y-98927518D02*
G01*
X111428627Y-98934037D01*
X111598466Y-98985557D01*
X111754991Y-99069222D01*
X111790729Y-99098552D01*
X111892186Y-99181814D01*
X111975448Y-99283271D01*
X112004778Y-99319009D01*
X112088443Y-99475534D01*
X112139963Y-99645373D01*
X112157359Y-99822000D01*
X112139963Y-99998627D01*
X112088443Y-100168466D01*
X112004778Y-100324991D01*
X111975448Y-100360729D01*
X111892186Y-100462186D01*
X111790729Y-100545448D01*
X111754991Y-100574778D01*
X111598466Y-100658443D01*
X111428627Y-100709963D01*
X111362443Y-100716481D01*
X111296260Y-100723000D01*
X111207740Y-100723000D01*
X111141558Y-100716482D01*
X111075373Y-100709963D01*
X110905534Y-100658443D01*
X110749009Y-100574778D01*
X110713271Y-100545448D01*
X110611814Y-100462186D01*
X110528552Y-100360729D01*
X110499222Y-100324991D01*
X110415557Y-100168466D01*
X110364037Y-99998627D01*
X110346641Y-99822000D01*
X110364037Y-99645373D01*
X110415557Y-99475534D01*
X110499222Y-99319009D01*
X110528552Y-99283271D01*
X110611814Y-99181814D01*
X110713271Y-99098552D01*
X110749009Y-99069222D01*
X110905534Y-98985557D01*
X111075373Y-98934037D01*
X111141557Y-98927519D01*
X111207740Y-98921000D01*
X111296260Y-98921000D01*
X111362442Y-98927518D01*
X111362442Y-98927518D01*
G37*
G36*
X108822442Y-98927518D02*
G01*
X108888627Y-98934037D01*
X109058466Y-98985557D01*
X109214991Y-99069222D01*
X109250729Y-99098552D01*
X109352186Y-99181814D01*
X109435448Y-99283271D01*
X109464778Y-99319009D01*
X109548443Y-99475534D01*
X109599963Y-99645373D01*
X109617359Y-99822000D01*
X109599963Y-99998627D01*
X109548443Y-100168466D01*
X109464778Y-100324991D01*
X109435448Y-100360729D01*
X109352186Y-100462186D01*
X109250729Y-100545448D01*
X109214991Y-100574778D01*
X109058466Y-100658443D01*
X108888627Y-100709963D01*
X108822443Y-100716481D01*
X108756260Y-100723000D01*
X108667740Y-100723000D01*
X108601558Y-100716482D01*
X108535373Y-100709963D01*
X108365534Y-100658443D01*
X108209009Y-100574778D01*
X108173271Y-100545448D01*
X108071814Y-100462186D01*
X107988552Y-100360729D01*
X107959222Y-100324991D01*
X107875557Y-100168466D01*
X107824037Y-99998627D01*
X107806641Y-99822000D01*
X107824037Y-99645373D01*
X107875557Y-99475534D01*
X107959222Y-99319009D01*
X107988552Y-99283271D01*
X108071814Y-99181814D01*
X108173271Y-99098552D01*
X108209009Y-99069222D01*
X108365534Y-98985557D01*
X108535373Y-98934037D01*
X108601557Y-98927519D01*
X108667740Y-98921000D01*
X108756260Y-98921000D01*
X108822442Y-98927518D01*
X108822442Y-98927518D01*
G37*
G36*
X106282442Y-98927518D02*
G01*
X106348627Y-98934037D01*
X106518466Y-98985557D01*
X106674991Y-99069222D01*
X106710729Y-99098552D01*
X106812186Y-99181814D01*
X106895448Y-99283271D01*
X106924778Y-99319009D01*
X107008443Y-99475534D01*
X107059963Y-99645373D01*
X107077359Y-99822000D01*
X107059963Y-99998627D01*
X107008443Y-100168466D01*
X106924778Y-100324991D01*
X106895448Y-100360729D01*
X106812186Y-100462186D01*
X106710729Y-100545448D01*
X106674991Y-100574778D01*
X106518466Y-100658443D01*
X106348627Y-100709963D01*
X106282443Y-100716481D01*
X106216260Y-100723000D01*
X106127740Y-100723000D01*
X106061558Y-100716482D01*
X105995373Y-100709963D01*
X105825534Y-100658443D01*
X105669009Y-100574778D01*
X105633271Y-100545448D01*
X105531814Y-100462186D01*
X105448552Y-100360729D01*
X105419222Y-100324991D01*
X105335557Y-100168466D01*
X105284037Y-99998627D01*
X105266641Y-99822000D01*
X105284037Y-99645373D01*
X105335557Y-99475534D01*
X105419222Y-99319009D01*
X105448552Y-99283271D01*
X105531814Y-99181814D01*
X105633271Y-99098552D01*
X105669009Y-99069222D01*
X105825534Y-98985557D01*
X105995373Y-98934037D01*
X106061557Y-98927519D01*
X106127740Y-98921000D01*
X106216260Y-98921000D01*
X106282442Y-98927518D01*
X106282442Y-98927518D01*
G37*
G36*
X103742442Y-98927518D02*
G01*
X103808627Y-98934037D01*
X103978466Y-98985557D01*
X104134991Y-99069222D01*
X104170729Y-99098552D01*
X104272186Y-99181814D01*
X104355448Y-99283271D01*
X104384778Y-99319009D01*
X104468443Y-99475534D01*
X104519963Y-99645373D01*
X104537359Y-99822000D01*
X104519963Y-99998627D01*
X104468443Y-100168466D01*
X104384778Y-100324991D01*
X104355448Y-100360729D01*
X104272186Y-100462186D01*
X104170729Y-100545448D01*
X104134991Y-100574778D01*
X103978466Y-100658443D01*
X103808627Y-100709963D01*
X103742443Y-100716481D01*
X103676260Y-100723000D01*
X103587740Y-100723000D01*
X103521558Y-100716482D01*
X103455373Y-100709963D01*
X103285534Y-100658443D01*
X103129009Y-100574778D01*
X103093271Y-100545448D01*
X102991814Y-100462186D01*
X102908552Y-100360729D01*
X102879222Y-100324991D01*
X102795557Y-100168466D01*
X102744037Y-99998627D01*
X102726641Y-99822000D01*
X102744037Y-99645373D01*
X102795557Y-99475534D01*
X102879222Y-99319009D01*
X102908552Y-99283271D01*
X102991814Y-99181814D01*
X103093271Y-99098552D01*
X103129009Y-99069222D01*
X103285534Y-98985557D01*
X103455373Y-98934037D01*
X103521557Y-98927519D01*
X103587740Y-98921000D01*
X103676260Y-98921000D01*
X103742442Y-98927518D01*
X103742442Y-98927518D01*
G37*
G36*
X101202442Y-98927518D02*
G01*
X101268627Y-98934037D01*
X101438466Y-98985557D01*
X101594991Y-99069222D01*
X101630729Y-99098552D01*
X101732186Y-99181814D01*
X101815448Y-99283271D01*
X101844778Y-99319009D01*
X101928443Y-99475534D01*
X101979963Y-99645373D01*
X101997359Y-99822000D01*
X101979963Y-99998627D01*
X101928443Y-100168466D01*
X101844778Y-100324991D01*
X101815448Y-100360729D01*
X101732186Y-100462186D01*
X101630729Y-100545448D01*
X101594991Y-100574778D01*
X101438466Y-100658443D01*
X101268627Y-100709963D01*
X101202443Y-100716481D01*
X101136260Y-100723000D01*
X101047740Y-100723000D01*
X100981558Y-100716482D01*
X100915373Y-100709963D01*
X100745534Y-100658443D01*
X100589009Y-100574778D01*
X100553271Y-100545448D01*
X100451814Y-100462186D01*
X100368552Y-100360729D01*
X100339222Y-100324991D01*
X100255557Y-100168466D01*
X100204037Y-99998627D01*
X100186641Y-99822000D01*
X100204037Y-99645373D01*
X100255557Y-99475534D01*
X100339222Y-99319009D01*
X100368552Y-99283271D01*
X100451814Y-99181814D01*
X100553271Y-99098552D01*
X100589009Y-99069222D01*
X100745534Y-98985557D01*
X100915373Y-98934037D01*
X100981557Y-98927519D01*
X101047740Y-98921000D01*
X101136260Y-98921000D01*
X101202442Y-98927518D01*
X101202442Y-98927518D01*
G37*
G36*
X98662442Y-98927518D02*
G01*
X98728627Y-98934037D01*
X98898466Y-98985557D01*
X99054991Y-99069222D01*
X99090729Y-99098552D01*
X99192186Y-99181814D01*
X99275448Y-99283271D01*
X99304778Y-99319009D01*
X99388443Y-99475534D01*
X99439963Y-99645373D01*
X99457359Y-99822000D01*
X99439963Y-99998627D01*
X99388443Y-100168466D01*
X99304778Y-100324991D01*
X99275448Y-100360729D01*
X99192186Y-100462186D01*
X99090729Y-100545448D01*
X99054991Y-100574778D01*
X98898466Y-100658443D01*
X98728627Y-100709963D01*
X98662443Y-100716481D01*
X98596260Y-100723000D01*
X98507740Y-100723000D01*
X98441558Y-100716482D01*
X98375373Y-100709963D01*
X98205534Y-100658443D01*
X98049009Y-100574778D01*
X98013271Y-100545448D01*
X97911814Y-100462186D01*
X97828552Y-100360729D01*
X97799222Y-100324991D01*
X97715557Y-100168466D01*
X97664037Y-99998627D01*
X97646641Y-99822000D01*
X97664037Y-99645373D01*
X97715557Y-99475534D01*
X97799222Y-99319009D01*
X97828552Y-99283271D01*
X97911814Y-99181814D01*
X98013271Y-99098552D01*
X98049009Y-99069222D01*
X98205534Y-98985557D01*
X98375373Y-98934037D01*
X98441557Y-98927519D01*
X98507740Y-98921000D01*
X98596260Y-98921000D01*
X98662442Y-98927518D01*
X98662442Y-98927518D01*
G37*
G36*
X96122442Y-98927518D02*
G01*
X96188627Y-98934037D01*
X96358466Y-98985557D01*
X96514991Y-99069222D01*
X96550729Y-99098552D01*
X96652186Y-99181814D01*
X96735448Y-99283271D01*
X96764778Y-99319009D01*
X96848443Y-99475534D01*
X96899963Y-99645373D01*
X96917359Y-99822000D01*
X96899963Y-99998627D01*
X96848443Y-100168466D01*
X96764778Y-100324991D01*
X96735448Y-100360729D01*
X96652186Y-100462186D01*
X96550729Y-100545448D01*
X96514991Y-100574778D01*
X96358466Y-100658443D01*
X96188627Y-100709963D01*
X96122443Y-100716481D01*
X96056260Y-100723000D01*
X95967740Y-100723000D01*
X95901558Y-100716482D01*
X95835373Y-100709963D01*
X95665534Y-100658443D01*
X95509009Y-100574778D01*
X95473271Y-100545448D01*
X95371814Y-100462186D01*
X95288552Y-100360729D01*
X95259222Y-100324991D01*
X95175557Y-100168466D01*
X95124037Y-99998627D01*
X95106641Y-99822000D01*
X95124037Y-99645373D01*
X95175557Y-99475534D01*
X95259222Y-99319009D01*
X95288552Y-99283271D01*
X95371814Y-99181814D01*
X95473271Y-99098552D01*
X95509009Y-99069222D01*
X95665534Y-98985557D01*
X95835373Y-98934037D01*
X95901557Y-98927519D01*
X95967740Y-98921000D01*
X96056260Y-98921000D01*
X96122442Y-98927518D01*
X96122442Y-98927518D01*
G37*
G36*
X93582442Y-98927518D02*
G01*
X93648627Y-98934037D01*
X93818466Y-98985557D01*
X93974991Y-99069222D01*
X94010729Y-99098552D01*
X94112186Y-99181814D01*
X94195448Y-99283271D01*
X94224778Y-99319009D01*
X94308443Y-99475534D01*
X94359963Y-99645373D01*
X94377359Y-99822000D01*
X94359963Y-99998627D01*
X94308443Y-100168466D01*
X94224778Y-100324991D01*
X94195448Y-100360729D01*
X94112186Y-100462186D01*
X94010729Y-100545448D01*
X93974991Y-100574778D01*
X93818466Y-100658443D01*
X93648627Y-100709963D01*
X93582443Y-100716481D01*
X93516260Y-100723000D01*
X93427740Y-100723000D01*
X93361558Y-100716482D01*
X93295373Y-100709963D01*
X93125534Y-100658443D01*
X92969009Y-100574778D01*
X92933271Y-100545448D01*
X92831814Y-100462186D01*
X92748552Y-100360729D01*
X92719222Y-100324991D01*
X92635557Y-100168466D01*
X92584037Y-99998627D01*
X92566641Y-99822000D01*
X92584037Y-99645373D01*
X92635557Y-99475534D01*
X92719222Y-99319009D01*
X92748552Y-99283271D01*
X92831814Y-99181814D01*
X92933271Y-99098552D01*
X92969009Y-99069222D01*
X93125534Y-98985557D01*
X93295373Y-98934037D01*
X93361557Y-98927519D01*
X93427740Y-98921000D01*
X93516260Y-98921000D01*
X93582442Y-98927518D01*
X93582442Y-98927518D01*
G37*
G36*
X154542442Y-98927518D02*
G01*
X154608627Y-98934037D01*
X154778466Y-98985557D01*
X154934991Y-99069222D01*
X154970729Y-99098552D01*
X155072186Y-99181814D01*
X155155448Y-99283271D01*
X155184778Y-99319009D01*
X155268443Y-99475534D01*
X155319963Y-99645373D01*
X155337359Y-99822000D01*
X155319963Y-99998627D01*
X155268443Y-100168466D01*
X155184778Y-100324991D01*
X155155448Y-100360729D01*
X155072186Y-100462186D01*
X154970729Y-100545448D01*
X154934991Y-100574778D01*
X154778466Y-100658443D01*
X154608627Y-100709963D01*
X154542443Y-100716481D01*
X154476260Y-100723000D01*
X154387740Y-100723000D01*
X154321558Y-100716482D01*
X154255373Y-100709963D01*
X154085534Y-100658443D01*
X153929009Y-100574778D01*
X153893271Y-100545448D01*
X153791814Y-100462186D01*
X153708552Y-100360729D01*
X153679222Y-100324991D01*
X153595557Y-100168466D01*
X153544037Y-99998627D01*
X153526641Y-99822000D01*
X153544037Y-99645373D01*
X153595557Y-99475534D01*
X153679222Y-99319009D01*
X153708552Y-99283271D01*
X153791814Y-99181814D01*
X153893271Y-99098552D01*
X153929009Y-99069222D01*
X154085534Y-98985557D01*
X154255373Y-98934037D01*
X154321557Y-98927519D01*
X154387740Y-98921000D01*
X154476260Y-98921000D01*
X154542442Y-98927518D01*
X154542442Y-98927518D01*
G37*
G36*
X134222442Y-98927518D02*
G01*
X134288627Y-98934037D01*
X134458466Y-98985557D01*
X134614991Y-99069222D01*
X134650729Y-99098552D01*
X134752186Y-99181814D01*
X134835448Y-99283271D01*
X134864778Y-99319009D01*
X134948443Y-99475534D01*
X134999963Y-99645373D01*
X135017359Y-99822000D01*
X134999963Y-99998627D01*
X134948443Y-100168466D01*
X134864778Y-100324991D01*
X134835448Y-100360729D01*
X134752186Y-100462186D01*
X134650729Y-100545448D01*
X134614991Y-100574778D01*
X134458466Y-100658443D01*
X134288627Y-100709963D01*
X134222443Y-100716481D01*
X134156260Y-100723000D01*
X134067740Y-100723000D01*
X134001558Y-100716482D01*
X133935373Y-100709963D01*
X133765534Y-100658443D01*
X133609009Y-100574778D01*
X133573271Y-100545448D01*
X133471814Y-100462186D01*
X133388552Y-100360729D01*
X133359222Y-100324991D01*
X133275557Y-100168466D01*
X133224037Y-99998627D01*
X133206641Y-99822000D01*
X133224037Y-99645373D01*
X133275557Y-99475534D01*
X133359222Y-99319009D01*
X133388552Y-99283271D01*
X133471814Y-99181814D01*
X133573271Y-99098552D01*
X133609009Y-99069222D01*
X133765534Y-98985557D01*
X133935373Y-98934037D01*
X134001557Y-98927519D01*
X134067740Y-98921000D01*
X134156260Y-98921000D01*
X134222442Y-98927518D01*
X134222442Y-98927518D01*
G37*
G36*
X91042442Y-98927518D02*
G01*
X91108627Y-98934037D01*
X91278466Y-98985557D01*
X91434991Y-99069222D01*
X91470729Y-99098552D01*
X91572186Y-99181814D01*
X91655448Y-99283271D01*
X91684778Y-99319009D01*
X91768443Y-99475534D01*
X91819963Y-99645373D01*
X91837359Y-99822000D01*
X91819963Y-99998627D01*
X91768443Y-100168466D01*
X91684778Y-100324991D01*
X91655448Y-100360729D01*
X91572186Y-100462186D01*
X91470729Y-100545448D01*
X91434991Y-100574778D01*
X91278466Y-100658443D01*
X91108627Y-100709963D01*
X91042443Y-100716481D01*
X90976260Y-100723000D01*
X90887740Y-100723000D01*
X90821558Y-100716482D01*
X90755373Y-100709963D01*
X90585534Y-100658443D01*
X90429009Y-100574778D01*
X90393271Y-100545448D01*
X90291814Y-100462186D01*
X90208552Y-100360729D01*
X90179222Y-100324991D01*
X90095557Y-100168466D01*
X90044037Y-99998627D01*
X90026641Y-99822000D01*
X90044037Y-99645373D01*
X90095557Y-99475534D01*
X90179222Y-99319009D01*
X90208552Y-99283271D01*
X90291814Y-99181814D01*
X90393271Y-99098552D01*
X90429009Y-99069222D01*
X90585534Y-98985557D01*
X90755373Y-98934037D01*
X90821557Y-98927519D01*
X90887740Y-98921000D01*
X90976260Y-98921000D01*
X91042442Y-98927518D01*
X91042442Y-98927518D01*
G37*
G36*
X170573000Y-100723000D02*
G01*
X168771000Y-100723000D01*
X168771000Y-98921000D01*
X170573000Y-98921000D01*
X170573000Y-100723000D01*
X170573000Y-100723000D01*
G37*
G36*
X129142442Y-98927518D02*
G01*
X129208627Y-98934037D01*
X129378466Y-98985557D01*
X129534991Y-99069222D01*
X129570729Y-99098552D01*
X129672186Y-99181814D01*
X129755448Y-99283271D01*
X129784778Y-99319009D01*
X129868443Y-99475534D01*
X129919963Y-99645373D01*
X129937359Y-99822000D01*
X129919963Y-99998627D01*
X129868443Y-100168466D01*
X129784778Y-100324991D01*
X129755448Y-100360729D01*
X129672186Y-100462186D01*
X129570729Y-100545448D01*
X129534991Y-100574778D01*
X129378466Y-100658443D01*
X129208627Y-100709963D01*
X129142443Y-100716481D01*
X129076260Y-100723000D01*
X128987740Y-100723000D01*
X128921558Y-100716482D01*
X128855373Y-100709963D01*
X128685534Y-100658443D01*
X128529009Y-100574778D01*
X128493271Y-100545448D01*
X128391814Y-100462186D01*
X128308552Y-100360729D01*
X128279222Y-100324991D01*
X128195557Y-100168466D01*
X128144037Y-99998627D01*
X128126641Y-99822000D01*
X128144037Y-99645373D01*
X128195557Y-99475534D01*
X128279222Y-99319009D01*
X128308552Y-99283271D01*
X128391814Y-99181814D01*
X128493271Y-99098552D01*
X128529009Y-99069222D01*
X128685534Y-98985557D01*
X128855373Y-98934037D01*
X128921557Y-98927519D01*
X128987740Y-98921000D01*
X129076260Y-98921000D01*
X129142442Y-98927518D01*
X129142442Y-98927518D01*
G37*
G36*
X164702442Y-98927518D02*
G01*
X164768627Y-98934037D01*
X164938466Y-98985557D01*
X165094991Y-99069222D01*
X165130729Y-99098552D01*
X165232186Y-99181814D01*
X165315448Y-99283271D01*
X165344778Y-99319009D01*
X165428443Y-99475534D01*
X165479963Y-99645373D01*
X165497359Y-99822000D01*
X165479963Y-99998627D01*
X165428443Y-100168466D01*
X165344778Y-100324991D01*
X165315448Y-100360729D01*
X165232186Y-100462186D01*
X165130729Y-100545448D01*
X165094991Y-100574778D01*
X164938466Y-100658443D01*
X164768627Y-100709963D01*
X164702443Y-100716481D01*
X164636260Y-100723000D01*
X164547740Y-100723000D01*
X164481558Y-100716482D01*
X164415373Y-100709963D01*
X164245534Y-100658443D01*
X164089009Y-100574778D01*
X164053271Y-100545448D01*
X163951814Y-100462186D01*
X163868552Y-100360729D01*
X163839222Y-100324991D01*
X163755557Y-100168466D01*
X163704037Y-99998627D01*
X163686641Y-99822000D01*
X163704037Y-99645373D01*
X163755557Y-99475534D01*
X163839222Y-99319009D01*
X163868552Y-99283271D01*
X163951814Y-99181814D01*
X164053271Y-99098552D01*
X164089009Y-99069222D01*
X164245534Y-98985557D01*
X164415373Y-98934037D01*
X164481557Y-98927519D01*
X164547740Y-98921000D01*
X164636260Y-98921000D01*
X164702442Y-98927518D01*
X164702442Y-98927518D01*
G37*
G36*
X167242442Y-98927518D02*
G01*
X167308627Y-98934037D01*
X167478466Y-98985557D01*
X167634991Y-99069222D01*
X167670729Y-99098552D01*
X167772186Y-99181814D01*
X167855448Y-99283271D01*
X167884778Y-99319009D01*
X167968443Y-99475534D01*
X168019963Y-99645373D01*
X168037359Y-99822000D01*
X168019963Y-99998627D01*
X167968443Y-100168466D01*
X167884778Y-100324991D01*
X167855448Y-100360729D01*
X167772186Y-100462186D01*
X167670729Y-100545448D01*
X167634991Y-100574778D01*
X167478466Y-100658443D01*
X167308627Y-100709963D01*
X167242443Y-100716481D01*
X167176260Y-100723000D01*
X167087740Y-100723000D01*
X167021558Y-100716482D01*
X166955373Y-100709963D01*
X166785534Y-100658443D01*
X166629009Y-100574778D01*
X166593271Y-100545448D01*
X166491814Y-100462186D01*
X166408552Y-100360729D01*
X166379222Y-100324991D01*
X166295557Y-100168466D01*
X166244037Y-99998627D01*
X166226641Y-99822000D01*
X166244037Y-99645373D01*
X166295557Y-99475534D01*
X166379222Y-99319009D01*
X166408552Y-99283271D01*
X166491814Y-99181814D01*
X166593271Y-99098552D01*
X166629009Y-99069222D01*
X166785534Y-98985557D01*
X166955373Y-98934037D01*
X167021557Y-98927519D01*
X167087740Y-98921000D01*
X167176260Y-98921000D01*
X167242442Y-98927518D01*
X167242442Y-98927518D01*
G37*
G36*
X159622442Y-98927518D02*
G01*
X159688627Y-98934037D01*
X159858466Y-98985557D01*
X160014991Y-99069222D01*
X160050729Y-99098552D01*
X160152186Y-99181814D01*
X160235448Y-99283271D01*
X160264778Y-99319009D01*
X160348443Y-99475534D01*
X160399963Y-99645373D01*
X160417359Y-99822000D01*
X160399963Y-99998627D01*
X160348443Y-100168466D01*
X160264778Y-100324991D01*
X160235448Y-100360729D01*
X160152186Y-100462186D01*
X160050729Y-100545448D01*
X160014991Y-100574778D01*
X159858466Y-100658443D01*
X159688627Y-100709963D01*
X159622443Y-100716481D01*
X159556260Y-100723000D01*
X159467740Y-100723000D01*
X159401558Y-100716482D01*
X159335373Y-100709963D01*
X159165534Y-100658443D01*
X159009009Y-100574778D01*
X158973271Y-100545448D01*
X158871814Y-100462186D01*
X158788552Y-100360729D01*
X158759222Y-100324991D01*
X158675557Y-100168466D01*
X158624037Y-99998627D01*
X158606641Y-99822000D01*
X158624037Y-99645373D01*
X158675557Y-99475534D01*
X158759222Y-99319009D01*
X158788552Y-99283271D01*
X158871814Y-99181814D01*
X158973271Y-99098552D01*
X159009009Y-99069222D01*
X159165534Y-98985557D01*
X159335373Y-98934037D01*
X159401557Y-98927519D01*
X159467740Y-98921000D01*
X159556260Y-98921000D01*
X159622442Y-98927518D01*
X159622442Y-98927518D01*
G37*
G36*
X157082442Y-98927518D02*
G01*
X157148627Y-98934037D01*
X157318466Y-98985557D01*
X157474991Y-99069222D01*
X157510729Y-99098552D01*
X157612186Y-99181814D01*
X157695448Y-99283271D01*
X157724778Y-99319009D01*
X157808443Y-99475534D01*
X157859963Y-99645373D01*
X157877359Y-99822000D01*
X157859963Y-99998627D01*
X157808443Y-100168466D01*
X157724778Y-100324991D01*
X157695448Y-100360729D01*
X157612186Y-100462186D01*
X157510729Y-100545448D01*
X157474991Y-100574778D01*
X157318466Y-100658443D01*
X157148627Y-100709963D01*
X157082443Y-100716481D01*
X157016260Y-100723000D01*
X156927740Y-100723000D01*
X156861558Y-100716482D01*
X156795373Y-100709963D01*
X156625534Y-100658443D01*
X156469009Y-100574778D01*
X156433271Y-100545448D01*
X156331814Y-100462186D01*
X156248552Y-100360729D01*
X156219222Y-100324991D01*
X156135557Y-100168466D01*
X156084037Y-99998627D01*
X156066641Y-99822000D01*
X156084037Y-99645373D01*
X156135557Y-99475534D01*
X156219222Y-99319009D01*
X156248552Y-99283271D01*
X156331814Y-99181814D01*
X156433271Y-99098552D01*
X156469009Y-99069222D01*
X156625534Y-98985557D01*
X156795373Y-98934037D01*
X156861557Y-98927519D01*
X156927740Y-98921000D01*
X157016260Y-98921000D01*
X157082442Y-98927518D01*
X157082442Y-98927518D01*
G37*
G36*
X152002442Y-98927518D02*
G01*
X152068627Y-98934037D01*
X152238466Y-98985557D01*
X152394991Y-99069222D01*
X152430729Y-99098552D01*
X152532186Y-99181814D01*
X152615448Y-99283271D01*
X152644778Y-99319009D01*
X152728443Y-99475534D01*
X152779963Y-99645373D01*
X152797359Y-99822000D01*
X152779963Y-99998627D01*
X152728443Y-100168466D01*
X152644778Y-100324991D01*
X152615448Y-100360729D01*
X152532186Y-100462186D01*
X152430729Y-100545448D01*
X152394991Y-100574778D01*
X152238466Y-100658443D01*
X152068627Y-100709963D01*
X152002443Y-100716481D01*
X151936260Y-100723000D01*
X151847740Y-100723000D01*
X151781558Y-100716482D01*
X151715373Y-100709963D01*
X151545534Y-100658443D01*
X151389009Y-100574778D01*
X151353271Y-100545448D01*
X151251814Y-100462186D01*
X151168552Y-100360729D01*
X151139222Y-100324991D01*
X151055557Y-100168466D01*
X151004037Y-99998627D01*
X150986641Y-99822000D01*
X151004037Y-99645373D01*
X151055557Y-99475534D01*
X151139222Y-99319009D01*
X151168552Y-99283271D01*
X151251814Y-99181814D01*
X151353271Y-99098552D01*
X151389009Y-99069222D01*
X151545534Y-98985557D01*
X151715373Y-98934037D01*
X151781557Y-98927519D01*
X151847740Y-98921000D01*
X151936260Y-98921000D01*
X152002442Y-98927518D01*
X152002442Y-98927518D01*
G37*
G36*
X149462442Y-98927518D02*
G01*
X149528627Y-98934037D01*
X149698466Y-98985557D01*
X149854991Y-99069222D01*
X149890729Y-99098552D01*
X149992186Y-99181814D01*
X150075448Y-99283271D01*
X150104778Y-99319009D01*
X150188443Y-99475534D01*
X150239963Y-99645373D01*
X150257359Y-99822000D01*
X150239963Y-99998627D01*
X150188443Y-100168466D01*
X150104778Y-100324991D01*
X150075448Y-100360729D01*
X149992186Y-100462186D01*
X149890729Y-100545448D01*
X149854991Y-100574778D01*
X149698466Y-100658443D01*
X149528627Y-100709963D01*
X149462443Y-100716481D01*
X149396260Y-100723000D01*
X149307740Y-100723000D01*
X149241558Y-100716482D01*
X149175373Y-100709963D01*
X149005534Y-100658443D01*
X148849009Y-100574778D01*
X148813271Y-100545448D01*
X148711814Y-100462186D01*
X148628552Y-100360729D01*
X148599222Y-100324991D01*
X148515557Y-100168466D01*
X148464037Y-99998627D01*
X148446641Y-99822000D01*
X148464037Y-99645373D01*
X148515557Y-99475534D01*
X148599222Y-99319009D01*
X148628552Y-99283271D01*
X148711814Y-99181814D01*
X148813271Y-99098552D01*
X148849009Y-99069222D01*
X149005534Y-98985557D01*
X149175373Y-98934037D01*
X149241557Y-98927519D01*
X149307740Y-98921000D01*
X149396260Y-98921000D01*
X149462442Y-98927518D01*
X149462442Y-98927518D01*
G37*
G36*
X146922442Y-98927518D02*
G01*
X146988627Y-98934037D01*
X147158466Y-98985557D01*
X147314991Y-99069222D01*
X147350729Y-99098552D01*
X147452186Y-99181814D01*
X147535448Y-99283271D01*
X147564778Y-99319009D01*
X147648443Y-99475534D01*
X147699963Y-99645373D01*
X147717359Y-99822000D01*
X147699963Y-99998627D01*
X147648443Y-100168466D01*
X147564778Y-100324991D01*
X147535448Y-100360729D01*
X147452186Y-100462186D01*
X147350729Y-100545448D01*
X147314991Y-100574778D01*
X147158466Y-100658443D01*
X146988627Y-100709963D01*
X146922443Y-100716481D01*
X146856260Y-100723000D01*
X146767740Y-100723000D01*
X146701558Y-100716482D01*
X146635373Y-100709963D01*
X146465534Y-100658443D01*
X146309009Y-100574778D01*
X146273271Y-100545448D01*
X146171814Y-100462186D01*
X146088552Y-100360729D01*
X146059222Y-100324991D01*
X145975557Y-100168466D01*
X145924037Y-99998627D01*
X145906641Y-99822000D01*
X145924037Y-99645373D01*
X145975557Y-99475534D01*
X146059222Y-99319009D01*
X146088552Y-99283271D01*
X146171814Y-99181814D01*
X146273271Y-99098552D01*
X146309009Y-99069222D01*
X146465534Y-98985557D01*
X146635373Y-98934037D01*
X146701557Y-98927519D01*
X146767740Y-98921000D01*
X146856260Y-98921000D01*
X146922442Y-98927518D01*
X146922442Y-98927518D01*
G37*
G36*
X144382442Y-98927518D02*
G01*
X144448627Y-98934037D01*
X144618466Y-98985557D01*
X144774991Y-99069222D01*
X144810729Y-99098552D01*
X144912186Y-99181814D01*
X144995448Y-99283271D01*
X145024778Y-99319009D01*
X145108443Y-99475534D01*
X145159963Y-99645373D01*
X145177359Y-99822000D01*
X145159963Y-99998627D01*
X145108443Y-100168466D01*
X145024778Y-100324991D01*
X144995448Y-100360729D01*
X144912186Y-100462186D01*
X144810729Y-100545448D01*
X144774991Y-100574778D01*
X144618466Y-100658443D01*
X144448627Y-100709963D01*
X144382443Y-100716481D01*
X144316260Y-100723000D01*
X144227740Y-100723000D01*
X144161558Y-100716482D01*
X144095373Y-100709963D01*
X143925534Y-100658443D01*
X143769009Y-100574778D01*
X143733271Y-100545448D01*
X143631814Y-100462186D01*
X143548552Y-100360729D01*
X143519222Y-100324991D01*
X143435557Y-100168466D01*
X143384037Y-99998627D01*
X143366641Y-99822000D01*
X143384037Y-99645373D01*
X143435557Y-99475534D01*
X143519222Y-99319009D01*
X143548552Y-99283271D01*
X143631814Y-99181814D01*
X143733271Y-99098552D01*
X143769009Y-99069222D01*
X143925534Y-98985557D01*
X144095373Y-98934037D01*
X144161557Y-98927519D01*
X144227740Y-98921000D01*
X144316260Y-98921000D01*
X144382442Y-98927518D01*
X144382442Y-98927518D01*
G37*
G36*
X141842442Y-98927518D02*
G01*
X141908627Y-98934037D01*
X142078466Y-98985557D01*
X142234991Y-99069222D01*
X142270729Y-99098552D01*
X142372186Y-99181814D01*
X142455448Y-99283271D01*
X142484778Y-99319009D01*
X142568443Y-99475534D01*
X142619963Y-99645373D01*
X142637359Y-99822000D01*
X142619963Y-99998627D01*
X142568443Y-100168466D01*
X142484778Y-100324991D01*
X142455448Y-100360729D01*
X142372186Y-100462186D01*
X142270729Y-100545448D01*
X142234991Y-100574778D01*
X142078466Y-100658443D01*
X141908627Y-100709963D01*
X141842443Y-100716481D01*
X141776260Y-100723000D01*
X141687740Y-100723000D01*
X141621558Y-100716482D01*
X141555373Y-100709963D01*
X141385534Y-100658443D01*
X141229009Y-100574778D01*
X141193271Y-100545448D01*
X141091814Y-100462186D01*
X141008552Y-100360729D01*
X140979222Y-100324991D01*
X140895557Y-100168466D01*
X140844037Y-99998627D01*
X140826641Y-99822000D01*
X140844037Y-99645373D01*
X140895557Y-99475534D01*
X140979222Y-99319009D01*
X141008552Y-99283271D01*
X141091814Y-99181814D01*
X141193271Y-99098552D01*
X141229009Y-99069222D01*
X141385534Y-98985557D01*
X141555373Y-98934037D01*
X141621557Y-98927519D01*
X141687740Y-98921000D01*
X141776260Y-98921000D01*
X141842442Y-98927518D01*
X141842442Y-98927518D01*
G37*
G36*
X139302442Y-98927518D02*
G01*
X139368627Y-98934037D01*
X139538466Y-98985557D01*
X139694991Y-99069222D01*
X139730729Y-99098552D01*
X139832186Y-99181814D01*
X139915448Y-99283271D01*
X139944778Y-99319009D01*
X140028443Y-99475534D01*
X140079963Y-99645373D01*
X140097359Y-99822000D01*
X140079963Y-99998627D01*
X140028443Y-100168466D01*
X139944778Y-100324991D01*
X139915448Y-100360729D01*
X139832186Y-100462186D01*
X139730729Y-100545448D01*
X139694991Y-100574778D01*
X139538466Y-100658443D01*
X139368627Y-100709963D01*
X139302443Y-100716481D01*
X139236260Y-100723000D01*
X139147740Y-100723000D01*
X139081558Y-100716482D01*
X139015373Y-100709963D01*
X138845534Y-100658443D01*
X138689009Y-100574778D01*
X138653271Y-100545448D01*
X138551814Y-100462186D01*
X138468552Y-100360729D01*
X138439222Y-100324991D01*
X138355557Y-100168466D01*
X138304037Y-99998627D01*
X138286641Y-99822000D01*
X138304037Y-99645373D01*
X138355557Y-99475534D01*
X138439222Y-99319009D01*
X138468552Y-99283271D01*
X138551814Y-99181814D01*
X138653271Y-99098552D01*
X138689009Y-99069222D01*
X138845534Y-98985557D01*
X139015373Y-98934037D01*
X139081557Y-98927519D01*
X139147740Y-98921000D01*
X139236260Y-98921000D01*
X139302442Y-98927518D01*
X139302442Y-98927518D01*
G37*
G36*
X136762442Y-98927518D02*
G01*
X136828627Y-98934037D01*
X136998466Y-98985557D01*
X137154991Y-99069222D01*
X137190729Y-99098552D01*
X137292186Y-99181814D01*
X137375448Y-99283271D01*
X137404778Y-99319009D01*
X137488443Y-99475534D01*
X137539963Y-99645373D01*
X137557359Y-99822000D01*
X137539963Y-99998627D01*
X137488443Y-100168466D01*
X137404778Y-100324991D01*
X137375448Y-100360729D01*
X137292186Y-100462186D01*
X137190729Y-100545448D01*
X137154991Y-100574778D01*
X136998466Y-100658443D01*
X136828627Y-100709963D01*
X136762443Y-100716481D01*
X136696260Y-100723000D01*
X136607740Y-100723000D01*
X136541558Y-100716482D01*
X136475373Y-100709963D01*
X136305534Y-100658443D01*
X136149009Y-100574778D01*
X136113271Y-100545448D01*
X136011814Y-100462186D01*
X135928552Y-100360729D01*
X135899222Y-100324991D01*
X135815557Y-100168466D01*
X135764037Y-99998627D01*
X135746641Y-99822000D01*
X135764037Y-99645373D01*
X135815557Y-99475534D01*
X135899222Y-99319009D01*
X135928552Y-99283271D01*
X136011814Y-99181814D01*
X136113271Y-99098552D01*
X136149009Y-99069222D01*
X136305534Y-98985557D01*
X136475373Y-98934037D01*
X136541557Y-98927519D01*
X136607740Y-98921000D01*
X136696260Y-98921000D01*
X136762442Y-98927518D01*
X136762442Y-98927518D01*
G37*
G36*
X131682442Y-98927518D02*
G01*
X131748627Y-98934037D01*
X131918466Y-98985557D01*
X132074991Y-99069222D01*
X132110729Y-99098552D01*
X132212186Y-99181814D01*
X132295448Y-99283271D01*
X132324778Y-99319009D01*
X132408443Y-99475534D01*
X132459963Y-99645373D01*
X132477359Y-99822000D01*
X132459963Y-99998627D01*
X132408443Y-100168466D01*
X132324778Y-100324991D01*
X132295448Y-100360729D01*
X132212186Y-100462186D01*
X132110729Y-100545448D01*
X132074991Y-100574778D01*
X131918466Y-100658443D01*
X131748627Y-100709963D01*
X131682443Y-100716481D01*
X131616260Y-100723000D01*
X131527740Y-100723000D01*
X131461558Y-100716482D01*
X131395373Y-100709963D01*
X131225534Y-100658443D01*
X131069009Y-100574778D01*
X131033271Y-100545448D01*
X130931814Y-100462186D01*
X130848552Y-100360729D01*
X130819222Y-100324991D01*
X130735557Y-100168466D01*
X130684037Y-99998627D01*
X130666641Y-99822000D01*
X130684037Y-99645373D01*
X130735557Y-99475534D01*
X130819222Y-99319009D01*
X130848552Y-99283271D01*
X130931814Y-99181814D01*
X131033271Y-99098552D01*
X131069009Y-99069222D01*
X131225534Y-98985557D01*
X131395373Y-98934037D01*
X131461557Y-98927519D01*
X131527740Y-98921000D01*
X131616260Y-98921000D01*
X131682442Y-98927518D01*
X131682442Y-98927518D01*
G37*
G36*
X92312443Y-94863519D02*
G01*
X92378627Y-94870037D01*
X92548466Y-94921557D01*
X92704991Y-95005222D01*
X92740729Y-95034552D01*
X92842186Y-95117814D01*
X92925448Y-95219271D01*
X92954778Y-95255009D01*
X93038443Y-95411534D01*
X93089963Y-95581373D01*
X93107359Y-95758000D01*
X93089963Y-95934627D01*
X93038443Y-96104466D01*
X92954778Y-96260991D01*
X92925448Y-96296729D01*
X92842186Y-96398186D01*
X92740729Y-96481448D01*
X92704991Y-96510778D01*
X92548466Y-96594443D01*
X92378627Y-96645963D01*
X92312442Y-96652482D01*
X92246260Y-96659000D01*
X92157740Y-96659000D01*
X92091558Y-96652482D01*
X92025373Y-96645963D01*
X91855534Y-96594443D01*
X91699009Y-96510778D01*
X91663271Y-96481448D01*
X91561814Y-96398186D01*
X91478552Y-96296729D01*
X91449222Y-96260991D01*
X91365557Y-96104466D01*
X91314037Y-95934627D01*
X91296641Y-95758000D01*
X91314037Y-95581373D01*
X91365557Y-95411534D01*
X91449222Y-95255009D01*
X91478552Y-95219271D01*
X91561814Y-95117814D01*
X91663271Y-95034552D01*
X91699009Y-95005222D01*
X91855534Y-94921557D01*
X92025373Y-94870037D01*
X92091557Y-94863519D01*
X92157740Y-94857000D01*
X92246260Y-94857000D01*
X92312443Y-94863519D01*
X92312443Y-94863519D01*
G37*
G36*
X95643000Y-96659000D02*
G01*
X93841000Y-96659000D01*
X93841000Y-94857000D01*
X95643000Y-94857000D01*
X95643000Y-96659000D01*
X95643000Y-96659000D01*
G37*
G36*
X168033000Y-96659000D02*
G01*
X166231000Y-96659000D01*
X166231000Y-94857000D01*
X168033000Y-94857000D01*
X168033000Y-96659000D01*
X168033000Y-96659000D01*
G37*
G36*
X169782443Y-94863519D02*
G01*
X169848627Y-94870037D01*
X170018466Y-94921557D01*
X170174991Y-95005222D01*
X170210729Y-95034552D01*
X170312186Y-95117814D01*
X170395448Y-95219271D01*
X170424778Y-95255009D01*
X170508443Y-95411534D01*
X170559963Y-95581373D01*
X170577359Y-95758000D01*
X170559963Y-95934627D01*
X170508443Y-96104466D01*
X170424778Y-96260991D01*
X170395448Y-96296729D01*
X170312186Y-96398186D01*
X170210729Y-96481448D01*
X170174991Y-96510778D01*
X170018466Y-96594443D01*
X169848627Y-96645963D01*
X169782443Y-96652481D01*
X169716260Y-96659000D01*
X169627740Y-96659000D01*
X169561558Y-96652482D01*
X169495373Y-96645963D01*
X169325534Y-96594443D01*
X169169009Y-96510778D01*
X169133271Y-96481448D01*
X169031814Y-96398186D01*
X168948552Y-96296729D01*
X168919222Y-96260991D01*
X168835557Y-96104466D01*
X168784037Y-95934627D01*
X168766641Y-95758000D01*
X168784037Y-95581373D01*
X168835557Y-95411534D01*
X168919222Y-95255009D01*
X168948552Y-95219271D01*
X169031814Y-95117814D01*
X169133271Y-95034552D01*
X169169009Y-95005222D01*
X169325534Y-94921557D01*
X169495373Y-94870037D01*
X169561558Y-94863518D01*
X169627740Y-94857000D01*
X169716260Y-94857000D01*
X169782443Y-94863519D01*
X169782443Y-94863519D01*
G37*
G36*
X150026823Y-89839313D02*
G01*
X150187242Y-89887976D01*
X150319906Y-89958886D01*
X150335078Y-89966996D01*
X150464659Y-90073341D01*
X150571004Y-90202922D01*
X150571005Y-90202924D01*
X150650024Y-90350758D01*
X150698687Y-90511177D01*
X150715117Y-90678000D01*
X150698687Y-90844823D01*
X150650024Y-91005242D01*
X150579114Y-91137906D01*
X150571004Y-91153078D01*
X150464659Y-91282659D01*
X150335078Y-91389004D01*
X150335076Y-91389005D01*
X150187242Y-91468024D01*
X150026823Y-91516687D01*
X149901804Y-91529000D01*
X149818196Y-91529000D01*
X149693177Y-91516687D01*
X149532758Y-91468024D01*
X149384924Y-91389005D01*
X149384922Y-91389004D01*
X149255341Y-91282659D01*
X149148996Y-91153078D01*
X149140886Y-91137906D01*
X149069976Y-91005242D01*
X149021313Y-90844823D01*
X149004883Y-90678000D01*
X149021313Y-90511177D01*
X149069976Y-90350758D01*
X149148995Y-90202924D01*
X149148996Y-90202922D01*
X149255341Y-90073341D01*
X149384922Y-89966996D01*
X149400094Y-89958886D01*
X149532758Y-89887976D01*
X149693177Y-89839313D01*
X149818196Y-89827000D01*
X149901804Y-89827000D01*
X150026823Y-89839313D01*
X150026823Y-89839313D01*
G37*
G36*
X107531000Y-91529000D02*
G01*
X105829000Y-91529000D01*
X105829000Y-89827000D01*
X107531000Y-89827000D01*
X107531000Y-91529000D01*
X107531000Y-91529000D01*
G37*
G36*
X117006823Y-89839313D02*
G01*
X117167242Y-89887976D01*
X117299906Y-89958886D01*
X117315078Y-89966996D01*
X117444659Y-90073341D01*
X117551004Y-90202922D01*
X117551005Y-90202924D01*
X117630024Y-90350758D01*
X117678687Y-90511177D01*
X117695117Y-90678000D01*
X117678687Y-90844823D01*
X117630024Y-91005242D01*
X117559114Y-91137906D01*
X117551004Y-91153078D01*
X117444659Y-91282659D01*
X117315078Y-91389004D01*
X117315076Y-91389005D01*
X117167242Y-91468024D01*
X117006823Y-91516687D01*
X116881804Y-91529000D01*
X116798196Y-91529000D01*
X116673177Y-91516687D01*
X116512758Y-91468024D01*
X116364924Y-91389005D01*
X116364922Y-91389004D01*
X116235341Y-91282659D01*
X116128996Y-91153078D01*
X116120886Y-91137906D01*
X116049976Y-91005242D01*
X116001313Y-90844823D01*
X115984883Y-90678000D01*
X116001313Y-90511177D01*
X116049976Y-90350758D01*
X116128995Y-90202924D01*
X116128996Y-90202922D01*
X116235341Y-90073341D01*
X116364922Y-89966996D01*
X116380094Y-89958886D01*
X116512758Y-89887976D01*
X116673177Y-89839313D01*
X116798196Y-89827000D01*
X116881804Y-89827000D01*
X117006823Y-89839313D01*
X117006823Y-89839313D01*
G37*
G36*
X152566823Y-89839313D02*
G01*
X152727242Y-89887976D01*
X152859906Y-89958886D01*
X152875078Y-89966996D01*
X153004659Y-90073341D01*
X153111004Y-90202922D01*
X153111005Y-90202924D01*
X153190024Y-90350758D01*
X153238687Y-90511177D01*
X153255117Y-90678000D01*
X153238687Y-90844823D01*
X153190024Y-91005242D01*
X153119114Y-91137906D01*
X153111004Y-91153078D01*
X153004659Y-91282659D01*
X152875078Y-91389004D01*
X152875076Y-91389005D01*
X152727242Y-91468024D01*
X152566823Y-91516687D01*
X152441804Y-91529000D01*
X152358196Y-91529000D01*
X152233177Y-91516687D01*
X152072758Y-91468024D01*
X151924924Y-91389005D01*
X151924922Y-91389004D01*
X151795341Y-91282659D01*
X151688996Y-91153078D01*
X151680886Y-91137906D01*
X151609976Y-91005242D01*
X151561313Y-90844823D01*
X151544883Y-90678000D01*
X151561313Y-90511177D01*
X151609976Y-90350758D01*
X151688995Y-90202924D01*
X151688996Y-90202922D01*
X151795341Y-90073341D01*
X151924922Y-89966996D01*
X151940094Y-89958886D01*
X152072758Y-89887976D01*
X152233177Y-89839313D01*
X152358196Y-89827000D01*
X152441804Y-89827000D01*
X152566823Y-89839313D01*
X152566823Y-89839313D01*
G37*
G36*
X114466823Y-89839313D02*
G01*
X114627242Y-89887976D01*
X114759906Y-89958886D01*
X114775078Y-89966996D01*
X114904659Y-90073341D01*
X115011004Y-90202922D01*
X115011005Y-90202924D01*
X115090024Y-90350758D01*
X115138687Y-90511177D01*
X115155117Y-90678000D01*
X115138687Y-90844823D01*
X115090024Y-91005242D01*
X115019114Y-91137906D01*
X115011004Y-91153078D01*
X114904659Y-91282659D01*
X114775078Y-91389004D01*
X114775076Y-91389005D01*
X114627242Y-91468024D01*
X114466823Y-91516687D01*
X114341804Y-91529000D01*
X114258196Y-91529000D01*
X114133177Y-91516687D01*
X113972758Y-91468024D01*
X113824924Y-91389005D01*
X113824922Y-91389004D01*
X113695341Y-91282659D01*
X113588996Y-91153078D01*
X113580886Y-91137906D01*
X113509976Y-91005242D01*
X113461313Y-90844823D01*
X113444883Y-90678000D01*
X113461313Y-90511177D01*
X113509976Y-90350758D01*
X113588995Y-90202924D01*
X113588996Y-90202922D01*
X113695341Y-90073341D01*
X113824922Y-89966996D01*
X113840094Y-89958886D01*
X113972758Y-89887976D01*
X114133177Y-89839313D01*
X114258196Y-89827000D01*
X114341804Y-89827000D01*
X114466823Y-89839313D01*
X114466823Y-89839313D01*
G37*
G36*
X155106823Y-89839313D02*
G01*
X155267242Y-89887976D01*
X155399906Y-89958886D01*
X155415078Y-89966996D01*
X155544659Y-90073341D01*
X155651004Y-90202922D01*
X155651005Y-90202924D01*
X155730024Y-90350758D01*
X155778687Y-90511177D01*
X155795117Y-90678000D01*
X155778687Y-90844823D01*
X155730024Y-91005242D01*
X155659114Y-91137906D01*
X155651004Y-91153078D01*
X155544659Y-91282659D01*
X155415078Y-91389004D01*
X155415076Y-91389005D01*
X155267242Y-91468024D01*
X155106823Y-91516687D01*
X154981804Y-91529000D01*
X154898196Y-91529000D01*
X154773177Y-91516687D01*
X154612758Y-91468024D01*
X154464924Y-91389005D01*
X154464922Y-91389004D01*
X154335341Y-91282659D01*
X154228996Y-91153078D01*
X154220886Y-91137906D01*
X154149976Y-91005242D01*
X154101313Y-90844823D01*
X154084883Y-90678000D01*
X154101313Y-90511177D01*
X154149976Y-90350758D01*
X154228995Y-90202924D01*
X154228996Y-90202922D01*
X154335341Y-90073341D01*
X154464922Y-89966996D01*
X154480094Y-89958886D01*
X154612758Y-89887976D01*
X154773177Y-89839313D01*
X154898196Y-89827000D01*
X154981804Y-89827000D01*
X155106823Y-89839313D01*
X155106823Y-89839313D01*
G37*
G36*
X111926823Y-89839313D02*
G01*
X112087242Y-89887976D01*
X112219906Y-89958886D01*
X112235078Y-89966996D01*
X112364659Y-90073341D01*
X112471004Y-90202922D01*
X112471005Y-90202924D01*
X112550024Y-90350758D01*
X112598687Y-90511177D01*
X112615117Y-90678000D01*
X112598687Y-90844823D01*
X112550024Y-91005242D01*
X112479114Y-91137906D01*
X112471004Y-91153078D01*
X112364659Y-91282659D01*
X112235078Y-91389004D01*
X112235076Y-91389005D01*
X112087242Y-91468024D01*
X111926823Y-91516687D01*
X111801804Y-91529000D01*
X111718196Y-91529000D01*
X111593177Y-91516687D01*
X111432758Y-91468024D01*
X111284924Y-91389005D01*
X111284922Y-91389004D01*
X111155341Y-91282659D01*
X111048996Y-91153078D01*
X111040886Y-91137906D01*
X110969976Y-91005242D01*
X110921313Y-90844823D01*
X110904883Y-90678000D01*
X110921313Y-90511177D01*
X110969976Y-90350758D01*
X111048995Y-90202924D01*
X111048996Y-90202922D01*
X111155341Y-90073341D01*
X111284922Y-89966996D01*
X111300094Y-89958886D01*
X111432758Y-89887976D01*
X111593177Y-89839313D01*
X111718196Y-89827000D01*
X111801804Y-89827000D01*
X111926823Y-89839313D01*
X111926823Y-89839313D01*
G37*
G36*
X157646823Y-89839313D02*
G01*
X157807242Y-89887976D01*
X157939906Y-89958886D01*
X157955078Y-89966996D01*
X158084659Y-90073341D01*
X158191004Y-90202922D01*
X158191005Y-90202924D01*
X158270024Y-90350758D01*
X158318687Y-90511177D01*
X158335117Y-90678000D01*
X158318687Y-90844823D01*
X158270024Y-91005242D01*
X158199114Y-91137906D01*
X158191004Y-91153078D01*
X158084659Y-91282659D01*
X157955078Y-91389004D01*
X157955076Y-91389005D01*
X157807242Y-91468024D01*
X157646823Y-91516687D01*
X157521804Y-91529000D01*
X157438196Y-91529000D01*
X157313177Y-91516687D01*
X157152758Y-91468024D01*
X157004924Y-91389005D01*
X157004922Y-91389004D01*
X156875341Y-91282659D01*
X156768996Y-91153078D01*
X156760886Y-91137906D01*
X156689976Y-91005242D01*
X156641313Y-90844823D01*
X156624883Y-90678000D01*
X156641313Y-90511177D01*
X156689976Y-90350758D01*
X156768995Y-90202924D01*
X156768996Y-90202922D01*
X156875341Y-90073341D01*
X157004922Y-89966996D01*
X157020094Y-89958886D01*
X157152758Y-89887976D01*
X157313177Y-89839313D01*
X157438196Y-89827000D01*
X157521804Y-89827000D01*
X157646823Y-89839313D01*
X157646823Y-89839313D01*
G37*
G36*
X109386823Y-89839313D02*
G01*
X109547242Y-89887976D01*
X109679906Y-89958886D01*
X109695078Y-89966996D01*
X109824659Y-90073341D01*
X109931004Y-90202922D01*
X109931005Y-90202924D01*
X110010024Y-90350758D01*
X110058687Y-90511177D01*
X110075117Y-90678000D01*
X110058687Y-90844823D01*
X110010024Y-91005242D01*
X109939114Y-91137906D01*
X109931004Y-91153078D01*
X109824659Y-91282659D01*
X109695078Y-91389004D01*
X109695076Y-91389005D01*
X109547242Y-91468024D01*
X109386823Y-91516687D01*
X109261804Y-91529000D01*
X109178196Y-91529000D01*
X109053177Y-91516687D01*
X108892758Y-91468024D01*
X108744924Y-91389005D01*
X108744922Y-91389004D01*
X108615341Y-91282659D01*
X108508996Y-91153078D01*
X108500886Y-91137906D01*
X108429976Y-91005242D01*
X108381313Y-90844823D01*
X108364883Y-90678000D01*
X108381313Y-90511177D01*
X108429976Y-90350758D01*
X108508995Y-90202924D01*
X108508996Y-90202922D01*
X108615341Y-90073341D01*
X108744922Y-89966996D01*
X108760094Y-89958886D01*
X108892758Y-89887976D01*
X109053177Y-89839313D01*
X109178196Y-89827000D01*
X109261804Y-89827000D01*
X109386823Y-89839313D01*
X109386823Y-89839313D01*
G37*
G36*
X134786823Y-89839313D02*
G01*
X134947242Y-89887976D01*
X135079906Y-89958886D01*
X135095078Y-89966996D01*
X135224659Y-90073341D01*
X135331004Y-90202922D01*
X135331005Y-90202924D01*
X135410024Y-90350758D01*
X135458687Y-90511177D01*
X135475117Y-90678000D01*
X135458687Y-90844823D01*
X135410024Y-91005242D01*
X135339114Y-91137906D01*
X135331004Y-91153078D01*
X135224659Y-91282659D01*
X135095078Y-91389004D01*
X135095076Y-91389005D01*
X134947242Y-91468024D01*
X134786823Y-91516687D01*
X134661804Y-91529000D01*
X134578196Y-91529000D01*
X134453177Y-91516687D01*
X134292758Y-91468024D01*
X134144924Y-91389005D01*
X134144922Y-91389004D01*
X134015341Y-91282659D01*
X133908996Y-91153078D01*
X133900886Y-91137906D01*
X133829976Y-91005242D01*
X133781313Y-90844823D01*
X133764883Y-90678000D01*
X133781313Y-90511177D01*
X133829976Y-90350758D01*
X133908995Y-90202924D01*
X133908996Y-90202922D01*
X134015341Y-90073341D01*
X134144922Y-89966996D01*
X134160094Y-89958886D01*
X134292758Y-89887976D01*
X134453177Y-89839313D01*
X134578196Y-89827000D01*
X134661804Y-89827000D01*
X134786823Y-89839313D01*
X134786823Y-89839313D01*
G37*
G36*
X144946823Y-89839313D02*
G01*
X145107242Y-89887976D01*
X145239906Y-89958886D01*
X145255078Y-89966996D01*
X145384659Y-90073341D01*
X145491004Y-90202922D01*
X145491005Y-90202924D01*
X145570024Y-90350758D01*
X145618687Y-90511177D01*
X145635117Y-90678000D01*
X145618687Y-90844823D01*
X145570024Y-91005242D01*
X145499114Y-91137906D01*
X145491004Y-91153078D01*
X145384659Y-91282659D01*
X145255078Y-91389004D01*
X145255076Y-91389005D01*
X145107242Y-91468024D01*
X144946823Y-91516687D01*
X144821804Y-91529000D01*
X144738196Y-91529000D01*
X144613177Y-91516687D01*
X144452758Y-91468024D01*
X144304924Y-91389005D01*
X144304922Y-91389004D01*
X144175341Y-91282659D01*
X144068996Y-91153078D01*
X144060886Y-91137906D01*
X143989976Y-91005242D01*
X143941313Y-90844823D01*
X143924883Y-90678000D01*
X143941313Y-90511177D01*
X143989976Y-90350758D01*
X144068995Y-90202924D01*
X144068996Y-90202922D01*
X144175341Y-90073341D01*
X144304922Y-89966996D01*
X144320094Y-89958886D01*
X144452758Y-89887976D01*
X144613177Y-89839313D01*
X144738196Y-89827000D01*
X144821804Y-89827000D01*
X144946823Y-89839313D01*
X144946823Y-89839313D01*
G37*
G36*
X122086823Y-89839313D02*
G01*
X122247242Y-89887976D01*
X122379906Y-89958886D01*
X122395078Y-89966996D01*
X122524659Y-90073341D01*
X122631004Y-90202922D01*
X122631005Y-90202924D01*
X122710024Y-90350758D01*
X122758687Y-90511177D01*
X122775117Y-90678000D01*
X122758687Y-90844823D01*
X122710024Y-91005242D01*
X122639114Y-91137906D01*
X122631004Y-91153078D01*
X122524659Y-91282659D01*
X122395078Y-91389004D01*
X122395076Y-91389005D01*
X122247242Y-91468024D01*
X122086823Y-91516687D01*
X121961804Y-91529000D01*
X121878196Y-91529000D01*
X121753177Y-91516687D01*
X121592758Y-91468024D01*
X121444924Y-91389005D01*
X121444922Y-91389004D01*
X121315341Y-91282659D01*
X121208996Y-91153078D01*
X121200886Y-91137906D01*
X121129976Y-91005242D01*
X121081313Y-90844823D01*
X121064883Y-90678000D01*
X121081313Y-90511177D01*
X121129976Y-90350758D01*
X121208995Y-90202924D01*
X121208996Y-90202922D01*
X121315341Y-90073341D01*
X121444922Y-89966996D01*
X121460094Y-89958886D01*
X121592758Y-89887976D01*
X121753177Y-89839313D01*
X121878196Y-89827000D01*
X121961804Y-89827000D01*
X122086823Y-89839313D01*
X122086823Y-89839313D01*
G37*
G36*
X142406823Y-89839313D02*
G01*
X142567242Y-89887976D01*
X142699906Y-89958886D01*
X142715078Y-89966996D01*
X142844659Y-90073341D01*
X142951004Y-90202922D01*
X142951005Y-90202924D01*
X143030024Y-90350758D01*
X143078687Y-90511177D01*
X143095117Y-90678000D01*
X143078687Y-90844823D01*
X143030024Y-91005242D01*
X142959114Y-91137906D01*
X142951004Y-91153078D01*
X142844659Y-91282659D01*
X142715078Y-91389004D01*
X142715076Y-91389005D01*
X142567242Y-91468024D01*
X142406823Y-91516687D01*
X142281804Y-91529000D01*
X142198196Y-91529000D01*
X142073177Y-91516687D01*
X141912758Y-91468024D01*
X141764924Y-91389005D01*
X141764922Y-91389004D01*
X141635341Y-91282659D01*
X141528996Y-91153078D01*
X141520886Y-91137906D01*
X141449976Y-91005242D01*
X141401313Y-90844823D01*
X141384883Y-90678000D01*
X141401313Y-90511177D01*
X141449976Y-90350758D01*
X141528995Y-90202924D01*
X141528996Y-90202922D01*
X141635341Y-90073341D01*
X141764922Y-89966996D01*
X141780094Y-89958886D01*
X141912758Y-89887976D01*
X142073177Y-89839313D01*
X142198196Y-89827000D01*
X142281804Y-89827000D01*
X142406823Y-89839313D01*
X142406823Y-89839313D01*
G37*
G36*
X127166823Y-89839313D02*
G01*
X127327242Y-89887976D01*
X127459906Y-89958886D01*
X127475078Y-89966996D01*
X127604659Y-90073341D01*
X127711004Y-90202922D01*
X127711005Y-90202924D01*
X127790024Y-90350758D01*
X127838687Y-90511177D01*
X127855117Y-90678000D01*
X127838687Y-90844823D01*
X127790024Y-91005242D01*
X127719114Y-91137906D01*
X127711004Y-91153078D01*
X127604659Y-91282659D01*
X127475078Y-91389004D01*
X127475076Y-91389005D01*
X127327242Y-91468024D01*
X127166823Y-91516687D01*
X127041804Y-91529000D01*
X126958196Y-91529000D01*
X126833177Y-91516687D01*
X126672758Y-91468024D01*
X126524924Y-91389005D01*
X126524922Y-91389004D01*
X126395341Y-91282659D01*
X126288996Y-91153078D01*
X126280886Y-91137906D01*
X126209976Y-91005242D01*
X126161313Y-90844823D01*
X126144883Y-90678000D01*
X126161313Y-90511177D01*
X126209976Y-90350758D01*
X126288995Y-90202924D01*
X126288996Y-90202922D01*
X126395341Y-90073341D01*
X126524922Y-89966996D01*
X126540094Y-89958886D01*
X126672758Y-89887976D01*
X126833177Y-89839313D01*
X126958196Y-89827000D01*
X127041804Y-89827000D01*
X127166823Y-89839313D01*
X127166823Y-89839313D01*
G37*
G36*
X139866823Y-89839313D02*
G01*
X140027242Y-89887976D01*
X140159906Y-89958886D01*
X140175078Y-89966996D01*
X140304659Y-90073341D01*
X140411004Y-90202922D01*
X140411005Y-90202924D01*
X140490024Y-90350758D01*
X140538687Y-90511177D01*
X140555117Y-90678000D01*
X140538687Y-90844823D01*
X140490024Y-91005242D01*
X140419114Y-91137906D01*
X140411004Y-91153078D01*
X140304659Y-91282659D01*
X140175078Y-91389004D01*
X140175076Y-91389005D01*
X140027242Y-91468024D01*
X139866823Y-91516687D01*
X139741804Y-91529000D01*
X139658196Y-91529000D01*
X139533177Y-91516687D01*
X139372758Y-91468024D01*
X139224924Y-91389005D01*
X139224922Y-91389004D01*
X139095341Y-91282659D01*
X138988996Y-91153078D01*
X138980886Y-91137906D01*
X138909976Y-91005242D01*
X138861313Y-90844823D01*
X138844883Y-90678000D01*
X138861313Y-90511177D01*
X138909976Y-90350758D01*
X138988995Y-90202924D01*
X138988996Y-90202922D01*
X139095341Y-90073341D01*
X139224922Y-89966996D01*
X139240094Y-89958886D01*
X139372758Y-89887976D01*
X139533177Y-89839313D01*
X139658196Y-89827000D01*
X139741804Y-89827000D01*
X139866823Y-89839313D01*
X139866823Y-89839313D01*
G37*
G36*
X129706823Y-89839313D02*
G01*
X129867242Y-89887976D01*
X129999906Y-89958886D01*
X130015078Y-89966996D01*
X130144659Y-90073341D01*
X130251004Y-90202922D01*
X130251005Y-90202924D01*
X130330024Y-90350758D01*
X130378687Y-90511177D01*
X130395117Y-90678000D01*
X130378687Y-90844823D01*
X130330024Y-91005242D01*
X130259114Y-91137906D01*
X130251004Y-91153078D01*
X130144659Y-91282659D01*
X130015078Y-91389004D01*
X130015076Y-91389005D01*
X129867242Y-91468024D01*
X129706823Y-91516687D01*
X129581804Y-91529000D01*
X129498196Y-91529000D01*
X129373177Y-91516687D01*
X129212758Y-91468024D01*
X129064924Y-91389005D01*
X129064922Y-91389004D01*
X128935341Y-91282659D01*
X128828996Y-91153078D01*
X128820886Y-91137906D01*
X128749976Y-91005242D01*
X128701313Y-90844823D01*
X128684883Y-90678000D01*
X128701313Y-90511177D01*
X128749976Y-90350758D01*
X128828995Y-90202924D01*
X128828996Y-90202922D01*
X128935341Y-90073341D01*
X129064922Y-89966996D01*
X129080094Y-89958886D01*
X129212758Y-89887976D01*
X129373177Y-89839313D01*
X129498196Y-89827000D01*
X129581804Y-89827000D01*
X129706823Y-89839313D01*
X129706823Y-89839313D01*
G37*
G36*
X137326823Y-89839313D02*
G01*
X137487242Y-89887976D01*
X137619906Y-89958886D01*
X137635078Y-89966996D01*
X137764659Y-90073341D01*
X137871004Y-90202922D01*
X137871005Y-90202924D01*
X137950024Y-90350758D01*
X137998687Y-90511177D01*
X138015117Y-90678000D01*
X137998687Y-90844823D01*
X137950024Y-91005242D01*
X137879114Y-91137906D01*
X137871004Y-91153078D01*
X137764659Y-91282659D01*
X137635078Y-91389004D01*
X137635076Y-91389005D01*
X137487242Y-91468024D01*
X137326823Y-91516687D01*
X137201804Y-91529000D01*
X137118196Y-91529000D01*
X136993177Y-91516687D01*
X136832758Y-91468024D01*
X136684924Y-91389005D01*
X136684922Y-91389004D01*
X136555341Y-91282659D01*
X136448996Y-91153078D01*
X136440886Y-91137906D01*
X136369976Y-91005242D01*
X136321313Y-90844823D01*
X136304883Y-90678000D01*
X136321313Y-90511177D01*
X136369976Y-90350758D01*
X136448995Y-90202924D01*
X136448996Y-90202922D01*
X136555341Y-90073341D01*
X136684922Y-89966996D01*
X136700094Y-89958886D01*
X136832758Y-89887976D01*
X136993177Y-89839313D01*
X137118196Y-89827000D01*
X137201804Y-89827000D01*
X137326823Y-89839313D01*
X137326823Y-89839313D01*
G37*
G36*
X132246823Y-89839313D02*
G01*
X132407242Y-89887976D01*
X132539906Y-89958886D01*
X132555078Y-89966996D01*
X132684659Y-90073341D01*
X132791004Y-90202922D01*
X132791005Y-90202924D01*
X132870024Y-90350758D01*
X132918687Y-90511177D01*
X132935117Y-90678000D01*
X132918687Y-90844823D01*
X132870024Y-91005242D01*
X132799114Y-91137906D01*
X132791004Y-91153078D01*
X132684659Y-91282659D01*
X132555078Y-91389004D01*
X132555076Y-91389005D01*
X132407242Y-91468024D01*
X132246823Y-91516687D01*
X132121804Y-91529000D01*
X132038196Y-91529000D01*
X131913177Y-91516687D01*
X131752758Y-91468024D01*
X131604924Y-91389005D01*
X131604922Y-91389004D01*
X131475341Y-91282659D01*
X131368996Y-91153078D01*
X131360886Y-91137906D01*
X131289976Y-91005242D01*
X131241313Y-90844823D01*
X131224883Y-90678000D01*
X131241313Y-90511177D01*
X131289976Y-90350758D01*
X131368995Y-90202924D01*
X131368996Y-90202922D01*
X131475341Y-90073341D01*
X131604922Y-89966996D01*
X131620094Y-89958886D01*
X131752758Y-89887976D01*
X131913177Y-89839313D01*
X132038196Y-89827000D01*
X132121804Y-89827000D01*
X132246823Y-89839313D01*
X132246823Y-89839313D01*
G37*
G36*
X119546823Y-89839313D02*
G01*
X119707242Y-89887976D01*
X119839906Y-89958886D01*
X119855078Y-89966996D01*
X119984659Y-90073341D01*
X120091004Y-90202922D01*
X120091005Y-90202924D01*
X120170024Y-90350758D01*
X120218687Y-90511177D01*
X120235117Y-90678000D01*
X120218687Y-90844823D01*
X120170024Y-91005242D01*
X120099114Y-91137906D01*
X120091004Y-91153078D01*
X119984659Y-91282659D01*
X119855078Y-91389004D01*
X119855076Y-91389005D01*
X119707242Y-91468024D01*
X119546823Y-91516687D01*
X119421804Y-91529000D01*
X119338196Y-91529000D01*
X119213177Y-91516687D01*
X119052758Y-91468024D01*
X118904924Y-91389005D01*
X118904922Y-91389004D01*
X118775341Y-91282659D01*
X118668996Y-91153078D01*
X118660886Y-91137906D01*
X118589976Y-91005242D01*
X118541313Y-90844823D01*
X118524883Y-90678000D01*
X118541313Y-90511177D01*
X118589976Y-90350758D01*
X118668995Y-90202924D01*
X118668996Y-90202922D01*
X118775341Y-90073341D01*
X118904922Y-89966996D01*
X118920094Y-89958886D01*
X119052758Y-89887976D01*
X119213177Y-89839313D01*
X119338196Y-89827000D01*
X119421804Y-89827000D01*
X119546823Y-89839313D01*
X119546823Y-89839313D01*
G37*
G36*
X124626823Y-89839313D02*
G01*
X124787242Y-89887976D01*
X124919906Y-89958886D01*
X124935078Y-89966996D01*
X125064659Y-90073341D01*
X125171004Y-90202922D01*
X125171005Y-90202924D01*
X125250024Y-90350758D01*
X125298687Y-90511177D01*
X125315117Y-90678000D01*
X125298687Y-90844823D01*
X125250024Y-91005242D01*
X125179114Y-91137906D01*
X125171004Y-91153078D01*
X125064659Y-91282659D01*
X124935078Y-91389004D01*
X124935076Y-91389005D01*
X124787242Y-91468024D01*
X124626823Y-91516687D01*
X124501804Y-91529000D01*
X124418196Y-91529000D01*
X124293177Y-91516687D01*
X124132758Y-91468024D01*
X123984924Y-91389005D01*
X123984922Y-91389004D01*
X123855341Y-91282659D01*
X123748996Y-91153078D01*
X123740886Y-91137906D01*
X123669976Y-91005242D01*
X123621313Y-90844823D01*
X123604883Y-90678000D01*
X123621313Y-90511177D01*
X123669976Y-90350758D01*
X123748995Y-90202924D01*
X123748996Y-90202922D01*
X123855341Y-90073341D01*
X123984922Y-89966996D01*
X124000094Y-89958886D01*
X124132758Y-89887976D01*
X124293177Y-89839313D01*
X124418196Y-89827000D01*
X124501804Y-89827000D01*
X124626823Y-89839313D01*
X124626823Y-89839313D01*
G37*
G36*
X147486823Y-89839313D02*
G01*
X147647242Y-89887976D01*
X147779906Y-89958886D01*
X147795078Y-89966996D01*
X147924659Y-90073341D01*
X148031004Y-90202922D01*
X148031005Y-90202924D01*
X148110024Y-90350758D01*
X148158687Y-90511177D01*
X148175117Y-90678000D01*
X148158687Y-90844823D01*
X148110024Y-91005242D01*
X148039114Y-91137906D01*
X148031004Y-91153078D01*
X147924659Y-91282659D01*
X147795078Y-91389004D01*
X147795076Y-91389005D01*
X147647242Y-91468024D01*
X147486823Y-91516687D01*
X147361804Y-91529000D01*
X147278196Y-91529000D01*
X147153177Y-91516687D01*
X146992758Y-91468024D01*
X146844924Y-91389005D01*
X146844922Y-91389004D01*
X146715341Y-91282659D01*
X146608996Y-91153078D01*
X146600886Y-91137906D01*
X146529976Y-91005242D01*
X146481313Y-90844823D01*
X146464883Y-90678000D01*
X146481313Y-90511177D01*
X146529976Y-90350758D01*
X146608995Y-90202924D01*
X146608996Y-90202922D01*
X146715341Y-90073341D01*
X146844922Y-89966996D01*
X146860094Y-89958886D01*
X146992758Y-89887976D01*
X147153177Y-89839313D01*
X147278196Y-89827000D01*
X147361804Y-89827000D01*
X147486823Y-89839313D01*
X147486823Y-89839313D01*
G37*
G36*
X98693944Y-77030092D02*
G01*
X99257925Y-77263701D01*
X99257927Y-77263702D01*
X99765498Y-77602849D01*
X100197151Y-78034502D01*
X100536298Y-78542073D01*
X100536299Y-78542075D01*
X100769908Y-79106056D01*
X100889000Y-79704774D01*
X100889000Y-80315226D01*
X100769908Y-80913944D01*
X100536299Y-81477925D01*
X100536298Y-81477927D01*
X100197151Y-81985498D01*
X99765498Y-82417151D01*
X99257927Y-82756298D01*
X99257926Y-82756299D01*
X99257925Y-82756299D01*
X98693944Y-82989908D01*
X98095226Y-83109000D01*
X97484774Y-83109000D01*
X96886056Y-82989908D01*
X96322075Y-82756299D01*
X96322074Y-82756299D01*
X96322073Y-82756298D01*
X95814502Y-82417151D01*
X95382849Y-81985498D01*
X95043702Y-81477927D01*
X95043701Y-81477925D01*
X94810092Y-80913944D01*
X94691000Y-80315226D01*
X94691000Y-79704774D01*
X94810092Y-79106056D01*
X95043701Y-78542075D01*
X95043702Y-78542073D01*
X95382849Y-78034502D01*
X95814502Y-77602849D01*
X96322073Y-77263702D01*
X96322075Y-77263701D01*
X96886056Y-77030092D01*
X97484774Y-76911000D01*
X98095226Y-76911000D01*
X98693944Y-77030092D01*
X98693944Y-77030092D01*
G37*
G36*
X168035944Y-77030092D02*
G01*
X168599925Y-77263701D01*
X168599927Y-77263702D01*
X169107498Y-77602849D01*
X169539151Y-78034502D01*
X169878298Y-78542073D01*
X169878299Y-78542075D01*
X170111908Y-79106056D01*
X170231000Y-79704774D01*
X170231000Y-80315226D01*
X170111908Y-80913944D01*
X169878299Y-81477925D01*
X169878298Y-81477927D01*
X169539151Y-81985498D01*
X169107498Y-82417151D01*
X168599927Y-82756298D01*
X168599926Y-82756299D01*
X168599925Y-82756299D01*
X168035944Y-82989908D01*
X167437226Y-83109000D01*
X166826774Y-83109000D01*
X166228056Y-82989908D01*
X165664075Y-82756299D01*
X165664074Y-82756299D01*
X165664073Y-82756298D01*
X165156502Y-82417151D01*
X164724849Y-81985498D01*
X164385702Y-81477927D01*
X164385701Y-81477925D01*
X164152092Y-80913944D01*
X164033000Y-80315226D01*
X164033000Y-79704774D01*
X164152092Y-79106056D01*
X164385701Y-78542075D01*
X164385702Y-78542073D01*
X164724849Y-78034502D01*
X165156502Y-77602849D01*
X165664073Y-77263702D01*
X165664075Y-77263701D01*
X166228056Y-77030092D01*
X166826774Y-76911000D01*
X167437226Y-76911000D01*
X168035944Y-77030092D01*
X168035944Y-77030092D01*
G37*
G36*
X139866823Y-74599313D02*
G01*
X140027242Y-74647976D01*
X140159906Y-74718886D01*
X140175078Y-74726996D01*
X140304659Y-74833341D01*
X140411004Y-74962922D01*
X140411005Y-74962924D01*
X140490024Y-75110758D01*
X140538687Y-75271177D01*
X140555117Y-75438000D01*
X140538687Y-75604823D01*
X140490024Y-75765242D01*
X140419114Y-75897906D01*
X140411004Y-75913078D01*
X140304659Y-76042659D01*
X140175078Y-76149004D01*
X140175076Y-76149005D01*
X140027242Y-76228024D01*
X139866823Y-76276687D01*
X139741804Y-76289000D01*
X139658196Y-76289000D01*
X139533177Y-76276687D01*
X139372758Y-76228024D01*
X139224924Y-76149005D01*
X139224922Y-76149004D01*
X139095341Y-76042659D01*
X138988996Y-75913078D01*
X138980886Y-75897906D01*
X138909976Y-75765242D01*
X138861313Y-75604823D01*
X138844883Y-75438000D01*
X138861313Y-75271177D01*
X138909976Y-75110758D01*
X138988995Y-74962924D01*
X138988996Y-74962922D01*
X139095341Y-74833341D01*
X139224922Y-74726996D01*
X139240094Y-74718886D01*
X139372758Y-74647976D01*
X139533177Y-74599313D01*
X139658196Y-74587000D01*
X139741804Y-74587000D01*
X139866823Y-74599313D01*
X139866823Y-74599313D01*
G37*
G36*
X111926823Y-74599313D02*
G01*
X112087242Y-74647976D01*
X112219906Y-74718886D01*
X112235078Y-74726996D01*
X112364659Y-74833341D01*
X112471004Y-74962922D01*
X112471005Y-74962924D01*
X112550024Y-75110758D01*
X112598687Y-75271177D01*
X112615117Y-75438000D01*
X112598687Y-75604823D01*
X112550024Y-75765242D01*
X112479114Y-75897906D01*
X112471004Y-75913078D01*
X112364659Y-76042659D01*
X112235078Y-76149004D01*
X112235076Y-76149005D01*
X112087242Y-76228024D01*
X111926823Y-76276687D01*
X111801804Y-76289000D01*
X111718196Y-76289000D01*
X111593177Y-76276687D01*
X111432758Y-76228024D01*
X111284924Y-76149005D01*
X111284922Y-76149004D01*
X111155341Y-76042659D01*
X111048996Y-75913078D01*
X111040886Y-75897906D01*
X110969976Y-75765242D01*
X110921313Y-75604823D01*
X110904883Y-75438000D01*
X110921313Y-75271177D01*
X110969976Y-75110758D01*
X111048995Y-74962924D01*
X111048996Y-74962922D01*
X111155341Y-74833341D01*
X111284922Y-74726996D01*
X111300094Y-74718886D01*
X111432758Y-74647976D01*
X111593177Y-74599313D01*
X111718196Y-74587000D01*
X111801804Y-74587000D01*
X111926823Y-74599313D01*
X111926823Y-74599313D01*
G37*
G36*
X114466823Y-74599313D02*
G01*
X114627242Y-74647976D01*
X114759906Y-74718886D01*
X114775078Y-74726996D01*
X114904659Y-74833341D01*
X115011004Y-74962922D01*
X115011005Y-74962924D01*
X115090024Y-75110758D01*
X115138687Y-75271177D01*
X115155117Y-75438000D01*
X115138687Y-75604823D01*
X115090024Y-75765242D01*
X115019114Y-75897906D01*
X115011004Y-75913078D01*
X114904659Y-76042659D01*
X114775078Y-76149004D01*
X114775076Y-76149005D01*
X114627242Y-76228024D01*
X114466823Y-76276687D01*
X114341804Y-76289000D01*
X114258196Y-76289000D01*
X114133177Y-76276687D01*
X113972758Y-76228024D01*
X113824924Y-76149005D01*
X113824922Y-76149004D01*
X113695341Y-76042659D01*
X113588996Y-75913078D01*
X113580886Y-75897906D01*
X113509976Y-75765242D01*
X113461313Y-75604823D01*
X113444883Y-75438000D01*
X113461313Y-75271177D01*
X113509976Y-75110758D01*
X113588995Y-74962924D01*
X113588996Y-74962922D01*
X113695341Y-74833341D01*
X113824922Y-74726996D01*
X113840094Y-74718886D01*
X113972758Y-74647976D01*
X114133177Y-74599313D01*
X114258196Y-74587000D01*
X114341804Y-74587000D01*
X114466823Y-74599313D01*
X114466823Y-74599313D01*
G37*
G36*
X117006823Y-74599313D02*
G01*
X117167242Y-74647976D01*
X117299906Y-74718886D01*
X117315078Y-74726996D01*
X117444659Y-74833341D01*
X117551004Y-74962922D01*
X117551005Y-74962924D01*
X117630024Y-75110758D01*
X117678687Y-75271177D01*
X117695117Y-75438000D01*
X117678687Y-75604823D01*
X117630024Y-75765242D01*
X117559114Y-75897906D01*
X117551004Y-75913078D01*
X117444659Y-76042659D01*
X117315078Y-76149004D01*
X117315076Y-76149005D01*
X117167242Y-76228024D01*
X117006823Y-76276687D01*
X116881804Y-76289000D01*
X116798196Y-76289000D01*
X116673177Y-76276687D01*
X116512758Y-76228024D01*
X116364924Y-76149005D01*
X116364922Y-76149004D01*
X116235341Y-76042659D01*
X116128996Y-75913078D01*
X116120886Y-75897906D01*
X116049976Y-75765242D01*
X116001313Y-75604823D01*
X115984883Y-75438000D01*
X116001313Y-75271177D01*
X116049976Y-75110758D01*
X116128995Y-74962924D01*
X116128996Y-74962922D01*
X116235341Y-74833341D01*
X116364922Y-74726996D01*
X116380094Y-74718886D01*
X116512758Y-74647976D01*
X116673177Y-74599313D01*
X116798196Y-74587000D01*
X116881804Y-74587000D01*
X117006823Y-74599313D01*
X117006823Y-74599313D01*
G37*
G36*
X119546823Y-74599313D02*
G01*
X119707242Y-74647976D01*
X119839906Y-74718886D01*
X119855078Y-74726996D01*
X119984659Y-74833341D01*
X120091004Y-74962922D01*
X120091005Y-74962924D01*
X120170024Y-75110758D01*
X120218687Y-75271177D01*
X120235117Y-75438000D01*
X120218687Y-75604823D01*
X120170024Y-75765242D01*
X120099114Y-75897906D01*
X120091004Y-75913078D01*
X119984659Y-76042659D01*
X119855078Y-76149004D01*
X119855076Y-76149005D01*
X119707242Y-76228024D01*
X119546823Y-76276687D01*
X119421804Y-76289000D01*
X119338196Y-76289000D01*
X119213177Y-76276687D01*
X119052758Y-76228024D01*
X118904924Y-76149005D01*
X118904922Y-76149004D01*
X118775341Y-76042659D01*
X118668996Y-75913078D01*
X118660886Y-75897906D01*
X118589976Y-75765242D01*
X118541313Y-75604823D01*
X118524883Y-75438000D01*
X118541313Y-75271177D01*
X118589976Y-75110758D01*
X118668995Y-74962924D01*
X118668996Y-74962922D01*
X118775341Y-74833341D01*
X118904922Y-74726996D01*
X118920094Y-74718886D01*
X119052758Y-74647976D01*
X119213177Y-74599313D01*
X119338196Y-74587000D01*
X119421804Y-74587000D01*
X119546823Y-74599313D01*
X119546823Y-74599313D01*
G37*
G36*
X122086823Y-74599313D02*
G01*
X122247242Y-74647976D01*
X122379906Y-74718886D01*
X122395078Y-74726996D01*
X122524659Y-74833341D01*
X122631004Y-74962922D01*
X122631005Y-74962924D01*
X122710024Y-75110758D01*
X122758687Y-75271177D01*
X122775117Y-75438000D01*
X122758687Y-75604823D01*
X122710024Y-75765242D01*
X122639114Y-75897906D01*
X122631004Y-75913078D01*
X122524659Y-76042659D01*
X122395078Y-76149004D01*
X122395076Y-76149005D01*
X122247242Y-76228024D01*
X122086823Y-76276687D01*
X121961804Y-76289000D01*
X121878196Y-76289000D01*
X121753177Y-76276687D01*
X121592758Y-76228024D01*
X121444924Y-76149005D01*
X121444922Y-76149004D01*
X121315341Y-76042659D01*
X121208996Y-75913078D01*
X121200886Y-75897906D01*
X121129976Y-75765242D01*
X121081313Y-75604823D01*
X121064883Y-75438000D01*
X121081313Y-75271177D01*
X121129976Y-75110758D01*
X121208995Y-74962924D01*
X121208996Y-74962922D01*
X121315341Y-74833341D01*
X121444922Y-74726996D01*
X121460094Y-74718886D01*
X121592758Y-74647976D01*
X121753177Y-74599313D01*
X121878196Y-74587000D01*
X121961804Y-74587000D01*
X122086823Y-74599313D01*
X122086823Y-74599313D01*
G37*
G36*
X124626823Y-74599313D02*
G01*
X124787242Y-74647976D01*
X124919906Y-74718886D01*
X124935078Y-74726996D01*
X125064659Y-74833341D01*
X125171004Y-74962922D01*
X125171005Y-74962924D01*
X125250024Y-75110758D01*
X125298687Y-75271177D01*
X125315117Y-75438000D01*
X125298687Y-75604823D01*
X125250024Y-75765242D01*
X125179114Y-75897906D01*
X125171004Y-75913078D01*
X125064659Y-76042659D01*
X124935078Y-76149004D01*
X124935076Y-76149005D01*
X124787242Y-76228024D01*
X124626823Y-76276687D01*
X124501804Y-76289000D01*
X124418196Y-76289000D01*
X124293177Y-76276687D01*
X124132758Y-76228024D01*
X123984924Y-76149005D01*
X123984922Y-76149004D01*
X123855341Y-76042659D01*
X123748996Y-75913078D01*
X123740886Y-75897906D01*
X123669976Y-75765242D01*
X123621313Y-75604823D01*
X123604883Y-75438000D01*
X123621313Y-75271177D01*
X123669976Y-75110758D01*
X123748995Y-74962924D01*
X123748996Y-74962922D01*
X123855341Y-74833341D01*
X123984922Y-74726996D01*
X124000094Y-74718886D01*
X124132758Y-74647976D01*
X124293177Y-74599313D01*
X124418196Y-74587000D01*
X124501804Y-74587000D01*
X124626823Y-74599313D01*
X124626823Y-74599313D01*
G37*
G36*
X127166823Y-74599313D02*
G01*
X127327242Y-74647976D01*
X127459906Y-74718886D01*
X127475078Y-74726996D01*
X127604659Y-74833341D01*
X127711004Y-74962922D01*
X127711005Y-74962924D01*
X127790024Y-75110758D01*
X127838687Y-75271177D01*
X127855117Y-75438000D01*
X127838687Y-75604823D01*
X127790024Y-75765242D01*
X127719114Y-75897906D01*
X127711004Y-75913078D01*
X127604659Y-76042659D01*
X127475078Y-76149004D01*
X127475076Y-76149005D01*
X127327242Y-76228024D01*
X127166823Y-76276687D01*
X127041804Y-76289000D01*
X126958196Y-76289000D01*
X126833177Y-76276687D01*
X126672758Y-76228024D01*
X126524924Y-76149005D01*
X126524922Y-76149004D01*
X126395341Y-76042659D01*
X126288996Y-75913078D01*
X126280886Y-75897906D01*
X126209976Y-75765242D01*
X126161313Y-75604823D01*
X126144883Y-75438000D01*
X126161313Y-75271177D01*
X126209976Y-75110758D01*
X126288995Y-74962924D01*
X126288996Y-74962922D01*
X126395341Y-74833341D01*
X126524922Y-74726996D01*
X126540094Y-74718886D01*
X126672758Y-74647976D01*
X126833177Y-74599313D01*
X126958196Y-74587000D01*
X127041804Y-74587000D01*
X127166823Y-74599313D01*
X127166823Y-74599313D01*
G37*
G36*
X129706823Y-74599313D02*
G01*
X129867242Y-74647976D01*
X129999906Y-74718886D01*
X130015078Y-74726996D01*
X130144659Y-74833341D01*
X130251004Y-74962922D01*
X130251005Y-74962924D01*
X130330024Y-75110758D01*
X130378687Y-75271177D01*
X130395117Y-75438000D01*
X130378687Y-75604823D01*
X130330024Y-75765242D01*
X130259114Y-75897906D01*
X130251004Y-75913078D01*
X130144659Y-76042659D01*
X130015078Y-76149004D01*
X130015076Y-76149005D01*
X129867242Y-76228024D01*
X129706823Y-76276687D01*
X129581804Y-76289000D01*
X129498196Y-76289000D01*
X129373177Y-76276687D01*
X129212758Y-76228024D01*
X129064924Y-76149005D01*
X129064922Y-76149004D01*
X128935341Y-76042659D01*
X128828996Y-75913078D01*
X128820886Y-75897906D01*
X128749976Y-75765242D01*
X128701313Y-75604823D01*
X128684883Y-75438000D01*
X128701313Y-75271177D01*
X128749976Y-75110758D01*
X128828995Y-74962924D01*
X128828996Y-74962922D01*
X128935341Y-74833341D01*
X129064922Y-74726996D01*
X129080094Y-74718886D01*
X129212758Y-74647976D01*
X129373177Y-74599313D01*
X129498196Y-74587000D01*
X129581804Y-74587000D01*
X129706823Y-74599313D01*
X129706823Y-74599313D01*
G37*
G36*
X132246823Y-74599313D02*
G01*
X132407242Y-74647976D01*
X132539906Y-74718886D01*
X132555078Y-74726996D01*
X132684659Y-74833341D01*
X132791004Y-74962922D01*
X132791005Y-74962924D01*
X132870024Y-75110758D01*
X132918687Y-75271177D01*
X132935117Y-75438000D01*
X132918687Y-75604823D01*
X132870024Y-75765242D01*
X132799114Y-75897906D01*
X132791004Y-75913078D01*
X132684659Y-76042659D01*
X132555078Y-76149004D01*
X132555076Y-76149005D01*
X132407242Y-76228024D01*
X132246823Y-76276687D01*
X132121804Y-76289000D01*
X132038196Y-76289000D01*
X131913177Y-76276687D01*
X131752758Y-76228024D01*
X131604924Y-76149005D01*
X131604922Y-76149004D01*
X131475341Y-76042659D01*
X131368996Y-75913078D01*
X131360886Y-75897906D01*
X131289976Y-75765242D01*
X131241313Y-75604823D01*
X131224883Y-75438000D01*
X131241313Y-75271177D01*
X131289976Y-75110758D01*
X131368995Y-74962924D01*
X131368996Y-74962922D01*
X131475341Y-74833341D01*
X131604922Y-74726996D01*
X131620094Y-74718886D01*
X131752758Y-74647976D01*
X131913177Y-74599313D01*
X132038196Y-74587000D01*
X132121804Y-74587000D01*
X132246823Y-74599313D01*
X132246823Y-74599313D01*
G37*
G36*
X109386823Y-74599313D02*
G01*
X109547242Y-74647976D01*
X109679906Y-74718886D01*
X109695078Y-74726996D01*
X109824659Y-74833341D01*
X109931004Y-74962922D01*
X109931005Y-74962924D01*
X110010024Y-75110758D01*
X110058687Y-75271177D01*
X110075117Y-75438000D01*
X110058687Y-75604823D01*
X110010024Y-75765242D01*
X109939114Y-75897906D01*
X109931004Y-75913078D01*
X109824659Y-76042659D01*
X109695078Y-76149004D01*
X109695076Y-76149005D01*
X109547242Y-76228024D01*
X109386823Y-76276687D01*
X109261804Y-76289000D01*
X109178196Y-76289000D01*
X109053177Y-76276687D01*
X108892758Y-76228024D01*
X108744924Y-76149005D01*
X108744922Y-76149004D01*
X108615341Y-76042659D01*
X108508996Y-75913078D01*
X108500886Y-75897906D01*
X108429976Y-75765242D01*
X108381313Y-75604823D01*
X108364883Y-75438000D01*
X108381313Y-75271177D01*
X108429976Y-75110758D01*
X108508995Y-74962924D01*
X108508996Y-74962922D01*
X108615341Y-74833341D01*
X108744922Y-74726996D01*
X108760094Y-74718886D01*
X108892758Y-74647976D01*
X109053177Y-74599313D01*
X109178196Y-74587000D01*
X109261804Y-74587000D01*
X109386823Y-74599313D01*
X109386823Y-74599313D01*
G37*
G36*
X137326823Y-74599313D02*
G01*
X137487242Y-74647976D01*
X137619906Y-74718886D01*
X137635078Y-74726996D01*
X137764659Y-74833341D01*
X137871004Y-74962922D01*
X137871005Y-74962924D01*
X137950024Y-75110758D01*
X137998687Y-75271177D01*
X138015117Y-75438000D01*
X137998687Y-75604823D01*
X137950024Y-75765242D01*
X137879114Y-75897906D01*
X137871004Y-75913078D01*
X137764659Y-76042659D01*
X137635078Y-76149004D01*
X137635076Y-76149005D01*
X137487242Y-76228024D01*
X137326823Y-76276687D01*
X137201804Y-76289000D01*
X137118196Y-76289000D01*
X136993177Y-76276687D01*
X136832758Y-76228024D01*
X136684924Y-76149005D01*
X136684922Y-76149004D01*
X136555341Y-76042659D01*
X136448996Y-75913078D01*
X136440886Y-75897906D01*
X136369976Y-75765242D01*
X136321313Y-75604823D01*
X136304883Y-75438000D01*
X136321313Y-75271177D01*
X136369976Y-75110758D01*
X136448995Y-74962924D01*
X136448996Y-74962922D01*
X136555341Y-74833341D01*
X136684922Y-74726996D01*
X136700094Y-74718886D01*
X136832758Y-74647976D01*
X136993177Y-74599313D01*
X137118196Y-74587000D01*
X137201804Y-74587000D01*
X137326823Y-74599313D01*
X137326823Y-74599313D01*
G37*
G36*
X142406823Y-74599313D02*
G01*
X142567242Y-74647976D01*
X142699906Y-74718886D01*
X142715078Y-74726996D01*
X142844659Y-74833341D01*
X142951004Y-74962922D01*
X142951005Y-74962924D01*
X143030024Y-75110758D01*
X143078687Y-75271177D01*
X143095117Y-75438000D01*
X143078687Y-75604823D01*
X143030024Y-75765242D01*
X142959114Y-75897906D01*
X142951004Y-75913078D01*
X142844659Y-76042659D01*
X142715078Y-76149004D01*
X142715076Y-76149005D01*
X142567242Y-76228024D01*
X142406823Y-76276687D01*
X142281804Y-76289000D01*
X142198196Y-76289000D01*
X142073177Y-76276687D01*
X141912758Y-76228024D01*
X141764924Y-76149005D01*
X141764922Y-76149004D01*
X141635341Y-76042659D01*
X141528996Y-75913078D01*
X141520886Y-75897906D01*
X141449976Y-75765242D01*
X141401313Y-75604823D01*
X141384883Y-75438000D01*
X141401313Y-75271177D01*
X141449976Y-75110758D01*
X141528995Y-74962924D01*
X141528996Y-74962922D01*
X141635341Y-74833341D01*
X141764922Y-74726996D01*
X141780094Y-74718886D01*
X141912758Y-74647976D01*
X142073177Y-74599313D01*
X142198196Y-74587000D01*
X142281804Y-74587000D01*
X142406823Y-74599313D01*
X142406823Y-74599313D01*
G37*
G36*
X144946823Y-74599313D02*
G01*
X145107242Y-74647976D01*
X145239906Y-74718886D01*
X145255078Y-74726996D01*
X145384659Y-74833341D01*
X145491004Y-74962922D01*
X145491005Y-74962924D01*
X145570024Y-75110758D01*
X145618687Y-75271177D01*
X145635117Y-75438000D01*
X145618687Y-75604823D01*
X145570024Y-75765242D01*
X145499114Y-75897906D01*
X145491004Y-75913078D01*
X145384659Y-76042659D01*
X145255078Y-76149004D01*
X145255076Y-76149005D01*
X145107242Y-76228024D01*
X144946823Y-76276687D01*
X144821804Y-76289000D01*
X144738196Y-76289000D01*
X144613177Y-76276687D01*
X144452758Y-76228024D01*
X144304924Y-76149005D01*
X144304922Y-76149004D01*
X144175341Y-76042659D01*
X144068996Y-75913078D01*
X144060886Y-75897906D01*
X143989976Y-75765242D01*
X143941313Y-75604823D01*
X143924883Y-75438000D01*
X143941313Y-75271177D01*
X143989976Y-75110758D01*
X144068995Y-74962924D01*
X144068996Y-74962922D01*
X144175341Y-74833341D01*
X144304922Y-74726996D01*
X144320094Y-74718886D01*
X144452758Y-74647976D01*
X144613177Y-74599313D01*
X144738196Y-74587000D01*
X144821804Y-74587000D01*
X144946823Y-74599313D01*
X144946823Y-74599313D01*
G37*
G36*
X147486823Y-74599313D02*
G01*
X147647242Y-74647976D01*
X147779906Y-74718886D01*
X147795078Y-74726996D01*
X147924659Y-74833341D01*
X148031004Y-74962922D01*
X148031005Y-74962924D01*
X148110024Y-75110758D01*
X148158687Y-75271177D01*
X148175117Y-75438000D01*
X148158687Y-75604823D01*
X148110024Y-75765242D01*
X148039114Y-75897906D01*
X148031004Y-75913078D01*
X147924659Y-76042659D01*
X147795078Y-76149004D01*
X147795076Y-76149005D01*
X147647242Y-76228024D01*
X147486823Y-76276687D01*
X147361804Y-76289000D01*
X147278196Y-76289000D01*
X147153177Y-76276687D01*
X146992758Y-76228024D01*
X146844924Y-76149005D01*
X146844922Y-76149004D01*
X146715341Y-76042659D01*
X146608996Y-75913078D01*
X146600886Y-75897906D01*
X146529976Y-75765242D01*
X146481313Y-75604823D01*
X146464883Y-75438000D01*
X146481313Y-75271177D01*
X146529976Y-75110758D01*
X146608995Y-74962924D01*
X146608996Y-74962922D01*
X146715341Y-74833341D01*
X146844922Y-74726996D01*
X146860094Y-74718886D01*
X146992758Y-74647976D01*
X147153177Y-74599313D01*
X147278196Y-74587000D01*
X147361804Y-74587000D01*
X147486823Y-74599313D01*
X147486823Y-74599313D01*
G37*
G36*
X150026823Y-74599313D02*
G01*
X150187242Y-74647976D01*
X150319906Y-74718886D01*
X150335078Y-74726996D01*
X150464659Y-74833341D01*
X150571004Y-74962922D01*
X150571005Y-74962924D01*
X150650024Y-75110758D01*
X150698687Y-75271177D01*
X150715117Y-75438000D01*
X150698687Y-75604823D01*
X150650024Y-75765242D01*
X150579114Y-75897906D01*
X150571004Y-75913078D01*
X150464659Y-76042659D01*
X150335078Y-76149004D01*
X150335076Y-76149005D01*
X150187242Y-76228024D01*
X150026823Y-76276687D01*
X149901804Y-76289000D01*
X149818196Y-76289000D01*
X149693177Y-76276687D01*
X149532758Y-76228024D01*
X149384924Y-76149005D01*
X149384922Y-76149004D01*
X149255341Y-76042659D01*
X149148996Y-75913078D01*
X149140886Y-75897906D01*
X149069976Y-75765242D01*
X149021313Y-75604823D01*
X149004883Y-75438000D01*
X149021313Y-75271177D01*
X149069976Y-75110758D01*
X149148995Y-74962924D01*
X149148996Y-74962922D01*
X149255341Y-74833341D01*
X149384922Y-74726996D01*
X149400094Y-74718886D01*
X149532758Y-74647976D01*
X149693177Y-74599313D01*
X149818196Y-74587000D01*
X149901804Y-74587000D01*
X150026823Y-74599313D01*
X150026823Y-74599313D01*
G37*
G36*
X152566823Y-74599313D02*
G01*
X152727242Y-74647976D01*
X152859906Y-74718886D01*
X152875078Y-74726996D01*
X153004659Y-74833341D01*
X153111004Y-74962922D01*
X153111005Y-74962924D01*
X153190024Y-75110758D01*
X153238687Y-75271177D01*
X153255117Y-75438000D01*
X153238687Y-75604823D01*
X153190024Y-75765242D01*
X153119114Y-75897906D01*
X153111004Y-75913078D01*
X153004659Y-76042659D01*
X152875078Y-76149004D01*
X152875076Y-76149005D01*
X152727242Y-76228024D01*
X152566823Y-76276687D01*
X152441804Y-76289000D01*
X152358196Y-76289000D01*
X152233177Y-76276687D01*
X152072758Y-76228024D01*
X151924924Y-76149005D01*
X151924922Y-76149004D01*
X151795341Y-76042659D01*
X151688996Y-75913078D01*
X151680886Y-75897906D01*
X151609976Y-75765242D01*
X151561313Y-75604823D01*
X151544883Y-75438000D01*
X151561313Y-75271177D01*
X151609976Y-75110758D01*
X151688995Y-74962924D01*
X151688996Y-74962922D01*
X151795341Y-74833341D01*
X151924922Y-74726996D01*
X151940094Y-74718886D01*
X152072758Y-74647976D01*
X152233177Y-74599313D01*
X152358196Y-74587000D01*
X152441804Y-74587000D01*
X152566823Y-74599313D01*
X152566823Y-74599313D01*
G37*
G36*
X155106823Y-74599313D02*
G01*
X155267242Y-74647976D01*
X155399906Y-74718886D01*
X155415078Y-74726996D01*
X155544659Y-74833341D01*
X155651004Y-74962922D01*
X155651005Y-74962924D01*
X155730024Y-75110758D01*
X155778687Y-75271177D01*
X155795117Y-75438000D01*
X155778687Y-75604823D01*
X155730024Y-75765242D01*
X155659114Y-75897906D01*
X155651004Y-75913078D01*
X155544659Y-76042659D01*
X155415078Y-76149004D01*
X155415076Y-76149005D01*
X155267242Y-76228024D01*
X155106823Y-76276687D01*
X154981804Y-76289000D01*
X154898196Y-76289000D01*
X154773177Y-76276687D01*
X154612758Y-76228024D01*
X154464924Y-76149005D01*
X154464922Y-76149004D01*
X154335341Y-76042659D01*
X154228996Y-75913078D01*
X154220886Y-75897906D01*
X154149976Y-75765242D01*
X154101313Y-75604823D01*
X154084883Y-75438000D01*
X154101313Y-75271177D01*
X154149976Y-75110758D01*
X154228995Y-74962924D01*
X154228996Y-74962922D01*
X154335341Y-74833341D01*
X154464922Y-74726996D01*
X154480094Y-74718886D01*
X154612758Y-74647976D01*
X154773177Y-74599313D01*
X154898196Y-74587000D01*
X154981804Y-74587000D01*
X155106823Y-74599313D01*
X155106823Y-74599313D01*
G37*
G36*
X157646823Y-74599313D02*
G01*
X157807242Y-74647976D01*
X157939906Y-74718886D01*
X157955078Y-74726996D01*
X158084659Y-74833341D01*
X158191004Y-74962922D01*
X158191005Y-74962924D01*
X158270024Y-75110758D01*
X158318687Y-75271177D01*
X158335117Y-75438000D01*
X158318687Y-75604823D01*
X158270024Y-75765242D01*
X158199114Y-75897906D01*
X158191004Y-75913078D01*
X158084659Y-76042659D01*
X157955078Y-76149004D01*
X157955076Y-76149005D01*
X157807242Y-76228024D01*
X157646823Y-76276687D01*
X157521804Y-76289000D01*
X157438196Y-76289000D01*
X157313177Y-76276687D01*
X157152758Y-76228024D01*
X157004924Y-76149005D01*
X157004922Y-76149004D01*
X156875341Y-76042659D01*
X156768996Y-75913078D01*
X156760886Y-75897906D01*
X156689976Y-75765242D01*
X156641313Y-75604823D01*
X156624883Y-75438000D01*
X156641313Y-75271177D01*
X156689976Y-75110758D01*
X156768995Y-74962924D01*
X156768996Y-74962922D01*
X156875341Y-74833341D01*
X157004922Y-74726996D01*
X157020094Y-74718886D01*
X157152758Y-74647976D01*
X157313177Y-74599313D01*
X157438196Y-74587000D01*
X157521804Y-74587000D01*
X157646823Y-74599313D01*
X157646823Y-74599313D01*
G37*
G36*
X134786823Y-74599313D02*
G01*
X134947242Y-74647976D01*
X135079906Y-74718886D01*
X135095078Y-74726996D01*
X135224659Y-74833341D01*
X135331004Y-74962922D01*
X135331005Y-74962924D01*
X135410024Y-75110758D01*
X135458687Y-75271177D01*
X135475117Y-75438000D01*
X135458687Y-75604823D01*
X135410024Y-75765242D01*
X135339114Y-75897906D01*
X135331004Y-75913078D01*
X135224659Y-76042659D01*
X135095078Y-76149004D01*
X135095076Y-76149005D01*
X134947242Y-76228024D01*
X134786823Y-76276687D01*
X134661804Y-76289000D01*
X134578196Y-76289000D01*
X134453177Y-76276687D01*
X134292758Y-76228024D01*
X134144924Y-76149005D01*
X134144922Y-76149004D01*
X134015341Y-76042659D01*
X133908996Y-75913078D01*
X133900886Y-75897906D01*
X133829976Y-75765242D01*
X133781313Y-75604823D01*
X133764883Y-75438000D01*
X133781313Y-75271177D01*
X133829976Y-75110758D01*
X133908995Y-74962924D01*
X133908996Y-74962922D01*
X134015341Y-74833341D01*
X134144922Y-74726996D01*
X134160094Y-74718886D01*
X134292758Y-74647976D01*
X134453177Y-74599313D01*
X134578196Y-74587000D01*
X134661804Y-74587000D01*
X134786823Y-74599313D01*
X134786823Y-74599313D01*
G37*
G36*
X106846823Y-74599313D02*
G01*
X107007242Y-74647976D01*
X107139906Y-74718886D01*
X107155078Y-74726996D01*
X107284659Y-74833341D01*
X107391004Y-74962922D01*
X107391005Y-74962924D01*
X107470024Y-75110758D01*
X107518687Y-75271177D01*
X107535117Y-75438000D01*
X107518687Y-75604823D01*
X107470024Y-75765242D01*
X107399114Y-75897906D01*
X107391004Y-75913078D01*
X107284659Y-76042659D01*
X107155078Y-76149004D01*
X107155076Y-76149005D01*
X107007242Y-76228024D01*
X106846823Y-76276687D01*
X106721804Y-76289000D01*
X106638196Y-76289000D01*
X106513177Y-76276687D01*
X106352758Y-76228024D01*
X106204924Y-76149005D01*
X106204922Y-76149004D01*
X106075341Y-76042659D01*
X105968996Y-75913078D01*
X105960886Y-75897906D01*
X105889976Y-75765242D01*
X105841313Y-75604823D01*
X105824883Y-75438000D01*
X105841313Y-75271177D01*
X105889976Y-75110758D01*
X105968995Y-74962924D01*
X105968996Y-74962922D01*
X106075341Y-74833341D01*
X106204922Y-74726996D01*
X106220094Y-74718886D01*
X106352758Y-74647976D01*
X106513177Y-74599313D01*
X106638196Y-74587000D01*
X106721804Y-74587000D01*
X106846823Y-74599313D01*
X106846823Y-74599313D01*
G37*
G36*
X171716000Y-70497000D02*
G01*
X169914000Y-70497000D01*
X169914000Y-68695000D01*
X171716000Y-68695000D01*
X171716000Y-70497000D01*
X171716000Y-70497000D01*
G37*
G36*
X170925442Y-66161518D02*
G01*
X170991627Y-66168037D01*
X171161466Y-66219557D01*
X171317991Y-66303222D01*
X171353729Y-66332552D01*
X171455186Y-66415814D01*
X171538448Y-66517271D01*
X171567778Y-66553009D01*
X171651443Y-66709534D01*
X171702963Y-66879373D01*
X171720359Y-67056000D01*
X171702963Y-67232627D01*
X171651443Y-67402466D01*
X171567778Y-67558991D01*
X171538448Y-67594729D01*
X171455186Y-67696186D01*
X171353729Y-67779448D01*
X171317991Y-67808778D01*
X171161466Y-67892443D01*
X170991627Y-67943963D01*
X170925442Y-67950482D01*
X170859260Y-67957000D01*
X170770740Y-67957000D01*
X170704558Y-67950482D01*
X170638373Y-67943963D01*
X170468534Y-67892443D01*
X170312009Y-67808778D01*
X170276271Y-67779448D01*
X170174814Y-67696186D01*
X170091552Y-67594729D01*
X170062222Y-67558991D01*
X169978557Y-67402466D01*
X169927037Y-67232627D01*
X169909641Y-67056000D01*
X169927037Y-66879373D01*
X169978557Y-66709534D01*
X170062222Y-66553009D01*
X170091552Y-66517271D01*
X170174814Y-66415814D01*
X170276271Y-66332552D01*
X170312009Y-66303222D01*
X170468534Y-66219557D01*
X170638373Y-66168037D01*
X170704558Y-66161518D01*
X170770740Y-66155000D01*
X170859260Y-66155000D01*
X170925442Y-66161518D01*
X170925442Y-66161518D01*
G37*
G36*
X152185823Y-65328313D02*
G01*
X152346242Y-65376976D01*
X152478906Y-65447886D01*
X152494078Y-65455996D01*
X152623659Y-65562341D01*
X152730004Y-65691922D01*
X152730005Y-65691924D01*
X152809024Y-65839758D01*
X152857687Y-66000177D01*
X152874117Y-66167000D01*
X152857687Y-66333823D01*
X152809024Y-66494242D01*
X152765310Y-66576025D01*
X152730004Y-66642078D01*
X152623659Y-66771659D01*
X152494078Y-66878004D01*
X152494076Y-66878005D01*
X152346242Y-66957024D01*
X152185823Y-67005687D01*
X152060804Y-67018000D01*
X151977196Y-67018000D01*
X151852177Y-67005687D01*
X151691758Y-66957024D01*
X151543924Y-66878005D01*
X151543922Y-66878004D01*
X151414341Y-66771659D01*
X151307996Y-66642078D01*
X151272690Y-66576025D01*
X151228976Y-66494242D01*
X151180313Y-66333823D01*
X151163883Y-66167000D01*
X151180313Y-66000177D01*
X151228976Y-65839758D01*
X151307995Y-65691924D01*
X151307996Y-65691922D01*
X151414341Y-65562341D01*
X151543922Y-65455996D01*
X151559094Y-65447886D01*
X151691758Y-65376976D01*
X151852177Y-65328313D01*
X151977196Y-65316000D01*
X152060804Y-65316000D01*
X152185823Y-65328313D01*
X152185823Y-65328313D01*
G37*
G36*
X146851823Y-65328313D02*
G01*
X147012242Y-65376976D01*
X147144906Y-65447886D01*
X147160078Y-65455996D01*
X147289659Y-65562341D01*
X147396004Y-65691922D01*
X147396005Y-65691924D01*
X147475024Y-65839758D01*
X147523687Y-66000177D01*
X147540117Y-66167000D01*
X147523687Y-66333823D01*
X147475024Y-66494242D01*
X147431310Y-66576025D01*
X147396004Y-66642078D01*
X147289659Y-66771659D01*
X147160078Y-66878004D01*
X147160076Y-66878005D01*
X147012242Y-66957024D01*
X146851823Y-67005687D01*
X146726804Y-67018000D01*
X146643196Y-67018000D01*
X146518177Y-67005687D01*
X146357758Y-66957024D01*
X146209924Y-66878005D01*
X146209922Y-66878004D01*
X146080341Y-66771659D01*
X145973996Y-66642078D01*
X145938690Y-66576025D01*
X145894976Y-66494242D01*
X145846313Y-66333823D01*
X145829883Y-66167000D01*
X145846313Y-66000177D01*
X145894976Y-65839758D01*
X145973995Y-65691924D01*
X145973996Y-65691922D01*
X146080341Y-65562341D01*
X146209922Y-65455996D01*
X146225094Y-65447886D01*
X146357758Y-65376976D01*
X146518177Y-65328313D01*
X146643196Y-65316000D01*
X146726804Y-65316000D01*
X146851823Y-65328313D01*
X146851823Y-65328313D01*
G37*
G36*
X144311823Y-65328313D02*
G01*
X144472242Y-65376976D01*
X144604906Y-65447886D01*
X144620078Y-65455996D01*
X144749659Y-65562341D01*
X144856004Y-65691922D01*
X144856005Y-65691924D01*
X144935024Y-65839758D01*
X144983687Y-66000177D01*
X145000117Y-66167000D01*
X144983687Y-66333823D01*
X144935024Y-66494242D01*
X144891310Y-66576025D01*
X144856004Y-66642078D01*
X144749659Y-66771659D01*
X144620078Y-66878004D01*
X144620076Y-66878005D01*
X144472242Y-66957024D01*
X144311823Y-67005687D01*
X144186804Y-67018000D01*
X144103196Y-67018000D01*
X143978177Y-67005687D01*
X143817758Y-66957024D01*
X143669924Y-66878005D01*
X143669922Y-66878004D01*
X143540341Y-66771659D01*
X143433996Y-66642078D01*
X143398690Y-66576025D01*
X143354976Y-66494242D01*
X143306313Y-66333823D01*
X143289883Y-66167000D01*
X143306313Y-66000177D01*
X143354976Y-65839758D01*
X143433995Y-65691924D01*
X143433996Y-65691922D01*
X143540341Y-65562341D01*
X143669922Y-65455996D01*
X143685094Y-65447886D01*
X143817758Y-65376976D01*
X143978177Y-65328313D01*
X144103196Y-65316000D01*
X144186804Y-65316000D01*
X144311823Y-65328313D01*
X144311823Y-65328313D01*
G37*
G36*
X129756000Y-67018000D02*
G01*
X128054000Y-67018000D01*
X128054000Y-65316000D01*
X129756000Y-65316000D01*
X129756000Y-67018000D01*
X129756000Y-67018000D01*
G37*
G36*
X159805823Y-65328313D02*
G01*
X159966242Y-65376976D01*
X160098906Y-65447886D01*
X160114078Y-65455996D01*
X160243659Y-65562341D01*
X160350004Y-65691922D01*
X160350005Y-65691924D01*
X160429024Y-65839758D01*
X160477687Y-66000177D01*
X160494117Y-66167000D01*
X160477687Y-66333823D01*
X160429024Y-66494242D01*
X160385310Y-66576025D01*
X160350004Y-66642078D01*
X160243659Y-66771659D01*
X160114078Y-66878004D01*
X160114076Y-66878005D01*
X159966242Y-66957024D01*
X159805823Y-67005687D01*
X159680804Y-67018000D01*
X159597196Y-67018000D01*
X159472177Y-67005687D01*
X159311758Y-66957024D01*
X159163924Y-66878005D01*
X159163922Y-66878004D01*
X159034341Y-66771659D01*
X158927996Y-66642078D01*
X158892690Y-66576025D01*
X158848976Y-66494242D01*
X158800313Y-66333823D01*
X158783883Y-66167000D01*
X158800313Y-66000177D01*
X158848976Y-65839758D01*
X158927995Y-65691924D01*
X158927996Y-65691922D01*
X159034341Y-65562341D01*
X159163922Y-65455996D01*
X159179094Y-65447886D01*
X159311758Y-65376976D01*
X159472177Y-65328313D01*
X159597196Y-65316000D01*
X159680804Y-65316000D01*
X159805823Y-65328313D01*
X159805823Y-65328313D01*
G37*
G36*
X162345823Y-65328313D02*
G01*
X162506242Y-65376976D01*
X162638906Y-65447886D01*
X162654078Y-65455996D01*
X162783659Y-65562341D01*
X162890004Y-65691922D01*
X162890005Y-65691924D01*
X162969024Y-65839758D01*
X163017687Y-66000177D01*
X163034117Y-66167000D01*
X163017687Y-66333823D01*
X162969024Y-66494242D01*
X162925310Y-66576025D01*
X162890004Y-66642078D01*
X162783659Y-66771659D01*
X162654078Y-66878004D01*
X162654076Y-66878005D01*
X162506242Y-66957024D01*
X162345823Y-67005687D01*
X162220804Y-67018000D01*
X162137196Y-67018000D01*
X162012177Y-67005687D01*
X161851758Y-66957024D01*
X161703924Y-66878005D01*
X161703922Y-66878004D01*
X161574341Y-66771659D01*
X161467996Y-66642078D01*
X161432690Y-66576025D01*
X161388976Y-66494242D01*
X161340313Y-66333823D01*
X161323883Y-66167000D01*
X161340313Y-66000177D01*
X161388976Y-65839758D01*
X161467995Y-65691924D01*
X161467996Y-65691922D01*
X161574341Y-65562341D01*
X161703922Y-65455996D01*
X161719094Y-65447886D01*
X161851758Y-65376976D01*
X162012177Y-65328313D01*
X162137196Y-65316000D01*
X162220804Y-65316000D01*
X162345823Y-65328313D01*
X162345823Y-65328313D01*
G37*
G36*
X164885823Y-65328313D02*
G01*
X165046242Y-65376976D01*
X165178906Y-65447886D01*
X165194078Y-65455996D01*
X165323659Y-65562341D01*
X165430004Y-65691922D01*
X165430005Y-65691924D01*
X165509024Y-65839758D01*
X165557687Y-66000177D01*
X165574117Y-66167000D01*
X165557687Y-66333823D01*
X165509024Y-66494242D01*
X165465310Y-66576025D01*
X165430004Y-66642078D01*
X165323659Y-66771659D01*
X165194078Y-66878004D01*
X165194076Y-66878005D01*
X165046242Y-66957024D01*
X164885823Y-67005687D01*
X164760804Y-67018000D01*
X164677196Y-67018000D01*
X164552177Y-67005687D01*
X164391758Y-66957024D01*
X164243924Y-66878005D01*
X164243922Y-66878004D01*
X164114341Y-66771659D01*
X164007996Y-66642078D01*
X163972690Y-66576025D01*
X163928976Y-66494242D01*
X163880313Y-66333823D01*
X163863883Y-66167000D01*
X163880313Y-66000177D01*
X163928976Y-65839758D01*
X164007995Y-65691924D01*
X164007996Y-65691922D01*
X164114341Y-65562341D01*
X164243922Y-65455996D01*
X164259094Y-65447886D01*
X164391758Y-65376976D01*
X164552177Y-65328313D01*
X164677196Y-65316000D01*
X164760804Y-65316000D01*
X164885823Y-65328313D01*
X164885823Y-65328313D01*
G37*
G36*
X141771823Y-65328313D02*
G01*
X141932242Y-65376976D01*
X142064906Y-65447886D01*
X142080078Y-65455996D01*
X142209659Y-65562341D01*
X142316004Y-65691922D01*
X142316005Y-65691924D01*
X142395024Y-65839758D01*
X142443687Y-66000177D01*
X142460117Y-66167000D01*
X142443687Y-66333823D01*
X142395024Y-66494242D01*
X142351310Y-66576025D01*
X142316004Y-66642078D01*
X142209659Y-66771659D01*
X142080078Y-66878004D01*
X142080076Y-66878005D01*
X141932242Y-66957024D01*
X141771823Y-67005687D01*
X141646804Y-67018000D01*
X141563196Y-67018000D01*
X141438177Y-67005687D01*
X141277758Y-66957024D01*
X141129924Y-66878005D01*
X141129922Y-66878004D01*
X141000341Y-66771659D01*
X140893996Y-66642078D01*
X140858690Y-66576025D01*
X140814976Y-66494242D01*
X140766313Y-66333823D01*
X140749883Y-66167000D01*
X140766313Y-66000177D01*
X140814976Y-65839758D01*
X140893995Y-65691924D01*
X140893996Y-65691922D01*
X141000341Y-65562341D01*
X141129922Y-65455996D01*
X141145094Y-65447886D01*
X141277758Y-65376976D01*
X141438177Y-65328313D01*
X141563196Y-65316000D01*
X141646804Y-65316000D01*
X141771823Y-65328313D01*
X141771823Y-65328313D01*
G37*
G36*
X167425823Y-65328313D02*
G01*
X167586242Y-65376976D01*
X167718906Y-65447886D01*
X167734078Y-65455996D01*
X167863659Y-65562341D01*
X167970004Y-65691922D01*
X167970005Y-65691924D01*
X168049024Y-65839758D01*
X168097687Y-66000177D01*
X168114117Y-66167000D01*
X168097687Y-66333823D01*
X168049024Y-66494242D01*
X168005310Y-66576025D01*
X167970004Y-66642078D01*
X167863659Y-66771659D01*
X167734078Y-66878004D01*
X167734076Y-66878005D01*
X167586242Y-66957024D01*
X167425823Y-67005687D01*
X167300804Y-67018000D01*
X167217196Y-67018000D01*
X167092177Y-67005687D01*
X166931758Y-66957024D01*
X166783924Y-66878005D01*
X166783922Y-66878004D01*
X166654341Y-66771659D01*
X166547996Y-66642078D01*
X166512690Y-66576025D01*
X166468976Y-66494242D01*
X166420313Y-66333823D01*
X166403883Y-66167000D01*
X166420313Y-66000177D01*
X166468976Y-65839758D01*
X166547995Y-65691924D01*
X166547996Y-65691922D01*
X166654341Y-65562341D01*
X166783922Y-65455996D01*
X166799094Y-65447886D01*
X166931758Y-65376976D01*
X167092177Y-65328313D01*
X167217196Y-65316000D01*
X167300804Y-65316000D01*
X167425823Y-65328313D01*
X167425823Y-65328313D01*
G37*
G36*
X136691823Y-65328313D02*
G01*
X136852242Y-65376976D01*
X136984906Y-65447886D01*
X137000078Y-65455996D01*
X137129659Y-65562341D01*
X137236004Y-65691922D01*
X137236005Y-65691924D01*
X137315024Y-65839758D01*
X137363687Y-66000177D01*
X137380117Y-66167000D01*
X137363687Y-66333823D01*
X137315024Y-66494242D01*
X137271310Y-66576025D01*
X137236004Y-66642078D01*
X137129659Y-66771659D01*
X137000078Y-66878004D01*
X137000076Y-66878005D01*
X136852242Y-66957024D01*
X136691823Y-67005687D01*
X136566804Y-67018000D01*
X136483196Y-67018000D01*
X136358177Y-67005687D01*
X136197758Y-66957024D01*
X136049924Y-66878005D01*
X136049922Y-66878004D01*
X135920341Y-66771659D01*
X135813996Y-66642078D01*
X135778690Y-66576025D01*
X135734976Y-66494242D01*
X135686313Y-66333823D01*
X135669883Y-66167000D01*
X135686313Y-66000177D01*
X135734976Y-65839758D01*
X135813995Y-65691924D01*
X135813996Y-65691922D01*
X135920341Y-65562341D01*
X136049922Y-65455996D01*
X136065094Y-65447886D01*
X136197758Y-65376976D01*
X136358177Y-65328313D01*
X136483196Y-65316000D01*
X136566804Y-65316000D01*
X136691823Y-65328313D01*
X136691823Y-65328313D01*
G37*
G36*
X154725823Y-65328313D02*
G01*
X154886242Y-65376976D01*
X155018906Y-65447886D01*
X155034078Y-65455996D01*
X155163659Y-65562341D01*
X155270004Y-65691922D01*
X155270005Y-65691924D01*
X155349024Y-65839758D01*
X155397687Y-66000177D01*
X155414117Y-66167000D01*
X155397687Y-66333823D01*
X155349024Y-66494242D01*
X155305310Y-66576025D01*
X155270004Y-66642078D01*
X155163659Y-66771659D01*
X155034078Y-66878004D01*
X155034076Y-66878005D01*
X154886242Y-66957024D01*
X154725823Y-67005687D01*
X154600804Y-67018000D01*
X154517196Y-67018000D01*
X154392177Y-67005687D01*
X154231758Y-66957024D01*
X154083924Y-66878005D01*
X154083922Y-66878004D01*
X153954341Y-66771659D01*
X153847996Y-66642078D01*
X153812690Y-66576025D01*
X153768976Y-66494242D01*
X153720313Y-66333823D01*
X153703883Y-66167000D01*
X153720313Y-66000177D01*
X153768976Y-65839758D01*
X153847995Y-65691924D01*
X153847996Y-65691922D01*
X153954341Y-65562341D01*
X154083922Y-65455996D01*
X154099094Y-65447886D01*
X154231758Y-65376976D01*
X154392177Y-65328313D01*
X154517196Y-65316000D01*
X154600804Y-65316000D01*
X154725823Y-65328313D01*
X154725823Y-65328313D01*
G37*
G36*
X134151823Y-65328313D02*
G01*
X134312242Y-65376976D01*
X134444906Y-65447886D01*
X134460078Y-65455996D01*
X134589659Y-65562341D01*
X134696004Y-65691922D01*
X134696005Y-65691924D01*
X134775024Y-65839758D01*
X134823687Y-66000177D01*
X134840117Y-66167000D01*
X134823687Y-66333823D01*
X134775024Y-66494242D01*
X134731310Y-66576025D01*
X134696004Y-66642078D01*
X134589659Y-66771659D01*
X134460078Y-66878004D01*
X134460076Y-66878005D01*
X134312242Y-66957024D01*
X134151823Y-67005687D01*
X134026804Y-67018000D01*
X133943196Y-67018000D01*
X133818177Y-67005687D01*
X133657758Y-66957024D01*
X133509924Y-66878005D01*
X133509922Y-66878004D01*
X133380341Y-66771659D01*
X133273996Y-66642078D01*
X133238690Y-66576025D01*
X133194976Y-66494242D01*
X133146313Y-66333823D01*
X133129883Y-66167000D01*
X133146313Y-66000177D01*
X133194976Y-65839758D01*
X133273995Y-65691924D01*
X133273996Y-65691922D01*
X133380341Y-65562341D01*
X133509922Y-65455996D01*
X133525094Y-65447886D01*
X133657758Y-65376976D01*
X133818177Y-65328313D01*
X133943196Y-65316000D01*
X134026804Y-65316000D01*
X134151823Y-65328313D01*
X134151823Y-65328313D01*
G37*
G36*
X157265823Y-65328313D02*
G01*
X157426242Y-65376976D01*
X157558906Y-65447886D01*
X157574078Y-65455996D01*
X157703659Y-65562341D01*
X157810004Y-65691922D01*
X157810005Y-65691924D01*
X157889024Y-65839758D01*
X157937687Y-66000177D01*
X157954117Y-66167000D01*
X157937687Y-66333823D01*
X157889024Y-66494242D01*
X157845310Y-66576025D01*
X157810004Y-66642078D01*
X157703659Y-66771659D01*
X157574078Y-66878004D01*
X157574076Y-66878005D01*
X157426242Y-66957024D01*
X157265823Y-67005687D01*
X157140804Y-67018000D01*
X157057196Y-67018000D01*
X156932177Y-67005687D01*
X156771758Y-66957024D01*
X156623924Y-66878005D01*
X156623922Y-66878004D01*
X156494341Y-66771659D01*
X156387996Y-66642078D01*
X156352690Y-66576025D01*
X156308976Y-66494242D01*
X156260313Y-66333823D01*
X156243883Y-66167000D01*
X156260313Y-66000177D01*
X156308976Y-65839758D01*
X156387995Y-65691924D01*
X156387996Y-65691922D01*
X156494341Y-65562341D01*
X156623922Y-65455996D01*
X156639094Y-65447886D01*
X156771758Y-65376976D01*
X156932177Y-65328313D01*
X157057196Y-65316000D01*
X157140804Y-65316000D01*
X157265823Y-65328313D01*
X157265823Y-65328313D01*
G37*
G36*
X131611823Y-65328313D02*
G01*
X131772242Y-65376976D01*
X131904906Y-65447886D01*
X131920078Y-65455996D01*
X132049659Y-65562341D01*
X132156004Y-65691922D01*
X132156005Y-65691924D01*
X132235024Y-65839758D01*
X132283687Y-66000177D01*
X132300117Y-66167000D01*
X132283687Y-66333823D01*
X132235024Y-66494242D01*
X132191310Y-66576025D01*
X132156004Y-66642078D01*
X132049659Y-66771659D01*
X131920078Y-66878004D01*
X131920076Y-66878005D01*
X131772242Y-66957024D01*
X131611823Y-67005687D01*
X131486804Y-67018000D01*
X131403196Y-67018000D01*
X131278177Y-67005687D01*
X131117758Y-66957024D01*
X130969924Y-66878005D01*
X130969922Y-66878004D01*
X130840341Y-66771659D01*
X130733996Y-66642078D01*
X130698690Y-66576025D01*
X130654976Y-66494242D01*
X130606313Y-66333823D01*
X130589883Y-66167000D01*
X130606313Y-66000177D01*
X130654976Y-65839758D01*
X130733995Y-65691924D01*
X130733996Y-65691922D01*
X130840341Y-65562341D01*
X130969922Y-65455996D01*
X130985094Y-65447886D01*
X131117758Y-65376976D01*
X131278177Y-65328313D01*
X131403196Y-65316000D01*
X131486804Y-65316000D01*
X131611823Y-65328313D01*
X131611823Y-65328313D01*
G37*
G36*
X139231823Y-65328313D02*
G01*
X139392242Y-65376976D01*
X139524906Y-65447886D01*
X139540078Y-65455996D01*
X139669659Y-65562341D01*
X139776004Y-65691922D01*
X139776005Y-65691924D01*
X139855024Y-65839758D01*
X139903687Y-66000177D01*
X139920117Y-66167000D01*
X139903687Y-66333823D01*
X139855024Y-66494242D01*
X139811310Y-66576025D01*
X139776004Y-66642078D01*
X139669659Y-66771659D01*
X139540078Y-66878004D01*
X139540076Y-66878005D01*
X139392242Y-66957024D01*
X139231823Y-67005687D01*
X139106804Y-67018000D01*
X139023196Y-67018000D01*
X138898177Y-67005687D01*
X138737758Y-66957024D01*
X138589924Y-66878005D01*
X138589922Y-66878004D01*
X138460341Y-66771659D01*
X138353996Y-66642078D01*
X138318690Y-66576025D01*
X138274976Y-66494242D01*
X138226313Y-66333823D01*
X138209883Y-66167000D01*
X138226313Y-66000177D01*
X138274976Y-65839758D01*
X138353995Y-65691924D01*
X138353996Y-65691922D01*
X138460341Y-65562341D01*
X138589922Y-65455996D01*
X138605094Y-65447886D01*
X138737758Y-65376976D01*
X138898177Y-65328313D01*
X139023196Y-65316000D01*
X139106804Y-65316000D01*
X139231823Y-65328313D01*
X139231823Y-65328313D01*
G37*
G36*
X93257823Y-64947313D02*
G01*
X93418242Y-64995976D01*
X93550906Y-65066886D01*
X93566078Y-65074996D01*
X93695659Y-65181341D01*
X93802004Y-65310922D01*
X93802005Y-65310924D01*
X93881024Y-65458758D01*
X93929687Y-65619177D01*
X93946117Y-65786000D01*
X93929687Y-65952823D01*
X93881024Y-66113242D01*
X93851735Y-66168037D01*
X93802004Y-66261078D01*
X93695659Y-66390659D01*
X93566078Y-66497004D01*
X93566076Y-66497005D01*
X93418242Y-66576024D01*
X93257823Y-66624687D01*
X93132804Y-66637000D01*
X93049196Y-66637000D01*
X92924177Y-66624687D01*
X92763758Y-66576024D01*
X92615924Y-66497005D01*
X92615922Y-66497004D01*
X92486341Y-66390659D01*
X92379996Y-66261078D01*
X92330265Y-66168037D01*
X92300976Y-66113242D01*
X92252313Y-65952823D01*
X92235883Y-65786000D01*
X92252313Y-65619177D01*
X92300976Y-65458758D01*
X92379995Y-65310924D01*
X92379996Y-65310922D01*
X92486341Y-65181341D01*
X92615922Y-65074996D01*
X92631094Y-65066886D01*
X92763758Y-64995976D01*
X92924177Y-64947313D01*
X93049196Y-64935000D01*
X93132804Y-64935000D01*
X93257823Y-64947313D01*
X93257823Y-64947313D01*
G37*
G36*
X100877823Y-64947313D02*
G01*
X101038242Y-64995976D01*
X101170906Y-65066886D01*
X101186078Y-65074996D01*
X101315659Y-65181341D01*
X101422004Y-65310922D01*
X101422005Y-65310924D01*
X101501024Y-65458758D01*
X101549687Y-65619177D01*
X101566117Y-65786000D01*
X101549687Y-65952823D01*
X101501024Y-66113242D01*
X101471735Y-66168037D01*
X101422004Y-66261078D01*
X101315659Y-66390659D01*
X101186078Y-66497004D01*
X101186076Y-66497005D01*
X101038242Y-66576024D01*
X100877823Y-66624687D01*
X100752804Y-66637000D01*
X100669196Y-66637000D01*
X100544177Y-66624687D01*
X100383758Y-66576024D01*
X100235924Y-66497005D01*
X100235922Y-66497004D01*
X100106341Y-66390659D01*
X99999996Y-66261078D01*
X99950265Y-66168037D01*
X99920976Y-66113242D01*
X99872313Y-65952823D01*
X99855883Y-65786000D01*
X99872313Y-65619177D01*
X99920976Y-65458758D01*
X99999995Y-65310924D01*
X99999996Y-65310922D01*
X100106341Y-65181341D01*
X100235922Y-65074996D01*
X100251094Y-65066886D01*
X100383758Y-64995976D01*
X100544177Y-64947313D01*
X100669196Y-64935000D01*
X100752804Y-64935000D01*
X100877823Y-64947313D01*
X100877823Y-64947313D01*
G37*
G36*
X100877823Y-62407313D02*
G01*
X101038242Y-62455976D01*
X101170906Y-62526886D01*
X101186078Y-62534996D01*
X101315659Y-62641341D01*
X101422004Y-62770922D01*
X101422005Y-62770924D01*
X101501024Y-62918758D01*
X101549687Y-63079177D01*
X101566117Y-63246000D01*
X101549687Y-63412823D01*
X101501024Y-63573242D01*
X101430114Y-63705906D01*
X101422004Y-63721078D01*
X101315659Y-63850659D01*
X101186078Y-63957004D01*
X101186076Y-63957005D01*
X101038242Y-64036024D01*
X100877823Y-64084687D01*
X100752804Y-64097000D01*
X100669196Y-64097000D01*
X100544177Y-64084687D01*
X100383758Y-64036024D01*
X100235924Y-63957005D01*
X100235922Y-63957004D01*
X100106341Y-63850659D01*
X99999996Y-63721078D01*
X99991886Y-63705906D01*
X99920976Y-63573242D01*
X99872313Y-63412823D01*
X99855883Y-63246000D01*
X99872313Y-63079177D01*
X99920976Y-62918758D01*
X99999995Y-62770924D01*
X99999996Y-62770922D01*
X100106341Y-62641341D01*
X100235922Y-62534996D01*
X100251094Y-62526886D01*
X100383758Y-62455976D01*
X100544177Y-62407313D01*
X100669196Y-62395000D01*
X100752804Y-62395000D01*
X100877823Y-62407313D01*
X100877823Y-62407313D01*
G37*
G36*
X93257823Y-62407313D02*
G01*
X93418242Y-62455976D01*
X93550906Y-62526886D01*
X93566078Y-62534996D01*
X93695659Y-62641341D01*
X93802004Y-62770922D01*
X93802005Y-62770924D01*
X93881024Y-62918758D01*
X93929687Y-63079177D01*
X93946117Y-63246000D01*
X93929687Y-63412823D01*
X93881024Y-63573242D01*
X93810114Y-63705906D01*
X93802004Y-63721078D01*
X93695659Y-63850659D01*
X93566078Y-63957004D01*
X93566076Y-63957005D01*
X93418242Y-64036024D01*
X93257823Y-64084687D01*
X93132804Y-64097000D01*
X93049196Y-64097000D01*
X92924177Y-64084687D01*
X92763758Y-64036024D01*
X92615924Y-63957005D01*
X92615922Y-63957004D01*
X92486341Y-63850659D01*
X92379996Y-63721078D01*
X92371886Y-63705906D01*
X92300976Y-63573242D01*
X92252313Y-63412823D01*
X92235883Y-63246000D01*
X92252313Y-63079177D01*
X92300976Y-62918758D01*
X92379995Y-62770924D01*
X92379996Y-62770922D01*
X92486341Y-62641341D01*
X92615922Y-62534996D01*
X92631094Y-62526886D01*
X92763758Y-62455976D01*
X92924177Y-62407313D01*
X93049196Y-62395000D01*
X93132804Y-62395000D01*
X93257823Y-62407313D01*
X93257823Y-62407313D01*
G37*
G36*
X100877823Y-59867313D02*
G01*
X101038242Y-59915976D01*
X101170906Y-59986886D01*
X101186078Y-59994996D01*
X101315659Y-60101341D01*
X101422004Y-60230922D01*
X101422005Y-60230924D01*
X101501024Y-60378758D01*
X101549687Y-60539177D01*
X101566117Y-60706000D01*
X101549687Y-60872823D01*
X101501024Y-61033242D01*
X101430114Y-61165906D01*
X101422004Y-61181078D01*
X101315659Y-61310659D01*
X101186078Y-61417004D01*
X101186076Y-61417005D01*
X101038242Y-61496024D01*
X100877823Y-61544687D01*
X100752804Y-61557000D01*
X100669196Y-61557000D01*
X100544177Y-61544687D01*
X100383758Y-61496024D01*
X100235924Y-61417005D01*
X100235922Y-61417004D01*
X100106341Y-61310659D01*
X99999996Y-61181078D01*
X99991886Y-61165906D01*
X99920976Y-61033242D01*
X99872313Y-60872823D01*
X99855883Y-60706000D01*
X99872313Y-60539177D01*
X99920976Y-60378758D01*
X99999995Y-60230924D01*
X99999996Y-60230922D01*
X100106341Y-60101341D01*
X100235922Y-59994996D01*
X100251094Y-59986886D01*
X100383758Y-59915976D01*
X100544177Y-59867313D01*
X100669196Y-59855000D01*
X100752804Y-59855000D01*
X100877823Y-59867313D01*
X100877823Y-59867313D01*
G37*
G36*
X93257823Y-59867313D02*
G01*
X93418242Y-59915976D01*
X93550906Y-59986886D01*
X93566078Y-59994996D01*
X93695659Y-60101341D01*
X93802004Y-60230922D01*
X93802005Y-60230924D01*
X93881024Y-60378758D01*
X93929687Y-60539177D01*
X93946117Y-60706000D01*
X93929687Y-60872823D01*
X93881024Y-61033242D01*
X93810114Y-61165906D01*
X93802004Y-61181078D01*
X93695659Y-61310659D01*
X93566078Y-61417004D01*
X93566076Y-61417005D01*
X93418242Y-61496024D01*
X93257823Y-61544687D01*
X93132804Y-61557000D01*
X93049196Y-61557000D01*
X92924177Y-61544687D01*
X92763758Y-61496024D01*
X92615924Y-61417005D01*
X92615922Y-61417004D01*
X92486341Y-61310659D01*
X92379996Y-61181078D01*
X92371886Y-61165906D01*
X92300976Y-61033242D01*
X92252313Y-60872823D01*
X92235883Y-60706000D01*
X92252313Y-60539177D01*
X92300976Y-60378758D01*
X92379995Y-60230924D01*
X92379996Y-60230922D01*
X92486341Y-60101341D01*
X92615922Y-59994996D01*
X92631094Y-59986886D01*
X92763758Y-59915976D01*
X92924177Y-59867313D01*
X93049196Y-59855000D01*
X93132804Y-59855000D01*
X93257823Y-59867313D01*
X93257823Y-59867313D01*
G37*
G36*
X152185823Y-57708313D02*
G01*
X152346242Y-57756976D01*
X152478906Y-57827886D01*
X152494078Y-57835996D01*
X152623659Y-57942341D01*
X152730004Y-58071922D01*
X152730005Y-58071924D01*
X152809024Y-58219758D01*
X152857687Y-58380177D01*
X152874117Y-58547000D01*
X152857687Y-58713823D01*
X152809024Y-58874242D01*
X152765310Y-58956025D01*
X152730004Y-59022078D01*
X152623659Y-59151659D01*
X152494078Y-59258004D01*
X152494076Y-59258005D01*
X152346242Y-59337024D01*
X152185823Y-59385687D01*
X152060804Y-59398000D01*
X151977196Y-59398000D01*
X151852177Y-59385687D01*
X151691758Y-59337024D01*
X151543924Y-59258005D01*
X151543922Y-59258004D01*
X151414341Y-59151659D01*
X151307996Y-59022078D01*
X151272690Y-58956025D01*
X151228976Y-58874242D01*
X151180313Y-58713823D01*
X151163883Y-58547000D01*
X151180313Y-58380177D01*
X151228976Y-58219758D01*
X151307995Y-58071924D01*
X151307996Y-58071922D01*
X151414341Y-57942341D01*
X151543922Y-57835996D01*
X151559094Y-57827886D01*
X151691758Y-57756976D01*
X151852177Y-57708313D01*
X151977196Y-57696000D01*
X152060804Y-57696000D01*
X152185823Y-57708313D01*
X152185823Y-57708313D01*
G37*
G36*
X146851823Y-57708313D02*
G01*
X147012242Y-57756976D01*
X147144906Y-57827886D01*
X147160078Y-57835996D01*
X147289659Y-57942341D01*
X147396004Y-58071922D01*
X147396005Y-58071924D01*
X147475024Y-58219758D01*
X147523687Y-58380177D01*
X147540117Y-58547000D01*
X147523687Y-58713823D01*
X147475024Y-58874242D01*
X147431310Y-58956025D01*
X147396004Y-59022078D01*
X147289659Y-59151659D01*
X147160078Y-59258004D01*
X147160076Y-59258005D01*
X147012242Y-59337024D01*
X146851823Y-59385687D01*
X146726804Y-59398000D01*
X146643196Y-59398000D01*
X146518177Y-59385687D01*
X146357758Y-59337024D01*
X146209924Y-59258005D01*
X146209922Y-59258004D01*
X146080341Y-59151659D01*
X145973996Y-59022078D01*
X145938690Y-58956025D01*
X145894976Y-58874242D01*
X145846313Y-58713823D01*
X145829883Y-58547000D01*
X145846313Y-58380177D01*
X145894976Y-58219758D01*
X145973995Y-58071924D01*
X145973996Y-58071922D01*
X146080341Y-57942341D01*
X146209922Y-57835996D01*
X146225094Y-57827886D01*
X146357758Y-57756976D01*
X146518177Y-57708313D01*
X146643196Y-57696000D01*
X146726804Y-57696000D01*
X146851823Y-57708313D01*
X146851823Y-57708313D01*
G37*
G36*
X144311823Y-57708313D02*
G01*
X144472242Y-57756976D01*
X144604906Y-57827886D01*
X144620078Y-57835996D01*
X144749659Y-57942341D01*
X144856004Y-58071922D01*
X144856005Y-58071924D01*
X144935024Y-58219758D01*
X144983687Y-58380177D01*
X145000117Y-58547000D01*
X144983687Y-58713823D01*
X144935024Y-58874242D01*
X144891310Y-58956025D01*
X144856004Y-59022078D01*
X144749659Y-59151659D01*
X144620078Y-59258004D01*
X144620076Y-59258005D01*
X144472242Y-59337024D01*
X144311823Y-59385687D01*
X144186804Y-59398000D01*
X144103196Y-59398000D01*
X143978177Y-59385687D01*
X143817758Y-59337024D01*
X143669924Y-59258005D01*
X143669922Y-59258004D01*
X143540341Y-59151659D01*
X143433996Y-59022078D01*
X143398690Y-58956025D01*
X143354976Y-58874242D01*
X143306313Y-58713823D01*
X143289883Y-58547000D01*
X143306313Y-58380177D01*
X143354976Y-58219758D01*
X143433995Y-58071924D01*
X143433996Y-58071922D01*
X143540341Y-57942341D01*
X143669922Y-57835996D01*
X143685094Y-57827886D01*
X143817758Y-57756976D01*
X143978177Y-57708313D01*
X144103196Y-57696000D01*
X144186804Y-57696000D01*
X144311823Y-57708313D01*
X144311823Y-57708313D01*
G37*
G36*
X136691823Y-57708313D02*
G01*
X136852242Y-57756976D01*
X136984906Y-57827886D01*
X137000078Y-57835996D01*
X137129659Y-57942341D01*
X137236004Y-58071922D01*
X137236005Y-58071924D01*
X137315024Y-58219758D01*
X137363687Y-58380177D01*
X137380117Y-58547000D01*
X137363687Y-58713823D01*
X137315024Y-58874242D01*
X137271310Y-58956025D01*
X137236004Y-59022078D01*
X137129659Y-59151659D01*
X137000078Y-59258004D01*
X137000076Y-59258005D01*
X136852242Y-59337024D01*
X136691823Y-59385687D01*
X136566804Y-59398000D01*
X136483196Y-59398000D01*
X136358177Y-59385687D01*
X136197758Y-59337024D01*
X136049924Y-59258005D01*
X136049922Y-59258004D01*
X135920341Y-59151659D01*
X135813996Y-59022078D01*
X135778690Y-58956025D01*
X135734976Y-58874242D01*
X135686313Y-58713823D01*
X135669883Y-58547000D01*
X135686313Y-58380177D01*
X135734976Y-58219758D01*
X135813995Y-58071924D01*
X135813996Y-58071922D01*
X135920341Y-57942341D01*
X136049922Y-57835996D01*
X136065094Y-57827886D01*
X136197758Y-57756976D01*
X136358177Y-57708313D01*
X136483196Y-57696000D01*
X136566804Y-57696000D01*
X136691823Y-57708313D01*
X136691823Y-57708313D01*
G37*
G36*
X134151823Y-57708313D02*
G01*
X134312242Y-57756976D01*
X134444906Y-57827886D01*
X134460078Y-57835996D01*
X134589659Y-57942341D01*
X134696004Y-58071922D01*
X134696005Y-58071924D01*
X134775024Y-58219758D01*
X134823687Y-58380177D01*
X134840117Y-58547000D01*
X134823687Y-58713823D01*
X134775024Y-58874242D01*
X134731310Y-58956025D01*
X134696004Y-59022078D01*
X134589659Y-59151659D01*
X134460078Y-59258004D01*
X134460076Y-59258005D01*
X134312242Y-59337024D01*
X134151823Y-59385687D01*
X134026804Y-59398000D01*
X133943196Y-59398000D01*
X133818177Y-59385687D01*
X133657758Y-59337024D01*
X133509924Y-59258005D01*
X133509922Y-59258004D01*
X133380341Y-59151659D01*
X133273996Y-59022078D01*
X133238690Y-58956025D01*
X133194976Y-58874242D01*
X133146313Y-58713823D01*
X133129883Y-58547000D01*
X133146313Y-58380177D01*
X133194976Y-58219758D01*
X133273995Y-58071924D01*
X133273996Y-58071922D01*
X133380341Y-57942341D01*
X133509922Y-57835996D01*
X133525094Y-57827886D01*
X133657758Y-57756976D01*
X133818177Y-57708313D01*
X133943196Y-57696000D01*
X134026804Y-57696000D01*
X134151823Y-57708313D01*
X134151823Y-57708313D01*
G37*
G36*
X131611823Y-57708313D02*
G01*
X131772242Y-57756976D01*
X131904906Y-57827886D01*
X131920078Y-57835996D01*
X132049659Y-57942341D01*
X132156004Y-58071922D01*
X132156005Y-58071924D01*
X132235024Y-58219758D01*
X132283687Y-58380177D01*
X132300117Y-58547000D01*
X132283687Y-58713823D01*
X132235024Y-58874242D01*
X132191310Y-58956025D01*
X132156004Y-59022078D01*
X132049659Y-59151659D01*
X131920078Y-59258004D01*
X131920076Y-59258005D01*
X131772242Y-59337024D01*
X131611823Y-59385687D01*
X131486804Y-59398000D01*
X131403196Y-59398000D01*
X131278177Y-59385687D01*
X131117758Y-59337024D01*
X130969924Y-59258005D01*
X130969922Y-59258004D01*
X130840341Y-59151659D01*
X130733996Y-59022078D01*
X130698690Y-58956025D01*
X130654976Y-58874242D01*
X130606313Y-58713823D01*
X130589883Y-58547000D01*
X130606313Y-58380177D01*
X130654976Y-58219758D01*
X130733995Y-58071924D01*
X130733996Y-58071922D01*
X130840341Y-57942341D01*
X130969922Y-57835996D01*
X130985094Y-57827886D01*
X131117758Y-57756976D01*
X131278177Y-57708313D01*
X131403196Y-57696000D01*
X131486804Y-57696000D01*
X131611823Y-57708313D01*
X131611823Y-57708313D01*
G37*
G36*
X129071823Y-57708313D02*
G01*
X129232242Y-57756976D01*
X129364906Y-57827886D01*
X129380078Y-57835996D01*
X129509659Y-57942341D01*
X129616004Y-58071922D01*
X129616005Y-58071924D01*
X129695024Y-58219758D01*
X129743687Y-58380177D01*
X129760117Y-58547000D01*
X129743687Y-58713823D01*
X129695024Y-58874242D01*
X129651310Y-58956025D01*
X129616004Y-59022078D01*
X129509659Y-59151659D01*
X129380078Y-59258004D01*
X129380076Y-59258005D01*
X129232242Y-59337024D01*
X129071823Y-59385687D01*
X128946804Y-59398000D01*
X128863196Y-59398000D01*
X128738177Y-59385687D01*
X128577758Y-59337024D01*
X128429924Y-59258005D01*
X128429922Y-59258004D01*
X128300341Y-59151659D01*
X128193996Y-59022078D01*
X128158690Y-58956025D01*
X128114976Y-58874242D01*
X128066313Y-58713823D01*
X128049883Y-58547000D01*
X128066313Y-58380177D01*
X128114976Y-58219758D01*
X128193995Y-58071924D01*
X128193996Y-58071922D01*
X128300341Y-57942341D01*
X128429922Y-57835996D01*
X128445094Y-57827886D01*
X128577758Y-57756976D01*
X128738177Y-57708313D01*
X128863196Y-57696000D01*
X128946804Y-57696000D01*
X129071823Y-57708313D01*
X129071823Y-57708313D01*
G37*
G36*
X168110000Y-59398000D02*
G01*
X166408000Y-59398000D01*
X166408000Y-57696000D01*
X168110000Y-57696000D01*
X168110000Y-59398000D01*
X168110000Y-59398000D01*
G37*
G36*
X164885823Y-57708313D02*
G01*
X165046242Y-57756976D01*
X165178906Y-57827886D01*
X165194078Y-57835996D01*
X165323659Y-57942341D01*
X165430004Y-58071922D01*
X165430005Y-58071924D01*
X165509024Y-58219758D01*
X165557687Y-58380177D01*
X165574117Y-58547000D01*
X165557687Y-58713823D01*
X165509024Y-58874242D01*
X165465310Y-58956025D01*
X165430004Y-59022078D01*
X165323659Y-59151659D01*
X165194078Y-59258004D01*
X165194076Y-59258005D01*
X165046242Y-59337024D01*
X164885823Y-59385687D01*
X164760804Y-59398000D01*
X164677196Y-59398000D01*
X164552177Y-59385687D01*
X164391758Y-59337024D01*
X164243924Y-59258005D01*
X164243922Y-59258004D01*
X164114341Y-59151659D01*
X164007996Y-59022078D01*
X163972690Y-58956025D01*
X163928976Y-58874242D01*
X163880313Y-58713823D01*
X163863883Y-58547000D01*
X163880313Y-58380177D01*
X163928976Y-58219758D01*
X164007995Y-58071924D01*
X164007996Y-58071922D01*
X164114341Y-57942341D01*
X164243922Y-57835996D01*
X164259094Y-57827886D01*
X164391758Y-57756976D01*
X164552177Y-57708313D01*
X164677196Y-57696000D01*
X164760804Y-57696000D01*
X164885823Y-57708313D01*
X164885823Y-57708313D01*
G37*
G36*
X162345823Y-57708313D02*
G01*
X162506242Y-57756976D01*
X162638906Y-57827886D01*
X162654078Y-57835996D01*
X162783659Y-57942341D01*
X162890004Y-58071922D01*
X162890005Y-58071924D01*
X162969024Y-58219758D01*
X163017687Y-58380177D01*
X163034117Y-58547000D01*
X163017687Y-58713823D01*
X162969024Y-58874242D01*
X162925310Y-58956025D01*
X162890004Y-59022078D01*
X162783659Y-59151659D01*
X162654078Y-59258004D01*
X162654076Y-59258005D01*
X162506242Y-59337024D01*
X162345823Y-59385687D01*
X162220804Y-59398000D01*
X162137196Y-59398000D01*
X162012177Y-59385687D01*
X161851758Y-59337024D01*
X161703924Y-59258005D01*
X161703922Y-59258004D01*
X161574341Y-59151659D01*
X161467996Y-59022078D01*
X161432690Y-58956025D01*
X161388976Y-58874242D01*
X161340313Y-58713823D01*
X161323883Y-58547000D01*
X161340313Y-58380177D01*
X161388976Y-58219758D01*
X161467995Y-58071924D01*
X161467996Y-58071922D01*
X161574341Y-57942341D01*
X161703922Y-57835996D01*
X161719094Y-57827886D01*
X161851758Y-57756976D01*
X162012177Y-57708313D01*
X162137196Y-57696000D01*
X162220804Y-57696000D01*
X162345823Y-57708313D01*
X162345823Y-57708313D01*
G37*
G36*
X159805823Y-57708313D02*
G01*
X159966242Y-57756976D01*
X160098906Y-57827886D01*
X160114078Y-57835996D01*
X160243659Y-57942341D01*
X160350004Y-58071922D01*
X160350005Y-58071924D01*
X160429024Y-58219758D01*
X160477687Y-58380177D01*
X160494117Y-58547000D01*
X160477687Y-58713823D01*
X160429024Y-58874242D01*
X160385310Y-58956025D01*
X160350004Y-59022078D01*
X160243659Y-59151659D01*
X160114078Y-59258004D01*
X160114076Y-59258005D01*
X159966242Y-59337024D01*
X159805823Y-59385687D01*
X159680804Y-59398000D01*
X159597196Y-59398000D01*
X159472177Y-59385687D01*
X159311758Y-59337024D01*
X159163924Y-59258005D01*
X159163922Y-59258004D01*
X159034341Y-59151659D01*
X158927996Y-59022078D01*
X158892690Y-58956025D01*
X158848976Y-58874242D01*
X158800313Y-58713823D01*
X158783883Y-58547000D01*
X158800313Y-58380177D01*
X158848976Y-58219758D01*
X158927995Y-58071924D01*
X158927996Y-58071922D01*
X159034341Y-57942341D01*
X159163922Y-57835996D01*
X159179094Y-57827886D01*
X159311758Y-57756976D01*
X159472177Y-57708313D01*
X159597196Y-57696000D01*
X159680804Y-57696000D01*
X159805823Y-57708313D01*
X159805823Y-57708313D01*
G37*
G36*
X157265823Y-57708313D02*
G01*
X157426242Y-57756976D01*
X157558906Y-57827886D01*
X157574078Y-57835996D01*
X157703659Y-57942341D01*
X157810004Y-58071922D01*
X157810005Y-58071924D01*
X157889024Y-58219758D01*
X157937687Y-58380177D01*
X157954117Y-58547000D01*
X157937687Y-58713823D01*
X157889024Y-58874242D01*
X157845310Y-58956025D01*
X157810004Y-59022078D01*
X157703659Y-59151659D01*
X157574078Y-59258004D01*
X157574076Y-59258005D01*
X157426242Y-59337024D01*
X157265823Y-59385687D01*
X157140804Y-59398000D01*
X157057196Y-59398000D01*
X156932177Y-59385687D01*
X156771758Y-59337024D01*
X156623924Y-59258005D01*
X156623922Y-59258004D01*
X156494341Y-59151659D01*
X156387996Y-59022078D01*
X156352690Y-58956025D01*
X156308976Y-58874242D01*
X156260313Y-58713823D01*
X156243883Y-58547000D01*
X156260313Y-58380177D01*
X156308976Y-58219758D01*
X156387995Y-58071924D01*
X156387996Y-58071922D01*
X156494341Y-57942341D01*
X156623922Y-57835996D01*
X156639094Y-57827886D01*
X156771758Y-57756976D01*
X156932177Y-57708313D01*
X157057196Y-57696000D01*
X157140804Y-57696000D01*
X157265823Y-57708313D01*
X157265823Y-57708313D01*
G37*
G36*
X154725823Y-57708313D02*
G01*
X154886242Y-57756976D01*
X155018906Y-57827886D01*
X155034078Y-57835996D01*
X155163659Y-57942341D01*
X155270004Y-58071922D01*
X155270005Y-58071924D01*
X155349024Y-58219758D01*
X155397687Y-58380177D01*
X155414117Y-58547000D01*
X155397687Y-58713823D01*
X155349024Y-58874242D01*
X155305310Y-58956025D01*
X155270004Y-59022078D01*
X155163659Y-59151659D01*
X155034078Y-59258004D01*
X155034076Y-59258005D01*
X154886242Y-59337024D01*
X154725823Y-59385687D01*
X154600804Y-59398000D01*
X154517196Y-59398000D01*
X154392177Y-59385687D01*
X154231758Y-59337024D01*
X154083924Y-59258005D01*
X154083922Y-59258004D01*
X153954341Y-59151659D01*
X153847996Y-59022078D01*
X153812690Y-58956025D01*
X153768976Y-58874242D01*
X153720313Y-58713823D01*
X153703883Y-58547000D01*
X153720313Y-58380177D01*
X153768976Y-58219758D01*
X153847995Y-58071924D01*
X153847996Y-58071922D01*
X153954341Y-57942341D01*
X154083922Y-57835996D01*
X154099094Y-57827886D01*
X154231758Y-57756976D01*
X154392177Y-57708313D01*
X154517196Y-57696000D01*
X154600804Y-57696000D01*
X154725823Y-57708313D01*
X154725823Y-57708313D01*
G37*
G36*
X141771823Y-57708313D02*
G01*
X141932242Y-57756976D01*
X142064906Y-57827886D01*
X142080078Y-57835996D01*
X142209659Y-57942341D01*
X142316004Y-58071922D01*
X142316005Y-58071924D01*
X142395024Y-58219758D01*
X142443687Y-58380177D01*
X142460117Y-58547000D01*
X142443687Y-58713823D01*
X142395024Y-58874242D01*
X142351310Y-58956025D01*
X142316004Y-59022078D01*
X142209659Y-59151659D01*
X142080078Y-59258004D01*
X142080076Y-59258005D01*
X141932242Y-59337024D01*
X141771823Y-59385687D01*
X141646804Y-59398000D01*
X141563196Y-59398000D01*
X141438177Y-59385687D01*
X141277758Y-59337024D01*
X141129924Y-59258005D01*
X141129922Y-59258004D01*
X141000341Y-59151659D01*
X140893996Y-59022078D01*
X140858690Y-58956025D01*
X140814976Y-58874242D01*
X140766313Y-58713823D01*
X140749883Y-58547000D01*
X140766313Y-58380177D01*
X140814976Y-58219758D01*
X140893995Y-58071924D01*
X140893996Y-58071922D01*
X141000341Y-57942341D01*
X141129922Y-57835996D01*
X141145094Y-57827886D01*
X141277758Y-57756976D01*
X141438177Y-57708313D01*
X141563196Y-57696000D01*
X141646804Y-57696000D01*
X141771823Y-57708313D01*
X141771823Y-57708313D01*
G37*
G36*
X139231823Y-57708313D02*
G01*
X139392242Y-57756976D01*
X139524906Y-57827886D01*
X139540078Y-57835996D01*
X139669659Y-57942341D01*
X139776004Y-58071922D01*
X139776005Y-58071924D01*
X139855024Y-58219758D01*
X139903687Y-58380177D01*
X139920117Y-58547000D01*
X139903687Y-58713823D01*
X139855024Y-58874242D01*
X139811310Y-58956025D01*
X139776004Y-59022078D01*
X139669659Y-59151659D01*
X139540078Y-59258004D01*
X139540076Y-59258005D01*
X139392242Y-59337024D01*
X139231823Y-59385687D01*
X139106804Y-59398000D01*
X139023196Y-59398000D01*
X138898177Y-59385687D01*
X138737758Y-59337024D01*
X138589924Y-59258005D01*
X138589922Y-59258004D01*
X138460341Y-59151659D01*
X138353996Y-59022078D01*
X138318690Y-58956025D01*
X138274976Y-58874242D01*
X138226313Y-58713823D01*
X138209883Y-58547000D01*
X138226313Y-58380177D01*
X138274976Y-58219758D01*
X138353995Y-58071924D01*
X138353996Y-58071922D01*
X138460341Y-57942341D01*
X138589922Y-57835996D01*
X138605094Y-57827886D01*
X138737758Y-57756976D01*
X138898177Y-57708313D01*
X139023196Y-57696000D01*
X139106804Y-57696000D01*
X139231823Y-57708313D01*
X139231823Y-57708313D01*
G37*
G36*
X93942000Y-59017000D02*
G01*
X92240000Y-59017000D01*
X92240000Y-57315000D01*
X93942000Y-57315000D01*
X93942000Y-59017000D01*
X93942000Y-59017000D01*
G37*
G36*
X100877823Y-57327313D02*
G01*
X101038242Y-57375976D01*
X101170906Y-57446886D01*
X101186078Y-57454996D01*
X101315659Y-57561341D01*
X101422004Y-57690922D01*
X101422005Y-57690924D01*
X101501024Y-57838758D01*
X101549687Y-57999177D01*
X101566117Y-58166000D01*
X101549687Y-58332823D01*
X101501024Y-58493242D01*
X101430114Y-58625906D01*
X101422004Y-58641078D01*
X101315659Y-58770659D01*
X101186078Y-58877004D01*
X101186076Y-58877005D01*
X101038242Y-58956024D01*
X100877823Y-59004687D01*
X100752804Y-59017000D01*
X100669196Y-59017000D01*
X100544177Y-59004687D01*
X100383758Y-58956024D01*
X100235924Y-58877005D01*
X100235922Y-58877004D01*
X100106341Y-58770659D01*
X99999996Y-58641078D01*
X99991886Y-58625906D01*
X99920976Y-58493242D01*
X99872313Y-58332823D01*
X99855883Y-58166000D01*
X99872313Y-57999177D01*
X99920976Y-57838758D01*
X99999995Y-57690924D01*
X99999996Y-57690922D01*
X100106341Y-57561341D01*
X100235922Y-57454996D01*
X100251094Y-57446886D01*
X100383758Y-57375976D01*
X100544177Y-57327313D01*
X100669196Y-57315000D01*
X100752804Y-57315000D01*
X100877823Y-57327313D01*
X100877823Y-57327313D01*
G37*
M02*
