G04 #@! TF.GenerationSoftware,KiCad,Pcbnew,(5.1.4)-1*
G04 #@! TF.CreationDate,2020-08-02T04:53:09-03:00*
G04 #@! TF.ProjectId,Cart_FeRAM,43617274-5f46-4655-9241-4d2e6b696361,rev?*
G04 #@! TF.SameCoordinates,Original*
G04 #@! TF.FileFunction,Copper,L2,Bot*
G04 #@! TF.FilePolarity,Positive*
%FSLAX46Y46*%
G04 Gerber Fmt 4.6, Leading zero omitted, Abs format (unit mm)*
G04 Created by KiCad (PCBNEW (5.1.4)-1) date 2020-08-02 04:53:09*
%MOMM*%
%LPD*%
G04 APERTURE LIST*
%ADD10R,1.600000X1.600000*%
%ADD11O,1.600000X1.600000*%
%ADD12C,1.600000*%
%ADD13R,1.000000X1.500000*%
%ADD14R,1.905000X6.858000*%
%ADD15O,1.700000X1.700000*%
%ADD16R,1.700000X1.700000*%
%ADD17C,0.800000*%
%ADD18C,0.250000*%
%ADD19C,0.500000*%
%ADD20C,0.254000*%
G04 APERTURE END LIST*
D10*
X106680000Y-90678000D03*
D11*
X157480000Y-75438000D03*
X109220000Y-90678000D03*
X154940000Y-75438000D03*
X111760000Y-90678000D03*
X152400000Y-75438000D03*
X114300000Y-90678000D03*
X149860000Y-75438000D03*
X116840000Y-90678000D03*
X147320000Y-75438000D03*
X119380000Y-90678000D03*
X144780000Y-75438000D03*
X121920000Y-90678000D03*
X142240000Y-75438000D03*
X124460000Y-90678000D03*
X139700000Y-75438000D03*
X127000000Y-90678000D03*
X137160000Y-75438000D03*
X129540000Y-90678000D03*
X134620000Y-75438000D03*
X132080000Y-90678000D03*
X132080000Y-75438000D03*
X134620000Y-90678000D03*
X129540000Y-75438000D03*
X137160000Y-90678000D03*
X127000000Y-75438000D03*
X139700000Y-90678000D03*
X124460000Y-75438000D03*
X142240000Y-90678000D03*
X121920000Y-75438000D03*
X144780000Y-90678000D03*
X119380000Y-75438000D03*
X147320000Y-90678000D03*
X116840000Y-75438000D03*
X149860000Y-90678000D03*
X114300000Y-75438000D03*
X152400000Y-90678000D03*
X111760000Y-75438000D03*
X154940000Y-90678000D03*
X109220000Y-75438000D03*
X157480000Y-90678000D03*
X106680000Y-75438000D03*
X100203000Y-73279000D03*
D12*
X92583000Y-73279000D03*
D11*
X100203000Y-85344000D03*
D12*
X92583000Y-85344000D03*
D11*
X100203000Y-88392000D03*
D12*
X92583000Y-88392000D03*
D11*
X100203000Y-91440000D03*
D12*
X92583000Y-91440000D03*
D13*
X124744000Y-62230000D03*
X123444000Y-62230000D03*
X122144000Y-62230000D03*
D10*
X93091000Y-58166000D03*
D11*
X100711000Y-65786000D03*
X93091000Y-60706000D03*
X100711000Y-63246000D03*
X93091000Y-63246000D03*
X100711000Y-60706000D03*
X93091000Y-65786000D03*
X100711000Y-58166000D03*
D14*
X99695000Y-109728000D03*
X94615000Y-109728000D03*
X92075000Y-109728000D03*
X97155000Y-109728000D03*
X102235000Y-109728000D03*
X109855000Y-109728000D03*
X112395000Y-109728000D03*
X104775000Y-109728000D03*
X107315000Y-109728000D03*
X114935000Y-109728000D03*
X122555000Y-109728000D03*
X125095000Y-109728000D03*
X117475000Y-109728000D03*
X120015000Y-109728000D03*
X127635000Y-109728000D03*
X130175000Y-109728000D03*
X135255000Y-109728000D03*
X140335000Y-109728000D03*
X137795000Y-109728000D03*
X132715000Y-109728000D03*
X142875000Y-109728000D03*
X145415000Y-109728000D03*
X168275000Y-109728000D03*
X160655000Y-109728000D03*
X163195000Y-109728000D03*
X165735000Y-109728000D03*
X170815000Y-109728000D03*
X147955000Y-109728000D03*
X150495000Y-109728000D03*
X153035000Y-109728000D03*
X155575000Y-109728000D03*
X158115000Y-109728000D03*
D15*
X169672000Y-95758000D03*
D16*
X167132000Y-95758000D03*
D15*
X92202000Y-95758000D03*
D16*
X94742000Y-95758000D03*
D15*
X170815000Y-67056000D03*
D16*
X170815000Y-69596000D03*
D10*
X167259000Y-58547000D03*
D11*
X152019000Y-66167000D03*
X164719000Y-58547000D03*
X154559000Y-66167000D03*
X162179000Y-58547000D03*
X157099000Y-66167000D03*
X159639000Y-58547000D03*
X159639000Y-66167000D03*
X157099000Y-58547000D03*
X162179000Y-66167000D03*
X154559000Y-58547000D03*
X164719000Y-66167000D03*
X152019000Y-58547000D03*
X167259000Y-66167000D03*
D16*
X92202000Y-102616000D03*
D15*
X94742000Y-102616000D03*
X97282000Y-102616000D03*
X99822000Y-102616000D03*
X102362000Y-102616000D03*
X104902000Y-102616000D03*
X107442000Y-102616000D03*
X109982000Y-102616000D03*
X112522000Y-102616000D03*
X115062000Y-102616000D03*
X117602000Y-102616000D03*
X120142000Y-102616000D03*
X122682000Y-102616000D03*
X125222000Y-102616000D03*
X127762000Y-102616000D03*
X130302000Y-102616000D03*
X132842000Y-102616000D03*
X135382000Y-102616000D03*
X137922000Y-102616000D03*
X140462000Y-102616000D03*
X143002000Y-102616000D03*
X145542000Y-102616000D03*
X148082000Y-102616000D03*
X150622000Y-102616000D03*
X153162000Y-102616000D03*
X155702000Y-102616000D03*
X158242000Y-102616000D03*
X160782000Y-102616000D03*
X163322000Y-102616000D03*
X165862000Y-102616000D03*
X168402000Y-102616000D03*
X170942000Y-102616000D03*
X90932000Y-99822000D03*
X93472000Y-99822000D03*
X96012000Y-99822000D03*
X98552000Y-99822000D03*
X101092000Y-99822000D03*
X103632000Y-99822000D03*
X106172000Y-99822000D03*
X108712000Y-99822000D03*
X111252000Y-99822000D03*
X113792000Y-99822000D03*
X116332000Y-99822000D03*
X118872000Y-99822000D03*
X121412000Y-99822000D03*
X123952000Y-99822000D03*
X126492000Y-99822000D03*
X129032000Y-99822000D03*
X131572000Y-99822000D03*
X134112000Y-99822000D03*
X136652000Y-99822000D03*
X139192000Y-99822000D03*
X141732000Y-99822000D03*
X144272000Y-99822000D03*
X146812000Y-99822000D03*
X149352000Y-99822000D03*
X151892000Y-99822000D03*
X154432000Y-99822000D03*
X156972000Y-99822000D03*
X159512000Y-99822000D03*
X162052000Y-99822000D03*
X164592000Y-99822000D03*
X167132000Y-99822000D03*
D16*
X169672000Y-99822000D03*
D10*
X128905000Y-66167000D03*
D11*
X146685000Y-58547000D03*
X131445000Y-66167000D03*
X144145000Y-58547000D03*
X133985000Y-66167000D03*
X141605000Y-58547000D03*
X136525000Y-66167000D03*
X139065000Y-58547000D03*
X139065000Y-66167000D03*
X136525000Y-58547000D03*
X141605000Y-66167000D03*
X133985000Y-58547000D03*
X144145000Y-66167000D03*
X131445000Y-58547000D03*
X146685000Y-66167000D03*
X128905000Y-58547000D03*
D17*
X111760000Y-83312000D03*
X102489000Y-89408000D03*
X113919000Y-60579000D03*
X132461000Y-94107000D03*
X135763000Y-93599000D03*
X131318000Y-73877000D03*
X127779999Y-69232999D03*
X164592000Y-76835000D03*
X162310653Y-92959347D03*
X104521000Y-56769000D03*
X136652000Y-94869000D03*
X132391437Y-70300563D03*
X114300000Y-65405000D03*
X104648000Y-58293000D03*
X107569000Y-65405000D03*
X112649000Y-64643000D03*
X107696000Y-60579000D03*
X110490000Y-61849000D03*
X135198501Y-71811499D03*
X117729000Y-62865000D03*
X118999000Y-62865000D03*
X139065000Y-71755000D03*
X138938000Y-78105000D03*
X144018000Y-64479000D03*
X131445000Y-69824019D03*
D18*
X111760000Y-83312000D02*
X108966000Y-83312000D01*
X108966000Y-83312000D02*
X108400315Y-83312000D01*
X108400315Y-83312000D02*
X103632000Y-83312000D01*
X103632000Y-83312000D02*
X102489000Y-84455000D01*
X102489000Y-84455000D02*
X102489000Y-89408000D01*
X109220000Y-90678000D02*
X109220000Y-93656990D01*
X109220000Y-93656990D02*
X108896990Y-93980000D01*
X102743000Y-93980000D02*
X100203000Y-91440000D01*
X108896990Y-93980000D02*
X102743000Y-93980000D01*
X94416999Y-84271001D02*
X94416999Y-78557001D01*
X100203000Y-91440000D02*
X100203000Y-90057002D01*
X100203000Y-90057002D02*
X94416999Y-84271001D01*
X98138989Y-60738011D02*
X100392795Y-58484205D01*
X94416999Y-78557001D02*
X98138989Y-74835011D01*
X98138989Y-74835011D02*
X98138989Y-60738011D01*
X102489000Y-90678000D02*
X100203000Y-88392000D01*
X106680000Y-90678000D02*
X102489000Y-90678000D01*
X99077999Y-87266999D02*
X100203000Y-88392000D01*
X99077999Y-83893003D02*
X99077999Y-87266999D01*
X101328001Y-81643001D02*
X99077999Y-83893003D01*
X101328001Y-73042999D02*
X101328001Y-81643001D01*
X100711000Y-60706000D02*
X98588999Y-62828001D01*
X98588999Y-62828001D02*
X98588999Y-70452001D01*
X98588999Y-70452001D02*
X100424001Y-70452001D01*
X101346000Y-71374000D02*
X101346000Y-73025000D01*
X100424001Y-70452001D02*
X101346000Y-71374000D01*
X101346000Y-73025000D02*
X101328001Y-73042999D01*
X106680000Y-69215000D02*
X100711000Y-63246000D01*
X106680000Y-75438000D02*
X106680000Y-69215000D01*
X101002999Y-84544001D02*
X101637999Y-84544001D01*
X100203000Y-85344000D02*
X101002999Y-84544001D01*
X106680000Y-79502000D02*
X106680000Y-75438000D01*
X101637999Y-84544001D02*
X106680000Y-79502000D01*
X121602500Y-68262500D02*
X113919000Y-60579000D01*
X121735010Y-68395010D02*
X121602500Y-68262500D01*
X132461000Y-94107000D02*
X130665001Y-92311001D01*
X130665001Y-92311001D02*
X130665001Y-74897999D01*
X130665001Y-74897999D02*
X129617502Y-73850500D01*
X129617502Y-73850500D02*
X125727732Y-73850500D01*
X125727732Y-73850500D02*
X121735010Y-69857778D01*
X121735010Y-69857778D02*
X121735010Y-68395010D01*
X132695462Y-73877000D02*
X131318000Y-73877000D01*
X133205001Y-74386539D02*
X132695462Y-73877000D01*
X135763000Y-93599000D02*
X133205001Y-91041001D01*
X133205001Y-91041001D02*
X133205001Y-74386539D01*
X127779999Y-62212001D02*
X131445000Y-58547000D01*
X127779999Y-69232999D02*
X127779999Y-62212001D01*
X164592000Y-76835000D02*
X162310653Y-79116347D01*
X162310653Y-79116347D02*
X162310653Y-92959347D01*
X134620000Y-76569370D02*
X134620000Y-90678000D01*
X132715000Y-65771998D02*
X131332002Y-64389000D01*
X132715000Y-66802000D02*
X132715000Y-65771998D01*
X128905000Y-65117000D02*
X128905000Y-66167000D01*
X129633000Y-64389000D02*
X128905000Y-65117000D01*
X131332002Y-64389000D02*
X129633000Y-64389000D01*
X131332002Y-64389000D02*
X133237002Y-62484000D01*
X148082000Y-62484000D02*
X152019000Y-58547000D01*
X133237002Y-62484000D02*
X148082000Y-62484000D01*
D19*
X170942000Y-109601001D02*
X170815001Y-109728000D01*
X170942000Y-102616000D02*
X170942000Y-109601001D01*
X92202000Y-109601001D02*
X92075001Y-109728000D01*
X92202000Y-102616000D02*
X92202000Y-109601001D01*
D18*
X170815000Y-67056000D02*
X170815000Y-59690000D01*
X170815000Y-59690000D02*
X167386000Y-56261000D01*
X154305000Y-56261000D02*
X152019000Y-58547000D01*
X167386000Y-56261000D02*
X154305000Y-56261000D01*
X148350002Y-58547000D02*
X146572002Y-56769000D01*
X152019000Y-58547000D02*
X148350002Y-58547000D01*
X146572002Y-56769000D02*
X104521000Y-56769000D01*
X135382000Y-109601001D02*
X135255001Y-109728000D01*
X135382000Y-102616000D02*
X135382000Y-109601001D01*
X136652000Y-92710000D02*
X134620000Y-90678000D01*
X136652000Y-94869000D02*
X136652000Y-92710000D01*
X132791436Y-66878436D02*
X132715000Y-66802000D01*
X132791436Y-69900564D02*
X132791436Y-66878436D01*
X132391437Y-70300563D02*
X132791436Y-69900564D01*
X134620000Y-75438000D02*
X134620000Y-76569370D01*
X99822000Y-109601001D02*
X99695001Y-109728000D01*
X99822000Y-102616000D02*
X99822000Y-109601001D01*
X99822000Y-99352998D02*
X104178998Y-94996000D01*
X99822000Y-102616000D02*
X99822000Y-99352998D01*
X104178998Y-94996000D02*
X110490000Y-94996000D01*
X113174999Y-92311001D02*
X113174999Y-85488999D01*
X110490000Y-94996000D02*
X113174999Y-92311001D01*
X113174999Y-85488999D02*
X114300000Y-84363998D01*
X114300000Y-75438000D02*
X114300000Y-65405000D01*
X114391002Y-84363998D02*
X115119990Y-83635010D01*
X114300000Y-84363998D02*
X114391002Y-84363998D01*
X115119990Y-76257990D02*
X114300000Y-75438000D01*
X115119990Y-83635010D02*
X115119990Y-76257990D01*
D19*
X168402000Y-109601001D02*
X168275001Y-109728000D01*
X168402000Y-102616000D02*
X168402000Y-109601001D01*
X94615001Y-102742999D02*
X94742000Y-102616000D01*
X94615001Y-109728000D02*
X94615001Y-102742999D01*
X170972001Y-101032001D02*
X170972001Y-89438001D01*
X170785002Y-101219000D02*
X170972001Y-101032001D01*
X170414998Y-101219000D02*
X170785002Y-101219000D01*
X168402000Y-102616000D02*
X169017998Y-102616000D01*
X169017998Y-102616000D02*
X170414998Y-101219000D01*
X168058999Y-66966999D02*
X167259000Y-66167000D01*
X170630002Y-69538002D02*
X168058999Y-66966999D01*
X170630002Y-89096002D02*
X170630002Y-69538002D01*
X170972001Y-89438001D02*
X170630002Y-89096002D01*
D18*
X128905000Y-58547000D02*
X104902000Y-58547000D01*
X104902000Y-58547000D02*
X104648000Y-58293000D01*
X166751000Y-66167000D02*
X167259000Y-66167000D01*
X157480000Y-75438000D02*
X166751000Y-66167000D01*
X159639000Y-59678370D02*
X164095630Y-64135000D01*
X159639000Y-58547000D02*
X159639000Y-59678370D01*
X165227000Y-64135000D02*
X167259000Y-66167000D01*
X164095630Y-64135000D02*
X165227000Y-64135000D01*
X94742000Y-95758000D02*
X93941002Y-95758000D01*
X91059000Y-92875998D02*
X92246001Y-94062999D01*
X93941002Y-95758000D02*
X92246001Y-94062999D01*
X92246001Y-94062999D02*
X92075000Y-93891998D01*
X94869000Y-102489000D02*
X94742000Y-102616000D01*
X94869000Y-100457000D02*
X94869000Y-102489000D01*
X94742000Y-95758000D02*
X94742000Y-100330000D01*
X94742000Y-100330000D02*
X94869000Y-100457000D01*
X92583000Y-90308630D02*
X92583000Y-88392000D01*
X92583000Y-91440000D02*
X92583000Y-90308630D01*
X92583000Y-88392000D02*
X92583000Y-85344000D01*
X92583000Y-85344000D02*
X92583000Y-84212630D01*
X102489000Y-56134000D02*
X104648000Y-58293000D01*
X92937998Y-56134000D02*
X102489000Y-56134000D01*
X91059000Y-72009000D02*
X91059000Y-58012998D01*
X91059000Y-58012998D02*
X92937998Y-56134000D01*
X92583000Y-75057000D02*
X92583000Y-73279000D01*
X92583000Y-84212630D02*
X92583000Y-75057000D01*
X91059000Y-91832630D02*
X91059000Y-92075000D01*
X91451630Y-91440000D02*
X91059000Y-91832630D01*
X92583000Y-91440000D02*
X91451630Y-91440000D01*
X91059000Y-72009000D02*
X91059000Y-92075000D01*
X91059000Y-92075000D02*
X91059000Y-92875998D01*
X97282000Y-109601001D02*
X97155001Y-109728000D01*
X97282000Y-102616000D02*
X97282000Y-109601001D01*
X97282000Y-99352998D02*
X102146998Y-94488000D01*
X97282000Y-102616000D02*
X97282000Y-99352998D01*
X102146998Y-94488000D02*
X109982000Y-94488000D01*
X111760000Y-92710000D02*
X111760000Y-90678000D01*
X109982000Y-94488000D02*
X111760000Y-92710000D01*
X102362000Y-109601001D02*
X102235001Y-109728000D01*
X102362000Y-102616000D02*
X102362000Y-109601001D01*
X102362000Y-99352998D02*
X106210998Y-95504000D01*
X102362000Y-102616000D02*
X102362000Y-99352998D01*
X106210998Y-95504000D02*
X111506000Y-95504000D01*
X114300000Y-92710000D02*
X114300000Y-90678000D01*
X111506000Y-95504000D02*
X114300000Y-92710000D01*
X109982000Y-109601001D02*
X109855001Y-109728000D01*
X109982000Y-102616000D02*
X109982000Y-109601001D01*
X118580001Y-76237999D02*
X119380000Y-75438000D01*
X118254999Y-76563001D02*
X118580001Y-76237999D01*
X118254999Y-90928003D02*
X118254999Y-76563001D01*
X109982000Y-99201002D02*
X118254999Y-90928003D01*
X109982000Y-102616000D02*
X109982000Y-99201002D01*
X109056001Y-63917999D02*
X107569000Y-65405000D01*
X114522411Y-63917999D02*
X109056001Y-63917999D01*
X119380000Y-75438000D02*
X119380000Y-68775588D01*
X119380000Y-68775588D02*
X114522411Y-63917999D01*
X112522000Y-109601001D02*
X112395001Y-109728000D01*
X112522000Y-102616000D02*
X112522000Y-109601001D01*
X119380000Y-90678000D02*
X118364000Y-91694000D01*
X112522000Y-101413919D02*
X112522000Y-102616000D01*
X112522000Y-99314000D02*
X112522000Y-101413919D01*
X118364000Y-93472000D02*
X112522000Y-99314000D01*
X118364000Y-91694000D02*
X118364000Y-93472000D01*
X104902000Y-109601001D02*
X104775001Y-109728000D01*
X104902000Y-102616000D02*
X104902000Y-109601001D01*
X108242998Y-96012000D02*
X111885590Y-96012000D01*
X104902000Y-102616000D02*
X104902000Y-99352998D01*
X104902000Y-99352998D02*
X108242998Y-96012000D01*
X111885590Y-96012000D02*
X115570000Y-92327590D01*
X115570000Y-92327590D02*
X115570000Y-81280000D01*
X115570000Y-81280000D02*
X116840000Y-80010000D01*
X116840000Y-80010000D02*
X116840000Y-75438000D01*
X114611002Y-64643000D02*
X112649000Y-64643000D01*
X116840000Y-75438000D02*
X116840000Y-66871998D01*
X116840000Y-66871998D02*
X114611002Y-64643000D01*
X107442000Y-109601001D02*
X107315001Y-109728000D01*
X107442000Y-102616000D02*
X107442000Y-109601001D01*
X116040001Y-91477999D02*
X116040001Y-92493999D01*
X116840000Y-90678000D02*
X116040001Y-91477999D01*
X116040001Y-92493999D02*
X110998000Y-97536000D01*
X110998000Y-97536000D02*
X108712000Y-97536000D01*
X107442000Y-101413919D02*
X107442000Y-102616000D01*
X107442000Y-99352998D02*
X107442000Y-101413919D01*
X107188000Y-99098998D02*
X107442000Y-99352998D01*
X107188000Y-99060000D02*
X107188000Y-99098998D01*
X108712000Y-97536000D02*
X107188000Y-99060000D01*
X115062000Y-109601001D02*
X114935001Y-109728000D01*
X115062000Y-102616000D02*
X115062000Y-109601001D01*
X115062000Y-99352998D02*
X119164998Y-95250000D01*
X115062000Y-102616000D02*
X115062000Y-99352998D01*
X120794999Y-90928003D02*
X120794999Y-80627001D01*
X119164998Y-95250000D02*
X119164998Y-92558004D01*
X119164998Y-92558004D02*
X120794999Y-90928003D01*
X121920000Y-79502000D02*
X121920000Y-75438000D01*
X120794999Y-80627001D02*
X121920000Y-79502000D01*
X110584989Y-63467989D02*
X107696000Y-60579000D01*
X114708811Y-63467989D02*
X110584989Y-63467989D01*
X119830009Y-68589187D02*
X114708811Y-63467989D01*
X121920000Y-75438000D02*
X119830009Y-73348009D01*
X119830009Y-73348009D02*
X119830009Y-68589187D01*
X122682000Y-109601001D02*
X122555001Y-109728000D01*
X122682000Y-102616000D02*
X122682000Y-109601001D01*
X122682000Y-98298000D02*
X122682000Y-102616000D01*
X124460000Y-90678000D02*
X124460000Y-96520000D01*
X124460000Y-96520000D02*
X122682000Y-98298000D01*
X125222000Y-109601001D02*
X125095001Y-109728000D01*
X125222000Y-102616000D02*
X125222000Y-109601001D01*
X125222000Y-91581002D02*
X125874999Y-90928003D01*
X125222000Y-102616000D02*
X125222000Y-91581002D01*
X125874999Y-90928003D02*
X125874999Y-76563001D01*
X126200001Y-76237999D02*
X127000000Y-75438000D01*
X125874999Y-76563001D02*
X126200001Y-76237999D01*
X117602000Y-109601001D02*
X117475001Y-109728000D01*
X117602000Y-102616000D02*
X117602000Y-109601001D01*
X121920000Y-94996000D02*
X121920000Y-90678000D01*
X117602000Y-102616000D02*
X117602000Y-99314000D01*
X117602000Y-99314000D02*
X121920000Y-94996000D01*
X120142000Y-109601001D02*
X120015001Y-109728000D01*
X120142000Y-102616000D02*
X120142000Y-109601001D01*
X123045001Y-90427997D02*
X123045001Y-95648999D01*
X124460000Y-75438000D02*
X124460000Y-89012998D01*
X124460000Y-89012998D02*
X123045001Y-90427997D01*
X120142000Y-98552000D02*
X120142000Y-102616000D01*
X123045001Y-95648999D02*
X120142000Y-98552000D01*
X124460000Y-73219178D02*
X121285000Y-70044178D01*
X124460000Y-75438000D02*
X124460000Y-73219178D01*
X121285000Y-70044178D02*
X121285000Y-68707000D01*
X121285000Y-68707000D02*
X114427000Y-61849000D01*
X114427000Y-61849000D02*
X110490000Y-61849000D01*
X127762000Y-109601001D02*
X127635001Y-109728000D01*
X127762000Y-102616000D02*
X127762000Y-109601001D01*
X128016000Y-102362000D02*
X127762000Y-102616000D01*
X128016000Y-100545002D02*
X128016000Y-102362000D01*
X127856999Y-100386001D02*
X128016000Y-100545002D01*
X127856999Y-92666369D02*
X127856999Y-100386001D01*
X127000000Y-90678000D02*
X127000000Y-91809370D01*
X127000000Y-91809370D02*
X127856999Y-92666369D01*
X130302000Y-109601001D02*
X130175001Y-109728000D01*
X130302000Y-102616000D02*
X130302000Y-109601001D01*
X129540000Y-78232000D02*
X129540000Y-75438000D01*
X128414999Y-79357001D02*
X129540000Y-78232000D01*
X128414999Y-94505999D02*
X128414999Y-79357001D01*
X130302000Y-102616000D02*
X130302000Y-96393000D01*
X130302000Y-96393000D02*
X128414999Y-94505999D01*
X140462000Y-109601001D02*
X140335001Y-109728000D01*
X140462000Y-102616000D02*
X140462000Y-109601001D01*
X140462000Y-91440000D02*
X139700000Y-90678000D01*
X140462000Y-102616000D02*
X140462000Y-91440000D01*
X142352998Y-63754000D02*
X140479999Y-65626999D01*
X140479999Y-65626999D02*
X140479999Y-66530001D01*
X140479999Y-66530001D02*
X135198501Y-71811499D01*
X156210000Y-63754000D02*
X156210000Y-62103000D01*
X156210000Y-63754000D02*
X142352998Y-63754000D01*
X156210000Y-62103000D02*
X158242000Y-60071000D01*
X158242000Y-58278998D02*
X159370998Y-57150000D01*
X158242000Y-60071000D02*
X158242000Y-58278998D01*
X163322000Y-57150000D02*
X164719000Y-58547000D01*
X159370998Y-57150000D02*
X163322000Y-57150000D01*
X137922000Y-109601001D02*
X137795001Y-109728000D01*
X137922000Y-102616000D02*
X137922000Y-109601001D01*
X138574999Y-91218001D02*
X138574999Y-82659001D01*
X137922000Y-102616000D02*
X137922000Y-91871000D01*
X137922000Y-91871000D02*
X138574999Y-91218001D01*
X138574999Y-82659001D02*
X139700000Y-81534000D01*
X139700000Y-81534000D02*
X139700000Y-75438000D01*
X121983500Y-67119500D02*
X117729000Y-62865000D01*
X122185020Y-67321020D02*
X121983500Y-67119500D01*
X122185020Y-69671378D02*
X122185020Y-67321020D01*
X125665642Y-73152000D02*
X122185020Y-69671378D01*
X137414000Y-73152000D02*
X125665642Y-73152000D01*
X139700000Y-75438000D02*
X137414000Y-73152000D01*
X132715001Y-102742999D02*
X132842000Y-102616000D01*
X132715001Y-109728000D02*
X132715001Y-102742999D01*
X132842000Y-96393000D02*
X131572000Y-96393000D01*
X132842000Y-102616000D02*
X132842000Y-96393000D01*
X129540000Y-94361000D02*
X129540000Y-90678000D01*
X131572000Y-96393000D02*
X129540000Y-94361000D01*
X143002000Y-109601001D02*
X142875001Y-109728000D01*
X143002000Y-102616000D02*
X143002000Y-109601001D01*
X143002000Y-101413919D02*
X143002000Y-102616000D01*
X143002000Y-99352998D02*
X143002000Y-101413919D01*
X142240000Y-98590998D02*
X143002000Y-99352998D01*
X142240000Y-90678000D02*
X142240000Y-98590998D01*
X145542000Y-109601001D02*
X145415001Y-109728000D01*
X145542000Y-102616000D02*
X145542000Y-109601001D01*
X143654999Y-95562407D02*
X143654999Y-80373001D01*
X145542000Y-102616000D02*
X145542000Y-97449408D01*
X145542000Y-97449408D02*
X143654999Y-95562407D01*
X144780000Y-79248000D02*
X144780000Y-75438000D01*
X143654999Y-80373001D02*
X144780000Y-79248000D01*
X122555000Y-66421000D02*
X118999000Y-62865000D01*
X122635030Y-66501030D02*
X122555000Y-66421000D01*
X122635030Y-69484978D02*
X122635030Y-66501030D01*
X125852042Y-72701990D02*
X122635030Y-69484978D01*
X142043990Y-72701990D02*
X125852042Y-72701990D01*
X144780000Y-75438000D02*
X142043990Y-72701990D01*
X160782000Y-109601001D02*
X160655001Y-109728000D01*
X160782000Y-102616000D02*
X160782000Y-109601001D01*
X160782000Y-99352998D02*
X153670000Y-92240998D01*
X160782000Y-102616000D02*
X160782000Y-99352998D01*
X153670000Y-76708000D02*
X154940000Y-75438000D01*
X153670000Y-92240998D02*
X153670000Y-76708000D01*
X163322000Y-109601001D02*
X163195001Y-109728000D01*
X163322000Y-102616000D02*
X163322000Y-109601001D01*
X163227001Y-98965001D02*
X154940000Y-90678000D01*
X163227001Y-101318920D02*
X163227001Y-98965001D01*
X163322000Y-102616000D02*
X163322000Y-101413919D01*
X163322000Y-101413919D02*
X163227001Y-101318920D01*
X165862000Y-109601001D02*
X165735001Y-109728000D01*
X165862000Y-102616000D02*
X165862000Y-109601001D01*
X165767001Y-101318920D02*
X165767001Y-97441001D01*
X165862000Y-102616000D02*
X165862000Y-101413919D01*
X165862000Y-101413919D02*
X165767001Y-101318920D01*
X159004000Y-90678000D02*
X157480000Y-90678000D01*
X165767001Y-97441001D02*
X159004000Y-90678000D01*
X148082000Y-109601001D02*
X147955001Y-109728000D01*
X148082000Y-102616000D02*
X148082000Y-109601001D01*
X144780000Y-91809370D02*
X144780000Y-90678000D01*
X144780000Y-96050998D02*
X144780000Y-91809370D01*
X148082000Y-99352998D02*
X144780000Y-96050998D01*
X148082000Y-102616000D02*
X148082000Y-99352998D01*
X150622000Y-109601001D02*
X150495001Y-109728000D01*
X150622000Y-102616000D02*
X150622000Y-109601001D01*
X150622000Y-101413919D02*
X150622000Y-102616000D01*
X150622000Y-99314000D02*
X150622000Y-101413919D01*
X147320000Y-96012000D02*
X150622000Y-99314000D01*
X147320000Y-90678000D02*
X147320000Y-96012000D01*
X153162000Y-109601001D02*
X153035001Y-109728000D01*
X153162000Y-102616000D02*
X153162000Y-109601001D01*
X148590000Y-76708000D02*
X149860000Y-75438000D01*
X148590000Y-92877408D02*
X148590000Y-76708000D01*
X153162000Y-102616000D02*
X153162000Y-97449408D01*
X153162000Y-97449408D02*
X148590000Y-92877408D01*
X155702000Y-109601001D02*
X155575001Y-109728000D01*
X155702000Y-102616000D02*
X155702000Y-109601001D01*
X149860000Y-91809370D02*
X149860000Y-90678000D01*
X149860000Y-93510998D02*
X149860000Y-91809370D01*
X155702000Y-99352998D02*
X149860000Y-93510998D01*
X155702000Y-102616000D02*
X155702000Y-99352998D01*
X158242000Y-109601001D02*
X158115001Y-109728000D01*
X158242000Y-102616000D02*
X158242000Y-109601001D01*
X158242000Y-101413919D02*
X158242000Y-102616000D01*
X158242000Y-99163000D02*
X158242000Y-101413919D01*
X152400000Y-93321000D02*
X158242000Y-99163000D01*
X152400000Y-90678000D02*
X152400000Y-93321000D01*
X142494000Y-67843980D02*
X139065000Y-71272980D01*
X139065000Y-71272980D02*
X139065000Y-71755000D01*
X142730001Y-65766999D02*
X144018000Y-64479000D01*
X142494000Y-67843980D02*
X142730001Y-67607979D01*
X142730001Y-67607979D02*
X142730001Y-65766999D01*
X138557000Y-78486000D02*
X138938000Y-78105000D01*
X136034999Y-91218001D02*
X136034999Y-81008001D01*
X137471990Y-92654992D02*
X136034999Y-91218001D01*
X136034999Y-81008001D02*
X138557000Y-78486000D01*
X137471990Y-95573010D02*
X137471990Y-92654992D01*
X136906000Y-96139000D02*
X137471990Y-95573010D01*
X132080000Y-90678000D02*
X132879999Y-91477999D01*
X132879999Y-91477999D02*
X132879999Y-92239999D01*
X132879999Y-92239999D02*
X134620000Y-93980000D01*
X134620000Y-93980000D02*
X134620000Y-94742000D01*
X134620000Y-94742000D02*
X136017000Y-96139000D01*
X136017000Y-96139000D02*
X136906000Y-96139000D01*
X133985000Y-69780002D02*
X133985000Y-67298370D01*
X132739438Y-71025564D02*
X133985000Y-69780002D01*
X127863152Y-71025564D02*
X132739438Y-71025564D01*
X126604989Y-69767401D02*
X127863152Y-71025564D01*
X133985000Y-67298370D02*
X133985000Y-66167000D01*
X126604988Y-66390988D02*
X126604989Y-69767401D01*
X123444000Y-63230000D02*
X126604988Y-66390988D01*
X123444000Y-62230000D02*
X123444000Y-63230000D01*
X122144000Y-65373590D02*
X122144000Y-62230000D01*
X123085040Y-69298578D02*
X123085040Y-66314630D01*
X126038442Y-72251980D02*
X123085040Y-69298578D01*
X133742020Y-72251980D02*
X126038442Y-72251980D01*
X134473500Y-71520500D02*
X133742020Y-72251980D01*
X152342010Y-63303990D02*
X137433010Y-63303990D01*
X157099000Y-58547000D02*
X152342010Y-63303990D01*
X137433010Y-63303990D02*
X135110001Y-65626999D01*
X135110001Y-65626999D02*
X135110001Y-70826997D01*
X123085040Y-66314630D02*
X122144000Y-65373590D01*
X135110001Y-70826997D02*
X134473500Y-71463498D01*
X134473500Y-71463498D02*
X134473500Y-71520500D01*
X127054998Y-69581000D02*
X127054998Y-63064002D01*
X127431998Y-69958000D02*
X127054998Y-69581000D01*
X130956000Y-69958000D02*
X127431998Y-69958000D01*
X131445000Y-69469000D02*
X130956000Y-69958000D01*
X131445000Y-69469000D02*
X131445000Y-66167000D01*
X126220996Y-62230000D02*
X124744000Y-62230000D01*
X127054998Y-63064002D02*
X126220996Y-62230000D01*
X131445000Y-69469000D02*
X131445000Y-69824019D01*
X94222370Y-65786000D02*
X94476370Y-66040000D01*
X93091000Y-65786000D02*
X94222370Y-65786000D01*
X94476370Y-66040000D02*
X97282000Y-66040000D01*
X97688979Y-65633021D02*
X97688980Y-60551610D01*
X97282000Y-66040000D02*
X97688979Y-65633021D01*
X123367999Y-59853999D02*
X124744000Y-61230000D01*
X105135997Y-59853999D02*
X123367999Y-59853999D01*
X124744000Y-61230000D02*
X124744000Y-62230000D01*
X102322997Y-57040999D02*
X105135997Y-59853999D01*
X100170999Y-57040999D02*
X102322997Y-57040999D01*
X99585999Y-57625999D02*
X100170999Y-57040999D01*
X99585999Y-58654591D02*
X99585999Y-57625999D01*
X97688980Y-60551610D02*
X99585999Y-58654591D01*
D20*
G36*
X172695002Y-105536300D02*
G01*
X172647599Y-105624985D01*
X172604027Y-105768622D01*
X172601823Y-105791000D01*
X172149456Y-105791000D01*
X172121994Y-105768463D01*
X172011680Y-105709498D01*
X171891982Y-105673188D01*
X171827000Y-105666788D01*
X171827000Y-103810759D01*
X171997134Y-103671134D01*
X172182706Y-103445014D01*
X172320599Y-103187034D01*
X172405513Y-102907111D01*
X172434185Y-102616000D01*
X172405513Y-102324889D01*
X172320599Y-102044966D01*
X172182706Y-101786986D01*
X171997134Y-101560866D01*
X171771014Y-101375294D01*
X171513034Y-101237401D01*
X171233111Y-101152487D01*
X171014950Y-101131000D01*
X170963662Y-101131000D01*
X170973185Y-101123185D01*
X171052537Y-101026494D01*
X171111502Y-100916180D01*
X171147812Y-100796482D01*
X171160072Y-100672000D01*
X171160072Y-98972000D01*
X171147812Y-98847518D01*
X171111502Y-98727820D01*
X171052537Y-98617506D01*
X170973185Y-98520815D01*
X170876494Y-98441463D01*
X170766180Y-98382498D01*
X170646482Y-98346188D01*
X170522000Y-98333928D01*
X168822000Y-98333928D01*
X168697518Y-98346188D01*
X168577820Y-98382498D01*
X168467506Y-98441463D01*
X168370815Y-98520815D01*
X168291463Y-98617506D01*
X168232498Y-98727820D01*
X168211607Y-98796687D01*
X168187134Y-98766866D01*
X167961014Y-98581294D01*
X167703034Y-98443401D01*
X167423111Y-98358487D01*
X167204950Y-98337000D01*
X167059050Y-98337000D01*
X166840889Y-98358487D01*
X166560966Y-98443401D01*
X166527001Y-98461556D01*
X166527001Y-97478326D01*
X166530677Y-97441001D01*
X166527001Y-97403676D01*
X166527001Y-97403668D01*
X166516004Y-97292015D01*
X166501705Y-97244876D01*
X166846250Y-97243000D01*
X167005000Y-97084250D01*
X167005000Y-95885000D01*
X165805750Y-95885000D01*
X165647000Y-96043750D01*
X165645904Y-96245102D01*
X164308802Y-94908000D01*
X165643928Y-94908000D01*
X165647000Y-95472250D01*
X165805750Y-95631000D01*
X167005000Y-95631000D01*
X167005000Y-94431750D01*
X167259000Y-94431750D01*
X167259000Y-95631000D01*
X167279000Y-95631000D01*
X167279000Y-95885000D01*
X167259000Y-95885000D01*
X167259000Y-97084250D01*
X167417750Y-97243000D01*
X167982000Y-97246072D01*
X168106482Y-97233812D01*
X168226180Y-97197502D01*
X168336494Y-97138537D01*
X168433185Y-97059185D01*
X168512537Y-96962494D01*
X168571502Y-96852180D01*
X168592393Y-96783313D01*
X168616866Y-96813134D01*
X168842986Y-96998706D01*
X169100966Y-97136599D01*
X169380889Y-97221513D01*
X169599050Y-97243000D01*
X169744950Y-97243000D01*
X169963111Y-97221513D01*
X170243034Y-97136599D01*
X170501014Y-96998706D01*
X170727134Y-96813134D01*
X170912706Y-96587014D01*
X171050599Y-96329034D01*
X171135513Y-96049111D01*
X171164185Y-95758000D01*
X171135513Y-95466889D01*
X171050599Y-95186966D01*
X170912706Y-94928986D01*
X170727134Y-94702866D01*
X170501014Y-94517294D01*
X170243034Y-94379401D01*
X169963111Y-94294487D01*
X169744950Y-94273000D01*
X169599050Y-94273000D01*
X169380889Y-94294487D01*
X169100966Y-94379401D01*
X168842986Y-94517294D01*
X168616866Y-94702866D01*
X168592393Y-94732687D01*
X168571502Y-94663820D01*
X168512537Y-94553506D01*
X168433185Y-94456815D01*
X168336494Y-94377463D01*
X168226180Y-94318498D01*
X168106482Y-94282188D01*
X167982000Y-94269928D01*
X167417750Y-94273000D01*
X167259000Y-94431750D01*
X167005000Y-94431750D01*
X166846250Y-94273000D01*
X166282000Y-94269928D01*
X166157518Y-94282188D01*
X166037820Y-94318498D01*
X165927506Y-94377463D01*
X165830815Y-94456815D01*
X165751463Y-94553506D01*
X165692498Y-94663820D01*
X165656188Y-94783518D01*
X165643928Y-94908000D01*
X164308802Y-94908000D01*
X163067256Y-93666455D01*
X163114590Y-93619121D01*
X163227858Y-93449603D01*
X163305879Y-93261245D01*
X163345653Y-93061286D01*
X163345653Y-92857408D01*
X163305879Y-92657449D01*
X163227858Y-92469091D01*
X163114590Y-92299573D01*
X163070653Y-92255636D01*
X163070653Y-79431148D01*
X163607820Y-78893981D01*
X163590536Y-78935709D01*
X163449000Y-79647256D01*
X163449000Y-80372744D01*
X163590536Y-81084291D01*
X163868168Y-81754554D01*
X164271227Y-82357775D01*
X164784225Y-82870773D01*
X165387446Y-83273832D01*
X166057709Y-83551464D01*
X166769256Y-83693000D01*
X167494744Y-83693000D01*
X168206291Y-83551464D01*
X168876554Y-83273832D01*
X169479775Y-82870773D01*
X169992773Y-82357775D01*
X170395832Y-81754554D01*
X170673464Y-81084291D01*
X170815000Y-80372744D01*
X170815000Y-79647256D01*
X170673464Y-78935709D01*
X170395832Y-78265446D01*
X169992773Y-77662225D01*
X169479775Y-77149227D01*
X168876554Y-76746168D01*
X168206291Y-76468536D01*
X167494744Y-76327000D01*
X166769256Y-76327000D01*
X166057709Y-76468536D01*
X165611174Y-76653497D01*
X165587226Y-76533102D01*
X165509205Y-76344744D01*
X165395937Y-76175226D01*
X165251774Y-76031063D01*
X165082256Y-75917795D01*
X164893898Y-75839774D01*
X164693939Y-75800000D01*
X164490061Y-75800000D01*
X164290102Y-75839774D01*
X164101744Y-75917795D01*
X163932226Y-76031063D01*
X163788063Y-76175226D01*
X163674795Y-76344744D01*
X163596774Y-76533102D01*
X163557000Y-76733061D01*
X163557000Y-76795198D01*
X161799656Y-78552543D01*
X161770652Y-78576346D01*
X161722529Y-78634985D01*
X161675679Y-78692071D01*
X161659667Y-78722027D01*
X161605107Y-78824101D01*
X161561650Y-78967362D01*
X161550653Y-79079015D01*
X161550653Y-79079025D01*
X161546977Y-79116347D01*
X161550653Y-79153669D01*
X161550654Y-92149853D01*
X159567804Y-90167003D01*
X159544001Y-90137999D01*
X159428276Y-90043026D01*
X159296247Y-89972454D01*
X159152986Y-89928997D01*
X159041333Y-89918000D01*
X159041322Y-89918000D01*
X159004000Y-89914324D01*
X158966678Y-89918000D01*
X158700901Y-89918000D01*
X158678932Y-89876899D01*
X158499608Y-89658392D01*
X158281101Y-89479068D01*
X158031808Y-89345818D01*
X157761309Y-89263764D01*
X157550492Y-89243000D01*
X157409508Y-89243000D01*
X157198691Y-89263764D01*
X156928192Y-89345818D01*
X156678899Y-89479068D01*
X156460392Y-89658392D01*
X156281068Y-89876899D01*
X156210000Y-90009858D01*
X156138932Y-89876899D01*
X155959608Y-89658392D01*
X155741101Y-89479068D01*
X155491808Y-89345818D01*
X155221309Y-89263764D01*
X155010492Y-89243000D01*
X154869508Y-89243000D01*
X154658691Y-89263764D01*
X154430000Y-89333136D01*
X154430000Y-77022801D01*
X154614094Y-76838708D01*
X154658691Y-76852236D01*
X154869508Y-76873000D01*
X155010492Y-76873000D01*
X155221309Y-76852236D01*
X155491808Y-76770182D01*
X155741101Y-76636932D01*
X155959608Y-76457608D01*
X156138932Y-76239101D01*
X156212579Y-76101318D01*
X156327615Y-76293131D01*
X156516586Y-76501519D01*
X156742580Y-76669037D01*
X156996913Y-76789246D01*
X157130961Y-76829904D01*
X157353000Y-76707915D01*
X157353000Y-75565000D01*
X157607000Y-75565000D01*
X157607000Y-76707915D01*
X157829039Y-76829904D01*
X157963087Y-76789246D01*
X158217420Y-76669037D01*
X158443414Y-76501519D01*
X158632385Y-76293131D01*
X158777070Y-76051881D01*
X158871909Y-75787040D01*
X158750624Y-75565000D01*
X157607000Y-75565000D01*
X157353000Y-75565000D01*
X157333000Y-75565000D01*
X157333000Y-75311000D01*
X157353000Y-75311000D01*
X157353000Y-74168085D01*
X157607000Y-74168085D01*
X157607000Y-75311000D01*
X158750624Y-75311000D01*
X158871909Y-75088960D01*
X158777070Y-74824119D01*
X158632385Y-74582869D01*
X158443414Y-74374481D01*
X158217420Y-74206963D01*
X157963087Y-74086754D01*
X157829039Y-74046096D01*
X157607000Y-74168085D01*
X157353000Y-74168085D01*
X157130961Y-74046096D01*
X156996913Y-74086754D01*
X156742580Y-74206963D01*
X156516586Y-74374481D01*
X156327615Y-74582869D01*
X156212579Y-74774682D01*
X156138932Y-74636899D01*
X155959608Y-74418392D01*
X155741101Y-74239068D01*
X155491808Y-74105818D01*
X155221309Y-74023764D01*
X155010492Y-74003000D01*
X154869508Y-74003000D01*
X154658691Y-74023764D01*
X154388192Y-74105818D01*
X154138899Y-74239068D01*
X153920392Y-74418392D01*
X153741068Y-74636899D01*
X153670000Y-74769858D01*
X153598932Y-74636899D01*
X153419608Y-74418392D01*
X153201101Y-74239068D01*
X152951808Y-74105818D01*
X152681309Y-74023764D01*
X152470492Y-74003000D01*
X152329508Y-74003000D01*
X152118691Y-74023764D01*
X151848192Y-74105818D01*
X151598899Y-74239068D01*
X151380392Y-74418392D01*
X151201068Y-74636899D01*
X151130000Y-74769858D01*
X151058932Y-74636899D01*
X150879608Y-74418392D01*
X150661101Y-74239068D01*
X150411808Y-74105818D01*
X150141309Y-74023764D01*
X149930492Y-74003000D01*
X149789508Y-74003000D01*
X149578691Y-74023764D01*
X149308192Y-74105818D01*
X149058899Y-74239068D01*
X148840392Y-74418392D01*
X148661068Y-74636899D01*
X148590000Y-74769858D01*
X148518932Y-74636899D01*
X148339608Y-74418392D01*
X148121101Y-74239068D01*
X147871808Y-74105818D01*
X147601309Y-74023764D01*
X147390492Y-74003000D01*
X147249508Y-74003000D01*
X147038691Y-74023764D01*
X146768192Y-74105818D01*
X146518899Y-74239068D01*
X146300392Y-74418392D01*
X146121068Y-74636899D01*
X146050000Y-74769858D01*
X145978932Y-74636899D01*
X145799608Y-74418392D01*
X145581101Y-74239068D01*
X145331808Y-74105818D01*
X145061309Y-74023764D01*
X144850492Y-74003000D01*
X144709508Y-74003000D01*
X144498691Y-74023764D01*
X144454094Y-74037292D01*
X142607794Y-72190993D01*
X142583991Y-72161989D01*
X142468266Y-72067016D01*
X142336237Y-71996444D01*
X142192976Y-71952987D01*
X142081323Y-71941990D01*
X142081312Y-71941990D01*
X142043990Y-71938314D01*
X142006668Y-71941990D01*
X140083082Y-71941990D01*
X140100000Y-71856939D01*
X140100000Y-71653061D01*
X140060226Y-71453102D01*
X140030776Y-71382005D01*
X140966781Y-70446000D01*
X169326928Y-70446000D01*
X169339188Y-70570482D01*
X169375498Y-70690180D01*
X169434463Y-70800494D01*
X169513815Y-70897185D01*
X169610506Y-70976537D01*
X169720820Y-71035502D01*
X169840518Y-71071812D01*
X169965000Y-71084072D01*
X170529250Y-71081000D01*
X170688000Y-70922250D01*
X170688000Y-69723000D01*
X170942000Y-69723000D01*
X170942000Y-70922250D01*
X171100750Y-71081000D01*
X171665000Y-71084072D01*
X171789482Y-71071812D01*
X171909180Y-71035502D01*
X172019494Y-70976537D01*
X172116185Y-70897185D01*
X172195537Y-70800494D01*
X172254502Y-70690180D01*
X172290812Y-70570482D01*
X172303072Y-70446000D01*
X172300000Y-69881750D01*
X172141250Y-69723000D01*
X170942000Y-69723000D01*
X170688000Y-69723000D01*
X169488750Y-69723000D01*
X169330000Y-69881750D01*
X169326928Y-70446000D01*
X140966781Y-70446000D01*
X143057799Y-68354983D01*
X143057804Y-68354977D01*
X143240999Y-68171782D01*
X143270002Y-68147980D01*
X143364975Y-68032255D01*
X143435547Y-67900226D01*
X143479004Y-67756965D01*
X143490001Y-67645312D01*
X143490001Y-67645302D01*
X143493677Y-67607979D01*
X143490001Y-67570656D01*
X143490001Y-67444025D01*
X143593192Y-67499182D01*
X143863691Y-67581236D01*
X144074508Y-67602000D01*
X144215492Y-67602000D01*
X144426309Y-67581236D01*
X144696808Y-67499182D01*
X144946101Y-67365932D01*
X145164608Y-67186608D01*
X145343932Y-66968101D01*
X145415000Y-66835142D01*
X145486068Y-66968101D01*
X145665392Y-67186608D01*
X145883899Y-67365932D01*
X146133192Y-67499182D01*
X146403691Y-67581236D01*
X146614508Y-67602000D01*
X146755492Y-67602000D01*
X146966309Y-67581236D01*
X147236808Y-67499182D01*
X147486101Y-67365932D01*
X147704608Y-67186608D01*
X147883932Y-66968101D01*
X148017182Y-66718808D01*
X148099236Y-66448309D01*
X148126943Y-66167000D01*
X150577057Y-66167000D01*
X150604764Y-66448309D01*
X150686818Y-66718808D01*
X150820068Y-66968101D01*
X150999392Y-67186608D01*
X151217899Y-67365932D01*
X151467192Y-67499182D01*
X151737691Y-67581236D01*
X151948508Y-67602000D01*
X152089492Y-67602000D01*
X152300309Y-67581236D01*
X152570808Y-67499182D01*
X152820101Y-67365932D01*
X153038608Y-67186608D01*
X153217932Y-66968101D01*
X153289000Y-66835142D01*
X153360068Y-66968101D01*
X153539392Y-67186608D01*
X153757899Y-67365932D01*
X154007192Y-67499182D01*
X154277691Y-67581236D01*
X154488508Y-67602000D01*
X154629492Y-67602000D01*
X154840309Y-67581236D01*
X155110808Y-67499182D01*
X155360101Y-67365932D01*
X155578608Y-67186608D01*
X155757932Y-66968101D01*
X155829000Y-66835142D01*
X155900068Y-66968101D01*
X156079392Y-67186608D01*
X156297899Y-67365932D01*
X156547192Y-67499182D01*
X156817691Y-67581236D01*
X157028508Y-67602000D01*
X157169492Y-67602000D01*
X157380309Y-67581236D01*
X157650808Y-67499182D01*
X157900101Y-67365932D01*
X158118608Y-67186608D01*
X158297932Y-66968101D01*
X158369000Y-66835142D01*
X158440068Y-66968101D01*
X158619392Y-67186608D01*
X158837899Y-67365932D01*
X159087192Y-67499182D01*
X159357691Y-67581236D01*
X159568508Y-67602000D01*
X159709492Y-67602000D01*
X159920309Y-67581236D01*
X160190808Y-67499182D01*
X160440101Y-67365932D01*
X160658608Y-67186608D01*
X160837932Y-66968101D01*
X160909000Y-66835142D01*
X160980068Y-66968101D01*
X161159392Y-67186608D01*
X161377899Y-67365932D01*
X161627192Y-67499182D01*
X161897691Y-67581236D01*
X162108508Y-67602000D01*
X162249492Y-67602000D01*
X162460309Y-67581236D01*
X162730808Y-67499182D01*
X162980101Y-67365932D01*
X163198608Y-67186608D01*
X163377932Y-66968101D01*
X163449000Y-66835142D01*
X163520068Y-66968101D01*
X163699392Y-67186608D01*
X163917899Y-67365932D01*
X164167192Y-67499182D01*
X164437691Y-67581236D01*
X164648508Y-67602000D01*
X164789492Y-67602000D01*
X165000309Y-67581236D01*
X165270808Y-67499182D01*
X165520101Y-67365932D01*
X165738608Y-67186608D01*
X165917932Y-66968101D01*
X165991579Y-66830318D01*
X166106615Y-67022131D01*
X166295586Y-67230519D01*
X166521580Y-67398037D01*
X166775913Y-67518246D01*
X166909961Y-67558904D01*
X167132000Y-67436915D01*
X167132000Y-66294000D01*
X167386000Y-66294000D01*
X167386000Y-67436915D01*
X167608039Y-67558904D01*
X167742087Y-67518246D01*
X167996420Y-67398037D01*
X168222414Y-67230519D01*
X168411385Y-67022131D01*
X168556070Y-66780881D01*
X168650909Y-66516040D01*
X168529624Y-66294000D01*
X167386000Y-66294000D01*
X167132000Y-66294000D01*
X167112000Y-66294000D01*
X167112000Y-66040000D01*
X167132000Y-66040000D01*
X167132000Y-64897085D01*
X167386000Y-64897085D01*
X167386000Y-66040000D01*
X168529624Y-66040000D01*
X168650909Y-65817960D01*
X168556070Y-65553119D01*
X168411385Y-65311869D01*
X168222414Y-65103481D01*
X167996420Y-64935963D01*
X167742087Y-64815754D01*
X167608039Y-64775096D01*
X167386000Y-64897085D01*
X167132000Y-64897085D01*
X166909961Y-64775096D01*
X166775913Y-64815754D01*
X166521580Y-64935963D01*
X166295586Y-65103481D01*
X166106615Y-65311869D01*
X165991579Y-65503682D01*
X165917932Y-65365899D01*
X165738608Y-65147392D01*
X165520101Y-64968068D01*
X165270808Y-64834818D01*
X165000309Y-64752764D01*
X164789492Y-64732000D01*
X164648508Y-64732000D01*
X164437691Y-64752764D01*
X164167192Y-64834818D01*
X163917899Y-64968068D01*
X163699392Y-65147392D01*
X163520068Y-65365899D01*
X163449000Y-65498858D01*
X163377932Y-65365899D01*
X163198608Y-65147392D01*
X162980101Y-64968068D01*
X162730808Y-64834818D01*
X162460309Y-64752764D01*
X162249492Y-64732000D01*
X162108508Y-64732000D01*
X161897691Y-64752764D01*
X161627192Y-64834818D01*
X161377899Y-64968068D01*
X161159392Y-65147392D01*
X160980068Y-65365899D01*
X160909000Y-65498858D01*
X160837932Y-65365899D01*
X160658608Y-65147392D01*
X160440101Y-64968068D01*
X160190808Y-64834818D01*
X159920309Y-64752764D01*
X159709492Y-64732000D01*
X159568508Y-64732000D01*
X159357691Y-64752764D01*
X159087192Y-64834818D01*
X158837899Y-64968068D01*
X158619392Y-65147392D01*
X158440068Y-65365899D01*
X158369000Y-65498858D01*
X158297932Y-65365899D01*
X158118608Y-65147392D01*
X157900101Y-64968068D01*
X157650808Y-64834818D01*
X157380309Y-64752764D01*
X157169492Y-64732000D01*
X157028508Y-64732000D01*
X156817691Y-64752764D01*
X156547192Y-64834818D01*
X156297899Y-64968068D01*
X156079392Y-65147392D01*
X155900068Y-65365899D01*
X155829000Y-65498858D01*
X155757932Y-65365899D01*
X155578608Y-65147392D01*
X155360101Y-64968068D01*
X155110808Y-64834818D01*
X154840309Y-64752764D01*
X154629492Y-64732000D01*
X154488508Y-64732000D01*
X154277691Y-64752764D01*
X154007192Y-64834818D01*
X153757899Y-64968068D01*
X153539392Y-65147392D01*
X153360068Y-65365899D01*
X153289000Y-65498858D01*
X153217932Y-65365899D01*
X153038608Y-65147392D01*
X152820101Y-64968068D01*
X152570808Y-64834818D01*
X152300309Y-64752764D01*
X152089492Y-64732000D01*
X151948508Y-64732000D01*
X151737691Y-64752764D01*
X151467192Y-64834818D01*
X151217899Y-64968068D01*
X150999392Y-65147392D01*
X150820068Y-65365899D01*
X150686818Y-65615192D01*
X150604764Y-65885691D01*
X150577057Y-66167000D01*
X148126943Y-66167000D01*
X148099236Y-65885691D01*
X148017182Y-65615192D01*
X147883932Y-65365899D01*
X147704608Y-65147392D01*
X147486101Y-64968068D01*
X147236808Y-64834818D01*
X146966309Y-64752764D01*
X146755492Y-64732000D01*
X146614508Y-64732000D01*
X146403691Y-64752764D01*
X146133192Y-64834818D01*
X145883899Y-64968068D01*
X145665392Y-65147392D01*
X145486068Y-65365899D01*
X145415000Y-65498858D01*
X145343932Y-65365899D01*
X145164608Y-65147392D01*
X144946101Y-64968068D01*
X144937583Y-64963515D01*
X145013226Y-64780898D01*
X145053000Y-64580939D01*
X145053000Y-64514000D01*
X156172667Y-64514000D01*
X156210000Y-64517677D01*
X156247333Y-64514000D01*
X156358986Y-64503003D01*
X156502247Y-64459546D01*
X156634276Y-64388974D01*
X156750001Y-64294001D01*
X156844974Y-64178276D01*
X156915546Y-64046247D01*
X156959003Y-63902986D01*
X156973677Y-63754000D01*
X156970000Y-63716667D01*
X156970000Y-62417801D01*
X158753004Y-60634798D01*
X158782001Y-60611001D01*
X158830742Y-60551610D01*
X158876974Y-60495277D01*
X158947546Y-60363247D01*
X158972275Y-60281724D01*
X158991003Y-60219986D01*
X159002000Y-60108333D01*
X159002000Y-60108323D01*
X159005676Y-60071000D01*
X159002000Y-60033677D01*
X159002000Y-59825500D01*
X159155913Y-59898246D01*
X159289961Y-59938904D01*
X159512000Y-59816915D01*
X159512000Y-58674000D01*
X159492000Y-58674000D01*
X159492000Y-58420000D01*
X159512000Y-58420000D01*
X159512000Y-58400000D01*
X159766000Y-58400000D01*
X159766000Y-58420000D01*
X159786000Y-58420000D01*
X159786000Y-58674000D01*
X159766000Y-58674000D01*
X159766000Y-59816915D01*
X159988039Y-59938904D01*
X160122087Y-59898246D01*
X160376420Y-59778037D01*
X160602414Y-59610519D01*
X160791385Y-59402131D01*
X160906421Y-59210318D01*
X160980068Y-59348101D01*
X161159392Y-59566608D01*
X161377899Y-59745932D01*
X161627192Y-59879182D01*
X161897691Y-59961236D01*
X162108508Y-59982000D01*
X162249492Y-59982000D01*
X162460309Y-59961236D01*
X162730808Y-59879182D01*
X162980101Y-59745932D01*
X163198608Y-59566608D01*
X163377932Y-59348101D01*
X163449000Y-59215142D01*
X163520068Y-59348101D01*
X163699392Y-59566608D01*
X163917899Y-59745932D01*
X164167192Y-59879182D01*
X164437691Y-59961236D01*
X164648508Y-59982000D01*
X164789492Y-59982000D01*
X165000309Y-59961236D01*
X165270808Y-59879182D01*
X165520101Y-59745932D01*
X165738608Y-59566608D01*
X165831419Y-59453518D01*
X165833188Y-59471482D01*
X165869498Y-59591180D01*
X165928463Y-59701494D01*
X166007815Y-59798185D01*
X166104506Y-59877537D01*
X166214820Y-59936502D01*
X166334518Y-59972812D01*
X166459000Y-59985072D01*
X168059000Y-59985072D01*
X168183482Y-59972812D01*
X168303180Y-59936502D01*
X168413494Y-59877537D01*
X168510185Y-59798185D01*
X168589537Y-59701494D01*
X168648502Y-59591180D01*
X168684812Y-59471482D01*
X168697072Y-59347000D01*
X168697072Y-58646874D01*
X170055001Y-60004803D01*
X170055000Y-65778405D01*
X169985986Y-65815294D01*
X169759866Y-66000866D01*
X169574294Y-66226986D01*
X169436401Y-66484966D01*
X169351487Y-66764889D01*
X169322815Y-67056000D01*
X169351487Y-67347111D01*
X169436401Y-67627034D01*
X169574294Y-67885014D01*
X169759866Y-68111134D01*
X169789687Y-68135607D01*
X169720820Y-68156498D01*
X169610506Y-68215463D01*
X169513815Y-68294815D01*
X169434463Y-68391506D01*
X169375498Y-68501820D01*
X169339188Y-68621518D01*
X169326928Y-68746000D01*
X169330000Y-69310250D01*
X169488750Y-69469000D01*
X170688000Y-69469000D01*
X170688000Y-69449000D01*
X170942000Y-69449000D01*
X170942000Y-69469000D01*
X172141250Y-69469000D01*
X172300000Y-69310250D01*
X172303072Y-68746000D01*
X172290812Y-68621518D01*
X172254502Y-68501820D01*
X172195537Y-68391506D01*
X172116185Y-68294815D01*
X172019494Y-68215463D01*
X171909180Y-68156498D01*
X171840313Y-68135607D01*
X171870134Y-68111134D01*
X172055706Y-67885014D01*
X172193599Y-67627034D01*
X172278513Y-67347111D01*
X172307185Y-67056000D01*
X172278513Y-66764889D01*
X172193599Y-66484966D01*
X172055706Y-66226986D01*
X171870134Y-66000866D01*
X171644014Y-65815294D01*
X171575000Y-65778405D01*
X171575000Y-59727322D01*
X171578676Y-59689999D01*
X171575000Y-59652676D01*
X171575000Y-59652667D01*
X171564003Y-59541014D01*
X171520546Y-59397753D01*
X171449974Y-59265724D01*
X171355001Y-59149999D01*
X171326003Y-59126201D01*
X167949804Y-55750003D01*
X167926001Y-55720999D01*
X167810276Y-55626026D01*
X167678247Y-55555454D01*
X167534986Y-55511997D01*
X167423333Y-55501000D01*
X167423322Y-55501000D01*
X167386000Y-55497324D01*
X167348678Y-55501000D01*
X154342322Y-55501000D01*
X154304999Y-55497324D01*
X154267676Y-55501000D01*
X154267667Y-55501000D01*
X154156014Y-55511997D01*
X154012753Y-55555454D01*
X153880724Y-55626026D01*
X153764999Y-55720999D01*
X153741201Y-55749997D01*
X152344906Y-57146292D01*
X152300309Y-57132764D01*
X152089492Y-57112000D01*
X151948508Y-57112000D01*
X151737691Y-57132764D01*
X151467192Y-57214818D01*
X151217899Y-57348068D01*
X150999392Y-57527392D01*
X150820068Y-57745899D01*
X150798099Y-57787000D01*
X148664804Y-57787000D01*
X147135806Y-56258003D01*
X147112003Y-56228999D01*
X146996278Y-56134026D01*
X146864249Y-56063454D01*
X146720988Y-56019997D01*
X146609335Y-56009000D01*
X146609324Y-56009000D01*
X146572002Y-56005324D01*
X146534680Y-56009000D01*
X105224711Y-56009000D01*
X105180774Y-55965063D01*
X105011256Y-55851795D01*
X104822898Y-55773774D01*
X104622939Y-55734000D01*
X104419061Y-55734000D01*
X104219102Y-55773774D01*
X104030744Y-55851795D01*
X103861226Y-55965063D01*
X103717063Y-56109226D01*
X103603795Y-56278744D01*
X103525774Y-56467102D01*
X103486000Y-56667061D01*
X103486000Y-56870939D01*
X103525774Y-57070898D01*
X103595126Y-57238326D01*
X102886801Y-56530002D01*
X102862998Y-56500998D01*
X102747273Y-56406025D01*
X102615244Y-56335453D01*
X102471983Y-56291996D01*
X102360330Y-56280999D01*
X102360319Y-56280999D01*
X102322997Y-56277323D01*
X102285675Y-56280999D01*
X100208322Y-56280999D01*
X100170999Y-56277323D01*
X100133676Y-56280999D01*
X100133666Y-56280999D01*
X100022013Y-56291996D01*
X99878752Y-56335453D01*
X99746722Y-56406025D01*
X99672300Y-56467102D01*
X99630998Y-56500998D01*
X99607199Y-56529997D01*
X99074997Y-57062200D01*
X99045999Y-57085998D01*
X99022201Y-57114996D01*
X99022200Y-57114997D01*
X98951025Y-57201723D01*
X98880453Y-57333753D01*
X98862631Y-57392506D01*
X98836997Y-57477013D01*
X98827417Y-57574276D01*
X98822323Y-57625999D01*
X98826000Y-57663331D01*
X98825999Y-58339789D01*
X97177978Y-59987811D01*
X97148980Y-60011609D01*
X97125182Y-60040607D01*
X97125181Y-60040608D01*
X97054006Y-60127334D01*
X96983434Y-60259364D01*
X96963533Y-60324973D01*
X96939978Y-60402624D01*
X96930852Y-60495277D01*
X96925304Y-60551610D01*
X96928981Y-60588942D01*
X96928979Y-65280000D01*
X94791171Y-65280000D01*
X94786174Y-65275003D01*
X94762371Y-65245999D01*
X94646646Y-65151026D01*
X94514617Y-65080454D01*
X94371356Y-65036997D01*
X94314802Y-65031427D01*
X94289932Y-64984899D01*
X94110608Y-64766392D01*
X93892101Y-64587068D01*
X93759142Y-64516000D01*
X93892101Y-64444932D01*
X94110608Y-64265608D01*
X94289932Y-64047101D01*
X94423182Y-63797808D01*
X94505236Y-63527309D01*
X94532943Y-63246000D01*
X94505236Y-62964691D01*
X94423182Y-62694192D01*
X94289932Y-62444899D01*
X94110608Y-62226392D01*
X93892101Y-62047068D01*
X93759142Y-61976000D01*
X93892101Y-61904932D01*
X94110608Y-61725608D01*
X94289932Y-61507101D01*
X94423182Y-61257808D01*
X94505236Y-60987309D01*
X94532943Y-60706000D01*
X94505236Y-60424691D01*
X94423182Y-60154192D01*
X94289932Y-59904899D01*
X94110608Y-59686392D01*
X93997518Y-59593581D01*
X94015482Y-59591812D01*
X94135180Y-59555502D01*
X94245494Y-59496537D01*
X94342185Y-59417185D01*
X94421537Y-59320494D01*
X94480502Y-59210180D01*
X94516812Y-59090482D01*
X94529072Y-58966000D01*
X94529072Y-57366000D01*
X94516812Y-57241518D01*
X94480502Y-57121820D01*
X94421537Y-57011506D01*
X94342185Y-56914815D01*
X94245494Y-56835463D01*
X94135180Y-56776498D01*
X94015482Y-56740188D01*
X93891000Y-56727928D01*
X92291000Y-56727928D01*
X92166518Y-56740188D01*
X92046820Y-56776498D01*
X91936506Y-56835463D01*
X91839815Y-56914815D01*
X91760463Y-57011506D01*
X91701498Y-57121820D01*
X91665188Y-57241518D01*
X91652928Y-57366000D01*
X91652928Y-58966000D01*
X91665188Y-59090482D01*
X91701498Y-59210180D01*
X91760463Y-59320494D01*
X91839815Y-59417185D01*
X91936506Y-59496537D01*
X92046820Y-59555502D01*
X92166518Y-59591812D01*
X92184482Y-59593581D01*
X92071392Y-59686392D01*
X91892068Y-59904899D01*
X91758818Y-60154192D01*
X91676764Y-60424691D01*
X91649057Y-60706000D01*
X91676764Y-60987309D01*
X91758818Y-61257808D01*
X91892068Y-61507101D01*
X92071392Y-61725608D01*
X92289899Y-61904932D01*
X92422858Y-61976000D01*
X92289899Y-62047068D01*
X92071392Y-62226392D01*
X91892068Y-62444899D01*
X91758818Y-62694192D01*
X91676764Y-62964691D01*
X91649057Y-63246000D01*
X91676764Y-63527309D01*
X91758818Y-63797808D01*
X91892068Y-64047101D01*
X92071392Y-64265608D01*
X92289899Y-64444932D01*
X92422858Y-64516000D01*
X92289899Y-64587068D01*
X92071392Y-64766392D01*
X91892068Y-64984899D01*
X91758818Y-65234192D01*
X91676764Y-65504691D01*
X91649057Y-65786000D01*
X91676764Y-66067309D01*
X91758818Y-66337808D01*
X91892068Y-66587101D01*
X92071392Y-66805608D01*
X92289899Y-66984932D01*
X92539192Y-67118182D01*
X92809691Y-67200236D01*
X93020508Y-67221000D01*
X93161492Y-67221000D01*
X93372309Y-67200236D01*
X93642808Y-67118182D01*
X93892101Y-66984932D01*
X94110608Y-66805608D01*
X94167286Y-66736546D01*
X94184123Y-66745546D01*
X94327384Y-66789003D01*
X94439037Y-66800000D01*
X94439046Y-66800000D01*
X94476369Y-66803676D01*
X94513692Y-66800000D01*
X97244678Y-66800000D01*
X97282000Y-66803676D01*
X97319322Y-66800000D01*
X97319333Y-66800000D01*
X97378990Y-66794124D01*
X97378989Y-74520209D01*
X93905997Y-77993202D01*
X93876999Y-78017000D01*
X93853201Y-78045998D01*
X93853200Y-78045999D01*
X93782025Y-78132725D01*
X93711453Y-78264755D01*
X93689534Y-78337015D01*
X93671264Y-78397247D01*
X93667997Y-78408016D01*
X93653323Y-78557001D01*
X93657000Y-78594333D01*
X93656999Y-84233678D01*
X93653323Y-84271001D01*
X93656999Y-84308323D01*
X93656999Y-84308333D01*
X93667996Y-84419986D01*
X93696206Y-84512983D01*
X93711453Y-84563247D01*
X93716199Y-84572126D01*
X93575702Y-84530903D01*
X92762605Y-85344000D01*
X93575702Y-86157097D01*
X93819671Y-86085514D01*
X93940571Y-85830004D01*
X94009300Y-85555816D01*
X94023217Y-85273488D01*
X93981787Y-84993870D01*
X93935425Y-84864228D01*
X99352667Y-90281471D01*
X99183392Y-90420392D01*
X99004068Y-90638899D01*
X98870818Y-90888192D01*
X98788764Y-91158691D01*
X98761057Y-91440000D01*
X98788764Y-91721309D01*
X98870818Y-91991808D01*
X99004068Y-92241101D01*
X99183392Y-92459608D01*
X99401899Y-92638932D01*
X99651192Y-92772182D01*
X99921691Y-92854236D01*
X100132508Y-92875000D01*
X100273492Y-92875000D01*
X100484309Y-92854236D01*
X100528906Y-92840708D01*
X101623035Y-93934837D01*
X101606997Y-93947999D01*
X101583199Y-93976997D01*
X96916749Y-98643448D01*
X96841014Y-98581294D01*
X96583034Y-98443401D01*
X96303111Y-98358487D01*
X96084950Y-98337000D01*
X95939050Y-98337000D01*
X95720889Y-98358487D01*
X95440966Y-98443401D01*
X95182986Y-98581294D01*
X94956866Y-98766866D01*
X94771294Y-98992986D01*
X94742000Y-99047791D01*
X94712706Y-98992986D01*
X94527134Y-98766866D01*
X94301014Y-98581294D01*
X94043034Y-98443401D01*
X93763111Y-98358487D01*
X93544950Y-98337000D01*
X93399050Y-98337000D01*
X93180889Y-98358487D01*
X92900966Y-98443401D01*
X92642986Y-98581294D01*
X92416866Y-98766866D01*
X92231294Y-98992986D01*
X92202000Y-99047791D01*
X92172706Y-98992986D01*
X91987134Y-98766866D01*
X91761014Y-98581294D01*
X91503034Y-98443401D01*
X91223111Y-98358487D01*
X91004950Y-98337000D01*
X90859050Y-98337000D01*
X90640889Y-98358487D01*
X90360966Y-98443401D01*
X90195001Y-98532111D01*
X90195001Y-95758000D01*
X90709815Y-95758000D01*
X90738487Y-96049111D01*
X90823401Y-96329034D01*
X90961294Y-96587014D01*
X91146866Y-96813134D01*
X91372986Y-96998706D01*
X91630966Y-97136599D01*
X91910889Y-97221513D01*
X92129050Y-97243000D01*
X92274950Y-97243000D01*
X92493111Y-97221513D01*
X92773034Y-97136599D01*
X93031014Y-96998706D01*
X93257134Y-96813134D01*
X93281607Y-96783313D01*
X93302498Y-96852180D01*
X93361463Y-96962494D01*
X93440815Y-97059185D01*
X93537506Y-97138537D01*
X93647820Y-97197502D01*
X93767518Y-97233812D01*
X93892000Y-97246072D01*
X94456250Y-97243000D01*
X94615000Y-97084250D01*
X94615000Y-95885000D01*
X94869000Y-95885000D01*
X94869000Y-97084250D01*
X95027750Y-97243000D01*
X95592000Y-97246072D01*
X95716482Y-97233812D01*
X95836180Y-97197502D01*
X95946494Y-97138537D01*
X96043185Y-97059185D01*
X96122537Y-96962494D01*
X96181502Y-96852180D01*
X96217812Y-96732482D01*
X96230072Y-96608000D01*
X96227000Y-96043750D01*
X96068250Y-95885000D01*
X94869000Y-95885000D01*
X94615000Y-95885000D01*
X94595000Y-95885000D01*
X94595000Y-95631000D01*
X94615000Y-95631000D01*
X94615000Y-94431750D01*
X94869000Y-94431750D01*
X94869000Y-95631000D01*
X96068250Y-95631000D01*
X96227000Y-95472250D01*
X96230072Y-94908000D01*
X96217812Y-94783518D01*
X96181502Y-94663820D01*
X96122537Y-94553506D01*
X96043185Y-94456815D01*
X95946494Y-94377463D01*
X95836180Y-94318498D01*
X95716482Y-94282188D01*
X95592000Y-94269928D01*
X95027750Y-94273000D01*
X94869000Y-94431750D01*
X94615000Y-94431750D01*
X94456250Y-94273000D01*
X93892000Y-94269928D01*
X93767518Y-94282188D01*
X93647820Y-94318498D01*
X93537506Y-94377463D01*
X93440815Y-94456815D01*
X93361463Y-94553506D01*
X93302498Y-94663820D01*
X93281607Y-94732687D01*
X93257134Y-94702866D01*
X93031014Y-94517294D01*
X92773034Y-94379401D01*
X92493111Y-94294487D01*
X92274950Y-94273000D01*
X92129050Y-94273000D01*
X91910889Y-94294487D01*
X91630966Y-94379401D01*
X91372986Y-94517294D01*
X91146866Y-94702866D01*
X90961294Y-94928986D01*
X90823401Y-95186966D01*
X90738487Y-95466889D01*
X90709815Y-95758000D01*
X90195001Y-95758000D01*
X90195001Y-92432702D01*
X91769903Y-92432702D01*
X91841486Y-92676671D01*
X92096996Y-92797571D01*
X92371184Y-92866300D01*
X92653512Y-92880217D01*
X92933130Y-92838787D01*
X93199292Y-92743603D01*
X93324514Y-92676671D01*
X93396097Y-92432702D01*
X92583000Y-91619605D01*
X91769903Y-92432702D01*
X90195001Y-92432702D01*
X90195001Y-91510512D01*
X91142783Y-91510512D01*
X91184213Y-91790130D01*
X91279397Y-92056292D01*
X91346329Y-92181514D01*
X91590298Y-92253097D01*
X92403395Y-91440000D01*
X92762605Y-91440000D01*
X93575702Y-92253097D01*
X93819671Y-92181514D01*
X93940571Y-91926004D01*
X94009300Y-91651816D01*
X94023217Y-91369488D01*
X93981787Y-91089870D01*
X93886603Y-90823708D01*
X93819671Y-90698486D01*
X93575702Y-90626903D01*
X92762605Y-91440000D01*
X92403395Y-91440000D01*
X91590298Y-90626903D01*
X91346329Y-90698486D01*
X91225429Y-90953996D01*
X91156700Y-91228184D01*
X91142783Y-91510512D01*
X90195001Y-91510512D01*
X90195001Y-90447298D01*
X91769903Y-90447298D01*
X92583000Y-91260395D01*
X93396097Y-90447298D01*
X93324514Y-90203329D01*
X93069004Y-90082429D01*
X92794816Y-90013700D01*
X92512488Y-89999783D01*
X92232870Y-90041213D01*
X91966708Y-90136397D01*
X91841486Y-90203329D01*
X91769903Y-90447298D01*
X90195001Y-90447298D01*
X90195001Y-89384702D01*
X91769903Y-89384702D01*
X91841486Y-89628671D01*
X92096996Y-89749571D01*
X92371184Y-89818300D01*
X92653512Y-89832217D01*
X92933130Y-89790787D01*
X93199292Y-89695603D01*
X93324514Y-89628671D01*
X93396097Y-89384702D01*
X92583000Y-88571605D01*
X91769903Y-89384702D01*
X90195001Y-89384702D01*
X90195001Y-88462512D01*
X91142783Y-88462512D01*
X91184213Y-88742130D01*
X91279397Y-89008292D01*
X91346329Y-89133514D01*
X91590298Y-89205097D01*
X92403395Y-88392000D01*
X92762605Y-88392000D01*
X93575702Y-89205097D01*
X93819671Y-89133514D01*
X93940571Y-88878004D01*
X94009300Y-88603816D01*
X94023217Y-88321488D01*
X93981787Y-88041870D01*
X93886603Y-87775708D01*
X93819671Y-87650486D01*
X93575702Y-87578903D01*
X92762605Y-88392000D01*
X92403395Y-88392000D01*
X91590298Y-87578903D01*
X91346329Y-87650486D01*
X91225429Y-87905996D01*
X91156700Y-88180184D01*
X91142783Y-88462512D01*
X90195001Y-88462512D01*
X90195001Y-87399298D01*
X91769903Y-87399298D01*
X92583000Y-88212395D01*
X93396097Y-87399298D01*
X93324514Y-87155329D01*
X93069004Y-87034429D01*
X92794816Y-86965700D01*
X92512488Y-86951783D01*
X92232870Y-86993213D01*
X91966708Y-87088397D01*
X91841486Y-87155329D01*
X91769903Y-87399298D01*
X90195001Y-87399298D01*
X90195001Y-86336702D01*
X91769903Y-86336702D01*
X91841486Y-86580671D01*
X92096996Y-86701571D01*
X92371184Y-86770300D01*
X92653512Y-86784217D01*
X92933130Y-86742787D01*
X93199292Y-86647603D01*
X93324514Y-86580671D01*
X93396097Y-86336702D01*
X92583000Y-85523605D01*
X91769903Y-86336702D01*
X90195001Y-86336702D01*
X90195001Y-85414512D01*
X91142783Y-85414512D01*
X91184213Y-85694130D01*
X91279397Y-85960292D01*
X91346329Y-86085514D01*
X91590298Y-86157097D01*
X92403395Y-85344000D01*
X91590298Y-84530903D01*
X91346329Y-84602486D01*
X91225429Y-84857996D01*
X91156700Y-85132184D01*
X91142783Y-85414512D01*
X90195001Y-85414512D01*
X90195001Y-84351298D01*
X91769903Y-84351298D01*
X92583000Y-85164395D01*
X93396097Y-84351298D01*
X93324514Y-84107329D01*
X93069004Y-83986429D01*
X92794816Y-83917700D01*
X92512488Y-83903783D01*
X92232870Y-83945213D01*
X91966708Y-84040397D01*
X91841486Y-84107329D01*
X91769903Y-84351298D01*
X90195001Y-84351298D01*
X90195001Y-74271702D01*
X91769903Y-74271702D01*
X91841486Y-74515671D01*
X92096996Y-74636571D01*
X92371184Y-74705300D01*
X92653512Y-74719217D01*
X92933130Y-74677787D01*
X93199292Y-74582603D01*
X93324514Y-74515671D01*
X93396097Y-74271702D01*
X92583000Y-73458605D01*
X91769903Y-74271702D01*
X90195001Y-74271702D01*
X90195001Y-73349512D01*
X91142783Y-73349512D01*
X91184213Y-73629130D01*
X91279397Y-73895292D01*
X91346329Y-74020514D01*
X91590298Y-74092097D01*
X92403395Y-73279000D01*
X92762605Y-73279000D01*
X93575702Y-74092097D01*
X93819671Y-74020514D01*
X93940571Y-73765004D01*
X94009300Y-73490816D01*
X94023217Y-73208488D01*
X93981787Y-72928870D01*
X93886603Y-72662708D01*
X93819671Y-72537486D01*
X93575702Y-72465903D01*
X92762605Y-73279000D01*
X92403395Y-73279000D01*
X91590298Y-72465903D01*
X91346329Y-72537486D01*
X91225429Y-72792996D01*
X91156700Y-73067184D01*
X91142783Y-73349512D01*
X90195001Y-73349512D01*
X90195001Y-72286298D01*
X91769903Y-72286298D01*
X92583000Y-73099395D01*
X93396097Y-72286298D01*
X93324514Y-72042329D01*
X93069004Y-71921429D01*
X92794816Y-71852700D01*
X92512488Y-71838783D01*
X92232870Y-71880213D01*
X91966708Y-71975397D01*
X91841486Y-72042329D01*
X91769903Y-72286298D01*
X90195001Y-72286298D01*
X90194999Y-54000000D01*
X172695000Y-54000000D01*
X172695002Y-105536300D01*
X172695002Y-105536300D01*
G37*
X172695002Y-105536300D02*
X172647599Y-105624985D01*
X172604027Y-105768622D01*
X172601823Y-105791000D01*
X172149456Y-105791000D01*
X172121994Y-105768463D01*
X172011680Y-105709498D01*
X171891982Y-105673188D01*
X171827000Y-105666788D01*
X171827000Y-103810759D01*
X171997134Y-103671134D01*
X172182706Y-103445014D01*
X172320599Y-103187034D01*
X172405513Y-102907111D01*
X172434185Y-102616000D01*
X172405513Y-102324889D01*
X172320599Y-102044966D01*
X172182706Y-101786986D01*
X171997134Y-101560866D01*
X171771014Y-101375294D01*
X171513034Y-101237401D01*
X171233111Y-101152487D01*
X171014950Y-101131000D01*
X170963662Y-101131000D01*
X170973185Y-101123185D01*
X171052537Y-101026494D01*
X171111502Y-100916180D01*
X171147812Y-100796482D01*
X171160072Y-100672000D01*
X171160072Y-98972000D01*
X171147812Y-98847518D01*
X171111502Y-98727820D01*
X171052537Y-98617506D01*
X170973185Y-98520815D01*
X170876494Y-98441463D01*
X170766180Y-98382498D01*
X170646482Y-98346188D01*
X170522000Y-98333928D01*
X168822000Y-98333928D01*
X168697518Y-98346188D01*
X168577820Y-98382498D01*
X168467506Y-98441463D01*
X168370815Y-98520815D01*
X168291463Y-98617506D01*
X168232498Y-98727820D01*
X168211607Y-98796687D01*
X168187134Y-98766866D01*
X167961014Y-98581294D01*
X167703034Y-98443401D01*
X167423111Y-98358487D01*
X167204950Y-98337000D01*
X167059050Y-98337000D01*
X166840889Y-98358487D01*
X166560966Y-98443401D01*
X166527001Y-98461556D01*
X166527001Y-97478326D01*
X166530677Y-97441001D01*
X166527001Y-97403676D01*
X166527001Y-97403668D01*
X166516004Y-97292015D01*
X166501705Y-97244876D01*
X166846250Y-97243000D01*
X167005000Y-97084250D01*
X167005000Y-95885000D01*
X165805750Y-95885000D01*
X165647000Y-96043750D01*
X165645904Y-96245102D01*
X164308802Y-94908000D01*
X165643928Y-94908000D01*
X165647000Y-95472250D01*
X165805750Y-95631000D01*
X167005000Y-95631000D01*
X167005000Y-94431750D01*
X167259000Y-94431750D01*
X167259000Y-95631000D01*
X167279000Y-95631000D01*
X167279000Y-95885000D01*
X167259000Y-95885000D01*
X167259000Y-97084250D01*
X167417750Y-97243000D01*
X167982000Y-97246072D01*
X168106482Y-97233812D01*
X168226180Y-97197502D01*
X168336494Y-97138537D01*
X168433185Y-97059185D01*
X168512537Y-96962494D01*
X168571502Y-96852180D01*
X168592393Y-96783313D01*
X168616866Y-96813134D01*
X168842986Y-96998706D01*
X169100966Y-97136599D01*
X169380889Y-97221513D01*
X169599050Y-97243000D01*
X169744950Y-97243000D01*
X169963111Y-97221513D01*
X170243034Y-97136599D01*
X170501014Y-96998706D01*
X170727134Y-96813134D01*
X170912706Y-96587014D01*
X171050599Y-96329034D01*
X171135513Y-96049111D01*
X171164185Y-95758000D01*
X171135513Y-95466889D01*
X171050599Y-95186966D01*
X170912706Y-94928986D01*
X170727134Y-94702866D01*
X170501014Y-94517294D01*
X170243034Y-94379401D01*
X169963111Y-94294487D01*
X169744950Y-94273000D01*
X169599050Y-94273000D01*
X169380889Y-94294487D01*
X169100966Y-94379401D01*
X168842986Y-94517294D01*
X168616866Y-94702866D01*
X168592393Y-94732687D01*
X168571502Y-94663820D01*
X168512537Y-94553506D01*
X168433185Y-94456815D01*
X168336494Y-94377463D01*
X168226180Y-94318498D01*
X168106482Y-94282188D01*
X167982000Y-94269928D01*
X167417750Y-94273000D01*
X167259000Y-94431750D01*
X167005000Y-94431750D01*
X166846250Y-94273000D01*
X166282000Y-94269928D01*
X166157518Y-94282188D01*
X166037820Y-94318498D01*
X165927506Y-94377463D01*
X165830815Y-94456815D01*
X165751463Y-94553506D01*
X165692498Y-94663820D01*
X165656188Y-94783518D01*
X165643928Y-94908000D01*
X164308802Y-94908000D01*
X163067256Y-93666455D01*
X163114590Y-93619121D01*
X163227858Y-93449603D01*
X163305879Y-93261245D01*
X163345653Y-93061286D01*
X163345653Y-92857408D01*
X163305879Y-92657449D01*
X163227858Y-92469091D01*
X163114590Y-92299573D01*
X163070653Y-92255636D01*
X163070653Y-79431148D01*
X163607820Y-78893981D01*
X163590536Y-78935709D01*
X163449000Y-79647256D01*
X163449000Y-80372744D01*
X163590536Y-81084291D01*
X163868168Y-81754554D01*
X164271227Y-82357775D01*
X164784225Y-82870773D01*
X165387446Y-83273832D01*
X166057709Y-83551464D01*
X166769256Y-83693000D01*
X167494744Y-83693000D01*
X168206291Y-83551464D01*
X168876554Y-83273832D01*
X169479775Y-82870773D01*
X169992773Y-82357775D01*
X170395832Y-81754554D01*
X170673464Y-81084291D01*
X170815000Y-80372744D01*
X170815000Y-79647256D01*
X170673464Y-78935709D01*
X170395832Y-78265446D01*
X169992773Y-77662225D01*
X169479775Y-77149227D01*
X168876554Y-76746168D01*
X168206291Y-76468536D01*
X167494744Y-76327000D01*
X166769256Y-76327000D01*
X166057709Y-76468536D01*
X165611174Y-76653497D01*
X165587226Y-76533102D01*
X165509205Y-76344744D01*
X165395937Y-76175226D01*
X165251774Y-76031063D01*
X165082256Y-75917795D01*
X164893898Y-75839774D01*
X164693939Y-75800000D01*
X164490061Y-75800000D01*
X164290102Y-75839774D01*
X164101744Y-75917795D01*
X163932226Y-76031063D01*
X163788063Y-76175226D01*
X163674795Y-76344744D01*
X163596774Y-76533102D01*
X163557000Y-76733061D01*
X163557000Y-76795198D01*
X161799656Y-78552543D01*
X161770652Y-78576346D01*
X161722529Y-78634985D01*
X161675679Y-78692071D01*
X161659667Y-78722027D01*
X161605107Y-78824101D01*
X161561650Y-78967362D01*
X161550653Y-79079015D01*
X161550653Y-79079025D01*
X161546977Y-79116347D01*
X161550653Y-79153669D01*
X161550654Y-92149853D01*
X159567804Y-90167003D01*
X159544001Y-90137999D01*
X159428276Y-90043026D01*
X159296247Y-89972454D01*
X159152986Y-89928997D01*
X159041333Y-89918000D01*
X159041322Y-89918000D01*
X159004000Y-89914324D01*
X158966678Y-89918000D01*
X158700901Y-89918000D01*
X158678932Y-89876899D01*
X158499608Y-89658392D01*
X158281101Y-89479068D01*
X158031808Y-89345818D01*
X157761309Y-89263764D01*
X157550492Y-89243000D01*
X157409508Y-89243000D01*
X157198691Y-89263764D01*
X156928192Y-89345818D01*
X156678899Y-89479068D01*
X156460392Y-89658392D01*
X156281068Y-89876899D01*
X156210000Y-90009858D01*
X156138932Y-89876899D01*
X155959608Y-89658392D01*
X155741101Y-89479068D01*
X155491808Y-89345818D01*
X155221309Y-89263764D01*
X155010492Y-89243000D01*
X154869508Y-89243000D01*
X154658691Y-89263764D01*
X154430000Y-89333136D01*
X154430000Y-77022801D01*
X154614094Y-76838708D01*
X154658691Y-76852236D01*
X154869508Y-76873000D01*
X155010492Y-76873000D01*
X155221309Y-76852236D01*
X155491808Y-76770182D01*
X155741101Y-76636932D01*
X155959608Y-76457608D01*
X156138932Y-76239101D01*
X156212579Y-76101318D01*
X156327615Y-76293131D01*
X156516586Y-76501519D01*
X156742580Y-76669037D01*
X156996913Y-76789246D01*
X157130961Y-76829904D01*
X157353000Y-76707915D01*
X157353000Y-75565000D01*
X157607000Y-75565000D01*
X157607000Y-76707915D01*
X157829039Y-76829904D01*
X157963087Y-76789246D01*
X158217420Y-76669037D01*
X158443414Y-76501519D01*
X158632385Y-76293131D01*
X158777070Y-76051881D01*
X158871909Y-75787040D01*
X158750624Y-75565000D01*
X157607000Y-75565000D01*
X157353000Y-75565000D01*
X157333000Y-75565000D01*
X157333000Y-75311000D01*
X157353000Y-75311000D01*
X157353000Y-74168085D01*
X157607000Y-74168085D01*
X157607000Y-75311000D01*
X158750624Y-75311000D01*
X158871909Y-75088960D01*
X158777070Y-74824119D01*
X158632385Y-74582869D01*
X158443414Y-74374481D01*
X158217420Y-74206963D01*
X157963087Y-74086754D01*
X157829039Y-74046096D01*
X157607000Y-74168085D01*
X157353000Y-74168085D01*
X157130961Y-74046096D01*
X156996913Y-74086754D01*
X156742580Y-74206963D01*
X156516586Y-74374481D01*
X156327615Y-74582869D01*
X156212579Y-74774682D01*
X156138932Y-74636899D01*
X155959608Y-74418392D01*
X155741101Y-74239068D01*
X155491808Y-74105818D01*
X155221309Y-74023764D01*
X155010492Y-74003000D01*
X154869508Y-74003000D01*
X154658691Y-74023764D01*
X154388192Y-74105818D01*
X154138899Y-74239068D01*
X153920392Y-74418392D01*
X153741068Y-74636899D01*
X153670000Y-74769858D01*
X153598932Y-74636899D01*
X153419608Y-74418392D01*
X153201101Y-74239068D01*
X152951808Y-74105818D01*
X152681309Y-74023764D01*
X152470492Y-74003000D01*
X152329508Y-74003000D01*
X152118691Y-74023764D01*
X151848192Y-74105818D01*
X151598899Y-74239068D01*
X151380392Y-74418392D01*
X151201068Y-74636899D01*
X151130000Y-74769858D01*
X151058932Y-74636899D01*
X150879608Y-74418392D01*
X150661101Y-74239068D01*
X150411808Y-74105818D01*
X150141309Y-74023764D01*
X149930492Y-74003000D01*
X149789508Y-74003000D01*
X149578691Y-74023764D01*
X149308192Y-74105818D01*
X149058899Y-74239068D01*
X148840392Y-74418392D01*
X148661068Y-74636899D01*
X148590000Y-74769858D01*
X148518932Y-74636899D01*
X148339608Y-74418392D01*
X148121101Y-74239068D01*
X147871808Y-74105818D01*
X147601309Y-74023764D01*
X147390492Y-74003000D01*
X147249508Y-74003000D01*
X147038691Y-74023764D01*
X146768192Y-74105818D01*
X146518899Y-74239068D01*
X146300392Y-74418392D01*
X146121068Y-74636899D01*
X146050000Y-74769858D01*
X145978932Y-74636899D01*
X145799608Y-74418392D01*
X145581101Y-74239068D01*
X145331808Y-74105818D01*
X145061309Y-74023764D01*
X144850492Y-74003000D01*
X144709508Y-74003000D01*
X144498691Y-74023764D01*
X144454094Y-74037292D01*
X142607794Y-72190993D01*
X142583991Y-72161989D01*
X142468266Y-72067016D01*
X142336237Y-71996444D01*
X142192976Y-71952987D01*
X142081323Y-71941990D01*
X142081312Y-71941990D01*
X142043990Y-71938314D01*
X142006668Y-71941990D01*
X140083082Y-71941990D01*
X140100000Y-71856939D01*
X140100000Y-71653061D01*
X140060226Y-71453102D01*
X140030776Y-71382005D01*
X140966781Y-70446000D01*
X169326928Y-70446000D01*
X169339188Y-70570482D01*
X169375498Y-70690180D01*
X169434463Y-70800494D01*
X169513815Y-70897185D01*
X169610506Y-70976537D01*
X169720820Y-71035502D01*
X169840518Y-71071812D01*
X169965000Y-71084072D01*
X170529250Y-71081000D01*
X170688000Y-70922250D01*
X170688000Y-69723000D01*
X170942000Y-69723000D01*
X170942000Y-70922250D01*
X171100750Y-71081000D01*
X171665000Y-71084072D01*
X171789482Y-71071812D01*
X171909180Y-71035502D01*
X172019494Y-70976537D01*
X172116185Y-70897185D01*
X172195537Y-70800494D01*
X172254502Y-70690180D01*
X172290812Y-70570482D01*
X172303072Y-70446000D01*
X172300000Y-69881750D01*
X172141250Y-69723000D01*
X170942000Y-69723000D01*
X170688000Y-69723000D01*
X169488750Y-69723000D01*
X169330000Y-69881750D01*
X169326928Y-70446000D01*
X140966781Y-70446000D01*
X143057799Y-68354983D01*
X143057804Y-68354977D01*
X143240999Y-68171782D01*
X143270002Y-68147980D01*
X143364975Y-68032255D01*
X143435547Y-67900226D01*
X143479004Y-67756965D01*
X143490001Y-67645312D01*
X143490001Y-67645302D01*
X143493677Y-67607979D01*
X143490001Y-67570656D01*
X143490001Y-67444025D01*
X143593192Y-67499182D01*
X143863691Y-67581236D01*
X144074508Y-67602000D01*
X144215492Y-67602000D01*
X144426309Y-67581236D01*
X144696808Y-67499182D01*
X144946101Y-67365932D01*
X145164608Y-67186608D01*
X145343932Y-66968101D01*
X145415000Y-66835142D01*
X145486068Y-66968101D01*
X145665392Y-67186608D01*
X145883899Y-67365932D01*
X146133192Y-67499182D01*
X146403691Y-67581236D01*
X146614508Y-67602000D01*
X146755492Y-67602000D01*
X146966309Y-67581236D01*
X147236808Y-67499182D01*
X147486101Y-67365932D01*
X147704608Y-67186608D01*
X147883932Y-66968101D01*
X148017182Y-66718808D01*
X148099236Y-66448309D01*
X148126943Y-66167000D01*
X150577057Y-66167000D01*
X150604764Y-66448309D01*
X150686818Y-66718808D01*
X150820068Y-66968101D01*
X150999392Y-67186608D01*
X151217899Y-67365932D01*
X151467192Y-67499182D01*
X151737691Y-67581236D01*
X151948508Y-67602000D01*
X152089492Y-67602000D01*
X152300309Y-67581236D01*
X152570808Y-67499182D01*
X152820101Y-67365932D01*
X153038608Y-67186608D01*
X153217932Y-66968101D01*
X153289000Y-66835142D01*
X153360068Y-66968101D01*
X153539392Y-67186608D01*
X153757899Y-67365932D01*
X154007192Y-67499182D01*
X154277691Y-67581236D01*
X154488508Y-67602000D01*
X154629492Y-67602000D01*
X154840309Y-67581236D01*
X155110808Y-67499182D01*
X155360101Y-67365932D01*
X155578608Y-67186608D01*
X155757932Y-66968101D01*
X155829000Y-66835142D01*
X155900068Y-66968101D01*
X156079392Y-67186608D01*
X156297899Y-67365932D01*
X156547192Y-67499182D01*
X156817691Y-67581236D01*
X157028508Y-67602000D01*
X157169492Y-67602000D01*
X157380309Y-67581236D01*
X157650808Y-67499182D01*
X157900101Y-67365932D01*
X158118608Y-67186608D01*
X158297932Y-66968101D01*
X158369000Y-66835142D01*
X158440068Y-66968101D01*
X158619392Y-67186608D01*
X158837899Y-67365932D01*
X159087192Y-67499182D01*
X159357691Y-67581236D01*
X159568508Y-67602000D01*
X159709492Y-67602000D01*
X159920309Y-67581236D01*
X160190808Y-67499182D01*
X160440101Y-67365932D01*
X160658608Y-67186608D01*
X160837932Y-66968101D01*
X160909000Y-66835142D01*
X160980068Y-66968101D01*
X161159392Y-67186608D01*
X161377899Y-67365932D01*
X161627192Y-67499182D01*
X161897691Y-67581236D01*
X162108508Y-67602000D01*
X162249492Y-67602000D01*
X162460309Y-67581236D01*
X162730808Y-67499182D01*
X162980101Y-67365932D01*
X163198608Y-67186608D01*
X163377932Y-66968101D01*
X163449000Y-66835142D01*
X163520068Y-66968101D01*
X163699392Y-67186608D01*
X163917899Y-67365932D01*
X164167192Y-67499182D01*
X164437691Y-67581236D01*
X164648508Y-67602000D01*
X164789492Y-67602000D01*
X165000309Y-67581236D01*
X165270808Y-67499182D01*
X165520101Y-67365932D01*
X165738608Y-67186608D01*
X165917932Y-66968101D01*
X165991579Y-66830318D01*
X166106615Y-67022131D01*
X166295586Y-67230519D01*
X166521580Y-67398037D01*
X166775913Y-67518246D01*
X166909961Y-67558904D01*
X167132000Y-67436915D01*
X167132000Y-66294000D01*
X167386000Y-66294000D01*
X167386000Y-67436915D01*
X167608039Y-67558904D01*
X167742087Y-67518246D01*
X167996420Y-67398037D01*
X168222414Y-67230519D01*
X168411385Y-67022131D01*
X168556070Y-66780881D01*
X168650909Y-66516040D01*
X168529624Y-66294000D01*
X167386000Y-66294000D01*
X167132000Y-66294000D01*
X167112000Y-66294000D01*
X167112000Y-66040000D01*
X167132000Y-66040000D01*
X167132000Y-64897085D01*
X167386000Y-64897085D01*
X167386000Y-66040000D01*
X168529624Y-66040000D01*
X168650909Y-65817960D01*
X168556070Y-65553119D01*
X168411385Y-65311869D01*
X168222414Y-65103481D01*
X167996420Y-64935963D01*
X167742087Y-64815754D01*
X167608039Y-64775096D01*
X167386000Y-64897085D01*
X167132000Y-64897085D01*
X166909961Y-64775096D01*
X166775913Y-64815754D01*
X166521580Y-64935963D01*
X166295586Y-65103481D01*
X166106615Y-65311869D01*
X165991579Y-65503682D01*
X165917932Y-65365899D01*
X165738608Y-65147392D01*
X165520101Y-64968068D01*
X165270808Y-64834818D01*
X165000309Y-64752764D01*
X164789492Y-64732000D01*
X164648508Y-64732000D01*
X164437691Y-64752764D01*
X164167192Y-64834818D01*
X163917899Y-64968068D01*
X163699392Y-65147392D01*
X163520068Y-65365899D01*
X163449000Y-65498858D01*
X163377932Y-65365899D01*
X163198608Y-65147392D01*
X162980101Y-64968068D01*
X162730808Y-64834818D01*
X162460309Y-64752764D01*
X162249492Y-64732000D01*
X162108508Y-64732000D01*
X161897691Y-64752764D01*
X161627192Y-64834818D01*
X161377899Y-64968068D01*
X161159392Y-65147392D01*
X160980068Y-65365899D01*
X160909000Y-65498858D01*
X160837932Y-65365899D01*
X160658608Y-65147392D01*
X160440101Y-64968068D01*
X160190808Y-64834818D01*
X159920309Y-64752764D01*
X159709492Y-64732000D01*
X159568508Y-64732000D01*
X159357691Y-64752764D01*
X159087192Y-64834818D01*
X158837899Y-64968068D01*
X158619392Y-65147392D01*
X158440068Y-65365899D01*
X158369000Y-65498858D01*
X158297932Y-65365899D01*
X158118608Y-65147392D01*
X157900101Y-64968068D01*
X157650808Y-64834818D01*
X157380309Y-64752764D01*
X157169492Y-64732000D01*
X157028508Y-64732000D01*
X156817691Y-64752764D01*
X156547192Y-64834818D01*
X156297899Y-64968068D01*
X156079392Y-65147392D01*
X155900068Y-65365899D01*
X155829000Y-65498858D01*
X155757932Y-65365899D01*
X155578608Y-65147392D01*
X155360101Y-64968068D01*
X155110808Y-64834818D01*
X154840309Y-64752764D01*
X154629492Y-64732000D01*
X154488508Y-64732000D01*
X154277691Y-64752764D01*
X154007192Y-64834818D01*
X153757899Y-64968068D01*
X153539392Y-65147392D01*
X153360068Y-65365899D01*
X153289000Y-65498858D01*
X153217932Y-65365899D01*
X153038608Y-65147392D01*
X152820101Y-64968068D01*
X152570808Y-64834818D01*
X152300309Y-64752764D01*
X152089492Y-64732000D01*
X151948508Y-64732000D01*
X151737691Y-64752764D01*
X151467192Y-64834818D01*
X151217899Y-64968068D01*
X150999392Y-65147392D01*
X150820068Y-65365899D01*
X150686818Y-65615192D01*
X150604764Y-65885691D01*
X150577057Y-66167000D01*
X148126943Y-66167000D01*
X148099236Y-65885691D01*
X148017182Y-65615192D01*
X147883932Y-65365899D01*
X147704608Y-65147392D01*
X147486101Y-64968068D01*
X147236808Y-64834818D01*
X146966309Y-64752764D01*
X146755492Y-64732000D01*
X146614508Y-64732000D01*
X146403691Y-64752764D01*
X146133192Y-64834818D01*
X145883899Y-64968068D01*
X145665392Y-65147392D01*
X145486068Y-65365899D01*
X145415000Y-65498858D01*
X145343932Y-65365899D01*
X145164608Y-65147392D01*
X144946101Y-64968068D01*
X144937583Y-64963515D01*
X145013226Y-64780898D01*
X145053000Y-64580939D01*
X145053000Y-64514000D01*
X156172667Y-64514000D01*
X156210000Y-64517677D01*
X156247333Y-64514000D01*
X156358986Y-64503003D01*
X156502247Y-64459546D01*
X156634276Y-64388974D01*
X156750001Y-64294001D01*
X156844974Y-64178276D01*
X156915546Y-64046247D01*
X156959003Y-63902986D01*
X156973677Y-63754000D01*
X156970000Y-63716667D01*
X156970000Y-62417801D01*
X158753004Y-60634798D01*
X158782001Y-60611001D01*
X158830742Y-60551610D01*
X158876974Y-60495277D01*
X158947546Y-60363247D01*
X158972275Y-60281724D01*
X158991003Y-60219986D01*
X159002000Y-60108333D01*
X159002000Y-60108323D01*
X159005676Y-60071000D01*
X159002000Y-60033677D01*
X159002000Y-59825500D01*
X159155913Y-59898246D01*
X159289961Y-59938904D01*
X159512000Y-59816915D01*
X159512000Y-58674000D01*
X159492000Y-58674000D01*
X159492000Y-58420000D01*
X159512000Y-58420000D01*
X159512000Y-58400000D01*
X159766000Y-58400000D01*
X159766000Y-58420000D01*
X159786000Y-58420000D01*
X159786000Y-58674000D01*
X159766000Y-58674000D01*
X159766000Y-59816915D01*
X159988039Y-59938904D01*
X160122087Y-59898246D01*
X160376420Y-59778037D01*
X160602414Y-59610519D01*
X160791385Y-59402131D01*
X160906421Y-59210318D01*
X160980068Y-59348101D01*
X161159392Y-59566608D01*
X161377899Y-59745932D01*
X161627192Y-59879182D01*
X161897691Y-59961236D01*
X162108508Y-59982000D01*
X162249492Y-59982000D01*
X162460309Y-59961236D01*
X162730808Y-59879182D01*
X162980101Y-59745932D01*
X163198608Y-59566608D01*
X163377932Y-59348101D01*
X163449000Y-59215142D01*
X163520068Y-59348101D01*
X163699392Y-59566608D01*
X163917899Y-59745932D01*
X164167192Y-59879182D01*
X164437691Y-59961236D01*
X164648508Y-59982000D01*
X164789492Y-59982000D01*
X165000309Y-59961236D01*
X165270808Y-59879182D01*
X165520101Y-59745932D01*
X165738608Y-59566608D01*
X165831419Y-59453518D01*
X165833188Y-59471482D01*
X165869498Y-59591180D01*
X165928463Y-59701494D01*
X166007815Y-59798185D01*
X166104506Y-59877537D01*
X166214820Y-59936502D01*
X166334518Y-59972812D01*
X166459000Y-59985072D01*
X168059000Y-59985072D01*
X168183482Y-59972812D01*
X168303180Y-59936502D01*
X168413494Y-59877537D01*
X168510185Y-59798185D01*
X168589537Y-59701494D01*
X168648502Y-59591180D01*
X168684812Y-59471482D01*
X168697072Y-59347000D01*
X168697072Y-58646874D01*
X170055001Y-60004803D01*
X170055000Y-65778405D01*
X169985986Y-65815294D01*
X169759866Y-66000866D01*
X169574294Y-66226986D01*
X169436401Y-66484966D01*
X169351487Y-66764889D01*
X169322815Y-67056000D01*
X169351487Y-67347111D01*
X169436401Y-67627034D01*
X169574294Y-67885014D01*
X169759866Y-68111134D01*
X169789687Y-68135607D01*
X169720820Y-68156498D01*
X169610506Y-68215463D01*
X169513815Y-68294815D01*
X169434463Y-68391506D01*
X169375498Y-68501820D01*
X169339188Y-68621518D01*
X169326928Y-68746000D01*
X169330000Y-69310250D01*
X169488750Y-69469000D01*
X170688000Y-69469000D01*
X170688000Y-69449000D01*
X170942000Y-69449000D01*
X170942000Y-69469000D01*
X172141250Y-69469000D01*
X172300000Y-69310250D01*
X172303072Y-68746000D01*
X172290812Y-68621518D01*
X172254502Y-68501820D01*
X172195537Y-68391506D01*
X172116185Y-68294815D01*
X172019494Y-68215463D01*
X171909180Y-68156498D01*
X171840313Y-68135607D01*
X171870134Y-68111134D01*
X172055706Y-67885014D01*
X172193599Y-67627034D01*
X172278513Y-67347111D01*
X172307185Y-67056000D01*
X172278513Y-66764889D01*
X172193599Y-66484966D01*
X172055706Y-66226986D01*
X171870134Y-66000866D01*
X171644014Y-65815294D01*
X171575000Y-65778405D01*
X171575000Y-59727322D01*
X171578676Y-59689999D01*
X171575000Y-59652676D01*
X171575000Y-59652667D01*
X171564003Y-59541014D01*
X171520546Y-59397753D01*
X171449974Y-59265724D01*
X171355001Y-59149999D01*
X171326003Y-59126201D01*
X167949804Y-55750003D01*
X167926001Y-55720999D01*
X167810276Y-55626026D01*
X167678247Y-55555454D01*
X167534986Y-55511997D01*
X167423333Y-55501000D01*
X167423322Y-55501000D01*
X167386000Y-55497324D01*
X167348678Y-55501000D01*
X154342322Y-55501000D01*
X154304999Y-55497324D01*
X154267676Y-55501000D01*
X154267667Y-55501000D01*
X154156014Y-55511997D01*
X154012753Y-55555454D01*
X153880724Y-55626026D01*
X153764999Y-55720999D01*
X153741201Y-55749997D01*
X152344906Y-57146292D01*
X152300309Y-57132764D01*
X152089492Y-57112000D01*
X151948508Y-57112000D01*
X151737691Y-57132764D01*
X151467192Y-57214818D01*
X151217899Y-57348068D01*
X150999392Y-57527392D01*
X150820068Y-57745899D01*
X150798099Y-57787000D01*
X148664804Y-57787000D01*
X147135806Y-56258003D01*
X147112003Y-56228999D01*
X146996278Y-56134026D01*
X146864249Y-56063454D01*
X146720988Y-56019997D01*
X146609335Y-56009000D01*
X146609324Y-56009000D01*
X146572002Y-56005324D01*
X146534680Y-56009000D01*
X105224711Y-56009000D01*
X105180774Y-55965063D01*
X105011256Y-55851795D01*
X104822898Y-55773774D01*
X104622939Y-55734000D01*
X104419061Y-55734000D01*
X104219102Y-55773774D01*
X104030744Y-55851795D01*
X103861226Y-55965063D01*
X103717063Y-56109226D01*
X103603795Y-56278744D01*
X103525774Y-56467102D01*
X103486000Y-56667061D01*
X103486000Y-56870939D01*
X103525774Y-57070898D01*
X103595126Y-57238326D01*
X102886801Y-56530002D01*
X102862998Y-56500998D01*
X102747273Y-56406025D01*
X102615244Y-56335453D01*
X102471983Y-56291996D01*
X102360330Y-56280999D01*
X102360319Y-56280999D01*
X102322997Y-56277323D01*
X102285675Y-56280999D01*
X100208322Y-56280999D01*
X100170999Y-56277323D01*
X100133676Y-56280999D01*
X100133666Y-56280999D01*
X100022013Y-56291996D01*
X99878752Y-56335453D01*
X99746722Y-56406025D01*
X99672300Y-56467102D01*
X99630998Y-56500998D01*
X99607199Y-56529997D01*
X99074997Y-57062200D01*
X99045999Y-57085998D01*
X99022201Y-57114996D01*
X99022200Y-57114997D01*
X98951025Y-57201723D01*
X98880453Y-57333753D01*
X98862631Y-57392506D01*
X98836997Y-57477013D01*
X98827417Y-57574276D01*
X98822323Y-57625999D01*
X98826000Y-57663331D01*
X98825999Y-58339789D01*
X97177978Y-59987811D01*
X97148980Y-60011609D01*
X97125182Y-60040607D01*
X97125181Y-60040608D01*
X97054006Y-60127334D01*
X96983434Y-60259364D01*
X96963533Y-60324973D01*
X96939978Y-60402624D01*
X96930852Y-60495277D01*
X96925304Y-60551610D01*
X96928981Y-60588942D01*
X96928979Y-65280000D01*
X94791171Y-65280000D01*
X94786174Y-65275003D01*
X94762371Y-65245999D01*
X94646646Y-65151026D01*
X94514617Y-65080454D01*
X94371356Y-65036997D01*
X94314802Y-65031427D01*
X94289932Y-64984899D01*
X94110608Y-64766392D01*
X93892101Y-64587068D01*
X93759142Y-64516000D01*
X93892101Y-64444932D01*
X94110608Y-64265608D01*
X94289932Y-64047101D01*
X94423182Y-63797808D01*
X94505236Y-63527309D01*
X94532943Y-63246000D01*
X94505236Y-62964691D01*
X94423182Y-62694192D01*
X94289932Y-62444899D01*
X94110608Y-62226392D01*
X93892101Y-62047068D01*
X93759142Y-61976000D01*
X93892101Y-61904932D01*
X94110608Y-61725608D01*
X94289932Y-61507101D01*
X94423182Y-61257808D01*
X94505236Y-60987309D01*
X94532943Y-60706000D01*
X94505236Y-60424691D01*
X94423182Y-60154192D01*
X94289932Y-59904899D01*
X94110608Y-59686392D01*
X93997518Y-59593581D01*
X94015482Y-59591812D01*
X94135180Y-59555502D01*
X94245494Y-59496537D01*
X94342185Y-59417185D01*
X94421537Y-59320494D01*
X94480502Y-59210180D01*
X94516812Y-59090482D01*
X94529072Y-58966000D01*
X94529072Y-57366000D01*
X94516812Y-57241518D01*
X94480502Y-57121820D01*
X94421537Y-57011506D01*
X94342185Y-56914815D01*
X94245494Y-56835463D01*
X94135180Y-56776498D01*
X94015482Y-56740188D01*
X93891000Y-56727928D01*
X92291000Y-56727928D01*
X92166518Y-56740188D01*
X92046820Y-56776498D01*
X91936506Y-56835463D01*
X91839815Y-56914815D01*
X91760463Y-57011506D01*
X91701498Y-57121820D01*
X91665188Y-57241518D01*
X91652928Y-57366000D01*
X91652928Y-58966000D01*
X91665188Y-59090482D01*
X91701498Y-59210180D01*
X91760463Y-59320494D01*
X91839815Y-59417185D01*
X91936506Y-59496537D01*
X92046820Y-59555502D01*
X92166518Y-59591812D01*
X92184482Y-59593581D01*
X92071392Y-59686392D01*
X91892068Y-59904899D01*
X91758818Y-60154192D01*
X91676764Y-60424691D01*
X91649057Y-60706000D01*
X91676764Y-60987309D01*
X91758818Y-61257808D01*
X91892068Y-61507101D01*
X92071392Y-61725608D01*
X92289899Y-61904932D01*
X92422858Y-61976000D01*
X92289899Y-62047068D01*
X92071392Y-62226392D01*
X91892068Y-62444899D01*
X91758818Y-62694192D01*
X91676764Y-62964691D01*
X91649057Y-63246000D01*
X91676764Y-63527309D01*
X91758818Y-63797808D01*
X91892068Y-64047101D01*
X92071392Y-64265608D01*
X92289899Y-64444932D01*
X92422858Y-64516000D01*
X92289899Y-64587068D01*
X92071392Y-64766392D01*
X91892068Y-64984899D01*
X91758818Y-65234192D01*
X91676764Y-65504691D01*
X91649057Y-65786000D01*
X91676764Y-66067309D01*
X91758818Y-66337808D01*
X91892068Y-66587101D01*
X92071392Y-66805608D01*
X92289899Y-66984932D01*
X92539192Y-67118182D01*
X92809691Y-67200236D01*
X93020508Y-67221000D01*
X93161492Y-67221000D01*
X93372309Y-67200236D01*
X93642808Y-67118182D01*
X93892101Y-66984932D01*
X94110608Y-66805608D01*
X94167286Y-66736546D01*
X94184123Y-66745546D01*
X94327384Y-66789003D01*
X94439037Y-66800000D01*
X94439046Y-66800000D01*
X94476369Y-66803676D01*
X94513692Y-66800000D01*
X97244678Y-66800000D01*
X97282000Y-66803676D01*
X97319322Y-66800000D01*
X97319333Y-66800000D01*
X97378990Y-66794124D01*
X97378989Y-74520209D01*
X93905997Y-77993202D01*
X93876999Y-78017000D01*
X93853201Y-78045998D01*
X93853200Y-78045999D01*
X93782025Y-78132725D01*
X93711453Y-78264755D01*
X93689534Y-78337015D01*
X93671264Y-78397247D01*
X93667997Y-78408016D01*
X93653323Y-78557001D01*
X93657000Y-78594333D01*
X93656999Y-84233678D01*
X93653323Y-84271001D01*
X93656999Y-84308323D01*
X93656999Y-84308333D01*
X93667996Y-84419986D01*
X93696206Y-84512983D01*
X93711453Y-84563247D01*
X93716199Y-84572126D01*
X93575702Y-84530903D01*
X92762605Y-85344000D01*
X93575702Y-86157097D01*
X93819671Y-86085514D01*
X93940571Y-85830004D01*
X94009300Y-85555816D01*
X94023217Y-85273488D01*
X93981787Y-84993870D01*
X93935425Y-84864228D01*
X99352667Y-90281471D01*
X99183392Y-90420392D01*
X99004068Y-90638899D01*
X98870818Y-90888192D01*
X98788764Y-91158691D01*
X98761057Y-91440000D01*
X98788764Y-91721309D01*
X98870818Y-91991808D01*
X99004068Y-92241101D01*
X99183392Y-92459608D01*
X99401899Y-92638932D01*
X99651192Y-92772182D01*
X99921691Y-92854236D01*
X100132508Y-92875000D01*
X100273492Y-92875000D01*
X100484309Y-92854236D01*
X100528906Y-92840708D01*
X101623035Y-93934837D01*
X101606997Y-93947999D01*
X101583199Y-93976997D01*
X96916749Y-98643448D01*
X96841014Y-98581294D01*
X96583034Y-98443401D01*
X96303111Y-98358487D01*
X96084950Y-98337000D01*
X95939050Y-98337000D01*
X95720889Y-98358487D01*
X95440966Y-98443401D01*
X95182986Y-98581294D01*
X94956866Y-98766866D01*
X94771294Y-98992986D01*
X94742000Y-99047791D01*
X94712706Y-98992986D01*
X94527134Y-98766866D01*
X94301014Y-98581294D01*
X94043034Y-98443401D01*
X93763111Y-98358487D01*
X93544950Y-98337000D01*
X93399050Y-98337000D01*
X93180889Y-98358487D01*
X92900966Y-98443401D01*
X92642986Y-98581294D01*
X92416866Y-98766866D01*
X92231294Y-98992986D01*
X92202000Y-99047791D01*
X92172706Y-98992986D01*
X91987134Y-98766866D01*
X91761014Y-98581294D01*
X91503034Y-98443401D01*
X91223111Y-98358487D01*
X91004950Y-98337000D01*
X90859050Y-98337000D01*
X90640889Y-98358487D01*
X90360966Y-98443401D01*
X90195001Y-98532111D01*
X90195001Y-95758000D01*
X90709815Y-95758000D01*
X90738487Y-96049111D01*
X90823401Y-96329034D01*
X90961294Y-96587014D01*
X91146866Y-96813134D01*
X91372986Y-96998706D01*
X91630966Y-97136599D01*
X91910889Y-97221513D01*
X92129050Y-97243000D01*
X92274950Y-97243000D01*
X92493111Y-97221513D01*
X92773034Y-97136599D01*
X93031014Y-96998706D01*
X93257134Y-96813134D01*
X93281607Y-96783313D01*
X93302498Y-96852180D01*
X93361463Y-96962494D01*
X93440815Y-97059185D01*
X93537506Y-97138537D01*
X93647820Y-97197502D01*
X93767518Y-97233812D01*
X93892000Y-97246072D01*
X94456250Y-97243000D01*
X94615000Y-97084250D01*
X94615000Y-95885000D01*
X94869000Y-95885000D01*
X94869000Y-97084250D01*
X95027750Y-97243000D01*
X95592000Y-97246072D01*
X95716482Y-97233812D01*
X95836180Y-97197502D01*
X95946494Y-97138537D01*
X96043185Y-97059185D01*
X96122537Y-96962494D01*
X96181502Y-96852180D01*
X96217812Y-96732482D01*
X96230072Y-96608000D01*
X96227000Y-96043750D01*
X96068250Y-95885000D01*
X94869000Y-95885000D01*
X94615000Y-95885000D01*
X94595000Y-95885000D01*
X94595000Y-95631000D01*
X94615000Y-95631000D01*
X94615000Y-94431750D01*
X94869000Y-94431750D01*
X94869000Y-95631000D01*
X96068250Y-95631000D01*
X96227000Y-95472250D01*
X96230072Y-94908000D01*
X96217812Y-94783518D01*
X96181502Y-94663820D01*
X96122537Y-94553506D01*
X96043185Y-94456815D01*
X95946494Y-94377463D01*
X95836180Y-94318498D01*
X95716482Y-94282188D01*
X95592000Y-94269928D01*
X95027750Y-94273000D01*
X94869000Y-94431750D01*
X94615000Y-94431750D01*
X94456250Y-94273000D01*
X93892000Y-94269928D01*
X93767518Y-94282188D01*
X93647820Y-94318498D01*
X93537506Y-94377463D01*
X93440815Y-94456815D01*
X93361463Y-94553506D01*
X93302498Y-94663820D01*
X93281607Y-94732687D01*
X93257134Y-94702866D01*
X93031014Y-94517294D01*
X92773034Y-94379401D01*
X92493111Y-94294487D01*
X92274950Y-94273000D01*
X92129050Y-94273000D01*
X91910889Y-94294487D01*
X91630966Y-94379401D01*
X91372986Y-94517294D01*
X91146866Y-94702866D01*
X90961294Y-94928986D01*
X90823401Y-95186966D01*
X90738487Y-95466889D01*
X90709815Y-95758000D01*
X90195001Y-95758000D01*
X90195001Y-92432702D01*
X91769903Y-92432702D01*
X91841486Y-92676671D01*
X92096996Y-92797571D01*
X92371184Y-92866300D01*
X92653512Y-92880217D01*
X92933130Y-92838787D01*
X93199292Y-92743603D01*
X93324514Y-92676671D01*
X93396097Y-92432702D01*
X92583000Y-91619605D01*
X91769903Y-92432702D01*
X90195001Y-92432702D01*
X90195001Y-91510512D01*
X91142783Y-91510512D01*
X91184213Y-91790130D01*
X91279397Y-92056292D01*
X91346329Y-92181514D01*
X91590298Y-92253097D01*
X92403395Y-91440000D01*
X92762605Y-91440000D01*
X93575702Y-92253097D01*
X93819671Y-92181514D01*
X93940571Y-91926004D01*
X94009300Y-91651816D01*
X94023217Y-91369488D01*
X93981787Y-91089870D01*
X93886603Y-90823708D01*
X93819671Y-90698486D01*
X93575702Y-90626903D01*
X92762605Y-91440000D01*
X92403395Y-91440000D01*
X91590298Y-90626903D01*
X91346329Y-90698486D01*
X91225429Y-90953996D01*
X91156700Y-91228184D01*
X91142783Y-91510512D01*
X90195001Y-91510512D01*
X90195001Y-90447298D01*
X91769903Y-90447298D01*
X92583000Y-91260395D01*
X93396097Y-90447298D01*
X93324514Y-90203329D01*
X93069004Y-90082429D01*
X92794816Y-90013700D01*
X92512488Y-89999783D01*
X92232870Y-90041213D01*
X91966708Y-90136397D01*
X91841486Y-90203329D01*
X91769903Y-90447298D01*
X90195001Y-90447298D01*
X90195001Y-89384702D01*
X91769903Y-89384702D01*
X91841486Y-89628671D01*
X92096996Y-89749571D01*
X92371184Y-89818300D01*
X92653512Y-89832217D01*
X92933130Y-89790787D01*
X93199292Y-89695603D01*
X93324514Y-89628671D01*
X93396097Y-89384702D01*
X92583000Y-88571605D01*
X91769903Y-89384702D01*
X90195001Y-89384702D01*
X90195001Y-88462512D01*
X91142783Y-88462512D01*
X91184213Y-88742130D01*
X91279397Y-89008292D01*
X91346329Y-89133514D01*
X91590298Y-89205097D01*
X92403395Y-88392000D01*
X92762605Y-88392000D01*
X93575702Y-89205097D01*
X93819671Y-89133514D01*
X93940571Y-88878004D01*
X94009300Y-88603816D01*
X94023217Y-88321488D01*
X93981787Y-88041870D01*
X93886603Y-87775708D01*
X93819671Y-87650486D01*
X93575702Y-87578903D01*
X92762605Y-88392000D01*
X92403395Y-88392000D01*
X91590298Y-87578903D01*
X91346329Y-87650486D01*
X91225429Y-87905996D01*
X91156700Y-88180184D01*
X91142783Y-88462512D01*
X90195001Y-88462512D01*
X90195001Y-87399298D01*
X91769903Y-87399298D01*
X92583000Y-88212395D01*
X93396097Y-87399298D01*
X93324514Y-87155329D01*
X93069004Y-87034429D01*
X92794816Y-86965700D01*
X92512488Y-86951783D01*
X92232870Y-86993213D01*
X91966708Y-87088397D01*
X91841486Y-87155329D01*
X91769903Y-87399298D01*
X90195001Y-87399298D01*
X90195001Y-86336702D01*
X91769903Y-86336702D01*
X91841486Y-86580671D01*
X92096996Y-86701571D01*
X92371184Y-86770300D01*
X92653512Y-86784217D01*
X92933130Y-86742787D01*
X93199292Y-86647603D01*
X93324514Y-86580671D01*
X93396097Y-86336702D01*
X92583000Y-85523605D01*
X91769903Y-86336702D01*
X90195001Y-86336702D01*
X90195001Y-85414512D01*
X91142783Y-85414512D01*
X91184213Y-85694130D01*
X91279397Y-85960292D01*
X91346329Y-86085514D01*
X91590298Y-86157097D01*
X92403395Y-85344000D01*
X91590298Y-84530903D01*
X91346329Y-84602486D01*
X91225429Y-84857996D01*
X91156700Y-85132184D01*
X91142783Y-85414512D01*
X90195001Y-85414512D01*
X90195001Y-84351298D01*
X91769903Y-84351298D01*
X92583000Y-85164395D01*
X93396097Y-84351298D01*
X93324514Y-84107329D01*
X93069004Y-83986429D01*
X92794816Y-83917700D01*
X92512488Y-83903783D01*
X92232870Y-83945213D01*
X91966708Y-84040397D01*
X91841486Y-84107329D01*
X91769903Y-84351298D01*
X90195001Y-84351298D01*
X90195001Y-74271702D01*
X91769903Y-74271702D01*
X91841486Y-74515671D01*
X92096996Y-74636571D01*
X92371184Y-74705300D01*
X92653512Y-74719217D01*
X92933130Y-74677787D01*
X93199292Y-74582603D01*
X93324514Y-74515671D01*
X93396097Y-74271702D01*
X92583000Y-73458605D01*
X91769903Y-74271702D01*
X90195001Y-74271702D01*
X90195001Y-73349512D01*
X91142783Y-73349512D01*
X91184213Y-73629130D01*
X91279397Y-73895292D01*
X91346329Y-74020514D01*
X91590298Y-74092097D01*
X92403395Y-73279000D01*
X92762605Y-73279000D01*
X93575702Y-74092097D01*
X93819671Y-74020514D01*
X93940571Y-73765004D01*
X94009300Y-73490816D01*
X94023217Y-73208488D01*
X93981787Y-72928870D01*
X93886603Y-72662708D01*
X93819671Y-72537486D01*
X93575702Y-72465903D01*
X92762605Y-73279000D01*
X92403395Y-73279000D01*
X91590298Y-72465903D01*
X91346329Y-72537486D01*
X91225429Y-72792996D01*
X91156700Y-73067184D01*
X91142783Y-73349512D01*
X90195001Y-73349512D01*
X90195001Y-72286298D01*
X91769903Y-72286298D01*
X92583000Y-73099395D01*
X93396097Y-72286298D01*
X93324514Y-72042329D01*
X93069004Y-71921429D01*
X92794816Y-71852700D01*
X92512488Y-71838783D01*
X92232870Y-71880213D01*
X91966708Y-71975397D01*
X91841486Y-72042329D01*
X91769903Y-72286298D01*
X90195001Y-72286298D01*
X90194999Y-54000000D01*
X172695000Y-54000000D01*
X172695002Y-105536300D01*
G36*
X168529000Y-102489000D02*
G01*
X168549000Y-102489000D01*
X168549000Y-102743000D01*
X168529000Y-102743000D01*
X168529000Y-103936155D01*
X168758890Y-104057476D01*
X168906099Y-104012825D01*
X169168920Y-103887641D01*
X169402269Y-103713588D01*
X169597178Y-103497355D01*
X169666799Y-103380477D01*
X169701294Y-103445014D01*
X169886866Y-103671134D01*
X170057000Y-103810760D01*
X170057000Y-105660928D01*
X169862500Y-105660928D01*
X169738018Y-105673188D01*
X169618320Y-105709498D01*
X169545000Y-105748689D01*
X169471680Y-105709498D01*
X169351982Y-105673188D01*
X169227500Y-105660928D01*
X168560750Y-105664000D01*
X168433750Y-105791000D01*
X168116250Y-105791000D01*
X167989250Y-105664000D01*
X167322500Y-105660928D01*
X167198018Y-105673188D01*
X167078320Y-105709498D01*
X167005000Y-105748689D01*
X166931680Y-105709498D01*
X166811982Y-105673188D01*
X166687500Y-105660928D01*
X166622000Y-105660928D01*
X166622000Y-103893595D01*
X166691014Y-103856706D01*
X166917134Y-103671134D01*
X167102706Y-103445014D01*
X167137201Y-103380477D01*
X167206822Y-103497355D01*
X167401731Y-103713588D01*
X167635080Y-103887641D01*
X167897901Y-104012825D01*
X168045110Y-104057476D01*
X168275000Y-103936155D01*
X168275000Y-102743000D01*
X168255000Y-102743000D01*
X168255000Y-102489000D01*
X168275000Y-102489000D01*
X168275000Y-102469000D01*
X168529000Y-102469000D01*
X168529000Y-102489000D01*
X168529000Y-102489000D01*
G37*
X168529000Y-102489000D02*
X168549000Y-102489000D01*
X168549000Y-102743000D01*
X168529000Y-102743000D01*
X168529000Y-103936155D01*
X168758890Y-104057476D01*
X168906099Y-104012825D01*
X169168920Y-103887641D01*
X169402269Y-103713588D01*
X169597178Y-103497355D01*
X169666799Y-103380477D01*
X169701294Y-103445014D01*
X169886866Y-103671134D01*
X170057000Y-103810760D01*
X170057000Y-105660928D01*
X169862500Y-105660928D01*
X169738018Y-105673188D01*
X169618320Y-105709498D01*
X169545000Y-105748689D01*
X169471680Y-105709498D01*
X169351982Y-105673188D01*
X169227500Y-105660928D01*
X168560750Y-105664000D01*
X168433750Y-105791000D01*
X168116250Y-105791000D01*
X167989250Y-105664000D01*
X167322500Y-105660928D01*
X167198018Y-105673188D01*
X167078320Y-105709498D01*
X167005000Y-105748689D01*
X166931680Y-105709498D01*
X166811982Y-105673188D01*
X166687500Y-105660928D01*
X166622000Y-105660928D01*
X166622000Y-103893595D01*
X166691014Y-103856706D01*
X166917134Y-103671134D01*
X167102706Y-103445014D01*
X167137201Y-103380477D01*
X167206822Y-103497355D01*
X167401731Y-103713588D01*
X167635080Y-103887641D01*
X167897901Y-104012825D01*
X168045110Y-104057476D01*
X168275000Y-103936155D01*
X168275000Y-102743000D01*
X168255000Y-102743000D01*
X168255000Y-102489000D01*
X168275000Y-102489000D01*
X168275000Y-102469000D01*
X168529000Y-102469000D01*
X168529000Y-102489000D01*
G36*
X94771294Y-100651014D02*
G01*
X94956866Y-100877134D01*
X95182986Y-101062706D01*
X95440966Y-101200599D01*
X95720889Y-101285513D01*
X95939050Y-101307000D01*
X96084950Y-101307000D01*
X96303111Y-101285513D01*
X96522000Y-101219113D01*
X96522000Y-101338405D01*
X96452986Y-101375294D01*
X96226866Y-101560866D01*
X96041294Y-101786986D01*
X96006799Y-101851523D01*
X95937178Y-101734645D01*
X95742269Y-101518412D01*
X95508920Y-101344359D01*
X95246099Y-101219175D01*
X95098890Y-101174524D01*
X94869000Y-101295845D01*
X94869000Y-102489000D01*
X94889000Y-102489000D01*
X94889000Y-102743000D01*
X94869000Y-102743000D01*
X94869000Y-103936155D01*
X95098890Y-104057476D01*
X95246099Y-104012825D01*
X95508920Y-103887641D01*
X95742269Y-103713588D01*
X95937178Y-103497355D01*
X96006799Y-103380477D01*
X96041294Y-103445014D01*
X96226866Y-103671134D01*
X96452986Y-103856706D01*
X96522000Y-103893595D01*
X96522000Y-105660928D01*
X96202500Y-105660928D01*
X96078018Y-105673188D01*
X95958320Y-105709498D01*
X95885000Y-105748689D01*
X95811680Y-105709498D01*
X95691982Y-105673188D01*
X95567500Y-105660928D01*
X94900750Y-105664000D01*
X94773750Y-105791000D01*
X94456250Y-105791000D01*
X94329250Y-105664000D01*
X93662500Y-105660928D01*
X93538018Y-105673188D01*
X93418320Y-105709498D01*
X93345000Y-105748689D01*
X93271680Y-105709498D01*
X93151982Y-105673188D01*
X93087000Y-105666788D01*
X93087000Y-104100625D01*
X93176482Y-104091812D01*
X93296180Y-104055502D01*
X93406494Y-103996537D01*
X93503185Y-103917185D01*
X93582537Y-103820494D01*
X93641502Y-103710180D01*
X93665966Y-103629534D01*
X93741731Y-103713588D01*
X93975080Y-103887641D01*
X94237901Y-104012825D01*
X94385110Y-104057476D01*
X94615000Y-103936155D01*
X94615000Y-102743000D01*
X94595000Y-102743000D01*
X94595000Y-102489000D01*
X94615000Y-102489000D01*
X94615000Y-101295845D01*
X94385110Y-101174524D01*
X94237901Y-101219175D01*
X93975080Y-101344359D01*
X93741731Y-101518412D01*
X93665966Y-101602466D01*
X93641502Y-101521820D01*
X93582537Y-101411506D01*
X93503185Y-101314815D01*
X93493662Y-101307000D01*
X93544950Y-101307000D01*
X93763111Y-101285513D01*
X94043034Y-101200599D01*
X94301014Y-101062706D01*
X94527134Y-100877134D01*
X94712706Y-100651014D01*
X94742000Y-100596209D01*
X94771294Y-100651014D01*
X94771294Y-100651014D01*
G37*
X94771294Y-100651014D02*
X94956866Y-100877134D01*
X95182986Y-101062706D01*
X95440966Y-101200599D01*
X95720889Y-101285513D01*
X95939050Y-101307000D01*
X96084950Y-101307000D01*
X96303111Y-101285513D01*
X96522000Y-101219113D01*
X96522000Y-101338405D01*
X96452986Y-101375294D01*
X96226866Y-101560866D01*
X96041294Y-101786986D01*
X96006799Y-101851523D01*
X95937178Y-101734645D01*
X95742269Y-101518412D01*
X95508920Y-101344359D01*
X95246099Y-101219175D01*
X95098890Y-101174524D01*
X94869000Y-101295845D01*
X94869000Y-102489000D01*
X94889000Y-102489000D01*
X94889000Y-102743000D01*
X94869000Y-102743000D01*
X94869000Y-103936155D01*
X95098890Y-104057476D01*
X95246099Y-104012825D01*
X95508920Y-103887641D01*
X95742269Y-103713588D01*
X95937178Y-103497355D01*
X96006799Y-103380477D01*
X96041294Y-103445014D01*
X96226866Y-103671134D01*
X96452986Y-103856706D01*
X96522000Y-103893595D01*
X96522000Y-105660928D01*
X96202500Y-105660928D01*
X96078018Y-105673188D01*
X95958320Y-105709498D01*
X95885000Y-105748689D01*
X95811680Y-105709498D01*
X95691982Y-105673188D01*
X95567500Y-105660928D01*
X94900750Y-105664000D01*
X94773750Y-105791000D01*
X94456250Y-105791000D01*
X94329250Y-105664000D01*
X93662500Y-105660928D01*
X93538018Y-105673188D01*
X93418320Y-105709498D01*
X93345000Y-105748689D01*
X93271680Y-105709498D01*
X93151982Y-105673188D01*
X93087000Y-105666788D01*
X93087000Y-104100625D01*
X93176482Y-104091812D01*
X93296180Y-104055502D01*
X93406494Y-103996537D01*
X93503185Y-103917185D01*
X93582537Y-103820494D01*
X93641502Y-103710180D01*
X93665966Y-103629534D01*
X93741731Y-103713588D01*
X93975080Y-103887641D01*
X94237901Y-104012825D01*
X94385110Y-104057476D01*
X94615000Y-103936155D01*
X94615000Y-102743000D01*
X94595000Y-102743000D01*
X94595000Y-102489000D01*
X94615000Y-102489000D01*
X94615000Y-101295845D01*
X94385110Y-101174524D01*
X94237901Y-101219175D01*
X93975080Y-101344359D01*
X93741731Y-101518412D01*
X93665966Y-101602466D01*
X93641502Y-101521820D01*
X93582537Y-101411506D01*
X93503185Y-101314815D01*
X93493662Y-101307000D01*
X93544950Y-101307000D01*
X93763111Y-101285513D01*
X94043034Y-101200599D01*
X94301014Y-101062706D01*
X94527134Y-100877134D01*
X94712706Y-100651014D01*
X94742000Y-100596209D01*
X94771294Y-100651014D01*
G36*
X170112986Y-101375294D02*
G01*
X169886866Y-101560866D01*
X169701294Y-101786986D01*
X169666799Y-101851523D01*
X169597178Y-101734645D01*
X169402269Y-101518412D01*
X169168920Y-101344359D01*
X169096935Y-101310072D01*
X170235008Y-101310072D01*
X170112986Y-101375294D01*
X170112986Y-101375294D01*
G37*
X170112986Y-101375294D02*
X169886866Y-101560866D01*
X169701294Y-101786986D01*
X169666799Y-101851523D01*
X169597178Y-101734645D01*
X169402269Y-101518412D01*
X169168920Y-101344359D01*
X169096935Y-101310072D01*
X170235008Y-101310072D01*
X170112986Y-101375294D01*
G36*
X127752615Y-57691869D02*
G01*
X127607930Y-57933119D01*
X127513091Y-58197960D01*
X127634376Y-58420000D01*
X128778000Y-58420000D01*
X128778000Y-58400000D01*
X129032000Y-58400000D01*
X129032000Y-58420000D01*
X129052000Y-58420000D01*
X129052000Y-58674000D01*
X129032000Y-58674000D01*
X129032000Y-59816915D01*
X129076071Y-59841128D01*
X127268997Y-61648202D01*
X127239999Y-61672000D01*
X127216201Y-61700998D01*
X127216200Y-61700999D01*
X127145025Y-61787725D01*
X127074453Y-61919755D01*
X127053763Y-61987965D01*
X126784799Y-61719002D01*
X126760997Y-61689999D01*
X126645272Y-61595026D01*
X126513243Y-61524454D01*
X126369982Y-61480997D01*
X126258329Y-61470000D01*
X126258318Y-61470000D01*
X126220996Y-61466324D01*
X126183674Y-61470000D01*
X125881087Y-61470000D01*
X125869812Y-61355518D01*
X125833502Y-61235820D01*
X125774537Y-61125506D01*
X125695185Y-61028815D01*
X125598494Y-60949463D01*
X125488180Y-60890498D01*
X125411923Y-60867366D01*
X125378974Y-60805724D01*
X125284001Y-60689999D01*
X125255004Y-60666202D01*
X123931803Y-59343002D01*
X123908000Y-59313998D01*
X123792275Y-59219025D01*
X123660246Y-59148453D01*
X123516985Y-59104996D01*
X123405332Y-59093999D01*
X123405321Y-59093999D01*
X123367999Y-59090323D01*
X123330677Y-59093999D01*
X105450799Y-59093999D01*
X105252840Y-58896040D01*
X127513091Y-58896040D01*
X127607930Y-59160881D01*
X127752615Y-59402131D01*
X127941586Y-59610519D01*
X128167580Y-59778037D01*
X128421913Y-59898246D01*
X128555961Y-59938904D01*
X128778000Y-59816915D01*
X128778000Y-58674000D01*
X127634376Y-58674000D01*
X127513091Y-58896040D01*
X105252840Y-58896040D01*
X104051674Y-57694875D01*
X104219102Y-57764226D01*
X104419061Y-57804000D01*
X104622939Y-57804000D01*
X104822898Y-57764226D01*
X105011256Y-57686205D01*
X105180774Y-57572937D01*
X105224711Y-57529000D01*
X127900308Y-57529000D01*
X127752615Y-57691869D01*
X127752615Y-57691869D01*
G37*
X127752615Y-57691869D02*
X127607930Y-57933119D01*
X127513091Y-58197960D01*
X127634376Y-58420000D01*
X128778000Y-58420000D01*
X128778000Y-58400000D01*
X129032000Y-58400000D01*
X129032000Y-58420000D01*
X129052000Y-58420000D01*
X129052000Y-58674000D01*
X129032000Y-58674000D01*
X129032000Y-59816915D01*
X129076071Y-59841128D01*
X127268997Y-61648202D01*
X127239999Y-61672000D01*
X127216201Y-61700998D01*
X127216200Y-61700999D01*
X127145025Y-61787725D01*
X127074453Y-61919755D01*
X127053763Y-61987965D01*
X126784799Y-61719002D01*
X126760997Y-61689999D01*
X126645272Y-61595026D01*
X126513243Y-61524454D01*
X126369982Y-61480997D01*
X126258329Y-61470000D01*
X126258318Y-61470000D01*
X126220996Y-61466324D01*
X126183674Y-61470000D01*
X125881087Y-61470000D01*
X125869812Y-61355518D01*
X125833502Y-61235820D01*
X125774537Y-61125506D01*
X125695185Y-61028815D01*
X125598494Y-60949463D01*
X125488180Y-60890498D01*
X125411923Y-60867366D01*
X125378974Y-60805724D01*
X125284001Y-60689999D01*
X125255004Y-60666202D01*
X123931803Y-59343002D01*
X123908000Y-59313998D01*
X123792275Y-59219025D01*
X123660246Y-59148453D01*
X123516985Y-59104996D01*
X123405332Y-59093999D01*
X123405321Y-59093999D01*
X123367999Y-59090323D01*
X123330677Y-59093999D01*
X105450799Y-59093999D01*
X105252840Y-58896040D01*
X127513091Y-58896040D01*
X127607930Y-59160881D01*
X127752615Y-59402131D01*
X127941586Y-59610519D01*
X128167580Y-59778037D01*
X128421913Y-59898246D01*
X128555961Y-59938904D01*
X128778000Y-59816915D01*
X128778000Y-58674000D01*
X127634376Y-58674000D01*
X127513091Y-58896040D01*
X105252840Y-58896040D01*
X104051674Y-57694875D01*
X104219102Y-57764226D01*
X104419061Y-57804000D01*
X104622939Y-57804000D01*
X104822898Y-57764226D01*
X105011256Y-57686205D01*
X105180774Y-57572937D01*
X105224711Y-57529000D01*
X127900308Y-57529000D01*
X127752615Y-57691869D01*
M02*
