G04 #@! TF.GenerationSoftware,KiCad,Pcbnew,(5.1.4)-1*
G04 #@! TF.CreationDate,2020-07-31T00:20:29-03:00*
G04 #@! TF.ProjectId,Cart_FeRAM,43617274-5f46-4655-9241-4d2e6b696361,rev?*
G04 #@! TF.SameCoordinates,Original*
G04 #@! TF.FileFunction,Legend,Bot*
G04 #@! TF.FilePolarity,Positive*
%FSLAX46Y46*%
G04 Gerber Fmt 4.6, Leading zero omitted, Abs format (unit mm)*
G04 Created by KiCad (PCBNEW (5.1.4)-1) date 2020-07-31 00:20:29*
%MOMM*%
%LPD*%
G04 APERTURE LIST*
%ADD10C,0.100000*%
G04 APERTURE END LIST*
D10*
X92575000Y-105145666D02*
X92241666Y-105145666D01*
X92641666Y-105345666D02*
X92408333Y-104645666D01*
X92175000Y-105345666D01*
X91575000Y-105345666D02*
X91975000Y-105345666D01*
X91775000Y-105345666D02*
X91775000Y-104645666D01*
X91841666Y-104745666D01*
X91908333Y-104812333D01*
X91975000Y-104845666D01*
X171648333Y-105145666D02*
X171315000Y-105145666D01*
X171715000Y-105345666D02*
X171481666Y-104645666D01*
X171248333Y-105345666D01*
X171081666Y-104645666D02*
X170648333Y-104645666D01*
X170881666Y-104912333D01*
X170781666Y-104912333D01*
X170715000Y-104945666D01*
X170681666Y-104979000D01*
X170648333Y-105045666D01*
X170648333Y-105212333D01*
X170681666Y-105279000D01*
X170715000Y-105312333D01*
X170781666Y-105345666D01*
X170981666Y-105345666D01*
X171048333Y-105312333D01*
X171081666Y-105279000D01*
X170381666Y-104712333D02*
X170348333Y-104679000D01*
X170281666Y-104645666D01*
X170115000Y-104645666D01*
X170048333Y-104679000D01*
X170015000Y-104712333D01*
X169981666Y-104779000D01*
X169981666Y-104845666D01*
X170015000Y-104945666D01*
X170415000Y-105345666D01*
X169981666Y-105345666D01*
M02*
