G04 #@! TF.GenerationSoftware,KiCad,Pcbnew,(5.1.4)-1*
G04 #@! TF.CreationDate,2020-07-31T00:20:29-03:00*
G04 #@! TF.ProjectId,Cart_FeRAM,43617274-5f46-4655-9241-4d2e6b696361,rev?*
G04 #@! TF.SameCoordinates,Original*
G04 #@! TF.FileFunction,Paste,Top*
G04 #@! TF.FilePolarity,Positive*
%FSLAX46Y46*%
G04 Gerber Fmt 4.6, Leading zero omitted, Abs format (unit mm)*
G04 Created by KiCad (PCBNEW (5.1.4)-1) date 2020-07-31 00:20:29*
%MOMM*%
%LPD*%
G04 APERTURE LIST*
%ADD10C,0.100000*%
%ADD11C,0.600000*%
G04 APERTURE END LIST*
D10*
G36*
X106463703Y-66617722D02*
G01*
X106478264Y-66619882D01*
X106492543Y-66623459D01*
X106506403Y-66628418D01*
X106519710Y-66634712D01*
X106532336Y-66642280D01*
X106544159Y-66651048D01*
X106555066Y-66660934D01*
X106564952Y-66671841D01*
X106573720Y-66683664D01*
X106581288Y-66696290D01*
X106587582Y-66709597D01*
X106592541Y-66723457D01*
X106596118Y-66737736D01*
X106598278Y-66752297D01*
X106599000Y-66767000D01*
X106599000Y-68517000D01*
X106598278Y-68531703D01*
X106596118Y-68546264D01*
X106592541Y-68560543D01*
X106587582Y-68574403D01*
X106581288Y-68587710D01*
X106573720Y-68600336D01*
X106564952Y-68612159D01*
X106555066Y-68623066D01*
X106544159Y-68632952D01*
X106532336Y-68641720D01*
X106519710Y-68649288D01*
X106506403Y-68655582D01*
X106492543Y-68660541D01*
X106478264Y-68664118D01*
X106463703Y-68666278D01*
X106449000Y-68667000D01*
X106149000Y-68667000D01*
X106134297Y-68666278D01*
X106119736Y-68664118D01*
X106105457Y-68660541D01*
X106091597Y-68655582D01*
X106078290Y-68649288D01*
X106065664Y-68641720D01*
X106053841Y-68632952D01*
X106042934Y-68623066D01*
X106033048Y-68612159D01*
X106024280Y-68600336D01*
X106016712Y-68587710D01*
X106010418Y-68574403D01*
X106005459Y-68560543D01*
X106001882Y-68546264D01*
X105999722Y-68531703D01*
X105999000Y-68517000D01*
X105999000Y-66767000D01*
X105999722Y-66752297D01*
X106001882Y-66737736D01*
X106005459Y-66723457D01*
X106010418Y-66709597D01*
X106016712Y-66696290D01*
X106024280Y-66683664D01*
X106033048Y-66671841D01*
X106042934Y-66660934D01*
X106053841Y-66651048D01*
X106065664Y-66642280D01*
X106078290Y-66634712D01*
X106091597Y-66628418D01*
X106105457Y-66623459D01*
X106119736Y-66619882D01*
X106134297Y-66617722D01*
X106149000Y-66617000D01*
X106449000Y-66617000D01*
X106463703Y-66617722D01*
X106463703Y-66617722D01*
G37*
D11*
X106299000Y-67642000D03*
D10*
G36*
X107733703Y-66617722D02*
G01*
X107748264Y-66619882D01*
X107762543Y-66623459D01*
X107776403Y-66628418D01*
X107789710Y-66634712D01*
X107802336Y-66642280D01*
X107814159Y-66651048D01*
X107825066Y-66660934D01*
X107834952Y-66671841D01*
X107843720Y-66683664D01*
X107851288Y-66696290D01*
X107857582Y-66709597D01*
X107862541Y-66723457D01*
X107866118Y-66737736D01*
X107868278Y-66752297D01*
X107869000Y-66767000D01*
X107869000Y-68517000D01*
X107868278Y-68531703D01*
X107866118Y-68546264D01*
X107862541Y-68560543D01*
X107857582Y-68574403D01*
X107851288Y-68587710D01*
X107843720Y-68600336D01*
X107834952Y-68612159D01*
X107825066Y-68623066D01*
X107814159Y-68632952D01*
X107802336Y-68641720D01*
X107789710Y-68649288D01*
X107776403Y-68655582D01*
X107762543Y-68660541D01*
X107748264Y-68664118D01*
X107733703Y-68666278D01*
X107719000Y-68667000D01*
X107419000Y-68667000D01*
X107404297Y-68666278D01*
X107389736Y-68664118D01*
X107375457Y-68660541D01*
X107361597Y-68655582D01*
X107348290Y-68649288D01*
X107335664Y-68641720D01*
X107323841Y-68632952D01*
X107312934Y-68623066D01*
X107303048Y-68612159D01*
X107294280Y-68600336D01*
X107286712Y-68587710D01*
X107280418Y-68574403D01*
X107275459Y-68560543D01*
X107271882Y-68546264D01*
X107269722Y-68531703D01*
X107269000Y-68517000D01*
X107269000Y-66767000D01*
X107269722Y-66752297D01*
X107271882Y-66737736D01*
X107275459Y-66723457D01*
X107280418Y-66709597D01*
X107286712Y-66696290D01*
X107294280Y-66683664D01*
X107303048Y-66671841D01*
X107312934Y-66660934D01*
X107323841Y-66651048D01*
X107335664Y-66642280D01*
X107348290Y-66634712D01*
X107361597Y-66628418D01*
X107375457Y-66623459D01*
X107389736Y-66619882D01*
X107404297Y-66617722D01*
X107419000Y-66617000D01*
X107719000Y-66617000D01*
X107733703Y-66617722D01*
X107733703Y-66617722D01*
G37*
D11*
X107569000Y-67642000D03*
D10*
G36*
X109003703Y-66617722D02*
G01*
X109018264Y-66619882D01*
X109032543Y-66623459D01*
X109046403Y-66628418D01*
X109059710Y-66634712D01*
X109072336Y-66642280D01*
X109084159Y-66651048D01*
X109095066Y-66660934D01*
X109104952Y-66671841D01*
X109113720Y-66683664D01*
X109121288Y-66696290D01*
X109127582Y-66709597D01*
X109132541Y-66723457D01*
X109136118Y-66737736D01*
X109138278Y-66752297D01*
X109139000Y-66767000D01*
X109139000Y-68517000D01*
X109138278Y-68531703D01*
X109136118Y-68546264D01*
X109132541Y-68560543D01*
X109127582Y-68574403D01*
X109121288Y-68587710D01*
X109113720Y-68600336D01*
X109104952Y-68612159D01*
X109095066Y-68623066D01*
X109084159Y-68632952D01*
X109072336Y-68641720D01*
X109059710Y-68649288D01*
X109046403Y-68655582D01*
X109032543Y-68660541D01*
X109018264Y-68664118D01*
X109003703Y-68666278D01*
X108989000Y-68667000D01*
X108689000Y-68667000D01*
X108674297Y-68666278D01*
X108659736Y-68664118D01*
X108645457Y-68660541D01*
X108631597Y-68655582D01*
X108618290Y-68649288D01*
X108605664Y-68641720D01*
X108593841Y-68632952D01*
X108582934Y-68623066D01*
X108573048Y-68612159D01*
X108564280Y-68600336D01*
X108556712Y-68587710D01*
X108550418Y-68574403D01*
X108545459Y-68560543D01*
X108541882Y-68546264D01*
X108539722Y-68531703D01*
X108539000Y-68517000D01*
X108539000Y-66767000D01*
X108539722Y-66752297D01*
X108541882Y-66737736D01*
X108545459Y-66723457D01*
X108550418Y-66709597D01*
X108556712Y-66696290D01*
X108564280Y-66683664D01*
X108573048Y-66671841D01*
X108582934Y-66660934D01*
X108593841Y-66651048D01*
X108605664Y-66642280D01*
X108618290Y-66634712D01*
X108631597Y-66628418D01*
X108645457Y-66623459D01*
X108659736Y-66619882D01*
X108674297Y-66617722D01*
X108689000Y-66617000D01*
X108989000Y-66617000D01*
X109003703Y-66617722D01*
X109003703Y-66617722D01*
G37*
D11*
X108839000Y-67642000D03*
D10*
G36*
X110273703Y-66617722D02*
G01*
X110288264Y-66619882D01*
X110302543Y-66623459D01*
X110316403Y-66628418D01*
X110329710Y-66634712D01*
X110342336Y-66642280D01*
X110354159Y-66651048D01*
X110365066Y-66660934D01*
X110374952Y-66671841D01*
X110383720Y-66683664D01*
X110391288Y-66696290D01*
X110397582Y-66709597D01*
X110402541Y-66723457D01*
X110406118Y-66737736D01*
X110408278Y-66752297D01*
X110409000Y-66767000D01*
X110409000Y-68517000D01*
X110408278Y-68531703D01*
X110406118Y-68546264D01*
X110402541Y-68560543D01*
X110397582Y-68574403D01*
X110391288Y-68587710D01*
X110383720Y-68600336D01*
X110374952Y-68612159D01*
X110365066Y-68623066D01*
X110354159Y-68632952D01*
X110342336Y-68641720D01*
X110329710Y-68649288D01*
X110316403Y-68655582D01*
X110302543Y-68660541D01*
X110288264Y-68664118D01*
X110273703Y-68666278D01*
X110259000Y-68667000D01*
X109959000Y-68667000D01*
X109944297Y-68666278D01*
X109929736Y-68664118D01*
X109915457Y-68660541D01*
X109901597Y-68655582D01*
X109888290Y-68649288D01*
X109875664Y-68641720D01*
X109863841Y-68632952D01*
X109852934Y-68623066D01*
X109843048Y-68612159D01*
X109834280Y-68600336D01*
X109826712Y-68587710D01*
X109820418Y-68574403D01*
X109815459Y-68560543D01*
X109811882Y-68546264D01*
X109809722Y-68531703D01*
X109809000Y-68517000D01*
X109809000Y-66767000D01*
X109809722Y-66752297D01*
X109811882Y-66737736D01*
X109815459Y-66723457D01*
X109820418Y-66709597D01*
X109826712Y-66696290D01*
X109834280Y-66683664D01*
X109843048Y-66671841D01*
X109852934Y-66660934D01*
X109863841Y-66651048D01*
X109875664Y-66642280D01*
X109888290Y-66634712D01*
X109901597Y-66628418D01*
X109915457Y-66623459D01*
X109929736Y-66619882D01*
X109944297Y-66617722D01*
X109959000Y-66617000D01*
X110259000Y-66617000D01*
X110273703Y-66617722D01*
X110273703Y-66617722D01*
G37*
D11*
X110109000Y-67642000D03*
D10*
G36*
X111543703Y-66617722D02*
G01*
X111558264Y-66619882D01*
X111572543Y-66623459D01*
X111586403Y-66628418D01*
X111599710Y-66634712D01*
X111612336Y-66642280D01*
X111624159Y-66651048D01*
X111635066Y-66660934D01*
X111644952Y-66671841D01*
X111653720Y-66683664D01*
X111661288Y-66696290D01*
X111667582Y-66709597D01*
X111672541Y-66723457D01*
X111676118Y-66737736D01*
X111678278Y-66752297D01*
X111679000Y-66767000D01*
X111679000Y-68517000D01*
X111678278Y-68531703D01*
X111676118Y-68546264D01*
X111672541Y-68560543D01*
X111667582Y-68574403D01*
X111661288Y-68587710D01*
X111653720Y-68600336D01*
X111644952Y-68612159D01*
X111635066Y-68623066D01*
X111624159Y-68632952D01*
X111612336Y-68641720D01*
X111599710Y-68649288D01*
X111586403Y-68655582D01*
X111572543Y-68660541D01*
X111558264Y-68664118D01*
X111543703Y-68666278D01*
X111529000Y-68667000D01*
X111229000Y-68667000D01*
X111214297Y-68666278D01*
X111199736Y-68664118D01*
X111185457Y-68660541D01*
X111171597Y-68655582D01*
X111158290Y-68649288D01*
X111145664Y-68641720D01*
X111133841Y-68632952D01*
X111122934Y-68623066D01*
X111113048Y-68612159D01*
X111104280Y-68600336D01*
X111096712Y-68587710D01*
X111090418Y-68574403D01*
X111085459Y-68560543D01*
X111081882Y-68546264D01*
X111079722Y-68531703D01*
X111079000Y-68517000D01*
X111079000Y-66767000D01*
X111079722Y-66752297D01*
X111081882Y-66737736D01*
X111085459Y-66723457D01*
X111090418Y-66709597D01*
X111096712Y-66696290D01*
X111104280Y-66683664D01*
X111113048Y-66671841D01*
X111122934Y-66660934D01*
X111133841Y-66651048D01*
X111145664Y-66642280D01*
X111158290Y-66634712D01*
X111171597Y-66628418D01*
X111185457Y-66623459D01*
X111199736Y-66619882D01*
X111214297Y-66617722D01*
X111229000Y-66617000D01*
X111529000Y-66617000D01*
X111543703Y-66617722D01*
X111543703Y-66617722D01*
G37*
D11*
X111379000Y-67642000D03*
D10*
G36*
X112813703Y-66617722D02*
G01*
X112828264Y-66619882D01*
X112842543Y-66623459D01*
X112856403Y-66628418D01*
X112869710Y-66634712D01*
X112882336Y-66642280D01*
X112894159Y-66651048D01*
X112905066Y-66660934D01*
X112914952Y-66671841D01*
X112923720Y-66683664D01*
X112931288Y-66696290D01*
X112937582Y-66709597D01*
X112942541Y-66723457D01*
X112946118Y-66737736D01*
X112948278Y-66752297D01*
X112949000Y-66767000D01*
X112949000Y-68517000D01*
X112948278Y-68531703D01*
X112946118Y-68546264D01*
X112942541Y-68560543D01*
X112937582Y-68574403D01*
X112931288Y-68587710D01*
X112923720Y-68600336D01*
X112914952Y-68612159D01*
X112905066Y-68623066D01*
X112894159Y-68632952D01*
X112882336Y-68641720D01*
X112869710Y-68649288D01*
X112856403Y-68655582D01*
X112842543Y-68660541D01*
X112828264Y-68664118D01*
X112813703Y-68666278D01*
X112799000Y-68667000D01*
X112499000Y-68667000D01*
X112484297Y-68666278D01*
X112469736Y-68664118D01*
X112455457Y-68660541D01*
X112441597Y-68655582D01*
X112428290Y-68649288D01*
X112415664Y-68641720D01*
X112403841Y-68632952D01*
X112392934Y-68623066D01*
X112383048Y-68612159D01*
X112374280Y-68600336D01*
X112366712Y-68587710D01*
X112360418Y-68574403D01*
X112355459Y-68560543D01*
X112351882Y-68546264D01*
X112349722Y-68531703D01*
X112349000Y-68517000D01*
X112349000Y-66767000D01*
X112349722Y-66752297D01*
X112351882Y-66737736D01*
X112355459Y-66723457D01*
X112360418Y-66709597D01*
X112366712Y-66696290D01*
X112374280Y-66683664D01*
X112383048Y-66671841D01*
X112392934Y-66660934D01*
X112403841Y-66651048D01*
X112415664Y-66642280D01*
X112428290Y-66634712D01*
X112441597Y-66628418D01*
X112455457Y-66623459D01*
X112469736Y-66619882D01*
X112484297Y-66617722D01*
X112499000Y-66617000D01*
X112799000Y-66617000D01*
X112813703Y-66617722D01*
X112813703Y-66617722D01*
G37*
D11*
X112649000Y-67642000D03*
D10*
G36*
X114083703Y-66617722D02*
G01*
X114098264Y-66619882D01*
X114112543Y-66623459D01*
X114126403Y-66628418D01*
X114139710Y-66634712D01*
X114152336Y-66642280D01*
X114164159Y-66651048D01*
X114175066Y-66660934D01*
X114184952Y-66671841D01*
X114193720Y-66683664D01*
X114201288Y-66696290D01*
X114207582Y-66709597D01*
X114212541Y-66723457D01*
X114216118Y-66737736D01*
X114218278Y-66752297D01*
X114219000Y-66767000D01*
X114219000Y-68517000D01*
X114218278Y-68531703D01*
X114216118Y-68546264D01*
X114212541Y-68560543D01*
X114207582Y-68574403D01*
X114201288Y-68587710D01*
X114193720Y-68600336D01*
X114184952Y-68612159D01*
X114175066Y-68623066D01*
X114164159Y-68632952D01*
X114152336Y-68641720D01*
X114139710Y-68649288D01*
X114126403Y-68655582D01*
X114112543Y-68660541D01*
X114098264Y-68664118D01*
X114083703Y-68666278D01*
X114069000Y-68667000D01*
X113769000Y-68667000D01*
X113754297Y-68666278D01*
X113739736Y-68664118D01*
X113725457Y-68660541D01*
X113711597Y-68655582D01*
X113698290Y-68649288D01*
X113685664Y-68641720D01*
X113673841Y-68632952D01*
X113662934Y-68623066D01*
X113653048Y-68612159D01*
X113644280Y-68600336D01*
X113636712Y-68587710D01*
X113630418Y-68574403D01*
X113625459Y-68560543D01*
X113621882Y-68546264D01*
X113619722Y-68531703D01*
X113619000Y-68517000D01*
X113619000Y-66767000D01*
X113619722Y-66752297D01*
X113621882Y-66737736D01*
X113625459Y-66723457D01*
X113630418Y-66709597D01*
X113636712Y-66696290D01*
X113644280Y-66683664D01*
X113653048Y-66671841D01*
X113662934Y-66660934D01*
X113673841Y-66651048D01*
X113685664Y-66642280D01*
X113698290Y-66634712D01*
X113711597Y-66628418D01*
X113725457Y-66623459D01*
X113739736Y-66619882D01*
X113754297Y-66617722D01*
X113769000Y-66617000D01*
X114069000Y-66617000D01*
X114083703Y-66617722D01*
X114083703Y-66617722D01*
G37*
D11*
X113919000Y-67642000D03*
D10*
G36*
X115353703Y-66617722D02*
G01*
X115368264Y-66619882D01*
X115382543Y-66623459D01*
X115396403Y-66628418D01*
X115409710Y-66634712D01*
X115422336Y-66642280D01*
X115434159Y-66651048D01*
X115445066Y-66660934D01*
X115454952Y-66671841D01*
X115463720Y-66683664D01*
X115471288Y-66696290D01*
X115477582Y-66709597D01*
X115482541Y-66723457D01*
X115486118Y-66737736D01*
X115488278Y-66752297D01*
X115489000Y-66767000D01*
X115489000Y-68517000D01*
X115488278Y-68531703D01*
X115486118Y-68546264D01*
X115482541Y-68560543D01*
X115477582Y-68574403D01*
X115471288Y-68587710D01*
X115463720Y-68600336D01*
X115454952Y-68612159D01*
X115445066Y-68623066D01*
X115434159Y-68632952D01*
X115422336Y-68641720D01*
X115409710Y-68649288D01*
X115396403Y-68655582D01*
X115382543Y-68660541D01*
X115368264Y-68664118D01*
X115353703Y-68666278D01*
X115339000Y-68667000D01*
X115039000Y-68667000D01*
X115024297Y-68666278D01*
X115009736Y-68664118D01*
X114995457Y-68660541D01*
X114981597Y-68655582D01*
X114968290Y-68649288D01*
X114955664Y-68641720D01*
X114943841Y-68632952D01*
X114932934Y-68623066D01*
X114923048Y-68612159D01*
X114914280Y-68600336D01*
X114906712Y-68587710D01*
X114900418Y-68574403D01*
X114895459Y-68560543D01*
X114891882Y-68546264D01*
X114889722Y-68531703D01*
X114889000Y-68517000D01*
X114889000Y-66767000D01*
X114889722Y-66752297D01*
X114891882Y-66737736D01*
X114895459Y-66723457D01*
X114900418Y-66709597D01*
X114906712Y-66696290D01*
X114914280Y-66683664D01*
X114923048Y-66671841D01*
X114932934Y-66660934D01*
X114943841Y-66651048D01*
X114955664Y-66642280D01*
X114968290Y-66634712D01*
X114981597Y-66628418D01*
X114995457Y-66623459D01*
X115009736Y-66619882D01*
X115024297Y-66617722D01*
X115039000Y-66617000D01*
X115339000Y-66617000D01*
X115353703Y-66617722D01*
X115353703Y-66617722D01*
G37*
D11*
X115189000Y-67642000D03*
D10*
G36*
X116623703Y-66617722D02*
G01*
X116638264Y-66619882D01*
X116652543Y-66623459D01*
X116666403Y-66628418D01*
X116679710Y-66634712D01*
X116692336Y-66642280D01*
X116704159Y-66651048D01*
X116715066Y-66660934D01*
X116724952Y-66671841D01*
X116733720Y-66683664D01*
X116741288Y-66696290D01*
X116747582Y-66709597D01*
X116752541Y-66723457D01*
X116756118Y-66737736D01*
X116758278Y-66752297D01*
X116759000Y-66767000D01*
X116759000Y-68517000D01*
X116758278Y-68531703D01*
X116756118Y-68546264D01*
X116752541Y-68560543D01*
X116747582Y-68574403D01*
X116741288Y-68587710D01*
X116733720Y-68600336D01*
X116724952Y-68612159D01*
X116715066Y-68623066D01*
X116704159Y-68632952D01*
X116692336Y-68641720D01*
X116679710Y-68649288D01*
X116666403Y-68655582D01*
X116652543Y-68660541D01*
X116638264Y-68664118D01*
X116623703Y-68666278D01*
X116609000Y-68667000D01*
X116309000Y-68667000D01*
X116294297Y-68666278D01*
X116279736Y-68664118D01*
X116265457Y-68660541D01*
X116251597Y-68655582D01*
X116238290Y-68649288D01*
X116225664Y-68641720D01*
X116213841Y-68632952D01*
X116202934Y-68623066D01*
X116193048Y-68612159D01*
X116184280Y-68600336D01*
X116176712Y-68587710D01*
X116170418Y-68574403D01*
X116165459Y-68560543D01*
X116161882Y-68546264D01*
X116159722Y-68531703D01*
X116159000Y-68517000D01*
X116159000Y-66767000D01*
X116159722Y-66752297D01*
X116161882Y-66737736D01*
X116165459Y-66723457D01*
X116170418Y-66709597D01*
X116176712Y-66696290D01*
X116184280Y-66683664D01*
X116193048Y-66671841D01*
X116202934Y-66660934D01*
X116213841Y-66651048D01*
X116225664Y-66642280D01*
X116238290Y-66634712D01*
X116251597Y-66628418D01*
X116265457Y-66623459D01*
X116279736Y-66619882D01*
X116294297Y-66617722D01*
X116309000Y-66617000D01*
X116609000Y-66617000D01*
X116623703Y-66617722D01*
X116623703Y-66617722D01*
G37*
D11*
X116459000Y-67642000D03*
D10*
G36*
X117893703Y-66617722D02*
G01*
X117908264Y-66619882D01*
X117922543Y-66623459D01*
X117936403Y-66628418D01*
X117949710Y-66634712D01*
X117962336Y-66642280D01*
X117974159Y-66651048D01*
X117985066Y-66660934D01*
X117994952Y-66671841D01*
X118003720Y-66683664D01*
X118011288Y-66696290D01*
X118017582Y-66709597D01*
X118022541Y-66723457D01*
X118026118Y-66737736D01*
X118028278Y-66752297D01*
X118029000Y-66767000D01*
X118029000Y-68517000D01*
X118028278Y-68531703D01*
X118026118Y-68546264D01*
X118022541Y-68560543D01*
X118017582Y-68574403D01*
X118011288Y-68587710D01*
X118003720Y-68600336D01*
X117994952Y-68612159D01*
X117985066Y-68623066D01*
X117974159Y-68632952D01*
X117962336Y-68641720D01*
X117949710Y-68649288D01*
X117936403Y-68655582D01*
X117922543Y-68660541D01*
X117908264Y-68664118D01*
X117893703Y-68666278D01*
X117879000Y-68667000D01*
X117579000Y-68667000D01*
X117564297Y-68666278D01*
X117549736Y-68664118D01*
X117535457Y-68660541D01*
X117521597Y-68655582D01*
X117508290Y-68649288D01*
X117495664Y-68641720D01*
X117483841Y-68632952D01*
X117472934Y-68623066D01*
X117463048Y-68612159D01*
X117454280Y-68600336D01*
X117446712Y-68587710D01*
X117440418Y-68574403D01*
X117435459Y-68560543D01*
X117431882Y-68546264D01*
X117429722Y-68531703D01*
X117429000Y-68517000D01*
X117429000Y-66767000D01*
X117429722Y-66752297D01*
X117431882Y-66737736D01*
X117435459Y-66723457D01*
X117440418Y-66709597D01*
X117446712Y-66696290D01*
X117454280Y-66683664D01*
X117463048Y-66671841D01*
X117472934Y-66660934D01*
X117483841Y-66651048D01*
X117495664Y-66642280D01*
X117508290Y-66634712D01*
X117521597Y-66628418D01*
X117535457Y-66623459D01*
X117549736Y-66619882D01*
X117564297Y-66617722D01*
X117579000Y-66617000D01*
X117879000Y-66617000D01*
X117893703Y-66617722D01*
X117893703Y-66617722D01*
G37*
D11*
X117729000Y-67642000D03*
D10*
G36*
X119163703Y-66617722D02*
G01*
X119178264Y-66619882D01*
X119192543Y-66623459D01*
X119206403Y-66628418D01*
X119219710Y-66634712D01*
X119232336Y-66642280D01*
X119244159Y-66651048D01*
X119255066Y-66660934D01*
X119264952Y-66671841D01*
X119273720Y-66683664D01*
X119281288Y-66696290D01*
X119287582Y-66709597D01*
X119292541Y-66723457D01*
X119296118Y-66737736D01*
X119298278Y-66752297D01*
X119299000Y-66767000D01*
X119299000Y-68517000D01*
X119298278Y-68531703D01*
X119296118Y-68546264D01*
X119292541Y-68560543D01*
X119287582Y-68574403D01*
X119281288Y-68587710D01*
X119273720Y-68600336D01*
X119264952Y-68612159D01*
X119255066Y-68623066D01*
X119244159Y-68632952D01*
X119232336Y-68641720D01*
X119219710Y-68649288D01*
X119206403Y-68655582D01*
X119192543Y-68660541D01*
X119178264Y-68664118D01*
X119163703Y-68666278D01*
X119149000Y-68667000D01*
X118849000Y-68667000D01*
X118834297Y-68666278D01*
X118819736Y-68664118D01*
X118805457Y-68660541D01*
X118791597Y-68655582D01*
X118778290Y-68649288D01*
X118765664Y-68641720D01*
X118753841Y-68632952D01*
X118742934Y-68623066D01*
X118733048Y-68612159D01*
X118724280Y-68600336D01*
X118716712Y-68587710D01*
X118710418Y-68574403D01*
X118705459Y-68560543D01*
X118701882Y-68546264D01*
X118699722Y-68531703D01*
X118699000Y-68517000D01*
X118699000Y-66767000D01*
X118699722Y-66752297D01*
X118701882Y-66737736D01*
X118705459Y-66723457D01*
X118710418Y-66709597D01*
X118716712Y-66696290D01*
X118724280Y-66683664D01*
X118733048Y-66671841D01*
X118742934Y-66660934D01*
X118753841Y-66651048D01*
X118765664Y-66642280D01*
X118778290Y-66634712D01*
X118791597Y-66628418D01*
X118805457Y-66623459D01*
X118819736Y-66619882D01*
X118834297Y-66617722D01*
X118849000Y-66617000D01*
X119149000Y-66617000D01*
X119163703Y-66617722D01*
X119163703Y-66617722D01*
G37*
D11*
X118999000Y-67642000D03*
D10*
G36*
X120433703Y-66617722D02*
G01*
X120448264Y-66619882D01*
X120462543Y-66623459D01*
X120476403Y-66628418D01*
X120489710Y-66634712D01*
X120502336Y-66642280D01*
X120514159Y-66651048D01*
X120525066Y-66660934D01*
X120534952Y-66671841D01*
X120543720Y-66683664D01*
X120551288Y-66696290D01*
X120557582Y-66709597D01*
X120562541Y-66723457D01*
X120566118Y-66737736D01*
X120568278Y-66752297D01*
X120569000Y-66767000D01*
X120569000Y-68517000D01*
X120568278Y-68531703D01*
X120566118Y-68546264D01*
X120562541Y-68560543D01*
X120557582Y-68574403D01*
X120551288Y-68587710D01*
X120543720Y-68600336D01*
X120534952Y-68612159D01*
X120525066Y-68623066D01*
X120514159Y-68632952D01*
X120502336Y-68641720D01*
X120489710Y-68649288D01*
X120476403Y-68655582D01*
X120462543Y-68660541D01*
X120448264Y-68664118D01*
X120433703Y-68666278D01*
X120419000Y-68667000D01*
X120119000Y-68667000D01*
X120104297Y-68666278D01*
X120089736Y-68664118D01*
X120075457Y-68660541D01*
X120061597Y-68655582D01*
X120048290Y-68649288D01*
X120035664Y-68641720D01*
X120023841Y-68632952D01*
X120012934Y-68623066D01*
X120003048Y-68612159D01*
X119994280Y-68600336D01*
X119986712Y-68587710D01*
X119980418Y-68574403D01*
X119975459Y-68560543D01*
X119971882Y-68546264D01*
X119969722Y-68531703D01*
X119969000Y-68517000D01*
X119969000Y-66767000D01*
X119969722Y-66752297D01*
X119971882Y-66737736D01*
X119975459Y-66723457D01*
X119980418Y-66709597D01*
X119986712Y-66696290D01*
X119994280Y-66683664D01*
X120003048Y-66671841D01*
X120012934Y-66660934D01*
X120023841Y-66651048D01*
X120035664Y-66642280D01*
X120048290Y-66634712D01*
X120061597Y-66628418D01*
X120075457Y-66623459D01*
X120089736Y-66619882D01*
X120104297Y-66617722D01*
X120119000Y-66617000D01*
X120419000Y-66617000D01*
X120433703Y-66617722D01*
X120433703Y-66617722D01*
G37*
D11*
X120269000Y-67642000D03*
D10*
G36*
X121703703Y-66617722D02*
G01*
X121718264Y-66619882D01*
X121732543Y-66623459D01*
X121746403Y-66628418D01*
X121759710Y-66634712D01*
X121772336Y-66642280D01*
X121784159Y-66651048D01*
X121795066Y-66660934D01*
X121804952Y-66671841D01*
X121813720Y-66683664D01*
X121821288Y-66696290D01*
X121827582Y-66709597D01*
X121832541Y-66723457D01*
X121836118Y-66737736D01*
X121838278Y-66752297D01*
X121839000Y-66767000D01*
X121839000Y-68517000D01*
X121838278Y-68531703D01*
X121836118Y-68546264D01*
X121832541Y-68560543D01*
X121827582Y-68574403D01*
X121821288Y-68587710D01*
X121813720Y-68600336D01*
X121804952Y-68612159D01*
X121795066Y-68623066D01*
X121784159Y-68632952D01*
X121772336Y-68641720D01*
X121759710Y-68649288D01*
X121746403Y-68655582D01*
X121732543Y-68660541D01*
X121718264Y-68664118D01*
X121703703Y-68666278D01*
X121689000Y-68667000D01*
X121389000Y-68667000D01*
X121374297Y-68666278D01*
X121359736Y-68664118D01*
X121345457Y-68660541D01*
X121331597Y-68655582D01*
X121318290Y-68649288D01*
X121305664Y-68641720D01*
X121293841Y-68632952D01*
X121282934Y-68623066D01*
X121273048Y-68612159D01*
X121264280Y-68600336D01*
X121256712Y-68587710D01*
X121250418Y-68574403D01*
X121245459Y-68560543D01*
X121241882Y-68546264D01*
X121239722Y-68531703D01*
X121239000Y-68517000D01*
X121239000Y-66767000D01*
X121239722Y-66752297D01*
X121241882Y-66737736D01*
X121245459Y-66723457D01*
X121250418Y-66709597D01*
X121256712Y-66696290D01*
X121264280Y-66683664D01*
X121273048Y-66671841D01*
X121282934Y-66660934D01*
X121293841Y-66651048D01*
X121305664Y-66642280D01*
X121318290Y-66634712D01*
X121331597Y-66628418D01*
X121345457Y-66623459D01*
X121359736Y-66619882D01*
X121374297Y-66617722D01*
X121389000Y-66617000D01*
X121689000Y-66617000D01*
X121703703Y-66617722D01*
X121703703Y-66617722D01*
G37*
D11*
X121539000Y-67642000D03*
D10*
G36*
X122973703Y-66617722D02*
G01*
X122988264Y-66619882D01*
X123002543Y-66623459D01*
X123016403Y-66628418D01*
X123029710Y-66634712D01*
X123042336Y-66642280D01*
X123054159Y-66651048D01*
X123065066Y-66660934D01*
X123074952Y-66671841D01*
X123083720Y-66683664D01*
X123091288Y-66696290D01*
X123097582Y-66709597D01*
X123102541Y-66723457D01*
X123106118Y-66737736D01*
X123108278Y-66752297D01*
X123109000Y-66767000D01*
X123109000Y-68517000D01*
X123108278Y-68531703D01*
X123106118Y-68546264D01*
X123102541Y-68560543D01*
X123097582Y-68574403D01*
X123091288Y-68587710D01*
X123083720Y-68600336D01*
X123074952Y-68612159D01*
X123065066Y-68623066D01*
X123054159Y-68632952D01*
X123042336Y-68641720D01*
X123029710Y-68649288D01*
X123016403Y-68655582D01*
X123002543Y-68660541D01*
X122988264Y-68664118D01*
X122973703Y-68666278D01*
X122959000Y-68667000D01*
X122659000Y-68667000D01*
X122644297Y-68666278D01*
X122629736Y-68664118D01*
X122615457Y-68660541D01*
X122601597Y-68655582D01*
X122588290Y-68649288D01*
X122575664Y-68641720D01*
X122563841Y-68632952D01*
X122552934Y-68623066D01*
X122543048Y-68612159D01*
X122534280Y-68600336D01*
X122526712Y-68587710D01*
X122520418Y-68574403D01*
X122515459Y-68560543D01*
X122511882Y-68546264D01*
X122509722Y-68531703D01*
X122509000Y-68517000D01*
X122509000Y-66767000D01*
X122509722Y-66752297D01*
X122511882Y-66737736D01*
X122515459Y-66723457D01*
X122520418Y-66709597D01*
X122526712Y-66696290D01*
X122534280Y-66683664D01*
X122543048Y-66671841D01*
X122552934Y-66660934D01*
X122563841Y-66651048D01*
X122575664Y-66642280D01*
X122588290Y-66634712D01*
X122601597Y-66628418D01*
X122615457Y-66623459D01*
X122629736Y-66619882D01*
X122644297Y-66617722D01*
X122659000Y-66617000D01*
X122959000Y-66617000D01*
X122973703Y-66617722D01*
X122973703Y-66617722D01*
G37*
D11*
X122809000Y-67642000D03*
D10*
G36*
X122973703Y-57317722D02*
G01*
X122988264Y-57319882D01*
X123002543Y-57323459D01*
X123016403Y-57328418D01*
X123029710Y-57334712D01*
X123042336Y-57342280D01*
X123054159Y-57351048D01*
X123065066Y-57360934D01*
X123074952Y-57371841D01*
X123083720Y-57383664D01*
X123091288Y-57396290D01*
X123097582Y-57409597D01*
X123102541Y-57423457D01*
X123106118Y-57437736D01*
X123108278Y-57452297D01*
X123109000Y-57467000D01*
X123109000Y-59217000D01*
X123108278Y-59231703D01*
X123106118Y-59246264D01*
X123102541Y-59260543D01*
X123097582Y-59274403D01*
X123091288Y-59287710D01*
X123083720Y-59300336D01*
X123074952Y-59312159D01*
X123065066Y-59323066D01*
X123054159Y-59332952D01*
X123042336Y-59341720D01*
X123029710Y-59349288D01*
X123016403Y-59355582D01*
X123002543Y-59360541D01*
X122988264Y-59364118D01*
X122973703Y-59366278D01*
X122959000Y-59367000D01*
X122659000Y-59367000D01*
X122644297Y-59366278D01*
X122629736Y-59364118D01*
X122615457Y-59360541D01*
X122601597Y-59355582D01*
X122588290Y-59349288D01*
X122575664Y-59341720D01*
X122563841Y-59332952D01*
X122552934Y-59323066D01*
X122543048Y-59312159D01*
X122534280Y-59300336D01*
X122526712Y-59287710D01*
X122520418Y-59274403D01*
X122515459Y-59260543D01*
X122511882Y-59246264D01*
X122509722Y-59231703D01*
X122509000Y-59217000D01*
X122509000Y-57467000D01*
X122509722Y-57452297D01*
X122511882Y-57437736D01*
X122515459Y-57423457D01*
X122520418Y-57409597D01*
X122526712Y-57396290D01*
X122534280Y-57383664D01*
X122543048Y-57371841D01*
X122552934Y-57360934D01*
X122563841Y-57351048D01*
X122575664Y-57342280D01*
X122588290Y-57334712D01*
X122601597Y-57328418D01*
X122615457Y-57323459D01*
X122629736Y-57319882D01*
X122644297Y-57317722D01*
X122659000Y-57317000D01*
X122959000Y-57317000D01*
X122973703Y-57317722D01*
X122973703Y-57317722D01*
G37*
D11*
X122809000Y-58342000D03*
D10*
G36*
X121703703Y-57317722D02*
G01*
X121718264Y-57319882D01*
X121732543Y-57323459D01*
X121746403Y-57328418D01*
X121759710Y-57334712D01*
X121772336Y-57342280D01*
X121784159Y-57351048D01*
X121795066Y-57360934D01*
X121804952Y-57371841D01*
X121813720Y-57383664D01*
X121821288Y-57396290D01*
X121827582Y-57409597D01*
X121832541Y-57423457D01*
X121836118Y-57437736D01*
X121838278Y-57452297D01*
X121839000Y-57467000D01*
X121839000Y-59217000D01*
X121838278Y-59231703D01*
X121836118Y-59246264D01*
X121832541Y-59260543D01*
X121827582Y-59274403D01*
X121821288Y-59287710D01*
X121813720Y-59300336D01*
X121804952Y-59312159D01*
X121795066Y-59323066D01*
X121784159Y-59332952D01*
X121772336Y-59341720D01*
X121759710Y-59349288D01*
X121746403Y-59355582D01*
X121732543Y-59360541D01*
X121718264Y-59364118D01*
X121703703Y-59366278D01*
X121689000Y-59367000D01*
X121389000Y-59367000D01*
X121374297Y-59366278D01*
X121359736Y-59364118D01*
X121345457Y-59360541D01*
X121331597Y-59355582D01*
X121318290Y-59349288D01*
X121305664Y-59341720D01*
X121293841Y-59332952D01*
X121282934Y-59323066D01*
X121273048Y-59312159D01*
X121264280Y-59300336D01*
X121256712Y-59287710D01*
X121250418Y-59274403D01*
X121245459Y-59260543D01*
X121241882Y-59246264D01*
X121239722Y-59231703D01*
X121239000Y-59217000D01*
X121239000Y-57467000D01*
X121239722Y-57452297D01*
X121241882Y-57437736D01*
X121245459Y-57423457D01*
X121250418Y-57409597D01*
X121256712Y-57396290D01*
X121264280Y-57383664D01*
X121273048Y-57371841D01*
X121282934Y-57360934D01*
X121293841Y-57351048D01*
X121305664Y-57342280D01*
X121318290Y-57334712D01*
X121331597Y-57328418D01*
X121345457Y-57323459D01*
X121359736Y-57319882D01*
X121374297Y-57317722D01*
X121389000Y-57317000D01*
X121689000Y-57317000D01*
X121703703Y-57317722D01*
X121703703Y-57317722D01*
G37*
D11*
X121539000Y-58342000D03*
D10*
G36*
X120433703Y-57317722D02*
G01*
X120448264Y-57319882D01*
X120462543Y-57323459D01*
X120476403Y-57328418D01*
X120489710Y-57334712D01*
X120502336Y-57342280D01*
X120514159Y-57351048D01*
X120525066Y-57360934D01*
X120534952Y-57371841D01*
X120543720Y-57383664D01*
X120551288Y-57396290D01*
X120557582Y-57409597D01*
X120562541Y-57423457D01*
X120566118Y-57437736D01*
X120568278Y-57452297D01*
X120569000Y-57467000D01*
X120569000Y-59217000D01*
X120568278Y-59231703D01*
X120566118Y-59246264D01*
X120562541Y-59260543D01*
X120557582Y-59274403D01*
X120551288Y-59287710D01*
X120543720Y-59300336D01*
X120534952Y-59312159D01*
X120525066Y-59323066D01*
X120514159Y-59332952D01*
X120502336Y-59341720D01*
X120489710Y-59349288D01*
X120476403Y-59355582D01*
X120462543Y-59360541D01*
X120448264Y-59364118D01*
X120433703Y-59366278D01*
X120419000Y-59367000D01*
X120119000Y-59367000D01*
X120104297Y-59366278D01*
X120089736Y-59364118D01*
X120075457Y-59360541D01*
X120061597Y-59355582D01*
X120048290Y-59349288D01*
X120035664Y-59341720D01*
X120023841Y-59332952D01*
X120012934Y-59323066D01*
X120003048Y-59312159D01*
X119994280Y-59300336D01*
X119986712Y-59287710D01*
X119980418Y-59274403D01*
X119975459Y-59260543D01*
X119971882Y-59246264D01*
X119969722Y-59231703D01*
X119969000Y-59217000D01*
X119969000Y-57467000D01*
X119969722Y-57452297D01*
X119971882Y-57437736D01*
X119975459Y-57423457D01*
X119980418Y-57409597D01*
X119986712Y-57396290D01*
X119994280Y-57383664D01*
X120003048Y-57371841D01*
X120012934Y-57360934D01*
X120023841Y-57351048D01*
X120035664Y-57342280D01*
X120048290Y-57334712D01*
X120061597Y-57328418D01*
X120075457Y-57323459D01*
X120089736Y-57319882D01*
X120104297Y-57317722D01*
X120119000Y-57317000D01*
X120419000Y-57317000D01*
X120433703Y-57317722D01*
X120433703Y-57317722D01*
G37*
D11*
X120269000Y-58342000D03*
D10*
G36*
X119163703Y-57317722D02*
G01*
X119178264Y-57319882D01*
X119192543Y-57323459D01*
X119206403Y-57328418D01*
X119219710Y-57334712D01*
X119232336Y-57342280D01*
X119244159Y-57351048D01*
X119255066Y-57360934D01*
X119264952Y-57371841D01*
X119273720Y-57383664D01*
X119281288Y-57396290D01*
X119287582Y-57409597D01*
X119292541Y-57423457D01*
X119296118Y-57437736D01*
X119298278Y-57452297D01*
X119299000Y-57467000D01*
X119299000Y-59217000D01*
X119298278Y-59231703D01*
X119296118Y-59246264D01*
X119292541Y-59260543D01*
X119287582Y-59274403D01*
X119281288Y-59287710D01*
X119273720Y-59300336D01*
X119264952Y-59312159D01*
X119255066Y-59323066D01*
X119244159Y-59332952D01*
X119232336Y-59341720D01*
X119219710Y-59349288D01*
X119206403Y-59355582D01*
X119192543Y-59360541D01*
X119178264Y-59364118D01*
X119163703Y-59366278D01*
X119149000Y-59367000D01*
X118849000Y-59367000D01*
X118834297Y-59366278D01*
X118819736Y-59364118D01*
X118805457Y-59360541D01*
X118791597Y-59355582D01*
X118778290Y-59349288D01*
X118765664Y-59341720D01*
X118753841Y-59332952D01*
X118742934Y-59323066D01*
X118733048Y-59312159D01*
X118724280Y-59300336D01*
X118716712Y-59287710D01*
X118710418Y-59274403D01*
X118705459Y-59260543D01*
X118701882Y-59246264D01*
X118699722Y-59231703D01*
X118699000Y-59217000D01*
X118699000Y-57467000D01*
X118699722Y-57452297D01*
X118701882Y-57437736D01*
X118705459Y-57423457D01*
X118710418Y-57409597D01*
X118716712Y-57396290D01*
X118724280Y-57383664D01*
X118733048Y-57371841D01*
X118742934Y-57360934D01*
X118753841Y-57351048D01*
X118765664Y-57342280D01*
X118778290Y-57334712D01*
X118791597Y-57328418D01*
X118805457Y-57323459D01*
X118819736Y-57319882D01*
X118834297Y-57317722D01*
X118849000Y-57317000D01*
X119149000Y-57317000D01*
X119163703Y-57317722D01*
X119163703Y-57317722D01*
G37*
D11*
X118999000Y-58342000D03*
D10*
G36*
X117893703Y-57317722D02*
G01*
X117908264Y-57319882D01*
X117922543Y-57323459D01*
X117936403Y-57328418D01*
X117949710Y-57334712D01*
X117962336Y-57342280D01*
X117974159Y-57351048D01*
X117985066Y-57360934D01*
X117994952Y-57371841D01*
X118003720Y-57383664D01*
X118011288Y-57396290D01*
X118017582Y-57409597D01*
X118022541Y-57423457D01*
X118026118Y-57437736D01*
X118028278Y-57452297D01*
X118029000Y-57467000D01*
X118029000Y-59217000D01*
X118028278Y-59231703D01*
X118026118Y-59246264D01*
X118022541Y-59260543D01*
X118017582Y-59274403D01*
X118011288Y-59287710D01*
X118003720Y-59300336D01*
X117994952Y-59312159D01*
X117985066Y-59323066D01*
X117974159Y-59332952D01*
X117962336Y-59341720D01*
X117949710Y-59349288D01*
X117936403Y-59355582D01*
X117922543Y-59360541D01*
X117908264Y-59364118D01*
X117893703Y-59366278D01*
X117879000Y-59367000D01*
X117579000Y-59367000D01*
X117564297Y-59366278D01*
X117549736Y-59364118D01*
X117535457Y-59360541D01*
X117521597Y-59355582D01*
X117508290Y-59349288D01*
X117495664Y-59341720D01*
X117483841Y-59332952D01*
X117472934Y-59323066D01*
X117463048Y-59312159D01*
X117454280Y-59300336D01*
X117446712Y-59287710D01*
X117440418Y-59274403D01*
X117435459Y-59260543D01*
X117431882Y-59246264D01*
X117429722Y-59231703D01*
X117429000Y-59217000D01*
X117429000Y-57467000D01*
X117429722Y-57452297D01*
X117431882Y-57437736D01*
X117435459Y-57423457D01*
X117440418Y-57409597D01*
X117446712Y-57396290D01*
X117454280Y-57383664D01*
X117463048Y-57371841D01*
X117472934Y-57360934D01*
X117483841Y-57351048D01*
X117495664Y-57342280D01*
X117508290Y-57334712D01*
X117521597Y-57328418D01*
X117535457Y-57323459D01*
X117549736Y-57319882D01*
X117564297Y-57317722D01*
X117579000Y-57317000D01*
X117879000Y-57317000D01*
X117893703Y-57317722D01*
X117893703Y-57317722D01*
G37*
D11*
X117729000Y-58342000D03*
D10*
G36*
X116623703Y-57317722D02*
G01*
X116638264Y-57319882D01*
X116652543Y-57323459D01*
X116666403Y-57328418D01*
X116679710Y-57334712D01*
X116692336Y-57342280D01*
X116704159Y-57351048D01*
X116715066Y-57360934D01*
X116724952Y-57371841D01*
X116733720Y-57383664D01*
X116741288Y-57396290D01*
X116747582Y-57409597D01*
X116752541Y-57423457D01*
X116756118Y-57437736D01*
X116758278Y-57452297D01*
X116759000Y-57467000D01*
X116759000Y-59217000D01*
X116758278Y-59231703D01*
X116756118Y-59246264D01*
X116752541Y-59260543D01*
X116747582Y-59274403D01*
X116741288Y-59287710D01*
X116733720Y-59300336D01*
X116724952Y-59312159D01*
X116715066Y-59323066D01*
X116704159Y-59332952D01*
X116692336Y-59341720D01*
X116679710Y-59349288D01*
X116666403Y-59355582D01*
X116652543Y-59360541D01*
X116638264Y-59364118D01*
X116623703Y-59366278D01*
X116609000Y-59367000D01*
X116309000Y-59367000D01*
X116294297Y-59366278D01*
X116279736Y-59364118D01*
X116265457Y-59360541D01*
X116251597Y-59355582D01*
X116238290Y-59349288D01*
X116225664Y-59341720D01*
X116213841Y-59332952D01*
X116202934Y-59323066D01*
X116193048Y-59312159D01*
X116184280Y-59300336D01*
X116176712Y-59287710D01*
X116170418Y-59274403D01*
X116165459Y-59260543D01*
X116161882Y-59246264D01*
X116159722Y-59231703D01*
X116159000Y-59217000D01*
X116159000Y-57467000D01*
X116159722Y-57452297D01*
X116161882Y-57437736D01*
X116165459Y-57423457D01*
X116170418Y-57409597D01*
X116176712Y-57396290D01*
X116184280Y-57383664D01*
X116193048Y-57371841D01*
X116202934Y-57360934D01*
X116213841Y-57351048D01*
X116225664Y-57342280D01*
X116238290Y-57334712D01*
X116251597Y-57328418D01*
X116265457Y-57323459D01*
X116279736Y-57319882D01*
X116294297Y-57317722D01*
X116309000Y-57317000D01*
X116609000Y-57317000D01*
X116623703Y-57317722D01*
X116623703Y-57317722D01*
G37*
D11*
X116459000Y-58342000D03*
D10*
G36*
X115353703Y-57317722D02*
G01*
X115368264Y-57319882D01*
X115382543Y-57323459D01*
X115396403Y-57328418D01*
X115409710Y-57334712D01*
X115422336Y-57342280D01*
X115434159Y-57351048D01*
X115445066Y-57360934D01*
X115454952Y-57371841D01*
X115463720Y-57383664D01*
X115471288Y-57396290D01*
X115477582Y-57409597D01*
X115482541Y-57423457D01*
X115486118Y-57437736D01*
X115488278Y-57452297D01*
X115489000Y-57467000D01*
X115489000Y-59217000D01*
X115488278Y-59231703D01*
X115486118Y-59246264D01*
X115482541Y-59260543D01*
X115477582Y-59274403D01*
X115471288Y-59287710D01*
X115463720Y-59300336D01*
X115454952Y-59312159D01*
X115445066Y-59323066D01*
X115434159Y-59332952D01*
X115422336Y-59341720D01*
X115409710Y-59349288D01*
X115396403Y-59355582D01*
X115382543Y-59360541D01*
X115368264Y-59364118D01*
X115353703Y-59366278D01*
X115339000Y-59367000D01*
X115039000Y-59367000D01*
X115024297Y-59366278D01*
X115009736Y-59364118D01*
X114995457Y-59360541D01*
X114981597Y-59355582D01*
X114968290Y-59349288D01*
X114955664Y-59341720D01*
X114943841Y-59332952D01*
X114932934Y-59323066D01*
X114923048Y-59312159D01*
X114914280Y-59300336D01*
X114906712Y-59287710D01*
X114900418Y-59274403D01*
X114895459Y-59260543D01*
X114891882Y-59246264D01*
X114889722Y-59231703D01*
X114889000Y-59217000D01*
X114889000Y-57467000D01*
X114889722Y-57452297D01*
X114891882Y-57437736D01*
X114895459Y-57423457D01*
X114900418Y-57409597D01*
X114906712Y-57396290D01*
X114914280Y-57383664D01*
X114923048Y-57371841D01*
X114932934Y-57360934D01*
X114943841Y-57351048D01*
X114955664Y-57342280D01*
X114968290Y-57334712D01*
X114981597Y-57328418D01*
X114995457Y-57323459D01*
X115009736Y-57319882D01*
X115024297Y-57317722D01*
X115039000Y-57317000D01*
X115339000Y-57317000D01*
X115353703Y-57317722D01*
X115353703Y-57317722D01*
G37*
D11*
X115189000Y-58342000D03*
D10*
G36*
X114083703Y-57317722D02*
G01*
X114098264Y-57319882D01*
X114112543Y-57323459D01*
X114126403Y-57328418D01*
X114139710Y-57334712D01*
X114152336Y-57342280D01*
X114164159Y-57351048D01*
X114175066Y-57360934D01*
X114184952Y-57371841D01*
X114193720Y-57383664D01*
X114201288Y-57396290D01*
X114207582Y-57409597D01*
X114212541Y-57423457D01*
X114216118Y-57437736D01*
X114218278Y-57452297D01*
X114219000Y-57467000D01*
X114219000Y-59217000D01*
X114218278Y-59231703D01*
X114216118Y-59246264D01*
X114212541Y-59260543D01*
X114207582Y-59274403D01*
X114201288Y-59287710D01*
X114193720Y-59300336D01*
X114184952Y-59312159D01*
X114175066Y-59323066D01*
X114164159Y-59332952D01*
X114152336Y-59341720D01*
X114139710Y-59349288D01*
X114126403Y-59355582D01*
X114112543Y-59360541D01*
X114098264Y-59364118D01*
X114083703Y-59366278D01*
X114069000Y-59367000D01*
X113769000Y-59367000D01*
X113754297Y-59366278D01*
X113739736Y-59364118D01*
X113725457Y-59360541D01*
X113711597Y-59355582D01*
X113698290Y-59349288D01*
X113685664Y-59341720D01*
X113673841Y-59332952D01*
X113662934Y-59323066D01*
X113653048Y-59312159D01*
X113644280Y-59300336D01*
X113636712Y-59287710D01*
X113630418Y-59274403D01*
X113625459Y-59260543D01*
X113621882Y-59246264D01*
X113619722Y-59231703D01*
X113619000Y-59217000D01*
X113619000Y-57467000D01*
X113619722Y-57452297D01*
X113621882Y-57437736D01*
X113625459Y-57423457D01*
X113630418Y-57409597D01*
X113636712Y-57396290D01*
X113644280Y-57383664D01*
X113653048Y-57371841D01*
X113662934Y-57360934D01*
X113673841Y-57351048D01*
X113685664Y-57342280D01*
X113698290Y-57334712D01*
X113711597Y-57328418D01*
X113725457Y-57323459D01*
X113739736Y-57319882D01*
X113754297Y-57317722D01*
X113769000Y-57317000D01*
X114069000Y-57317000D01*
X114083703Y-57317722D01*
X114083703Y-57317722D01*
G37*
D11*
X113919000Y-58342000D03*
D10*
G36*
X112813703Y-57317722D02*
G01*
X112828264Y-57319882D01*
X112842543Y-57323459D01*
X112856403Y-57328418D01*
X112869710Y-57334712D01*
X112882336Y-57342280D01*
X112894159Y-57351048D01*
X112905066Y-57360934D01*
X112914952Y-57371841D01*
X112923720Y-57383664D01*
X112931288Y-57396290D01*
X112937582Y-57409597D01*
X112942541Y-57423457D01*
X112946118Y-57437736D01*
X112948278Y-57452297D01*
X112949000Y-57467000D01*
X112949000Y-59217000D01*
X112948278Y-59231703D01*
X112946118Y-59246264D01*
X112942541Y-59260543D01*
X112937582Y-59274403D01*
X112931288Y-59287710D01*
X112923720Y-59300336D01*
X112914952Y-59312159D01*
X112905066Y-59323066D01*
X112894159Y-59332952D01*
X112882336Y-59341720D01*
X112869710Y-59349288D01*
X112856403Y-59355582D01*
X112842543Y-59360541D01*
X112828264Y-59364118D01*
X112813703Y-59366278D01*
X112799000Y-59367000D01*
X112499000Y-59367000D01*
X112484297Y-59366278D01*
X112469736Y-59364118D01*
X112455457Y-59360541D01*
X112441597Y-59355582D01*
X112428290Y-59349288D01*
X112415664Y-59341720D01*
X112403841Y-59332952D01*
X112392934Y-59323066D01*
X112383048Y-59312159D01*
X112374280Y-59300336D01*
X112366712Y-59287710D01*
X112360418Y-59274403D01*
X112355459Y-59260543D01*
X112351882Y-59246264D01*
X112349722Y-59231703D01*
X112349000Y-59217000D01*
X112349000Y-57467000D01*
X112349722Y-57452297D01*
X112351882Y-57437736D01*
X112355459Y-57423457D01*
X112360418Y-57409597D01*
X112366712Y-57396290D01*
X112374280Y-57383664D01*
X112383048Y-57371841D01*
X112392934Y-57360934D01*
X112403841Y-57351048D01*
X112415664Y-57342280D01*
X112428290Y-57334712D01*
X112441597Y-57328418D01*
X112455457Y-57323459D01*
X112469736Y-57319882D01*
X112484297Y-57317722D01*
X112499000Y-57317000D01*
X112799000Y-57317000D01*
X112813703Y-57317722D01*
X112813703Y-57317722D01*
G37*
D11*
X112649000Y-58342000D03*
D10*
G36*
X111543703Y-57317722D02*
G01*
X111558264Y-57319882D01*
X111572543Y-57323459D01*
X111586403Y-57328418D01*
X111599710Y-57334712D01*
X111612336Y-57342280D01*
X111624159Y-57351048D01*
X111635066Y-57360934D01*
X111644952Y-57371841D01*
X111653720Y-57383664D01*
X111661288Y-57396290D01*
X111667582Y-57409597D01*
X111672541Y-57423457D01*
X111676118Y-57437736D01*
X111678278Y-57452297D01*
X111679000Y-57467000D01*
X111679000Y-59217000D01*
X111678278Y-59231703D01*
X111676118Y-59246264D01*
X111672541Y-59260543D01*
X111667582Y-59274403D01*
X111661288Y-59287710D01*
X111653720Y-59300336D01*
X111644952Y-59312159D01*
X111635066Y-59323066D01*
X111624159Y-59332952D01*
X111612336Y-59341720D01*
X111599710Y-59349288D01*
X111586403Y-59355582D01*
X111572543Y-59360541D01*
X111558264Y-59364118D01*
X111543703Y-59366278D01*
X111529000Y-59367000D01*
X111229000Y-59367000D01*
X111214297Y-59366278D01*
X111199736Y-59364118D01*
X111185457Y-59360541D01*
X111171597Y-59355582D01*
X111158290Y-59349288D01*
X111145664Y-59341720D01*
X111133841Y-59332952D01*
X111122934Y-59323066D01*
X111113048Y-59312159D01*
X111104280Y-59300336D01*
X111096712Y-59287710D01*
X111090418Y-59274403D01*
X111085459Y-59260543D01*
X111081882Y-59246264D01*
X111079722Y-59231703D01*
X111079000Y-59217000D01*
X111079000Y-57467000D01*
X111079722Y-57452297D01*
X111081882Y-57437736D01*
X111085459Y-57423457D01*
X111090418Y-57409597D01*
X111096712Y-57396290D01*
X111104280Y-57383664D01*
X111113048Y-57371841D01*
X111122934Y-57360934D01*
X111133841Y-57351048D01*
X111145664Y-57342280D01*
X111158290Y-57334712D01*
X111171597Y-57328418D01*
X111185457Y-57323459D01*
X111199736Y-57319882D01*
X111214297Y-57317722D01*
X111229000Y-57317000D01*
X111529000Y-57317000D01*
X111543703Y-57317722D01*
X111543703Y-57317722D01*
G37*
D11*
X111379000Y-58342000D03*
D10*
G36*
X110273703Y-57317722D02*
G01*
X110288264Y-57319882D01*
X110302543Y-57323459D01*
X110316403Y-57328418D01*
X110329710Y-57334712D01*
X110342336Y-57342280D01*
X110354159Y-57351048D01*
X110365066Y-57360934D01*
X110374952Y-57371841D01*
X110383720Y-57383664D01*
X110391288Y-57396290D01*
X110397582Y-57409597D01*
X110402541Y-57423457D01*
X110406118Y-57437736D01*
X110408278Y-57452297D01*
X110409000Y-57467000D01*
X110409000Y-59217000D01*
X110408278Y-59231703D01*
X110406118Y-59246264D01*
X110402541Y-59260543D01*
X110397582Y-59274403D01*
X110391288Y-59287710D01*
X110383720Y-59300336D01*
X110374952Y-59312159D01*
X110365066Y-59323066D01*
X110354159Y-59332952D01*
X110342336Y-59341720D01*
X110329710Y-59349288D01*
X110316403Y-59355582D01*
X110302543Y-59360541D01*
X110288264Y-59364118D01*
X110273703Y-59366278D01*
X110259000Y-59367000D01*
X109959000Y-59367000D01*
X109944297Y-59366278D01*
X109929736Y-59364118D01*
X109915457Y-59360541D01*
X109901597Y-59355582D01*
X109888290Y-59349288D01*
X109875664Y-59341720D01*
X109863841Y-59332952D01*
X109852934Y-59323066D01*
X109843048Y-59312159D01*
X109834280Y-59300336D01*
X109826712Y-59287710D01*
X109820418Y-59274403D01*
X109815459Y-59260543D01*
X109811882Y-59246264D01*
X109809722Y-59231703D01*
X109809000Y-59217000D01*
X109809000Y-57467000D01*
X109809722Y-57452297D01*
X109811882Y-57437736D01*
X109815459Y-57423457D01*
X109820418Y-57409597D01*
X109826712Y-57396290D01*
X109834280Y-57383664D01*
X109843048Y-57371841D01*
X109852934Y-57360934D01*
X109863841Y-57351048D01*
X109875664Y-57342280D01*
X109888290Y-57334712D01*
X109901597Y-57328418D01*
X109915457Y-57323459D01*
X109929736Y-57319882D01*
X109944297Y-57317722D01*
X109959000Y-57317000D01*
X110259000Y-57317000D01*
X110273703Y-57317722D01*
X110273703Y-57317722D01*
G37*
D11*
X110109000Y-58342000D03*
D10*
G36*
X109003703Y-57317722D02*
G01*
X109018264Y-57319882D01*
X109032543Y-57323459D01*
X109046403Y-57328418D01*
X109059710Y-57334712D01*
X109072336Y-57342280D01*
X109084159Y-57351048D01*
X109095066Y-57360934D01*
X109104952Y-57371841D01*
X109113720Y-57383664D01*
X109121288Y-57396290D01*
X109127582Y-57409597D01*
X109132541Y-57423457D01*
X109136118Y-57437736D01*
X109138278Y-57452297D01*
X109139000Y-57467000D01*
X109139000Y-59217000D01*
X109138278Y-59231703D01*
X109136118Y-59246264D01*
X109132541Y-59260543D01*
X109127582Y-59274403D01*
X109121288Y-59287710D01*
X109113720Y-59300336D01*
X109104952Y-59312159D01*
X109095066Y-59323066D01*
X109084159Y-59332952D01*
X109072336Y-59341720D01*
X109059710Y-59349288D01*
X109046403Y-59355582D01*
X109032543Y-59360541D01*
X109018264Y-59364118D01*
X109003703Y-59366278D01*
X108989000Y-59367000D01*
X108689000Y-59367000D01*
X108674297Y-59366278D01*
X108659736Y-59364118D01*
X108645457Y-59360541D01*
X108631597Y-59355582D01*
X108618290Y-59349288D01*
X108605664Y-59341720D01*
X108593841Y-59332952D01*
X108582934Y-59323066D01*
X108573048Y-59312159D01*
X108564280Y-59300336D01*
X108556712Y-59287710D01*
X108550418Y-59274403D01*
X108545459Y-59260543D01*
X108541882Y-59246264D01*
X108539722Y-59231703D01*
X108539000Y-59217000D01*
X108539000Y-57467000D01*
X108539722Y-57452297D01*
X108541882Y-57437736D01*
X108545459Y-57423457D01*
X108550418Y-57409597D01*
X108556712Y-57396290D01*
X108564280Y-57383664D01*
X108573048Y-57371841D01*
X108582934Y-57360934D01*
X108593841Y-57351048D01*
X108605664Y-57342280D01*
X108618290Y-57334712D01*
X108631597Y-57328418D01*
X108645457Y-57323459D01*
X108659736Y-57319882D01*
X108674297Y-57317722D01*
X108689000Y-57317000D01*
X108989000Y-57317000D01*
X109003703Y-57317722D01*
X109003703Y-57317722D01*
G37*
D11*
X108839000Y-58342000D03*
D10*
G36*
X107733703Y-57317722D02*
G01*
X107748264Y-57319882D01*
X107762543Y-57323459D01*
X107776403Y-57328418D01*
X107789710Y-57334712D01*
X107802336Y-57342280D01*
X107814159Y-57351048D01*
X107825066Y-57360934D01*
X107834952Y-57371841D01*
X107843720Y-57383664D01*
X107851288Y-57396290D01*
X107857582Y-57409597D01*
X107862541Y-57423457D01*
X107866118Y-57437736D01*
X107868278Y-57452297D01*
X107869000Y-57467000D01*
X107869000Y-59217000D01*
X107868278Y-59231703D01*
X107866118Y-59246264D01*
X107862541Y-59260543D01*
X107857582Y-59274403D01*
X107851288Y-59287710D01*
X107843720Y-59300336D01*
X107834952Y-59312159D01*
X107825066Y-59323066D01*
X107814159Y-59332952D01*
X107802336Y-59341720D01*
X107789710Y-59349288D01*
X107776403Y-59355582D01*
X107762543Y-59360541D01*
X107748264Y-59364118D01*
X107733703Y-59366278D01*
X107719000Y-59367000D01*
X107419000Y-59367000D01*
X107404297Y-59366278D01*
X107389736Y-59364118D01*
X107375457Y-59360541D01*
X107361597Y-59355582D01*
X107348290Y-59349288D01*
X107335664Y-59341720D01*
X107323841Y-59332952D01*
X107312934Y-59323066D01*
X107303048Y-59312159D01*
X107294280Y-59300336D01*
X107286712Y-59287710D01*
X107280418Y-59274403D01*
X107275459Y-59260543D01*
X107271882Y-59246264D01*
X107269722Y-59231703D01*
X107269000Y-59217000D01*
X107269000Y-57467000D01*
X107269722Y-57452297D01*
X107271882Y-57437736D01*
X107275459Y-57423457D01*
X107280418Y-57409597D01*
X107286712Y-57396290D01*
X107294280Y-57383664D01*
X107303048Y-57371841D01*
X107312934Y-57360934D01*
X107323841Y-57351048D01*
X107335664Y-57342280D01*
X107348290Y-57334712D01*
X107361597Y-57328418D01*
X107375457Y-57323459D01*
X107389736Y-57319882D01*
X107404297Y-57317722D01*
X107419000Y-57317000D01*
X107719000Y-57317000D01*
X107733703Y-57317722D01*
X107733703Y-57317722D01*
G37*
D11*
X107569000Y-58342000D03*
D10*
G36*
X106463703Y-57317722D02*
G01*
X106478264Y-57319882D01*
X106492543Y-57323459D01*
X106506403Y-57328418D01*
X106519710Y-57334712D01*
X106532336Y-57342280D01*
X106544159Y-57351048D01*
X106555066Y-57360934D01*
X106564952Y-57371841D01*
X106573720Y-57383664D01*
X106581288Y-57396290D01*
X106587582Y-57409597D01*
X106592541Y-57423457D01*
X106596118Y-57437736D01*
X106598278Y-57452297D01*
X106599000Y-57467000D01*
X106599000Y-59217000D01*
X106598278Y-59231703D01*
X106596118Y-59246264D01*
X106592541Y-59260543D01*
X106587582Y-59274403D01*
X106581288Y-59287710D01*
X106573720Y-59300336D01*
X106564952Y-59312159D01*
X106555066Y-59323066D01*
X106544159Y-59332952D01*
X106532336Y-59341720D01*
X106519710Y-59349288D01*
X106506403Y-59355582D01*
X106492543Y-59360541D01*
X106478264Y-59364118D01*
X106463703Y-59366278D01*
X106449000Y-59367000D01*
X106149000Y-59367000D01*
X106134297Y-59366278D01*
X106119736Y-59364118D01*
X106105457Y-59360541D01*
X106091597Y-59355582D01*
X106078290Y-59349288D01*
X106065664Y-59341720D01*
X106053841Y-59332952D01*
X106042934Y-59323066D01*
X106033048Y-59312159D01*
X106024280Y-59300336D01*
X106016712Y-59287710D01*
X106010418Y-59274403D01*
X106005459Y-59260543D01*
X106001882Y-59246264D01*
X105999722Y-59231703D01*
X105999000Y-59217000D01*
X105999000Y-57467000D01*
X105999722Y-57452297D01*
X106001882Y-57437736D01*
X106005459Y-57423457D01*
X106010418Y-57409597D01*
X106016712Y-57396290D01*
X106024280Y-57383664D01*
X106033048Y-57371841D01*
X106042934Y-57360934D01*
X106053841Y-57351048D01*
X106065664Y-57342280D01*
X106078290Y-57334712D01*
X106091597Y-57328418D01*
X106105457Y-57323459D01*
X106119736Y-57319882D01*
X106134297Y-57317722D01*
X106149000Y-57317000D01*
X106449000Y-57317000D01*
X106463703Y-57317722D01*
X106463703Y-57317722D01*
G37*
D11*
X106299000Y-58342000D03*
M02*
